<svg xmlns="http://www.w3.org/2000/svg" width="913.971" height="1273.003" viewBox="0 0 913.971 1273.003">
  <g id="Group_530" data-name="Group 530" transform="translate(164.354 -306.891)">
    <g id="Group_528" data-name="Group 528" transform="translate(-65 5.433)">
      <g id="Group_527" data-name="Group 527">
        <g id="Group_391" data-name="Group 391" transform="translate(0 -11060)">
          <g id="Group_390" data-name="Group 390">
            <g id="Group_389" data-name="Group 389">
              <g id="Group_388" data-name="Group 388">
                <g id="Group_387" data-name="Group 387">
                  <path id="Path_467" data-name="Path 467" d="M499.23,11585.651l17.813-1.779a200.825,200.825,0,0,0,1.112-20.6l-17.514-3.681a182.118,182.118,0,0,0-3.153-31.039l16.306-7.185a202.339,202.339,0,0,0-5.349-19.918l-17.715,1.918A183.368,183.368,0,0,0,478,11474.881l13.353-11.918a203.726,203.726,0,0,0-11.211-17.325l-16.343,7.353a182.745,182.745,0,0,0-20.811-23.23l8.993-15.39a193.685,193.685,0,0,0-16.015-13.035l-13.2,11.954a181.169,181.169,0,0,0-27.048-15.561l3.805-17.507a198.169,198.169,0,0,0-19.242-7.4l-8.914,15.518a188.491,188.491,0,0,0-23.84-5.55c-2.237-.371-4.447-.623-6.666-.909l-1.781-17.825c-6.912-.707-13.779-1.086-20.591-1.1l-3.676,17.51a180.738,180.738,0,0,0-31.048,3.162l-7.177-16.311a198.878,198.878,0,0,0-19.927,5.34l1.935,17.722a183.615,183.615,0,0,0-28.505,12.722l-11.914-13.359a204.652,204.652,0,0,0-17.307,11.245l7.335,16.322a182.643,182.643,0,0,0-23.232,20.813l-15.409-8.99a200.578,200.578,0,0,0-13,16.01l11.953,13.206a181.808,181.808,0,0,0-15.586,27.037l-17.5-3.787a195.556,195.556,0,0,0-7.407,19.249l15.559,8.907A183.445,183.445,0,0,0,138,11533.59c-.354,2.221-.625,4.435-.911,6.658l-17.809,1.775a194.9,194.9,0,0,0-1.109,20.6l17.51,3.664a181.559,181.559,0,0,0,3.167,31.052l-16.3,7.182a200.781,200.781,0,0,0,5.318,19.922l17.742-1.911a180.483,180.483,0,0,0,12.725,28.475l-13.366,11.934c3.458,5.935,7.2,11.743,11.21,17.292l16.354-7.32a180.976,180.976,0,0,0,20.806,23.231l-8.984,15.4a204.689,204.689,0,0,0,16.006,13.022l13.206-11.989a180.034,180.034,0,0,0,27.035,15.6l-3.791,17.506a204.155,204.155,0,0,0,19.242,7.407l8.913-15.558a183.62,183.62,0,0,0,23.84,5.578c2.23.346,4.444.616,6.656.909l1.788,17.817c6.913.708,13.784,1.095,20.606,1.119l3.667-17.535a180.3,180.3,0,0,0,31.046-3.162l7.172,16.3a195.836,195.836,0,0,0,19.919-5.309l-1.9-17.742a184.25,184.25,0,0,0,28.479-12.718l11.912,13.362a200.2,200.2,0,0,0,17.31-11.25l-7.326-16.317a184.742,184.742,0,0,0,23.246-20.815l15.387,8.972a201.746,201.746,0,0,0,13.013-15.963l-11.96-13.232a181,181,0,0,0,15.578-27.045l17.507,3.789a197.849,197.849,0,0,0,7.395-19.229l-15.555-8.918a181.538,181.538,0,0,0,5.586-23.863C498.685,11590.089,498.951,11587.875,499.23,11585.651Z" fill="#002a28" stroke="#fff" stroke-linecap="round" stroke-linejoin="round" stroke-width="3"/>
                </g>
              </g>
            </g>
          </g>
        </g>
        <g id="Group_395" data-name="Group 395" transform="translate(0 -11060)">
          <text id="การคืนสิทธิให้แก่ผู้ที่เคยได้รับสิทธิ_แต่ถูกตัดสิทธิจาก_พ.ร.บ._หลักประกันสุขภาพแห่งชาติ_ปี_2545" data-name="การคืนสิทธิให้แก่ผู้ที่เคยได้รับสิทธิ
แต่ถูกตัดสิทธิจาก พ.ร.บ.
หลักประกันสุขภาพแห่งชาติ 
ปี 2545" transform="translate(318.162 11569.037)" fill="#fff" font-size="23" font-family="IBMPlexThai, IBM Plex Thai"><tspan x="-154.48" y="0">การคืนสิทธิให้แก่ผู้ที่เคยได้รับสิทธิ</tspan><tspan x="-115.356" y="33">แต่ถูกตัดสิทธิจาก พ.ร.บ.</tspan><tspan x="-128.317" y="66">หลักประกันสุขภาพแห่งชาติ </tspan><tspan x="-37.398" y="99">ปี 2545</tspan></text>
          <g id="Group_394" data-name="Group 394">
            <g id="Group_393" data-name="Group 393">
              <g id="Group_392" data-name="Group 392">
                <path id="Path_468" data-name="Path 468" d="M278.412,11477.522v29.107H290.4v-29.107Z" fill="none" stroke="#fdb913" stroke-linecap="round" stroke-linejoin="round" stroke-width="3"/>
                <path id="Path_469" data-name="Path 469" d="M290.4,11481.231h19.691s13.84,13.555,15.7,15.41,1.285,5.279,0,6.564-5.707,2-7.706,0-11.129-11.13-11.129-11.13" fill="none" stroke="#fdb913" stroke-linecap="round" stroke-linejoin="round" stroke-width="3"/>
                <path id="Path_470" data-name="Path 470" d="M325.785,11503.206h17.409s6.277.858,6.277,6.563-5.849,5.851-5.849,5.851H314.084l-20.19-20.19h-3.5" fill="none" stroke="#fdb913" stroke-linecap="round" stroke-linejoin="round" stroke-width="3"/>
              </g>
            </g>
            <path id="Path_471" data-name="Path 471" d="M357.912,11459.838H343.694v-14.218h-13.8v14.218H315.676v13.8h14.218v14.219h13.8v-14.219h14.218Z" fill="none" stroke="#fdb913" stroke-linecap="round" stroke-linejoin="round" stroke-width="3"/>
          </g>
        </g>
      </g>
    </g>
    <g id="Group_523" data-name="Group 523" transform="translate(-1464.7 694)">
      <g id="Group_369" data-name="Group 369" transform="translate(0 -11060)">
        <g id="Group_368" data-name="Group 368">
          <g id="Group_367" data-name="Group 367">
            <g id="Group_366" data-name="Group 366">
              <g id="Group_365" data-name="Group 365">
                <g id="Group_364" data-name="Group 364">
                  <path id="Path_463" data-name="Path 463" d="M1778.175,11722.759l22.266-2.225a250.348,250.348,0,0,0,1.39-25.752l-21.893-4.6a227.594,227.594,0,0,0-3.941-38.8l20.382-8.979a252.887,252.887,0,0,0-6.685-24.9l-22.145,2.4a229.176,229.176,0,0,0-15.913-35.608l16.693-14.9a255.484,255.484,0,0,0-14.015-21.657l-20.429,9.191a228.255,228.255,0,0,0-26.014-29.039l11.241-19.236a242.11,242.11,0,0,0-20.019-16.295l-16.5,14.943a226.44,226.44,0,0,0-33.809-19.452l4.755-21.883a247.569,247.569,0,0,0-24.051-9.247l-11.144,19.4a235.481,235.481,0,0,0-29.8-6.937c-2.8-.464-5.559-.779-8.332-1.136l-2.228-22.282q-12.96-1.327-25.738-1.375l-4.6,21.887a225.838,225.838,0,0,0-38.811,3.954l-8.971-20.389a249.1,249.1,0,0,0-24.909,6.674l2.419,22.152a229.546,229.546,0,0,0-35.631,15.9l-14.893-16.7a255.911,255.911,0,0,0-21.634,14.057l9.169,20.4a228.333,228.333,0,0,0-29.04,26.017l-19.262-11.238a251.015,251.015,0,0,0-16.247,20.013l14.942,16.508a227.351,227.351,0,0,0-19.482,33.8l-21.87-4.735a244.867,244.867,0,0,0-9.26,24.062l19.451,11.135a229.119,229.119,0,0,0-6.986,29.793c-.442,2.776-.781,5.544-1.138,8.323l-22.261,2.219a243.32,243.32,0,0,0-1.387,25.751l21.888,4.58a226.8,226.8,0,0,0,3.958,38.815l-20.38,8.976a251.032,251.032,0,0,0,6.648,24.9l22.177-2.39a225.559,225.559,0,0,0,15.906,35.594l-16.707,14.915c4.323,7.42,9,14.681,14.012,21.617l20.443-9.149a226.273,226.273,0,0,0,26.007,29.038l-11.229,19.252a255.583,255.583,0,0,0,20.007,16.277l16.508-14.985a224.961,224.961,0,0,0,33.793,19.5l-4.739,21.883a255.481,255.481,0,0,0,24.053,9.259l11.143-19.446a229.375,229.375,0,0,0,29.8,6.972c2.786.434,5.554.771,8.321,1.136l2.234,22.272c8.641.886,17.23,1.369,25.758,1.4l4.583-21.919a225.435,225.435,0,0,0,38.808-3.952l8.964,20.38a244.769,244.769,0,0,0,24.9-6.635l-2.381-22.179a230.253,230.253,0,0,0,35.6-15.9l14.889,16.7a249.935,249.935,0,0,0,21.638-14.062l-9.157-20.4a230.963,230.963,0,0,0,29.057-26.02l19.234,11.215a252.672,252.672,0,0,0,16.267-19.954l-14.951-16.54a226.226,226.226,0,0,0,19.473-33.807l21.884,4.736a246.926,246.926,0,0,0,9.243-24.037l-19.444-11.147a226.624,226.624,0,0,0,6.983-29.829C1777.494,11728.306,1777.826,11725.538,1778.175,11722.759Z" fill="#002a28" stroke="#fff" stroke-linecap="round" stroke-linejoin="round" stroke-width="3"/>
                </g>
              </g>
            </g>
          </g>
        </g>
      </g>
      <text id="ข้อตกลงระหว่างประเทศ_ว่าด้วยการให้สิทธิขั้นพื้นฐานด้านสาธารณสุข_กับบุคคลที่มีปัญหาสถานะและสิทธิ_ได้แก่_ปฏิญญาสากลว่าด้วยสิทธิมนุษยชน_อนุสัญญาการขจัดการเลือกปฏิบัติ_ทางเชื้อชาติ_อนุสัญญาว่าด้วย_สิทธิเด็ก_เป็นต้น" data-name="ข้อตกลงระหว่างประเทศ
ว่าด้วยการให้สิทธิขั้นพื้นฐานด้านสาธารณสุข
กับบุคคลที่มีปัญหาสถานะและสิทธิ  ได้แก่ 
ปฏิญญาสากลว่าด้วยสิทธิมนุษยชน
อนุสัญญาการขจัดการเลือกปฏิบัติ
ทางเชื้อชาติ อนุสัญญาว่าด้วย
สิทธิเด็ก เป็นต้น" transform="translate(1551.839 602.226)" fill="#fff" font-size="23" font-family="IBMPlexThai, IBM Plex Thai"><tspan x="-112.493" y="0">ข้อตกลงระหว่างประเทศ</tspan><tspan x="-204.044" y="33">ว่าด้วยการให้สิทธิขั้นพื้นฐานด้านสาธารณสุข</tspan><tspan x="-188.52" y="66" xml:space="preserve">กับบุคคลที่มีปัญหาสถานะและสิทธิ  ได้แก่ </tspan><tspan x="-160.747" y="99">ปฏิญญาสากลว่าด้วยสิทธิมนุษยชน</tspan><tspan x="-158.113" y="132">อนุสัญญาการขจัดการเลือกปฏิบัติ</tspan><tspan x="-137.218" y="165">ทางเชื้อชาติ อนุสัญญาว่าด้วย</tspan><tspan x="-73.106" y="198">สิทธิเด็ก เป็นต้น</tspan></text>
      <g id="Group_396" data-name="Group 396" transform="translate(0 -11060)">
        <path id="Path_472" data-name="Path 472" d="M1510.713,11578.865c-1.65,4.729-5.708,7.65-9.019,6.5s-4.667-5.971-3.017-10.7l8.2-23.5c1.65-4.729,5.709-7.653,9.02-6.5s4.668,5.968,3.018,10.7Z" fill="none" stroke="#fdb913" stroke-linecap="round" stroke-linejoin="round" stroke-width="3"/>
        <path id="Path_473" data-name="Path 473" d="M1585.833,11545.406c-1.435-4.8.141-9.546,3.5-10.549s7.281,2.1,8.715,6.9l7.124,23.846c1.433,4.8-.141,9.546-3.5,10.551s-7.279-2.1-8.713-6.9Z" fill="none" stroke="#fdb913" stroke-linecap="round" stroke-linejoin="round" stroke-width="3"/>
        <line id="Line_151" data-name="Line 151" x1="14.808" y2="2.676" transform="translate(1571.172 11545.897)" fill="none" stroke="#fdb913" stroke-linecap="round" stroke-linejoin="round" stroke-width="3"/>
        <path id="Path_474" data-name="Path 474" d="M1581.564,11565.014s-1.367-15.018-14.57-17.93-32.327-.271-30.506,8.426c4.1,7.33,5.009,15.654,11.838,17.411s6.375-10.062,2.732-13.486" fill="none" stroke="#fdb913" stroke-linecap="round" stroke-linejoin="round" stroke-width="3"/>
        <line id="Line_152" data-name="Line 152" x2="16.463" y2="3.326" transform="translate(1520.025 11552.184)" fill="none" stroke="#fdb913" stroke-linecap="round" stroke-linejoin="round" stroke-width="3"/>
        <path id="Path_475" data-name="Path 475" d="M1511.021,11577.982s1.336,6.713,5.435,6.713c3.642-3.187,9.561-19.682,9.561-19.682" fill="none" stroke="#fdb913" stroke-linecap="round" stroke-linejoin="round" stroke-width="3"/>
        <path id="Path_476" data-name="Path 476" d="M1516.456,11584.7c5.007,5.918,31.744,22.765,37.044,24.586s6.543-3.187,5.465-6.374c7.118,3.187,14.858,3.12,14.858-5.725,4.1-2.016,7.6-7.408,6.078-9.721a39.007,39.007,0,0,0,6.079-9.479s-14.433-8.769-21.718-12.969c-1.366-1.014-10.762,0-10.762,0" fill="none" stroke="#fdb913" stroke-linecap="round" stroke-linejoin="round" stroke-width="3"/>
        <line id="Line_153" data-name="Line 153" x1="8.652" y2="3.129" transform="translate(1585.979 11574.854)" fill="none" stroke="#fdb913" stroke-linecap="round" stroke-linejoin="round" stroke-width="3"/>
        <line id="Line_154" data-name="Line 154" x1="17.461" y1="9.479" transform="translate(1562.441 11577.982)" fill="none" stroke="#fdb913" stroke-linecap="round" stroke-linejoin="round" stroke-width="3"/>
        <line id="Line_155" data-name="Line 155" x1="20.033" y1="12.487" transform="translate(1553.79 11584.695)" fill="none" stroke="#fdb913" stroke-linecap="round" stroke-linejoin="round" stroke-width="3"/>
        <line id="Line_156" data-name="Line 156" x1="11.094" y1="5.725" transform="translate(1547.871 11597.183)" fill="none" stroke="#fdb913" stroke-linecap="round" stroke-linejoin="round" stroke-width="3"/>
      </g>
    </g>
    <g id="Group_524" data-name="Group 524" transform="translate(-583.567 396)">
      <g id="Group_380" data-name="Group 380" transform="translate(0 -11065)">
        <g id="Group_379" data-name="Group 379">
          <g id="Group_378" data-name="Group 378">
            <g id="Group_377" data-name="Group 377">
              <g id="Group_376" data-name="Group 376">
                <g id="Group_375" data-name="Group 375">
                  <path id="Path_465" data-name="Path 465" d="M1312.76,11862.6l17.813-1.779a200.553,200.553,0,0,0,1.112-20.6l-17.515-3.68a181.958,181.958,0,0,0-3.153-31.04l16.307-7.184a202.412,202.412,0,0,0-5.349-19.918l-17.716,1.918a183.465,183.465,0,0,0-12.729-28.486l13.352-11.918a203.711,203.711,0,0,0-11.211-17.325l-16.342,7.354a182.764,182.764,0,0,0-20.812-23.231l8.993-15.389a193.845,193.845,0,0,0-16.014-13.036l-13.2,11.955a181.09,181.09,0,0,0-27.048-15.562l3.8-17.507a198.138,198.138,0,0,0-19.241-7.4l-8.914,15.518a188.488,188.488,0,0,0-23.84-5.55c-2.238-.371-4.447-.623-6.666-.908l-1.782-17.826c-6.911-.707-13.777-1.086-20.59-1.1l-3.676,17.51a180.727,180.727,0,0,0-31.047,3.162l-7.178-16.31a198.7,198.7,0,0,0-19.928,5.339l1.936,17.722a183.535,183.535,0,0,0-28.505,12.722L1031.7,11666.7a204.493,204.493,0,0,0-17.307,11.245l7.335,16.322a182.65,182.65,0,0,0-23.233,20.813l-15.409-8.99a200.8,200.8,0,0,0-13,16.01l11.953,13.206a182.033,182.033,0,0,0-15.586,27.038l-17.5-3.788a195.8,195.8,0,0,0-7.407,19.249l15.56,8.907a183.461,183.461,0,0,0-5.588,23.834c-.354,2.222-.625,4.436-.911,6.659l-17.809,1.774a194.962,194.962,0,0,0-1.109,20.6l17.51,3.664a181.564,181.564,0,0,0,3.166,31.052l-16.3,7.181a200.816,200.816,0,0,0,5.318,19.924l17.741-1.912a180.488,180.488,0,0,0,12.726,28.475l-13.366,11.932c3.458,5.937,7.2,11.745,11.21,17.294l16.353-7.319a181.111,181.111,0,0,0,20.807,23.23l-8.985,15.4a204.637,204.637,0,0,0,16.006,13.021l13.206-11.988a180,180,0,0,0,27.035,15.6l-3.79,17.506a204.06,204.06,0,0,0,19.242,7.407l8.914-15.558a183.729,183.729,0,0,0,23.839,5.579c2.229.346,4.443.615,6.656.907l1.788,17.818c6.912.708,13.784,1.095,20.606,1.119l3.666-17.535a180.306,180.306,0,0,0,31.047-3.162l7.171,16.3a195.86,195.86,0,0,0,19.92-5.309l-1.9-17.742a184.29,184.29,0,0,0,28.479-12.718l11.911,13.362a199.741,199.741,0,0,0,17.31-11.25l-7.325-16.317a184.749,184.749,0,0,0,23.246-20.815l15.387,8.972a201.976,201.976,0,0,0,13.013-15.963l-11.961-13.232a180.948,180.948,0,0,0,15.579-27.045l17.507,3.789a197.48,197.48,0,0,0,7.394-19.229l-15.555-8.918a181.243,181.243,0,0,0,5.586-23.863C1312.215,11867.041,1312.481,11864.827,1312.76,11862.6Z" fill="#002a28" stroke="#fff" stroke-linecap="round" stroke-linejoin="round" stroke-width="3"/>
                </g>
              </g>
            </g>
          </g>
        </g>
      </g>
      <text id="ยุทธศาสตร์การจัดการปัญหา_สถานะและสิทธิของบุคคล_ปี_2548_จะต้องคืนสิทธิพื้นฐานแก่_บุคคลที่มีปัญหาสถานะ_และสิทธิทุกกลุ่ม" data-name="ยุทธศาสตร์การจัดการปัญหา
สถานะและสิทธิของบุคคล ปี 2548 
จะต้องคืนสิทธิพื้นฐานแก่
บุคคลที่มีปัญหาสถานะ
และสิทธิทุกกลุ่ม" transform="translate(1131.692 766.396)" fill="#fff" font-size="23" font-family="IBMPlexThai, IBM Plex Thai"><tspan x="-135.079" y="0">ยุทธศาสตร์การจัดการปัญหา</tspan><tspan x="-160.333" y="33">สถานะและสิทธิของบุคคล ปี 2548 </tspan><tspan x="-115.069" y="66">จะต้องคืนสิทธิพื้นฐานแก่</tspan><tspan x="-103.351" y="99">บุคคลที่มีปัญหาสถานะ</tspan><tspan x="-72.703" y="132">และสิทธิทุกกลุ่ม</tspan></text>
      <g id="Group_400" data-name="Group 400" transform="translate(0 -11060)">
        <path id="Path_477" data-name="Path 477" d="M1129.257,11749.736a6.426,6.426,0,1,1-6.425-6.426A6.425,6.425,0,0,1,1129.257,11749.736Z" fill="none" stroke="#fdb913" stroke-linecap="round" stroke-linejoin="round" stroke-width="3"/>
        <path id="Path_478" data-name="Path 478" d="M1142.45,11749.736a19.618,19.618,0,1,1-19.618-19.619A19.617,19.617,0,0,1,1142.45,11749.736Z" fill="none" stroke="#fdb913" stroke-linecap="round" stroke-linejoin="round" stroke-width="3"/>
        <path id="Path_479" data-name="Path 479" d="M1153.13,11749.737a30.3,30.3,0,1,1-30.3-30.3A30.3,30.3,0,0,1,1153.13,11749.737Z" fill="none" stroke="#fdb913" stroke-linecap="round" stroke-linejoin="round" stroke-width="3"/>
        <g id="Group_399" data-name="Group 399">
          <line id="Line_157" data-name="Line 157" y1="45.973" x2="42.8" transform="translate(1122.832 11704.598)" fill="none" stroke="#fdb913" stroke-linecap="round" stroke-linejoin="round" stroke-width="3"/>
          <g id="Group_397" data-name="Group 397">
            <line id="Line_158" data-name="Line 158" x2="3.167" y2="11.221" transform="translate(1156.267 11700.034)" fill="none" stroke="#fdb913" stroke-linecap="round" stroke-linejoin="round" stroke-width="3"/>
            <line id="Line_159" data-name="Line 159" x2="11.418" y2="2.357" transform="translate(1159.433 11711.255)" fill="none" stroke="#fdb913" stroke-linecap="round" stroke-linejoin="round" stroke-width="3"/>
          </g>
          <g id="Group_398" data-name="Group 398">
            <line id="Line_160" data-name="Line 160" x2="3.168" y2="11.224" transform="translate(1152.333 11704.259)" fill="none" stroke="#fdb913" stroke-linecap="round" stroke-linejoin="round" stroke-width="3"/>
            <line id="Line_161" data-name="Line 161" x2="11.418" y2="2.355" transform="translate(1155.5 11715.481)" fill="none" stroke="#fdb913" stroke-linecap="round" stroke-linejoin="round" stroke-width="3"/>
          </g>
        </g>
      </g>
    </g>
    <g id="Group_526" data-name="Group 526" transform="translate(-68 -3)">
      <g id="Group_374" data-name="Group 374" transform="translate(0 -11060)">
        <g id="Group_373" data-name="Group 373">
          <g id="Group_372" data-name="Group 372">
            <g id="Group_371" data-name="Group 371">
              <g id="Group_370" data-name="Group 370">
                <path id="Path_464" data-name="Path 464" d="M768.613,11860.9l16.476-1.646a185.6,185.6,0,0,0,1.029-19.057l-16.2-3.4a168.435,168.435,0,0,0-2.917-28.712l15.083-6.645a186.973,186.973,0,0,0-4.947-18.425l-16.387,1.774a169.578,169.578,0,0,0-11.775-26.35l12.352-11.024a188.816,188.816,0,0,0-10.371-16.026l-15.118,6.8a168.891,168.891,0,0,0-19.25-21.488l8.319-14.235a179.384,179.384,0,0,0-14.814-12.058l-12.213,11.058a167.589,167.589,0,0,0-25.019-14.394l3.518-16.194a183.615,183.615,0,0,0-17.8-6.843l-8.246,14.354a174.25,174.25,0,0,0-22.051-5.134c-2.071-.344-4.115-.576-6.166-.841l-1.649-16.488c-6.393-.654-12.745-1-19.046-1.018l-3.4,16.2a167.22,167.22,0,0,0-28.72,2.925l-6.638-15.087a183.809,183.809,0,0,0-18.433,4.939l1.79,16.393a169.751,169.751,0,0,0-26.367,11.768l-11.021-12.357a189.713,189.713,0,0,0-16.009,10.4l6.785,15.1a168.973,168.973,0,0,0-21.49,19.252l-14.253-8.316a185.537,185.537,0,0,0-12.022,14.809l11.056,12.217a168.128,168.128,0,0,0-14.416,25.009l-16.184-3.5a181.145,181.145,0,0,0-6.852,17.806l14.393,8.239a169.559,169.559,0,0,0-5.169,22.047c-.328,2.055-.579,4.1-.843,6.159l-16.473,1.642a180,180,0,0,0-1.026,19.057l16.2,3.389a167.947,167.947,0,0,0,2.929,28.723l-15.081,6.644a185.688,185.688,0,0,0,4.919,18.428l16.411-1.768a166.924,166.924,0,0,0,11.771,26.34l-12.363,11.036c3.2,5.491,6.657,10.863,10.368,16l15.128-6.771a167.467,167.467,0,0,0,19.245,21.488l-8.31,14.247a189.216,189.216,0,0,0,14.806,12.045l12.215-11.09a166.6,166.6,0,0,0,25.007,14.431l-3.506,16.193a188.956,188.956,0,0,0,17.8,6.852l8.246-14.391a169.869,169.869,0,0,0,22.051,5.159c2.063.32,4.111.57,6.158.84l1.653,16.482c6.394.655,12.751,1.013,19.06,1.035l3.392-16.22a166.884,166.884,0,0,0,28.719-2.925l6.633,15.081a180.921,180.921,0,0,0,18.425-4.91l-1.761-16.411a170.362,170.362,0,0,0,26.343-11.765l11.019,12.36a185.008,185.008,0,0,0,16.011-10.406l-6.776-15.094a170.837,170.837,0,0,0,21.5-19.254l14.234,8.3a187.02,187.02,0,0,0,12.037-14.766l-11.064-12.24a167.326,167.326,0,0,0,14.41-25.017l16.2,3.5a183.328,183.328,0,0,0,6.839-17.787l-14.388-8.249a167.739,167.739,0,0,0,5.167-22.073C768.108,11865.006,768.354,11862.958,768.613,11860.9Z" fill="#002a28" stroke="#fff" stroke-linecap="round" stroke-linejoin="round" stroke-width="3"/>
              </g>
            </g>
          </g>
        </g>
      </g>
      <text id="การควบคุมและป้องกันโรค_หากไม่ได้รับการรักษา_จะเป็นแหล่งแพร่กระจาย_โรคติดต่อต่างๆ_ได้" data-name="การควบคุมและป้องกันโรค
หากไม่ได้รับการรักษา
จะเป็นแหล่งแพร่กระจาย
โรคติดต่อต่างๆ ได้" transform="translate(601.124 782.246)" fill="#fff" font-size="23" font-family="IBMPlexThai, IBM Plex Thai"><tspan x="-122.739" y="0">การควบคุมและป้องกันโรค</tspan><tspan x="-99.107" y="33">หากไม่ได้รับการรักษา</tspan><tspan x="-113.206" y="66">จะเป็นแหล่งแพร่กระจาย</tspan><tspan x="-85.859" y="99">โรคติดต่อต่างๆ ได้</tspan></text>
      <g id="Group_402" data-name="Group 402" transform="translate(0 -11060)">
        <g id="Group_401" data-name="Group 401">
          <path id="Path_480" data-name="Path 480" d="M640.367,11784.443a5.75,5.75,0,0,1-5.745,5.742h-67a5.748,5.748,0,0,1-5.743-5.742v-44.7a5.75,5.75,0,0,1,5.743-5.745h67a5.751,5.751,0,0,1,5.745,5.745Z" fill="none" stroke="#fdb913" stroke-linecap="round" stroke-linejoin="round" stroke-width="3"/>
          <path id="Path_481" data-name="Path 481" d="M612.471,11733.994v-5.72c0-3.216-2.937-5.831-6.549-5.831h-9.6c-3.613,0-6.552,2.615-6.552,5.831v5.72" fill="none" stroke="#fdb913" stroke-linecap="round" stroke-linejoin="round" stroke-width="3"/>
          <path id="Path_482" data-name="Path 482" d="M583.9,11733.994v-7.944c0-3.234,3.294-5.864,7.342-5.864H611c4.049,0,7.344,2.63,7.344,5.864v7.944" fill="none" stroke="#fdb913" stroke-linecap="round" stroke-linejoin="round" stroke-width="3"/>
        </g>
        <path id="Path_483" data-name="Path 483" d="M587.558,11765.518a.578.578,0,0,0,.079.431l3.6,5.576a.57.57,0,0,0,.789.17l5.2-3.362v6.2a.571.571,0,0,0,.57.57h6.641a.57.57,0,0,0,.57-.57v-6.2l5.2,3.362a.569.569,0,0,0,.789-.17l3.6-5.576a.573.573,0,0,0-.17-.79l-6.149-3.973,6.149-3.972a.572.572,0,0,0,.17-.79l-3.6-5.578a.572.572,0,0,0-.789-.169l-5.2,3.362v-6.194a.571.571,0,0,0-.57-.571H597.8a.571.571,0,0,0-.57.571v6.194l-5.2-3.362a.573.573,0,0,0-.789.169l-3.6,5.578a.579.579,0,0,0-.079.432.574.574,0,0,0,.249.358l6.148,3.972-6.148,3.973A.57.57,0,0,0,587.558,11765.518Z" fill="none" stroke="#fdb913" stroke-linecap="round" stroke-linejoin="round" stroke-width="3"/>
      </g>
    </g>
    <g id="Group_525" data-name="Group 525" transform="translate(-714.243 365.433)">
      <g id="Group_386" data-name="Group 386" transform="translate(0 -11060)">
        <g id="Group_385" data-name="Group 385">
          <g id="Group_384" data-name="Group 384">
            <g id="Group_383" data-name="Group 383">
              <g id="Group_382" data-name="Group 382">
                <g id="Group_381" data-name="Group 381">
                  <path id="Path_466" data-name="Path 466" d="M1022.87,11598.949l16.476-1.646a184.757,184.757,0,0,0,1.028-19.057l-16.2-3.4a168.422,168.422,0,0,0-2.917-28.712l15.084-6.646a186.778,186.778,0,0,0-4.948-18.423l-16.387,1.773a169.722,169.722,0,0,0-11.775-26.351l12.352-11.023a188.817,188.817,0,0,0-10.371-16.026l-15.117,6.8a169.04,169.04,0,0,0-19.251-21.488l8.32-14.235a179.2,179.2,0,0,0-14.815-12.058l-12.213,11.058a167.585,167.585,0,0,0-25.019-14.394l3.519-16.194a183.484,183.484,0,0,0-17.8-6.843l-8.246,14.355a174.018,174.018,0,0,0-22.052-5.135c-2.07-.344-4.113-.576-6.166-.841l-1.648-16.488c-6.394-.654-12.744-1-19.046-1.018l-3.4,16.2a167.208,167.208,0,0,0-28.719,2.925l-6.64-15.087a183.932,183.932,0,0,0-18.432,4.939l1.79,16.393a169.836,169.836,0,0,0-26.367,11.768l-11.021-12.357a189.3,189.3,0,0,0-16.009,10.4l6.785,15.1a169.044,169.044,0,0,0-21.49,19.251l-14.253-8.315a185.752,185.752,0,0,0-12.022,14.809l11.056,12.216a168.229,168.229,0,0,0-14.417,25.01l-16.183-3.5a181.145,181.145,0,0,0-6.852,17.806l14.393,8.239a169.564,169.564,0,0,0-5.169,22.047c-.328,2.055-.578,4.1-.843,6.159l-16.473,1.642a180.02,180.02,0,0,0-1.026,19.057l16.2,3.389a167.956,167.956,0,0,0,2.93,28.723l-15.081,6.643a185.626,185.626,0,0,0,4.919,18.429l16.411-1.767a166.9,166.9,0,0,0,11.771,26.338l-12.364,11.037c3.2,5.491,6.658,10.863,10.37,16l15.126-6.771a167.339,167.339,0,0,0,19.247,21.488L731.6,11715.4a189.211,189.211,0,0,0,14.806,12.045l12.215-11.09a166.55,166.55,0,0,0,25.007,14.431l-3.507,16.194a189.471,189.471,0,0,0,17.8,6.851l8.245-14.391a169.906,169.906,0,0,0,22.051,5.159c2.063.32,4.111.57,6.157.84l1.654,16.482c6.394.655,12.751,1.013,19.061,1.035l3.392-16.22a166.979,166.979,0,0,0,28.718-2.924l6.633,15.08a180.754,180.754,0,0,0,18.426-4.91l-1.762-16.411a170.322,170.322,0,0,0,26.344-11.765l11.018,12.36a185.016,185.016,0,0,0,16.012-10.406l-6.777-15.094a170.765,170.765,0,0,0,21.5-19.254l14.234,8.3a187.032,187.032,0,0,0,12.038-14.766l-11.065-12.24a167.331,167.331,0,0,0,14.41-25.017l16.2,3.5a182.824,182.824,0,0,0,6.839-17.787l-14.388-8.249a167.766,167.766,0,0,0,5.167-22.073C1022.366,11603.054,1022.611,11601.006,1022.87,11598.949Z" fill="#002a28" stroke="#fff" stroke-linecap="round" stroke-linejoin="round" stroke-width="3"/>
                </g>
              </g>
            </g>
          </g>
        </g>
      </g>
      <text id="ลดภาระหนี้สินของโรงพยาบาล_ที่ต้องดูแลคนกลุ่มนี้_เพราะไม่ได้รับงบประมาณ_สนับสนุน" data-name="ลดภาระหนี้สินของโรงพยาบาล
ที่ต้องดูแลคนกลุ่มนี้ 
เพราะไม่ได้รับงบประมาณ
สนับสนุน" transform="translate(855.381 539.016)" fill="#fff" font-size="23" font-family="IBMPlexThai, IBM Plex Thai"><tspan x="-140.53" y="0">ลดภาระหนี้สินของโรงพยาบาล</tspan><tspan x="-92.713" y="33">ที่ต้องดูแลคนกลุ่มนี้ </tspan><tspan x="-117.795" y="66">เพราะไม่ได้รับงบประมาณ</tspan><tspan x="-42.09" y="99">สนับสนุน</tspan></text>
      <g id="Group_403" data-name="Group 403" transform="translate(0 -11060)">
        <path id="Path_484" data-name="Path 484" d="M842.206,11499.593a22.959,22.959,0,1,0,21.672,30.527c1.551.061,2.966.082,4.126.082,7.051,0,23.447-.746,23.447-7.654a.6.6,0,0,0,0-.062.514.514,0,0,0,0-.055v-9.223a3.147,3.147,0,0,0,.067-.633,3,3,0,0,0-.067-.6v-7.591a3.119,3.119,0,0,0,.067-.63,2.99,2.99,0,0,0-.067-.6v-8.449a3.125,3.125,0,0,0,.067-.633,2.96,2.96,0,0,0-.191-1.027,3.855,3.855,0,0,0,.124-.951c0-.021,0-.044,0-.063a.488.488,0,0,0,0-.053v-9.225a3.132,3.132,0,0,0,.067-.633,2.963,2.963,0,0,0-.067-.595v-8.451a2.973,2.973,0,0,0-.132-1.7,2.952,2.952,0,0,0-1.236-1.674c-4.794-4.062-20.053-4.2-22.079-4.2s-17.284.139-22.073,4.2a2.906,2.906,0,0,0-1.236,1.672,3.025,3.025,0,0,0-.2,1.069,3.19,3.19,0,0,0,.063.63v8.451a3.02,3.02,0,0,0-.063.595,3.2,3.2,0,0,0,.063.633v9.225c0,.022,0,.039,0,.062s0,.038,0,.055a3.95,3.95,0,0,0,.125.951,3,3,0,0,0-.188,1.027,3.2,3.2,0,0,0,.063.633v5C843.786,11499.637,843,11499.593,842.206,11499.593Zm46.567,22.767c0,.061-.005.116-.005.166a.713.713,0,0,0,.005.077c-.132,2.576-9.4,4.66-20.769,4.66-1.13,0-2.233-.028-3.316-.066a22.78,22.78,0,0,0,.478-4.644c0-.405-.014-.81-.033-1.21,1.055.03,2.034.044,2.871.044,5.287,0,15.828-.42,20.769-3.543Zm0-8.816c0,.059-.005.116-.005.166a.745.745,0,0,0,.005.077c-.132,2.573-9.4,4.66-20.769,4.66-1.1,0-2.172-.027-3.228-.063a22.706,22.706,0,0,0-2.429-6.838c2.15.125,4.129.163,5.657.163,5.287,0,15.828-.42,20.769-3.54Zm0-21.628c0,.055-.005.116-.005.166,0,.021,0,.049.005.077-.132,2.573-9.4,4.659-20.769,4.659s-20.639-2.089-20.769-4.662a1.261,1.261,0,0,0,.006-.146.569.569,0,0,0-.006-.1l-.005-5.376c4.944,3.123,15.487,3.544,20.774,3.544s15.828-.421,20.769-3.544ZM868,11468.9c11.793,0,19.1,2.188,20.333,3.554-1.235,1.365-8.54,3.554-20.333,3.554s-19.1-2.188-20.329-3.554C848.907,11471.088,856.214,11468.9,868,11468.9Zm0,10.5c1.869,0,14.979-.123,20.769-3.323v6.163c0,.058-.005.116-.005.166a.781.781,0,0,0,.005.078c-.132,2.575-9.4,4.659-20.769,4.659s-20.639-2.084-20.769-4.659a1.277,1.277,0,0,0,.006-.147.536.536,0,0,0-.006-.1l-.005-6.163C853.022,11479.273,866.136,11479.4,868,11479.4Zm0,21.628c1.869,0,14.979-.122,20.769-3.322v6.163c0,.061-.005.116-.005.168a.71.71,0,0,0,.005.075c-.132,2.575-9.4,4.659-20.769,4.659-2.73,0-5.331-.121-7.718-.343a23.017,23.017,0,0,0-13.054-8.269l0-2.454C853.022,11500.9,866.136,11501.024,868,11501.024Zm-5.781,21.528a20.018,20.018,0,1,1-20.017-20.02A20.037,20.037,0,0,1,862.223,11522.553Z" fill="#fdb913"/>
        <path id="Path_485" data-name="Path 485" d="M826.737,11522.55a15.469,15.469,0,1,0,15.469-15.468A15.489,15.489,0,0,0,826.737,11522.55Zm28.977,0a13.508,13.508,0,1,1-13.508-13.506A13.525,13.525,0,0,1,855.714,11522.55Z" fill="#fdb913"/>
        <path id="Path_486" data-name="Path 486" d="M840.312,11512.8v1.658a5.521,5.521,0,0,0-2.064,1.354,4.97,4.97,0,0,0-1.338,3.436,4.766,4.766,0,0,0,.384,1.92,5.124,5.124,0,0,0,1.788,2.107,11.544,11.544,0,0,0,2.5,1.287,4.167,4.167,0,0,1,1.382.785.774.774,0,0,1,.163.229.567.567,0,0,1,.044.244.491.491,0,0,1-.19.422,1.557,1.557,0,0,1-.97.271,4.187,4.187,0,0,1-2.4-.713l-.578-.387a.981.981,0,0,0-1.467.487l-.915,2.552a.979.979,0,0,0,.354,1.128l.337.24a6.569,6.569,0,0,0,1.984.918,8.082,8.082,0,0,0,.824.2v1.454a.98.98,0,0,0,.978.981h2.51a.984.984,0,0,0,.98-.981v-1.722a5.641,5.641,0,0,0,2.275-1.559,5.221,5.221,0,0,0,1.288-3.437,5.517,5.517,0,0,0-.31-1.874,5.085,5.085,0,0,0-1.613-2.232,9.356,9.356,0,0,0-2.466-1.41.844.844,0,0,0-.1-.039,6.418,6.418,0,0,1-1.655-.868.451.451,0,0,1-.127-.144.268.268,0,0,1-.017-.127.3.3,0,0,1,.083-.216,1.191,1.191,0,0,1,.782-.2,3.981,3.981,0,0,1,1.3.2,4.143,4.143,0,0,1,.78.359l.552.314a.982.982,0,0,0,1.405-.5l.953-2.514a.982.982,0,0,0-.42-1.194l-.395-.231a7.29,7.29,0,0,0-2.178-.827v-1.376a.98.98,0,0,0-.981-.981h-2.485A.982.982,0,0,0,840.312,11512.8Zm1.962,2.377v-1.4h.523v1.241a.98.98,0,0,0,.887.976,5.747,5.747,0,0,1,1.935.524l-.252.669a5.283,5.283,0,0,0-.682-.278,6.037,6.037,0,0,0-1.93-.308,2.979,2.979,0,0,0-2.141.756,2.229,2.229,0,0,0-.678,1.621,2.175,2.175,0,0,0,.2.963,2.378,2.378,0,0,0,.606.778,8.146,8.146,0,0,0,2.257,1.232h0a7.612,7.612,0,0,1,2.015,1.125,3.19,3.19,0,0,1,1.014,1.385,3.578,3.578,0,0,1,.194,1.211,3.259,3.259,0,0,1-.8,2.149l0,0a3.853,3.853,0,0,1-2.008,1.169.974.974,0,0,0-.749.95v1.465h-.548v-1.323a.978.978,0,0,0-.9-.976,7.044,7.044,0,0,1-1.335-.253,5.015,5.015,0,0,1-1.122-.459l.24-.684a6.567,6.567,0,0,0,3,.76,3.322,3.322,0,0,0,2.244-.729,2.459,2.459,0,0,0,.89-1.918,2.529,2.529,0,0,0-.2-1.018,2.676,2.676,0,0,0-.572-.84,5.982,5.982,0,0,0-2.051-1.227,9.924,9.924,0,0,1-2.095-1.064,3.125,3.125,0,0,1-1.124-1.3,2.778,2.778,0,0,1-.224-1.139,3.022,3.022,0,0,1,.807-2.09,3.714,3.714,0,0,1,1.848-1.024A.982.982,0,0,0,842.274,11515.174Z" fill="#fdb913"/>
      </g>
    </g>
  </g>
</svg>
