<svg xmlns="http://www.w3.org/2000/svg" width="1669.443" height="582.021" viewBox="0 0 1669.443 582.021">
  <g id="Group_531" data-name="Group 531" transform="translate(-132.636 -406.5)">
    <g id="Group_532" data-name="Group 532">
      <g id="Group_467" data-name="Group 467" transform="translate(0 -3160)">
        <g id="Group_457" data-name="Group 457">
          <path id="Path_1428" data-name="Path 1428" d="M1310,3769c0,77.32-156.7,140-350,140s-350-62.68-350-140v-53h700Z" fill="none" stroke="#fff" stroke-miterlimit="10" stroke-width="5"/>
        </g>
        <g id="Group_466" data-name="Group 466">
          <g id="Group_459" data-name="Group 459">
            <g id="Group_458" data-name="Group 458">
              <path id="Path_1429" data-name="Path 1429" d="M959.84,3709l60.748,137.873c-19.979,1.41-40.463,2.127-60.748,2.127Z" fill="#fdb913" stroke="#fff" stroke-miterlimit="10" stroke-width="5"/>
            </g>
          </g>
          <g id="Group_461" data-name="Group 461">
            <g id="Group_460" data-name="Group 460">
              <path id="Path_1430" data-name="Path 1430" d="M959.84,3709l344.525,24.31c-26.1,59.242-135.744,103.118-283.777,113.563Z" fill="#d7df23" stroke="#fff" stroke-miterlimit="10" stroke-width="5"/>
            </g>
          </g>
          <g id="Group_463" data-name="Group 463">
            <g id="Group_462" data-name="Group 462">
              <path id="Path_1431" data-name="Path 1431" d="M959.84,3709l336.288-38.59c15.23,21.258,17.832,41.123,8.237,62.9Z" fill="#39b54a" stroke="#fff" stroke-miterlimit="10" stroke-width="5"/>
            </g>
          </g>
          <g id="Group_465" data-name="Group 465">
            <g id="Group_464" data-name="Group 464">
              <path id="Path_1432" data-name="Path 1432" d="M959.84,3709v140C766.629,3849,610,3786.32,610,3709s156.629-140,349.84-140c159.978,0,292.191,39.87,336.288,101.41Z" fill="#006838" stroke="#fff" stroke-miterlimit="10" stroke-width="5"/>
            </g>
          </g>
        </g>
      </g>
      <g id="Group_468" data-name="Group 468" transform="translate(0 -3160)">
        <text id="สวัสดิการจากข้าราชการ_รัฐวิสาหกิจ_4.9_ล้านคน" data-name="สวัสดิการจากข้าราชการ/
รัฐวิสาหกิจ

4.9 ล้านคน" transform="translate(1442.079 3655.157)" fill="#fff" font-size="35" font-family="IBMPlexThai, IBM Plex Thai"><tspan x="0" y="0">สวัสดิการจากข้าราชการ/</tspan><tspan x="0" y="42">รัฐวิสาหกิจ</tspan><tspan x="0" y="84"></tspan><tspan fill="#fdb913" font-size="60"><tspan x="0" y="126">4.9</tspan><tspan y="126" xml:space="preserve" font-size="50"> ล้านคน</tspan></tspan></text>
        <path id="Path_1433" data-name="Path 1433" d="M1422.079,3647.063h-66.952l-46.421,46.42" fill="none" stroke="#fff" stroke-linecap="round" stroke-linejoin="round" stroke-width="3" stroke-dasharray="5 10"/>
      </g>
      <g id="Group_469" data-name="Group 469" transform="translate(0 -3160)">
        <text id="สวัสดิการจากประกันสังคม_13.3_ล้านคน" data-name="สวัสดิการจากประกันสังคม

13.3 ล้านคน" transform="translate(1376.846 3896.646)" fill="#fff" font-size="35" font-family="IBMPlexThai, IBM Plex Thai"><tspan x="0" y="0">สวัสดิการจากประกันสังคม</tspan><tspan x="0" y="42"></tspan><tspan fill="#fdb913" font-size="60" font-family="IBMPlexThai-Text, IBM Plex Thai Text"><tspan x="0" y="84">13.3</tspan><tspan y="84" xml:space="preserve" font-size="50"> ล้านคน</tspan></tspan></text>
        <path id="Path_1434" data-name="Path 1434" d="M1353.939,3887.709h-66.952l-70.443-82.783" fill="none" stroke="#fff" stroke-linecap="round" stroke-linejoin="round" stroke-width="3" stroke-dasharray="5 10"/>
      </g>
      <g id="Group_470" data-name="Group 470" transform="translate(0 -3160)">
        <text id="อื่นๆ_1.8_ล้านคน" data-name="อื่นๆ 

1.8 ล้านคน" transform="translate(1245.4 4032.521)" fill="#fff" font-size="35" font-family="IBMPlexThai, IBM Plex Thai"><tspan x="0" y="0">อื่นๆ </tspan><tspan x="0" y="42"></tspan><tspan fill="#fdb913" font-size="60"><tspan x="0" y="84">1.8</tspan><tspan y="84" xml:space="preserve" font-size="50"> ล้านคน</tspan></tspan></text>
        <path id="Path_1435" data-name="Path 1435" d="M1225.4,4022h-66.952L984.09,3847.643" fill="none" stroke="#fff" stroke-linecap="round" stroke-linejoin="round" stroke-width="3" stroke-dasharray="5 10"/>
      </g>
      <g id="Group_472" data-name="Group 472" transform="translate(0 -3160)">
        <text id="หลักประกันสุขภาพถ้วนหน้า_48.3_ล้านคน" data-name="หลักประกันสุขภาพถ้วนหน้า

48.3 ล้านคน" transform="translate(132.636 3612.427)" fill="#fff" font-size="35" font-family="IBMPlexThai, IBM Plex Thai"><tspan x="0" y="0">หลักประกันสุขภาพถ้วนหน้า</tspan><tspan fill="#fdb913" font-size="60"><tspan x="0" y="42"></tspan><tspan x="0" y="84">48.3</tspan><tspan y="84" xml:space="preserve" font-size="50"> ล้านคน</tspan></tspan></text>
        <path id="Path_1436" data-name="Path 1436" d="M537.048,3603.332H604l46.42,46.42" fill="none" stroke="#fff" stroke-linecap="round" stroke-linejoin="round" stroke-width="3" stroke-dasharray="5 10"/>
      </g>
    </g>
  </g>
</svg>
