<svg xmlns="http://www.w3.org/2000/svg" width="523.5" height="123" viewBox="0 0 523.5 123">
  <g id="Group_517" data-name="Group 517" transform="translate(-1099.066 -376.5)">
    <text id="ไม่ได้รับการตรวจวินิจฉัยโรค" transform="translate(1260.566 448.776)" fill="#fff" font-size="35" font-family="LeelawadeeUI, Leelawadee UI"><tspan x="0" y="0">ไม่ได้รับการตรวจวินิจฉัยโรค</tspan></text>
    <g id="Group_414" data-name="Group 414" transform="translate(0 -9480)">
      <circle id="Ellipse_70" data-name="Ellipse 70" cx="60" cy="60" r="60" transform="translate(1100.566 9858)" fill="#002a28" stroke="#fff" stroke-linecap="round" stroke-linejoin="round" stroke-width="3"/>
      <g id="Group_413" data-name="Group 413">
        <path id="Path_497" data-name="Path 497" d="M1168.164,9914.179l-8.174,13.46-13.318-8.088,20.057-33.032,13.318,8.086-7.09,11.677" fill="none" stroke="#fdb913" stroke-linecap="round" stroke-linejoin="round" stroke-width="3"/>
        <rect id="Rectangle_97" data-name="Rectangle 97" width="5.812" height="9.992" transform="translate(1169.117 9887.969) rotate(-58.737)" fill="none" stroke="#fdb913" stroke-linecap="round" stroke-linejoin="round" stroke-width="3"/>
        <rect id="Rectangle_98" data-name="Rectangle 98" width="6.209" height="10.637" transform="matrix(0.519, -0.855, 0.855, 0.519, 1145.563, 9926.143)" fill="none" stroke="#fdb913" stroke-linecap="round" stroke-linejoin="round" stroke-width="3"/>
        <path id="Path_498" data-name="Path 498" d="M1174.9,9910.048a4.636,4.636,0,1,1-4.636-4.637A4.636,4.636,0,0,1,1174.9,9910.048Z" fill="none" stroke="#fdb913" stroke-linecap="round" stroke-linejoin="round" stroke-width="3"/>
        <path id="Path_499" data-name="Path 499" d="M1176.545,9900.375a37.753,37.753,0,0,1,11.223,27.264c0,13.858-11.223,22.332-11.223,22.332" fill="none" stroke="#fdb913" stroke-linecap="round" stroke-linejoin="round" stroke-width="3"/>
        <path id="Path_500" data-name="Path 500" d="M1171.656,9941.736h-10.662L1156.111,9953h20.518Z" fill="none" stroke="#fdb913" stroke-linecap="round" stroke-linejoin="round" stroke-width="3"/>
        <line id="Line_165" data-name="Line 165" x2="42.205" transform="translate(1145.268 9953)" fill="none" stroke="#fdb913" stroke-linecap="round" stroke-linejoin="round" stroke-width="3"/>
        <path id="Path_501" data-name="Path 501" d="M1165.623,9918.36c6.562,2.633,13.123,5.658,13.123,13.3s-6.561,11.271-6.561,11.271" fill="none" stroke="#fdb913" stroke-linecap="round" stroke-linejoin="round" stroke-width="3"/>
        <line id="Line_166" data-name="Line 166" x2="25.701" y2="14.519" transform="translate(1133.365 9931.664)" fill="none" stroke="#fdb913" stroke-linecap="round" stroke-linejoin="round" stroke-width="3"/>
      </g>
    </g>
  </g>
</svg>
