<svg xmlns="http://www.w3.org/2000/svg" width="552.303" height="157" viewBox="0 0 552.303 157">
  <g id="Group_518" data-name="Group 518" transform="translate(-1217.543 -536.969)">
    <text id="ขาดการเข้าถึงยาและเวชภัณฑ์_ที่เหมาะสม_รวมทั้งนวัตกรรม_ทางการแพทย์ที่ทันสมัย" data-name="ขาดการเข้าถึงยาและเวชภัณฑ์
ที่เหมาะสม รวมทั้งนวัตกรรม
ทางการแพทย์ที่ทันสมัย" transform="translate(1376.846 574.969)" fill="#fff" font-size="35" font-family="LeelawadeeUI, Leelawadee UI"><tspan x="0" y="0">ขาดการเข้าถึงยาและเวชภัณฑ์</tspan><tspan y="0" font-family="SegoeUI, Segoe UI"></tspan><tspan x="0" y="55">ที่เหมาะสม</tspan><tspan y="55" font-family="SegoeUI, Segoe UI"> </tspan><tspan y="55">รวมทั้งนวัตกรรม</tspan><tspan y="55" font-family="SegoeUI, Segoe UI"></tspan><tspan x="0" y="110">ทางการแพทย์ที่ทันสมัย</tspan></text>
    <g id="Group_412" data-name="Group 412" transform="translate(0 -9480)">
      <circle id="Ellipse_69" data-name="Ellipse 69" cx="60" cy="60" r="60" transform="translate(1219.043 10044.193)" fill="#002a28" stroke="#fff" stroke-linecap="round" stroke-linejoin="round" stroke-width="3"/>
      <g id="Group_411" data-name="Group 411">
        <path id="Path_495" data-name="Path 495" d="M1308.695,10074.541a18.391,18.391,0,0,1,0,25.931l-33.374,33.373a18.388,18.388,0,0,1-25.93,0h0a18.391,18.391,0,0,1,0-25.931l33.374-33.373a18.391,18.391,0,0,1,25.93,0Z" fill="none" stroke="#fdb913" stroke-linecap="round" stroke-linejoin="round" stroke-width="3"/>
        <line id="Line_163" data-name="Line 163" x2="25.931" y2="25.931" transform="translate(1266.077 10091.229)" fill="none" stroke="#fdb913" stroke-linecap="round" stroke-linejoin="round" stroke-width="3"/>
        <line id="Line_164" data-name="Line 164" y1="2.641" x2="2.641" transform="translate(1259.476 10106.715)" fill="none" stroke="#fdb913" stroke-linecap="round" stroke-linejoin="round" stroke-width="3"/>
        <path id="Path_496" data-name="Path 496" d="M1255.633,10127.6h0a10.215,10.215,0,0,1,0-14.405" fill="none" stroke="#fdb913" stroke-linecap="round" stroke-linejoin="round" stroke-width="3"/>
      </g>
    </g>
  </g>
</svg>
