<svg xmlns="http://www.w3.org/2000/svg" width="419.717" height="123" viewBox="0 0 419.717 123">
  <g id="Group_522" data-name="Group 522" transform="translate(-102.316 -743.589)">
    <text id="ไม่ได้สิทธิการตรวจ_และรับฝากครรภ์_" data-name="ไม่ได้สิทธิการตรวจ
และรับฝากครรภ์ " transform="translate(348.316 791.16)" fill="#fff" font-size="35" font-family="LeelawadeeUI, Leelawadee UI"><tspan x="-244.932" y="0">ไม่ได้สิทธิการตรวจ</tspan><tspan y="0" font-family="SegoeUI, Segoe UI"></tspan><tspan x="-220.288" y="55">และรับฝากครรภ์</tspan><tspan y="55" font-family="SegoeUI, Segoe UI"> </tspan></text>
    <g id="Group_418" data-name="Group 418" transform="translate(0 -9480)">
      <circle id="Ellipse_72" data-name="Ellipse 72" cx="60" cy="60" r="60" transform="translate(400.533 10225.089)" fill="#002a28" stroke="#fff" stroke-linecap="round" stroke-linejoin="round" stroke-width="3"/>
      <g id="Group_417" data-name="Group 417">
        <path id="Path_502" data-name="Path 502" d="M446.636,10284.1s3.145,16.4,3.82,20.673,10.336,14.381,14.043,16.853c0,0,1.91,5.169,5.956,6.068s6.516-1.573,6.516-4.72-3.821-3.146-8.539-4.045c0,0-6.966-10.562-10.112-15.729,0,0-.224-17.526-.224-20s-2.023-4.269-6.068-7.523c3.6,1.914,4.494.108,5.169-2.588,4.045,5.617,6.966.674,7.864-1.573l1.574-.674v-3.82c3.145-1.348,3.37-8.988,3.37-8.988-3.6,2.472-4.269,4.044-8.2,4.494-4.831,3.6-5.954,5.618-9.775,6.967a15.763,15.763,0,0,0-10.336,12.808c-.9,7.415,0,15.5,1.573,20.225s2.92,8.313,1.573,12.807-3.635,12.359-3.5,15.055" fill="none" stroke="#fdb913" stroke-linecap="round" stroke-linejoin="round" stroke-width="3"/>
        <path id="Path_503" data-name="Path 503" d="M442.9,10301.315c-6.377.083-9.074-5.085-9.972-10.252s1.658-14.383,4.986-18.428,6.7-7.189,8.5-11.684,6.827-10.338,12.739-10.562,11.079,6.741,11.079,6.741a11.8,11.8,0,0,1,2.248,11.235c-1.573,5.168-4.495,10.336-4.495,13.032s.225,8.089.225,8.089" fill="none" stroke="#fdb913" stroke-linecap="round" stroke-linejoin="round" stroke-width="3"/>
        <path id="Path_504" data-name="Path 504" d="M458.1,10283.2c4.494,4.494,8.089,8.539,8.539,11.01s-1.8,6.8-4.27,7.108c6.292.308,12.583,4.8,14.606,8.847s-.655,10.993-.655,10.993" fill="none" stroke="#fdb913" stroke-linecap="round" stroke-linejoin="round" stroke-width="3"/>
      </g>
    </g>
  </g>
</svg>
