<svg xmlns="http://www.w3.org/2000/svg" width="428.303" height="123" viewBox="0 0 428.303 123">
  <g id="Group_519" data-name="Group 519" transform="translate(-1385.543 -748.885)">
    <text id="ไม่ได้รับเงินช่วยเหลือ_ค่าใช้จ่ายอื่นที่จำเป็น" data-name="ไม่ได้รับเงินช่วยเหลือ
ค่าใช้จ่ายอื่นที่จำเป็น" transform="translate(1544.846 791.161)" fill="#fff" font-size="35" font-family="LeelawadeeUI, Leelawadee UI"><tspan x="0" y="0">ไม่ได้รับเงินช่วยเหลือ</tspan><tspan y="0" font-family="SegoeUI, Segoe UI"></tspan><tspan x="0" y="55">ค่าใช้จ่ายอื่นที่จำเป็น</tspan></text>
    <g id="Group_410" data-name="Group 410" transform="translate(0 -9480)">
      <circle id="Ellipse_68" data-name="Ellipse 68" cx="60" cy="60" r="60" transform="translate(1387.043 10230.385)" fill="#002a28" stroke="#fff" stroke-linecap="round" stroke-linejoin="round" stroke-width="3"/>
      <g id="Group_409" data-name="Group 409">
        <g id="Group_408" data-name="Group 408">
          <g id="Group_406" data-name="Group 406">
            <path id="Path_488" data-name="Path 488" d="M1438.471,10325.385h-24.122v-9.933h24.122Z" fill="none" stroke="#fdb913" stroke-linecap="round" stroke-linejoin="round" stroke-width="3"/>
            <path id="Path_489" data-name="Path 489" d="M1435.4,10315.452v-16.317s-11.233-11.469-12.77-13.007a4.268,4.268,0,0,0-5.44,0c-1.064,1.064-1.655,4.729,0,6.386l9.223,9.223" fill="none" stroke="#fdb913" stroke-linecap="round" stroke-linejoin="round" stroke-width="3"/>
            <path id="Path_490" data-name="Path 490" d="M1417.186,10286.128V10271.7s-.709-5.2-5.439-5.2-4.848,4.848-4.848,4.848v24.477l16.732,16.731v2.9" fill="none" stroke="#fdb913" stroke-linecap="round" stroke-linejoin="round" stroke-width="3"/>
          </g>
          <g id="Group_407" data-name="Group 407">
            <path id="Path_491" data-name="Path 491" d="M1455.615,10325.385h24.122v-9.933h-24.122Z" fill="none" stroke="#fdb913" stroke-linecap="round" stroke-linejoin="round" stroke-width="3"/>
            <path id="Path_492" data-name="Path 492" d="M1458.69,10315.452v-16.317s11.233-11.469,12.77-13.007a4.267,4.267,0,0,1,5.439,0c1.065,1.064,1.656,4.729,0,6.386l-9.222,9.223" fill="none" stroke="#fdb913" stroke-linecap="round" stroke-linejoin="round" stroke-width="3"/>
            <path id="Path_493" data-name="Path 493" d="M1476.9,10286.128V10271.7s.71-5.2,5.44-5.2,4.847,4.848,4.847,4.848v24.477l-16.731,16.731v2.9" fill="none" stroke="#fdb913" stroke-linecap="round" stroke-linejoin="round" stroke-width="3"/>
          </g>
        </g>
        <path id="Path_494" data-name="Path 494" d="M1447.279,10287.783s20.693-11.824,20.693-20.692-5.558-11.706-11.706-11.706-9.223,9.459-9.223,9.459-3.074-9.459-9.223-9.459-11.706,2.838-11.706,11.706,20.693,20.692,20.693,20.692Z" fill="none" stroke="#fdb913" stroke-linecap="round" stroke-linejoin="round" stroke-width="3"/>
      </g>
    </g>
  </g>
</svg>
