<svg xmlns="http://www.w3.org/2000/svg" width="967.45" height="898.769" viewBox="0 0 967.45 898.769">
  <g id="Group_561" data-name="Group 561" transform="translate(1380.872 -5879)">
    <g id="Group_553" data-name="Group 553">
      <g id="Group_322" data-name="Group 322" transform="translate(-4613 1139)">
        <path id="Path_449" data-name="Path 449" d="M3510.891,5534.879a9.687,9.687,0,1,0-9.688,9.686A9.687,9.687,0,0,0,3510.891,5534.879Z" fill="none" stroke="#009444" stroke-linecap="round" stroke-linejoin="round" stroke-width="3"/>
        <g id="Group_321" data-name="Group 321">
          <path id="Path_450" data-name="Path 450" d="M3512.83,5562.1v48.562c0,1.851-2.16,4.527-6.275,4.527a5.839,5.839,0,0,0-10.7,0c-4.117,0-6.277-2.676-6.277-4.527V5562.1" fill="none" stroke="#009444" stroke-linecap="round" stroke-linejoin="round" stroke-width="3"/>
          <path id="Path_451" data-name="Path 451" d="M3512.83,5584.944c10.081-5.4,8.746-13.58,8.746-21.608,0-6.634-7.044-13.271-13.217-13.271h-14.311c-6.172,0-13.217,6.637-13.217,13.271,0,8.028-1.337,16.206,8.747,21.608" fill="none" stroke="#009444" stroke-linecap="round" stroke-linejoin="round" stroke-width="3"/>
          <line id="Line_129" data-name="Line 129" y1="27.521" transform="translate(3501.203 5584.172)" fill="none" stroke="#009444" stroke-linecap="round" stroke-linejoin="round" stroke-width="3"/>
        </g>
      </g>
      <g id="Group_324" data-name="Group 324" transform="translate(-4613 1139)">
        <path id="Path_452" data-name="Path 452" d="M3560.391,5534.879a9.687,9.687,0,1,0-9.688,9.686A9.687,9.687,0,0,0,3560.391,5534.879Z" fill="none" stroke="#009444" stroke-linecap="round" stroke-linejoin="round" stroke-width="3"/>
        <g id="Group_323" data-name="Group 323">
          <path id="Path_453" data-name="Path 453" d="M3562.33,5562.1v48.562c0,1.851-2.16,4.527-6.275,4.527a5.839,5.839,0,0,0-10.7,0c-4.117,0-6.277-2.676-6.277-4.527V5562.1" fill="none" stroke="#009444" stroke-linecap="round" stroke-linejoin="round" stroke-width="3"/>
          <path id="Path_454" data-name="Path 454" d="M3562.33,5584.944c10.081-5.4,8.746-13.58,8.746-21.608,0-6.634-7.044-13.271-13.217-13.271h-14.311c-6.172,0-13.217,6.637-13.217,13.271,0,8.028-1.337,16.206,8.747,21.608" fill="none" stroke="#009444" stroke-linecap="round" stroke-linejoin="round" stroke-width="3"/>
          <line id="Line_130" data-name="Line 130" y1="27.521" transform="translate(3550.703 5584.172)" fill="none" stroke="#009444" stroke-linecap="round" stroke-linejoin="round" stroke-width="3"/>
        </g>
      </g>
      <g id="Group_326" data-name="Group 326" transform="translate(-4613 1139)">
        <circle id="Ellipse_52" data-name="Ellipse 52" cx="9.686" cy="9.686" r="9.686" transform="matrix(0.014, -1, 1, 0.014, 3590.389, 5544.433)" fill="none" stroke="#009444" stroke-linecap="round" stroke-linejoin="round" stroke-width="3"/>
        <g id="Group_325" data-name="Group 325">
          <path id="Path_455" data-name="Path 455" d="M3611.83,5562.1v48.562c0,1.851-2.16,4.527-6.275,4.527a5.839,5.839,0,0,0-10.7,0c-4.117,0-6.277-2.676-6.277-4.527V5562.1" fill="none" stroke="#009444" stroke-linecap="round" stroke-linejoin="round" stroke-width="3"/>
          <path id="Path_456" data-name="Path 456" d="M3611.83,5584.944c10.083-5.4,8.747-13.58,8.747-21.608,0-6.634-7.045-13.271-13.218-13.271h-14.311c-6.172,0-13.217,6.637-13.217,13.271,0,8.028-1.337,16.206,8.747,21.608" fill="none" stroke="#009444" stroke-linecap="round" stroke-linejoin="round" stroke-width="3"/>
          <line id="Line_131" data-name="Line 131" y1="27.521" transform="translate(3600.204 5584.172)" fill="none" stroke="#009444" stroke-linecap="round" stroke-linejoin="round" stroke-width="3"/>
        </g>
      </g>
      <g id="Group_328" data-name="Group 328" transform="translate(-4613 1139)">
        <circle id="Ellipse_53" data-name="Ellipse 53" cx="9.685" cy="9.685" r="9.685" transform="translate(3638.592 5526.87) rotate(-9.217)" fill="none" stroke="#009444" stroke-linecap="round" stroke-linejoin="round" stroke-width="3"/>
        <g id="Group_327" data-name="Group 327">
          <path id="Path_457" data-name="Path 457" d="M3661.33,5562.1v48.562c0,1.851-2.16,4.527-6.275,4.527a5.839,5.839,0,0,0-10.7,0c-4.117,0-6.277-2.676-6.277-4.527V5562.1" fill="none" stroke="#009444" stroke-linecap="round" stroke-linejoin="round" stroke-width="3"/>
          <path id="Path_458" data-name="Path 458" d="M3661.33,5584.944c10.083-5.4,8.747-13.58,8.747-21.608,0-6.634-7.045-13.271-13.218-13.271H3642.55c-6.174,0-13.219,6.637-13.219,13.271,0,8.028-1.336,16.206,8.747,21.608" fill="none" stroke="#009444" stroke-linecap="round" stroke-linejoin="round" stroke-width="3"/>
          <line id="Line_132" data-name="Line 132" y1="27.521" transform="translate(3649.704 5584.172)" fill="none" stroke="#009444" stroke-linecap="round" stroke-linejoin="round" stroke-width="3"/>
        </g>
      </g>
      <g id="Group_330" data-name="Group 330" transform="translate(-4613 1139)">
        <circle id="Ellipse_54" data-name="Ellipse 54" cx="9.685" cy="9.685" r="9.685" transform="translate(3688.092 5526.87) rotate(-9.217)" fill="none" stroke="#009444" stroke-linecap="round" stroke-linejoin="round" stroke-width="3"/>
        <g id="Group_329" data-name="Group 329">
          <path id="Path_459" data-name="Path 459" d="M3710.83,5562.1v48.562c0,1.851-2.16,4.527-6.275,4.527a5.839,5.839,0,0,0-10.7,0c-4.117,0-6.277-2.676-6.277-4.527V5562.1" fill="none" stroke="#009444" stroke-linecap="round" stroke-linejoin="round" stroke-width="3"/>
          <path id="Path_460" data-name="Path 460" d="M3710.83,5584.944c10.083-5.4,8.747-13.58,8.747-21.608,0-6.634-7.045-13.271-13.218-13.271H3692.05c-6.174,0-13.219,6.637-13.219,13.271,0,8.028-1.336,16.206,8.747,21.608" fill="none" stroke="#009444" stroke-linecap="round" stroke-linejoin="round" stroke-width="3"/>
          <line id="Line_133" data-name="Line 133" y1="27.521" transform="translate(3699.204 5584.172)" fill="none" stroke="#009444" stroke-linecap="round" stroke-linejoin="round" stroke-width="3"/>
        </g>
      </g>
    </g>
    <g id="Group_560" data-name="Group 560">
      <g id="Group_334" data-name="Group 334" transform="translate(-4613 1139)">
        <line id="Line_134" data-name="Line 134" y2="427.137" transform="translate(3328.628 4740)" fill="none" stroke="#fdb913" stroke-miterlimit="10" stroke-width="3"/>
        <line id="Line_135" data-name="Line 135" x1="81.511" transform="translate(3328.626 5167.137)" fill="none" stroke="#fdb913" stroke-miterlimit="10" stroke-width="3"/>
        <g id="Group_333" data-name="Group 333">
          <line id="Line_136" data-name="Line 136" y2="403.057" transform="translate(3413.629 5167.138)" fill="none" stroke="#fdb913" stroke-miterlimit="10" stroke-width="3" stroke-dasharray="5 10"/>
          <path id="Path_461" data-name="Path 461" d="M3428.628,5373a15,15,0,1,1-15-15A15,15,0,0,1,3428.628,5373Z" fill="#fdb913"/>
          <path id="Path_462" data-name="Path 462" d="M3428.628,5570.194a15,15,0,1,1-15-15A15,15,0,0,1,3428.628,5570.194Z" fill="#fdb913"/>
        </g>
      </g>
      <g id="Group_559" data-name="Group 559">
        <g id="Group_558" data-name="Group 558">
          <text id="คณะรัฐมนตรีเห็นชอบการให้สิทธิ_คืนสิทธิ_ขั้นพื้นฐาน_ด้านสาธารณสุข_ครั้งที่_1_ให้กับบุคคลที่มีปัญหาสถานะ_และสิทธิ_457_490_คน" data-name="คณะรัฐมนตรีเห็นชอบการให้สิทธิ (คืนสิทธิ) ขั้นพื้นฐาน
ด้านสาธารณสุข (ครั้งที่ 1) ให้กับบุคคลที่มีปัญหาสถานะ
และสิทธิ 457,490 คน" transform="translate(-1141.141 6041.65)" font-size="30" font-family="IBMPlexSansThai, IBM Plex Sans Thai"><tspan x="0" y="0">คณะรัฐมนตรีเห็นชอบการให้สิทธิ (คืนสิทธิ) ขั้นพื้นฐาน</tspan><tspan x="0" y="45">ด้านสาธารณสุข (ครั้งที่ 1) ให้กับบุคคลที่มีปัญหาสถานะ</tspan><tspan x="0" y="90">และสิทธิ 457,490 คน</tspan></text>
          <g id="Group_557" data-name="Group 557">
            <g id="Group_555" data-name="Group 555">
              <text id="เข้าเมืองโดยชอบได้สิทธิอาศัยถาวร_ID_ขึ้นต้นด้วย_3_4" data-name="เข้าเมืองโดยชอบได้สิทธิอาศัยถาวร
ID ขึ้นต้นด้วย 3, 4" transform="translate(-842.421 6495.255)" fill="#009444" font-size="30" font-family="IBMPlexSansThai-Bold, IBM Plex Sans Thai" font-weight="700"><tspan x="0" y="0">เข้าเมืองโดยชอบได้สิทธิอาศัยถาวร</tspan><tspan font-family="IBMPlexSansThai, IBM Plex Sans Thai" font-weight="400" fill="#000"><tspan x="0" y="45">ID ขึ้นต้นด้วย 3, 4</tspan></tspan></text>
              <g id="Group_554" data-name="Group 554">
                <g id="Group_311" data-name="Group 311" transform="translate(-4613 1139)">
                  <path id="Path_437" data-name="Path 437" d="M3510.891,5337.681a9.687,9.687,0,1,0-9.688,9.685A9.688,9.688,0,0,0,3510.891,5337.681Z" fill="none" stroke="#009444" stroke-linecap="round" stroke-linejoin="round" stroke-width="3"/>
                  <g id="Group_310" data-name="Group 310">
                    <path id="Path_438" data-name="Path 438" d="M3512.83,5364.9v48.563c0,1.851-2.16,4.527-6.275,4.527a5.839,5.839,0,0,0-10.7,0c-4.117,0-6.277-2.676-6.277-4.527V5364.9" fill="none" stroke="#009444" stroke-linecap="round" stroke-linejoin="round" stroke-width="3"/>
                    <path id="Path_439" data-name="Path 439" d="M3512.83,5387.745c10.081-5.4,8.746-13.58,8.746-21.607,0-6.635-7.044-13.272-13.217-13.272h-14.311c-6.172,0-13.217,6.637-13.217,13.272,0,8.027-1.337,16.2,8.747,21.607" fill="none" stroke="#009444" stroke-linecap="round" stroke-linejoin="round" stroke-width="3"/>
                    <line id="Line_124" data-name="Line 124" y1="27.521" transform="translate(3501.203 5386.974)" fill="none" stroke="#009444" stroke-linecap="round" stroke-linejoin="round" stroke-width="3"/>
                  </g>
                </g>
                <g id="Group_313" data-name="Group 313" transform="translate(-4613 1139)">
                  <path id="Path_440" data-name="Path 440" d="M3560.391,5337.681a9.687,9.687,0,1,0-9.688,9.685A9.688,9.688,0,0,0,3560.391,5337.681Z" fill="none" stroke="#009444" stroke-linecap="round" stroke-linejoin="round" stroke-width="3"/>
                  <g id="Group_312" data-name="Group 312">
                    <path id="Path_441" data-name="Path 441" d="M3562.33,5364.9v48.563c0,1.851-2.16,4.527-6.275,4.527a5.839,5.839,0,0,0-10.7,0c-4.117,0-6.277-2.676-6.277-4.527V5364.9" fill="none" stroke="#009444" stroke-linecap="round" stroke-linejoin="round" stroke-width="3"/>
                    <path id="Path_442" data-name="Path 442" d="M3562.33,5387.745c10.081-5.4,8.746-13.58,8.746-21.607,0-6.635-7.044-13.272-13.217-13.272h-14.311c-6.172,0-13.217,6.637-13.217,13.272,0,8.027-1.337,16.2,8.747,21.607" fill="none" stroke="#009444" stroke-linecap="round" stroke-linejoin="round" stroke-width="3"/>
                    <line id="Line_125" data-name="Line 125" y1="27.521" transform="translate(3550.703 5386.974)" fill="none" stroke="#009444" stroke-linecap="round" stroke-linejoin="round" stroke-width="3"/>
                  </g>
                </g>
                <g id="Group_315" data-name="Group 315" transform="translate(-4613 1139)">
                  <circle id="Ellipse_49" data-name="Ellipse 49" cx="9.686" cy="9.686" r="9.686" transform="translate(3590.389 5347.234) rotate(-89.226)" fill="none" stroke="#009444" stroke-linecap="round" stroke-linejoin="round" stroke-width="3"/>
                  <g id="Group_314" data-name="Group 314">
                    <path id="Path_443" data-name="Path 443" d="M3611.83,5364.9v48.563c0,1.851-2.16,4.527-6.275,4.527a5.839,5.839,0,0,0-10.7,0c-4.117,0-6.277-2.676-6.277-4.527V5364.9" fill="none" stroke="#009444" stroke-linecap="round" stroke-linejoin="round" stroke-width="3"/>
                    <path id="Path_444" data-name="Path 444" d="M3611.83,5387.745c10.083-5.4,8.747-13.58,8.747-21.607,0-6.635-7.045-13.272-13.218-13.272h-14.311c-6.172,0-13.217,6.637-13.217,13.272,0,8.027-1.337,16.2,8.747,21.607" fill="none" stroke="#009444" stroke-linecap="round" stroke-linejoin="round" stroke-width="3"/>
                    <line id="Line_126" data-name="Line 126" y1="27.521" transform="translate(3600.204 5386.974)" fill="none" stroke="#009444" stroke-linecap="round" stroke-linejoin="round" stroke-width="3"/>
                  </g>
                </g>
                <g id="Group_317" data-name="Group 317" transform="translate(-4613 1139)">
                  <circle id="Ellipse_50" data-name="Ellipse 50" cx="9.685" cy="9.685" r="9.685" transform="matrix(0.987, -0.16, 0.16, 0.987, 3638.592, 5329.671)" fill="none" stroke="#009444" stroke-linecap="round" stroke-linejoin="round" stroke-width="3"/>
                  <g id="Group_316" data-name="Group 316">
                    <path id="Path_445" data-name="Path 445" d="M3661.33,5364.9v48.563c0,1.851-2.16,4.527-6.275,4.527a5.839,5.839,0,0,0-10.7,0c-4.117,0-6.277-2.676-6.277-4.527V5364.9" fill="none" stroke="#009444" stroke-linecap="round" stroke-linejoin="round" stroke-width="3"/>
                    <path id="Path_446" data-name="Path 446" d="M3661.33,5387.745c10.083-5.4,8.747-13.58,8.747-21.607,0-6.635-7.045-13.272-13.218-13.272H3642.55c-6.174,0-13.219,6.637-13.219,13.272,0,8.027-1.336,16.2,8.747,21.607" fill="none" stroke="#009444" stroke-linecap="round" stroke-linejoin="round" stroke-width="3"/>
                    <line id="Line_127" data-name="Line 127" y1="27.521" transform="translate(3649.704 5386.974)" fill="none" stroke="#009444" stroke-linecap="round" stroke-linejoin="round" stroke-width="3"/>
                  </g>
                </g>
                <g id="Group_319" data-name="Group 319" transform="translate(-4613 1139)">
                  <circle id="Ellipse_51" data-name="Ellipse 51" cx="9.685" cy="9.685" r="9.685" transform="matrix(0.987, -0.16, 0.16, 0.987, 3688.092, 5329.671)" fill="none" stroke="#009444" stroke-linecap="round" stroke-linejoin="round" stroke-width="3"/>
                  <g id="Group_318" data-name="Group 318">
                    <path id="Path_447" data-name="Path 447" d="M3710.83,5364.9v48.563c0,1.851-2.16,4.527-6.275,4.527a5.839,5.839,0,0,0-10.7,0c-4.117,0-6.277-2.676-6.277-4.527V5364.9" fill="none" stroke="#009444" stroke-linecap="round" stroke-linejoin="round" stroke-width="3"/>
                    <path id="Path_448" data-name="Path 448" d="M3710.83,5387.745c10.083-5.4,8.747-13.58,8.747-21.607,0-6.635-7.045-13.272-13.218-13.272H3692.05c-6.174,0-13.219,6.637-13.219,13.272,0,8.027-1.336,16.2,8.747,21.607" fill="none" stroke="#009444" stroke-linecap="round" stroke-linejoin="round" stroke-width="3"/>
                    <line id="Line_128" data-name="Line 128" y1="27.521" transform="translate(3699.204 5386.974)" fill="none" stroke="#009444" stroke-linecap="round" stroke-linejoin="round" stroke-width="3"/>
                  </g>
                </g>
              </g>
              <text id="คนต่างด้าวที่เข้าเมืองโดยชอบ_ด้วยกฎหมาย_มีสิทธิอาศัยถาวร_ID_ขึ้นต้นด้วย_5_8" data-name="คนต่างด้าวที่เข้าเมืองโดยชอบ
ด้วยกฎหมาย มีสิทธิอาศัยถาวร 
ID ขึ้นต้นด้วย 5, 8" transform="translate(-844.307 6671.769)" fill="#009444" font-size="30" font-family="IBMPlexSansThai-Bold, IBM Plex Sans Thai" font-weight="700"><tspan x="0" y="0">คนต่างด้าวที่เข้าเมืองโดยชอบ</tspan><tspan x="0" y="45">ด้วยกฎหมาย มีสิทธิอาศัยถาวร </tspan><tspan font-family="IBMPlexSansThai, IBM Plex Sans Thai" font-weight="400" fill="#000"><tspan x="0" y="90">ID ขึ้นต้นด้วย 5, 8</tspan></tspan></text>
            </g>
            <g id="Group_556" data-name="Group 556">
              <rect id="Rectangle_84" data-name="Rectangle 84" width="400" height="150" rx="40" transform="translate(-1132.228 6231.137)" fill="#009444"/>
              <text id="กลุ่มที่_ครม._รับรองสถานะ_2_แสนคน" data-name="กลุ่มที่ ครม. รับรองสถานะ
2 แสนคน" transform="translate(-932.228 6293.381)" fill="#fff" font-size="30" font-family="IBMPlexSansThai-Bold, IBM Plex Sans Thai" font-weight="700"><tspan x="-161.94" y="0">กลุ่มที่ ครม. รับรองสถานะ</tspan><tspan font-size="50"><tspan x="-100.325" y="55">2 แสนคน</tspan></tspan></text>
            </g>
          </g>
        </g>
        <g id="Group_335" data-name="Group 335" transform="translate(-4613 1139)">
          <circle id="Ellipse_55" data-name="Ellipse 55" cx="95" cy="95" r="95" transform="translate(3233.628 4845)" fill="#fff" stroke="#fdb913" stroke-linecap="round" stroke-linejoin="round" stroke-width="3"/>
          <text id="_23_มี.ค._2553" data-name="23 มี.ค.
2553" transform="translate(3328.628 4932.11)" fill="#009444" font-size="45" font-family="IBMPlexSansThai-Bold, IBM Plex Sans Thai" font-weight="700"><tspan x="-74.903" y="0">23 มี.ค.</tspan><tspan x="-54" y="50">2553</tspan></text>
        </g>
      </g>
    </g>
  </g>
</svg>
