<svg xmlns="http://www.w3.org/2000/svg" xmlns:xlink="http://www.w3.org/1999/xlink" width="1371.507" height="578.082" viewBox="0 0 1371.507 578.082">
  <defs>
    <linearGradient id="linear-gradient" x1="0.5" y1="1" x2="0.5" gradientUnits="objectBoundingBox">
      <stop offset="0" stop-color="#f24c3b" stop-opacity="0.4"/>
      <stop offset="1" stop-color="#f24c3b"/>
    </linearGradient>
  </defs>
  <g id="Group_536" data-name="Group 536" transform="translate(-158.023 -273.145)">
    <text id="จำนวนผู้มีสิทธิ_คน_" data-name="จำนวนผู้มีสิทธิ (คน)" transform="translate(266.023 303.145)" fill="#fff" font-size="27" font-family="IBMPlexThai, IBM Plex Thai"><tspan x="-107.635" y="0">จำนวนผู้มีสิทธิ (คน)</tspan></text>
    <text id="_100_000" data-name="100,000" transform="translate(310.434 763.953)" fill="#fff" font-size="27" font-family="IBMPlexThai, IBM Plex Thai"><tspan x="-104.544" y="0">100,000</tspan></text>
    <text id="_0" data-name="0" transform="translate(305.434 815.551)" fill="#fff" font-size="27" font-family="SegoeUI, Segoe UI"><tspan x="-14.555" y="0">0</tspan></text>
    <text id="_200_000" data-name="200,000" transform="translate(310.434 712.355)" fill="#fff" font-size="27" font-family="IBMPlexThai, IBM Plex Thai"><tspan x="-104.544" y="0">200,000</tspan></text>
    <text id="_300_000" data-name="300,000" transform="translate(310.434 660.759)" fill="#fff" font-size="27" font-family="IBMPlexThai, IBM Plex Thai"><tspan x="-104.544" y="0">300,000</tspan></text>
    <text id="_400_000" data-name="400,000" transform="translate(310.434 609.162)" fill="#fff" font-size="27" font-family="IBMPlexThai, IBM Plex Thai"><tspan x="-104.544" y="0">400,000</tspan></text>
    <text id="_500_000" data-name="500,000" transform="translate(310.434 557.564)" fill="#fff" font-size="27" font-family="IBMPlexThai, IBM Plex Thai"><tspan x="-104.544" y="0">500,000</tspan></text>
    <text id="_600_000" data-name="600,000" transform="translate(310.434 505.967)" fill="#fff" font-size="27" font-family="IBMPlexThai, IBM Plex Thai"><tspan x="-104.544" y="0">600,000</tspan></text>
    <text id="_700_000" data-name="700,000" transform="translate(310.434 454.37)" fill="#fff" font-size="27" font-family="IBMPlexThai, IBM Plex Thai"><tspan x="-104.544" y="0">700,000</tspan></text>
    <text id="_800_000" data-name="800,000" transform="translate(310.434 402.773)" fill="#fff" font-size="27" font-family="IBMPlexThai, IBM Plex Thai"><tspan x="-104.544" y="0">800,000</tspan></text>
    <text id="_900_000" data-name="900,000" transform="translate(310.434 351.176)" fill="#fff" font-size="27" font-family="IBMPlexThai, IBM Plex Thai"><tspan x="-104.544" y="0">900,000</tspan></text>
    <g id="Group_185" data-name="Group 185" transform="translate(-2420 -12640)">
      <path id="Path_312" data-name="Path 312" d="M3894.85,13164.873l-109.355-13.945-109.7,7.824-109.686-.17-109.7-119.562-110.04-19.217-109.7,164.115-109.7,23.641-109.359,8.5-109.865-2.551-109.951-2.383v235.662H3894.85Z" opacity="0.4" fill="url(#linear-gradient)"/>
      <g id="Group_182" data-name="Group 182">
        <g id="Group_171" data-name="Group 171">
          <line id="Line_70" data-name="Line 70" y2="234.252" transform="translate(2797.568 13212.539)" fill="none" stroke="#fff" stroke-miterlimit="10" stroke-width="2"/>
        </g>
        <g id="Group_172" data-name="Group 172">
          <line id="Line_71" data-name="Line 71" y2="231.404" transform="translate(2907.319 13215.387)" fill="none" stroke="#fff" stroke-miterlimit="10" stroke-width="2"/>
        </g>
        <g id="Group_173" data-name="Group 173">
          <line id="Line_72" data-name="Line 72" y2="231.404" transform="translate(3017.071 13215.387)" fill="none" stroke="#fff" stroke-miterlimit="10" stroke-width="2"/>
        </g>
        <g id="Group_174" data-name="Group 174">
          <line id="Line_73" data-name="Line 73" y2="239.609" transform="translate(3126.823 13207.182)" fill="none" stroke="#fff" stroke-miterlimit="10" stroke-width="2"/>
        </g>
        <g id="Group_175" data-name="Group 175">
          <line id="Line_74" data-name="Line 74" y2="263.547" transform="translate(3236.573 13183.244)" fill="none" stroke="#fff" stroke-miterlimit="10" stroke-width="2"/>
        </g>
        <g id="Group_176" data-name="Group 176">
          <line id="Line_75" data-name="Line 75" y2="427.664" transform="translate(3346.325 13019.127)" fill="none" stroke="#fff" stroke-miterlimit="10" stroke-width="2"/>
        </g>
        <g id="Group_177" data-name="Group 177">
          <line id="Line_76" data-name="Line 76" y2="408.445" transform="translate(3456.077 13038.346)" fill="none" stroke="#fff" stroke-miterlimit="10" stroke-width="2"/>
        </g>
        <g id="Group_178" data-name="Group 178">
          <line id="Line_77" data-name="Line 77" y2="288.248" transform="translate(3565.829 13158.543)" fill="none" stroke="#fff" stroke-miterlimit="10" stroke-width="2"/>
        </g>
        <g id="Group_179" data-name="Group 179">
          <line id="Line_78" data-name="Line 78" y2="288.248" transform="translate(3675.58 13158.543)" fill="none" stroke="#fff" stroke-miterlimit="10" stroke-width="2"/>
        </g>
        <g id="Group_180" data-name="Group 180">
          <line id="Line_79" data-name="Line 79" y2="294.539" transform="translate(3785.332 13152.252)" fill="none" stroke="#fff" stroke-miterlimit="10" stroke-width="2"/>
        </g>
        <g id="Group_181" data-name="Group 181">
          <line id="Line_80" data-name="Line 80" y2="282.594" transform="translate(3895.083 13164.197)" fill="none" stroke="#fff" stroke-miterlimit="10" stroke-width="2"/>
        </g>
      </g>
      <g id="Group_184" data-name="Group 184">
        <path id="Path_313" data-name="Path 313" d="M2797.8,13211.129l109.951,2.383,109.865,2.551,109.359-8.5,109.7-23.641,109.7-164.115,110.04,19.217,109.7,119.563,109.686.17,109.7-7.824,109.355,13.945" fill="none" stroke="#f24c3b" stroke-linecap="round" stroke-linejoin="round" stroke-width="3"/>
        <g id="Group_183" data-name="Group 183">
          <path id="Path_314" data-name="Path 314" d="M2803.458,13211.133a5.655,5.655,0,1,1-5.654-5.658A5.654,5.654,0,0,1,2803.458,13211.133Z" fill="#f24c3b"/>
          <path id="Path_315" data-name="Path 315" d="M2913.409,13213.516a5.656,5.656,0,1,1-5.656-5.658A5.654,5.654,0,0,1,2913.409,13213.516Z" fill="#f24c3b"/>
          <path id="Path_316" data-name="Path 316" d="M3023.274,13216.065a5.656,5.656,0,1,1-5.656-5.657A5.652,5.652,0,0,1,3023.274,13216.065Z" fill="#f24c3b"/>
          <path id="Path_317" data-name="Path 317" d="M3132.634,13207.561a5.656,5.656,0,1,1-5.654-5.658A5.654,5.654,0,0,1,3132.634,13207.561Z" fill="#f24c3b"/>
          <path id="Path_318" data-name="Path 318" d="M3242.33,13183.92a5.656,5.656,0,1,1-5.654-5.656A5.654,5.654,0,0,1,3242.33,13183.92Z" fill="#f24c3b"/>
          <path id="Path_319" data-name="Path 319" d="M3352.026,13019.8a5.656,5.656,0,1,1-5.654-5.655A5.654,5.654,0,0,1,3352.026,13019.8Z" fill="#f24c3b"/>
          <path id="Path_320" data-name="Path 320" d="M3462.065,13039.022a5.656,5.656,0,1,1-5.655-5.657A5.654,5.654,0,0,1,3462.065,13039.022Z" fill="#f24c3b"/>
          <circle id="Ellipse_17" data-name="Ellipse 17" cx="5.654" cy="5.654" r="5.654" transform="translate(3560.455 13152.928)" fill="#f24c3b"/>
          <circle id="Ellipse_18" data-name="Ellipse 18" cx="5.654" cy="5.654" r="5.654" transform="translate(3670.141 13153.098)" fill="#f24c3b"/>
          <circle id="Ellipse_19" data-name="Ellipse 19" cx="5.654" cy="5.654" r="5.654" transform="translate(3779.84 13145.273)" fill="#f24c3b"/>
          <path id="Path_321" data-name="Path 321" d="M3900.5,13164.873a5.654,5.654,0,1,1-5.654-5.654A5.652,5.652,0,0,1,3900.5,13164.873Z" fill="#f24c3b"/>
        </g>
      </g>
    </g>
    <g id="Group_187" data-name="Group 187" transform="translate(-2420 -12640)">
      <g id="Group_186" data-name="Group 186">
        <path id="Path_322" data-name="Path 322" d="M2842.623,13183.4a13.038,13.038,0,0,1-13,13h-64a13.039,13.039,0,0,1-13-13h0a13.039,13.039,0,0,1,13-13h64a13.038,13.038,0,0,1,13,13Z" fill="#f24c3b"/>
        <path id="Path_323" data-name="Path 323" d="M2797.624,13205.475l-7.484-9.074h14.967Z" fill="#f24c3b"/>
      </g>
      <text id="_457_409" data-name="457,409" transform="translate(2797.623 13190.355)" fill="#fff" font-size="20" font-family="IBMPlexThai, IBM Plex Thai"><tspan x="-38.72" y="0">457,409</tspan></text>
    </g>
    <g id="Group_189" data-name="Group 189" transform="translate(-2420 -12640)">
      <g id="Group_188" data-name="Group 188">
        <path id="Path_324" data-name="Path 324" d="M2952.375,13185.039a13.038,13.038,0,0,1-13,13h-64a13.037,13.037,0,0,1-13-13h0a13.038,13.038,0,0,1,13-13h64a13.039,13.039,0,0,1,13,13Z" fill="#f24c3b"/>
        <path id="Path_325" data-name="Path 325" d="M2907.375,13207.113l-7.484-9.074h14.967Z" fill="#f24c3b"/>
      </g>
      <text id="_452_553" data-name="452,553" transform="translate(2907.375 13191.994)" fill="#fff" font-size="20" font-family="IBMPlexThai, IBM Plex Thai"><tspan x="-38.72" y="0">452,553</tspan></text>
    </g>
    <g id="Group_191" data-name="Group 191" transform="translate(-2420 -12640)">
      <g id="Group_190" data-name="Group 190">
        <path id="Path_326" data-name="Path 326" d="M3062.127,13187.457a13.039,13.039,0,0,1-13,13h-64a13.038,13.038,0,0,1-13-13h0a13.038,13.038,0,0,1,13-13h64a13.039,13.039,0,0,1,13,13Z" fill="#f24c3b"/>
        <path id="Path_327" data-name="Path 327" d="M3017.127,13209.531l-7.484-9.074h14.967Z" fill="#f24c3b"/>
      </g>
      <text id="_446_492" data-name="446,492" transform="translate(3017.126 13194.412)" fill="#fff" font-size="20" font-family="IBMPlexThai, IBM Plex Thai"><tspan x="-38.72" y="0">446,492</tspan></text>
    </g>
    <g id="Group_193" data-name="Group 193" transform="translate(-2420 -12640)">
      <g id="Group_192" data-name="Group 192">
        <path id="Path_328" data-name="Path 328" d="M3171.879,13179.383a13.038,13.038,0,0,1-13,13h-64a13.039,13.039,0,0,1-13-13h0a13.039,13.039,0,0,1,13-13h64a13.038,13.038,0,0,1,13,13Z" fill="#f24c3b"/>
        <path id="Path_329" data-name="Path 329" d="M3126.879,13201.457l-7.484-9.074h14.967Z" fill="#f24c3b"/>
      </g>
      <text id="_461_975" data-name="461,975" transform="translate(3126.878 13186.338)" fill="#fff" font-size="20" font-family="IBMPlexThai, IBM Plex Thai"><tspan x="-38.72" y="0">461,975</tspan></text>
    </g>
    <g id="Group_535" data-name="Group 535">
      <g id="Group_195" data-name="Group 195" transform="translate(-2420 -12640)">
        <g id="Group_194" data-name="Group 194">
          <path id="Path_330" data-name="Path 330" d="M3281.63,13156.414a13.037,13.037,0,0,1-13,13h-64a13.037,13.037,0,0,1-13-13h0a13.038,13.038,0,0,1,13-13h64a13.038,13.038,0,0,1,13,13Z" fill="#f24c3b"/>
          <path id="Path_331" data-name="Path 331" d="M3236.63,13178.488l-7.484-9.074h14.968Z" fill="#f24c3b"/>
        </g>
        <text id="_507_645" data-name="507,645" transform="translate(3236.629 13163.369)" fill="#fff" font-size="20" font-family="IBMPlexThai, IBM Plex Thai"><tspan x="-38.72" y="0">507,645</tspan></text>
      </g>
    </g>
    <g id="Group_197" data-name="Group 197" transform="translate(-2420 -12640)">
      <g id="Group_196" data-name="Group 196">
        <path id="Path_332" data-name="Path 332" d="M3391.382,12991.457a13.039,13.039,0,0,1-13,13h-64a13.038,13.038,0,0,1-13-13h0a13.038,13.038,0,0,1,13-13h64a13.039,13.039,0,0,1,13,13Z" fill="#f24c3b"/>
        <path id="Path_333" data-name="Path 333" d="M3346.382,13013.531l-7.484-9.074h14.967Z" fill="#f24c3b"/>
      </g>
      <text id="_825_153" data-name="825,153" transform="translate(3346.381 12998.412)" fill="#fff" font-size="20" font-family="IBMPlexThai, IBM Plex Thai"><tspan x="-38.72" y="0">825,153</tspan></text>
    </g>
    <g id="Group_199" data-name="Group 199" transform="translate(-2420 -12640)">
      <g id="Group_198" data-name="Group 198">
        <path id="Path_334" data-name="Path 334" d="M3501.133,13012.08a13.037,13.037,0,0,1-13,13h-64a13.037,13.037,0,0,1-13-13h0a13.037,13.037,0,0,1,13-13h64a13.038,13.038,0,0,1,13,13Z" fill="#f24c3b"/>
        <path id="Path_335" data-name="Path 335" d="M3456.133,13034.154l-7.484-9.074h14.968Z" fill="#f24c3b"/>
      </g>
      <text id="_789_519" data-name="789,519" transform="translate(3456.133 13019.035)" fill="#fff" font-size="20" font-family="IBMPlexThai, IBM Plex Thai"><tspan x="-38.72" y="0">789,519</tspan></text>
    </g>
    <g id="Group_201" data-name="Group 201" transform="translate(-2420 -12640)">
      <g id="Group_200" data-name="Group 200">
        <path id="Path_336" data-name="Path 336" d="M3610.885,13131.656a13.038,13.038,0,0,1-13,13h-64a13.037,13.037,0,0,1-13-13h0a13.037,13.037,0,0,1,13-13h64a13.038,13.038,0,0,1,13,13Z" fill="#f24c3b"/>
        <path id="Path_337" data-name="Path 337" d="M3565.885,13153.73l-7.484-9.074h14.968Z" fill="#f24c3b"/>
      </g>
      <text id="_558_334" data-name="558,334" transform="translate(3565.884 13138.611)" fill="#fff" font-size="20" font-family="IBMPlexThai, IBM Plex Thai"><tspan x="-38.72" y="0">558,334</tspan></text>
    </g>
    <g id="Group_203" data-name="Group 203" transform="translate(-2420 -12640)">
      <g id="Group_202" data-name="Group 202">
        <path id="Path_338" data-name="Path 338" d="M3720.637,13131.656a13.039,13.039,0,0,1-13,13h-64a13.038,13.038,0,0,1-13-13h0a13.038,13.038,0,0,1,13-13h64a13.039,13.039,0,0,1,13,13Z" fill="#f24c3b"/>
        <path id="Path_339" data-name="Path 339" d="M3675.637,13153.73l-7.484-9.074h14.967Z" fill="#f24c3b"/>
      </g>
      <text id="_557_324" data-name="557,324" transform="translate(3675.636 13138.611)" fill="#fff" font-size="20" font-family="IBMPlexThai, IBM Plex Thai"><tspan x="-38.72" y="0">557,324</tspan></text>
    </g>
    <g id="Group_205" data-name="Group 205" transform="translate(-2420 -12640)">
      <g id="Group_204" data-name="Group 204">
        <path id="Path_340" data-name="Path 340" d="M3830.388,13123.881a13.038,13.038,0,0,1-13,13h-64a13.037,13.037,0,0,1-13-13h0a13.038,13.038,0,0,1,13-13h64a13.039,13.039,0,0,1,13,13Z" fill="#f24c3b"/>
        <path id="Path_341" data-name="Path 341" d="M3785.388,13145.955l-7.484-9.074h14.968Z" fill="#f24c3b"/>
      </g>
      <text id="_574_618" data-name="574,618" transform="translate(3785.387 13130.836)" fill="#fff" font-size="20" font-family="IBMPlexThai, IBM Plex Thai"><tspan x="-38.72" y="0">574,618</tspan></text>
    </g>
    <g id="Group_207" data-name="Group 207" transform="translate(-2420 -12640)">
      <g id="Group_206" data-name="Group 206">
        <path id="Path_342" data-name="Path 342" d="M3940.14,13136.881a13.038,13.038,0,0,1-13,13h-64a13.037,13.037,0,0,1-13-13h0a13.038,13.038,0,0,1,13-13h64a13.039,13.039,0,0,1,13,13Z" fill="#f24c3b"/>
        <path id="Path_343" data-name="Path 343" d="M3895.14,13158.955l-7.484-9.074h14.967Z" fill="#f24c3b"/>
      </g>
      <text id="_547_160" data-name="547,160" transform="translate(3895.139 13143.836)" fill="#fff" font-size="20" font-family="IBMPlexThai, IBM Plex Thai"><tspan x="-38.72" y="0">547,160</tspan></text>
    </g>
    <line id="Line_81" data-name="Line 81" y2="479.631" transform="translate(322.862 327.16)" fill="none" stroke="#fff" stroke-miterlimit="10" stroke-width="2"/>
    <g id="Group_208" data-name="Group 208" transform="translate(-2420 -12640)">
      <rect id="Rectangle_75" data-name="Rectangle 75" width="1208.507" height="40" rx="20" transform="translate(2741.022 13447.467)" fill="#939598"/>
      <text id="_2553" data-name="2553" transform="translate(2797.624 13477.227)" fill="#fff" font-size="27" font-family="IBMPlexThai, IBM Plex Thai"><tspan x="-32.4" y="0">2553</tspan></text>
      <text id="_2554" data-name="2554" transform="translate(2907.697 13477.227)" fill="#fff" font-size="27" font-family="IBMPlexThai, IBM Plex Thai"><tspan x="-32.4" y="0">2554</tspan></text>
      <text id="_2555" data-name="2555" transform="translate(3017.413 13477.227)" fill="#fff" font-size="27" font-family="IBMPlexThai, IBM Plex Thai"><tspan x="-32.4" y="0">2555</tspan></text>
      <text id="_2556" data-name="2556" transform="translate(3127.129 13477.227)" fill="#fff" font-size="27" font-family="IBMPlexThai, IBM Plex Thai"><tspan x="-32.4" y="0">2556</tspan></text>
      <text id="_2557" data-name="2557" transform="translate(3236.844 13477.227)" fill="#fff" font-size="27" font-family="IBMPlexThai, IBM Plex Thai"><tspan x="-32.4" y="0">2557</tspan></text>
      <text id="_2558" data-name="2558" transform="translate(3346.56 13477.227)" fill="#fff" font-size="27" font-family="IBMPlexThai, IBM Plex Thai"><tspan x="-32.4" y="0">2558</tspan></text>
      <text id="_2559" data-name="2559" transform="translate(3456.276 13477.227)" fill="#fff" font-size="27" font-family="IBMPlexThai, IBM Plex Thai"><tspan x="-32.4" y="0">2559</tspan></text>
      <text id="_2560" data-name="2560" transform="translate(3565.992 13477.227)" fill="#fff" font-size="27" font-family="IBMPlexThai, IBM Plex Thai"><tspan x="-32.4" y="0">2560</tspan></text>
      <text id="_2561" data-name="2561" transform="translate(3675.708 13477.227)" fill="#fff" font-size="27" font-family="IBMPlexThai, IBM Plex Thai"><tspan x="-32.4" y="0">2561</tspan></text>
      <text id="_2562" data-name="2562" transform="translate(3785.424 13477.227)" fill="#fff" font-size="27" font-family="IBMPlexThai, IBM Plex Thai"><tspan x="-32.4" y="0">2562</tspan></text>
      <text id="_2563" data-name="2563" transform="translate(3895.139 13477.227)" fill="#fff" font-size="27" font-family="IBMPlexThai, IBM Plex Thai"><tspan x="-32.4" y="0">2563</tspan></text>
    </g>
  </g>
</svg>
