<svg xmlns="http://www.w3.org/2000/svg" width="1379.5" height="1055.69" viewBox="0 0 1379.5 1055.69">
  <g id="Group_497" data-name="Group 497" transform="translate(-441.449 -25.75)">
    <g id="Group_515" data-name="Group 515">
      <text id="_1" data-name="1" transform="translate(552.949 984.556)" fill="#fff" font-size="130" font-family="IBMPlexSansThai-Bold, IBM Plex Sans Thai" font-weight="700"><tspan x="-78" y="0">1</tspan></text>
      <text id="_2" data-name="2" transform="translate(692.949 834.556)" fill="#fff" font-size="130" font-family="IBMPlexSansThai-Bold, IBM Plex Sans Thai" font-weight="700"><tspan x="-78" y="0">2</tspan></text>
      <text id="_3" data-name="3" transform="translate(832.949 684.556)" fill="#fff" font-size="130" font-family="IBMPlexSansThai-Bold, IBM Plex Sans Thai" font-weight="700"><tspan x="-78" y="0">3</tspan></text>
      <text id="_4" data-name="4" transform="translate(972.949 534.557)" fill="#fff" font-size="130" font-family="IBMPlexSansThai-Bold, IBM Plex Sans Thai" font-weight="700"><tspan x="-78" y="0">4</tspan></text>
      <text id="_5" data-name="5" transform="translate(1112.949 384.557)" fill="#fff" font-size="130" font-family="IBMPlexSansThai-Bold, IBM Plex Sans Thai" font-weight="700"><tspan x="-78" y="0">5</tspan></text>
      <g id="Group_496" data-name="Group 496">
        <text id="ขยายสิทธิประโยชน์ให้เท่าเทียมกับระบบหลักประกันสุขภาพถ้วนหน้า_เน้นการบริหารเชิงรุก_และลดอุปสรรคการเข้าถึงบริการ_เช่น_ภาษาในการสื่อสาร" data-name="ขยายสิทธิประโยชน์ให้เท่าเทียมกับระบบหลักประกันสุขภาพถ้วนหน้า 
เน้นการบริหารเชิงรุก และลดอุปสรรคการเข้าถึงบริการ เช่น ภาษาในการสื่อสาร" transform="translate(632.949 936.142)" font-size="35" font-family="IBMPlexSansThai, IBM Plex Sans Thai"><tspan x="0" y="0">ขยายสิทธิประโยชน์ให้เท่าเทียมกับระบบหลักประกันสุขภาพถ้วนหน้า </tspan><tspan x="0" y="50">เน้นการบริหารเชิงรุก และลดอุปสรรคการเข้าถึงบริการ เช่น ภาษาในการสื่อสาร</tspan></text>
        <text id="พัฒนาการบริหารจัดการกองทุน_ให้มีประสิทธิภาพยิ่งขึ้น_" data-name="พัฒนาการบริหารจัดการกองทุนฯ ให้มีประสิทธิภาพยิ่งขึ้น " transform="translate(772.949 811.293)" font-size="35" font-family="IBMPlexSansThai, IBM Plex Sans Thai"><tspan x="0" y="0">พัฒนาการบริหารจัดการกองทุนฯ ให้มีประสิทธิภาพยิ่งขึ้น </tspan></text>
        <text id="ปรับปรุงระบบเบิกจ่ายและระบบสนับสนุนเพื่อลดภาระผู้ปฏิบัติงาน" transform="translate(912.949 661.219)" font-size="35" font-family="IBMPlexSansThai, IBM Plex Sans Thai"><tspan x="0" y="0">ปรับปรุงระบบเบิกจ่ายและระบบสนับสนุนเพื่อลดภาระผู้ปฏิบัติงาน</tspan></text>
        <text id="จัดตั้งอาสาสมัครสาธารณสุขชายแดน_อสช._โดยกลุ่มชาติพันธุ์" data-name="จัดตั้งอาสาสมัครสาธารณสุขชายแดน (อสช.) 
โดยกลุ่มชาติพันธุ์" transform="translate(1052.949 486.293)" font-size="35" font-family="IBMPlexSansThai, IBM Plex Sans Thai"><tspan x="0" y="0">จัดตั้งอาสาสมัครสาธารณสุขชายแดน (อสช.) </tspan><tspan x="0" y="50">โดยกลุ่มชาติพันธุ์</tspan></text>
        <text id="จัดตั้งกองทุนควบคุมโรคตามแนวชายแดน_โดยเฉพาะกลุ่มบุคคลที่มีปัญหาความมั่นคง" data-name="จัดตั้งกองทุนควบคุมโรคตามแนวชายแดน 
โดยเฉพาะกลุ่มบุคคลที่มีปัญหาความมั่นคง" transform="translate(1192.949 336.143)" font-size="35" font-family="IBMPlexSansThai, IBM Plex Sans Thai"><tspan x="0" y="0">จัดตั้งกองทุนควบคุมโรคตามแนวชายแดน </tspan><tspan x="0" y="50">โดยเฉพาะกลุ่มบุคคลที่มีปัญหาความมั่นคง</tspan></text>
        <g id="Group_15" data-name="Group 15" transform="translate(-7260 -1580)">
          <g id="Group_13" data-name="Group 13">
            <g id="Group_516" data-name="Group 516">
              <path id="Path_11" data-name="Path 11" d="M7842.949,2601.363v-150h140" fill="none" stroke="#fff" stroke-linecap="round" stroke-linejoin="round" stroke-width="3"/>
              <path id="Path_12" data-name="Path 12" d="M7702.949,2659.939v-58.576h140" fill="none" stroke="#fff" stroke-linecap="round" stroke-linejoin="round" stroke-width="3"/>
              <path id="Path_13" data-name="Path 13" d="M7982.949,2451.363v-150h140" fill="none" stroke="#fff" stroke-linecap="round" stroke-linejoin="round" stroke-width="3"/>
              <path id="Path_14" data-name="Path 14" d="M8122.949,2301.363v-150h140" fill="none" stroke="#fff" stroke-linecap="round" stroke-linejoin="round" stroke-width="3"/>
              <path id="Path_15" data-name="Path 15" d="M8262.948,2151.363v-150h140" fill="none" stroke="#fff" stroke-linecap="round" stroke-linejoin="round" stroke-width="3"/>
              <line id="Line_6" data-name="Line 6" y1="166.842" transform="translate(8402.948 1834.522)" fill="none" stroke="#fff" stroke-linecap="round" stroke-linejoin="round" stroke-width="3"/>
            </g>
          </g>
          <g id="Group_14" data-name="Group 14">
            <path id="Path_16" data-name="Path 16" d="M8494.612,1751.926a88.5,88.5,0,1,1-88.5-88.5A88.5,88.5,0,0,1,8494.612,1751.926Z" transform="translate(-3 -2.895)" fill="#f24c3b" stroke="#fff" stroke-linecap="round" stroke-linejoin="round" stroke-width="3"/>
            <path id="Path_17" data-name="Path 17" d="M8465.2,1752.294a58.711,58.711,0,1,1-58.709-58.714A58.708,58.708,0,0,1,8465.2,1752.294Z" transform="translate(-3 -3.637)" fill="#fff" stroke="#fff" stroke-linecap="round" stroke-linejoin="round" stroke-width="3"/>
            <path id="Path_18" data-name="Path 18" d="M8435.264,1753.035A28.036,28.036,0,1,1,8407.229,1725,28.032,28.032,0,0,1,8435.264,1753.035Z" transform="translate(-4 -4.119)" fill="#f24c3b" stroke="#fff" stroke-linecap="round" stroke-linejoin="round" stroke-width="3"/>
            <path id="Path_19" data-name="Path 19" d="M8535.026,1654.936l-23.548-4.862,11.2-12.032a5.934,5.934,0,1,0-8.687-8.087l-11.2,12.032-6.531-23.142a5.936,5.936,0,0,0-11.426,3.223l8.49,30.086-7.9,8.483-6.109-21.647a5.936,5.936,0,0,0-11.425,3.224l8.068,28.588-76.853,83.448a5.934,5.934,0,1,0,8.687,8.088l75.75-82.264,32.141,6.63a5.934,5.934,0,0,0,2.4-11.624l-25.071-5.173,9-9.668,30.611,6.32a6,6,0,0,0,1.207.123,5.935,5.935,0,0,0,1.192-11.747Z" transform="translate(0 -7.254)" fill="#f24c3b" stroke="#fff" stroke-linecap="round" stroke-linejoin="round" stroke-width="3"/>
          </g>
        </g>
      </g>
    </g>
  </g>
</svg>
