<svg xmlns="http://www.w3.org/2000/svg" width="969" height="657.475" viewBox="0 0 969 657.475">
  <g id="Group_588" data-name="Group 588" transform="translate(-150 -284.354)">
    <g id="Group_585" data-name="Group 585">
      <g id="Group_36" data-name="Group 36" transform="translate(-4840 -11060)">
        <text id="_ต้องขึ้นทะเบียนที่หน่วยบริการใกล้บ้าน_ก่อนรักษา_ไม่คุ้มครองความเสียหายจากการรับบริการ_ไม่มีการจัดบริการ_21_รายการ_ได้สิทธิประโยชน์และวิธีการจ่ายเงิน_แต่มีอัตราการจ่ายชดเชย_ให้สถานพยาบาลต่างกัน_3_รายการ_ขาดระบบบริหารจัดการเฉพาะ_9_รายการ_" data-name="•  ต้องขึ้นทะเบียนที่หน่วยบริการใกล้บ้าน ก่อนรักษา
•  ไม่คุ้มครองความเสียหายจากการรับบริการ
•  ไม่มีการจัดบริการ 21 รายการ
•  ได้สิทธิประโยชน์และวิธีการจ่ายเงิน แต่มีอัตราการจ่ายชดเชย
    ให้สถานพยาบาลต่างกัน 3 รายการ
•  ขาดระบบบริหารจัดการเฉพาะ 9 รายการ
•" transform="translate(5040 11542.828)" fill="#ef4136" font-size="35" font-family="IBMPlexSansThai, IBM Plex Sans Thai"><tspan x="0" y="0" xml:space="preserve">•  </tspan><tspan y="0" fill="#000">ต้องขึ้นทะเบียนที่หน่วยบริการใกล้บ้าน ก่อนรักษา</tspan><tspan x="0" y="55" xml:space="preserve">•  </tspan><tspan y="55" fill="#000">ไม่คุ้มครองความเสียหายจากการรับบริการ</tspan><tspan x="0" y="110" xml:space="preserve">•  </tspan><tspan y="110" fill="#000">ไม่มีการจัดบริการ 21 รายการ</tspan><tspan x="0" y="165" xml:space="preserve">•  </tspan><tspan y="165" fill="#000">ได้สิทธิประโยชน์และวิธีการจ่ายเงิน แต่มีอัตราการจ่ายชดเชย</tspan><tspan fill="#000"><tspan x="0" y="220" xml:space="preserve">    ให้สถานพยาบาลต่างกัน 3 รายการ</tspan></tspan><tspan x="0" y="275" xml:space="preserve">•  </tspan><tspan y="275" fill="#000">ขาดระบบบริหารจัดการเฉพาะ 9 รายการ</tspan><tspan x="0" y="330" xml:space="preserve">•  </tspan><tspan y="330" fill="#000">เบิกอุปกรณ์และอวัยวะเทียมได้ 227 รายการ</tspan><tspan x="0" y="385" xml:space="preserve">•  </tspan><tspan y="385" fill="#000">จำกัดหน่วยบริการเฉพาะสังกัดสาธารณสุข และ กทม. ได้ 3 แห่ง </tspan><tspan fill="#000"><tspan x="0" y="440" xml:space="preserve">    คือ รพ.ราชวิถี รพ.เลิดสิน และ รพ.นพรัตนราชธานี </tspan></tspan></text>
      </g>
    </g>
    <g id="Group_587" data-name="Group 587">
      <g id="Group_586" data-name="Group 586">
        <path id="Path_30" data-name="Path 30" d="M5690,11409.354a65.191,65.191,0,0,1-65,65H5055a65.191,65.191,0,0,1-65-65h0a65.191,65.191,0,0,1,65-65h570a65.191,65.191,0,0,1,65,65Z" transform="translate(-4840 -11060)" fill="#f15a29"/>
        <text id="สิทธิการรับบริการด้านสาธารณสุข_ของผู้ที่มีปัญหาสถานะและสิทธิ" data-name="สิทธิการรับบริการด้านสาธารณสุข
ของผู้ที่มีปัญหาสถานะและสิทธิ" transform="translate(500 335.149)" fill="#fff" font-size="35" font-family="IBMPlexSansThai-Bold, IBM Plex Sans Thai" font-weight="700"><tspan x="-250.478" y="0">สิทธิการรับบริการด้านสาธารณสุข</tspan><tspan x="-220.657" y="55">ของผู้ที่มีปัญหาสถานะและสิทธิ</tspan></text>
      </g>
    </g>
  </g>
</svg>
