<svg xmlns="http://www.w3.org/2000/svg" width="1070.5" height="1865.106" viewBox="0 0 1070.5 1865.106">
  <g id="Group_574" data-name="Group 574" transform="translate(4333.5 -9651)">
    <g id="Group_571" data-name="Group 571" transform="translate(26.528 -152)">
      <text id="ID_ขึ้นต้นด้วยเลข_0_ประเภททะเบียนราษฎร์_ทร.38_ก._โดย_ID_หลักที่_6_และ_7_เป็น_เลข_8_และ_9" data-name="ID ขึ้นต้นด้วยเลข 0
ประเภททะเบียนราษฎร์ 
ทร.38 ก. โดย ID
หลักที่ 6 และ 7 เป็น
เลข 8 และ 9" transform="translate(-3979.528 10583.317)" fill="#009444" font-size="30" font-family="IBMPlexSansThai-Bold, IBM Plex Sans Thai" font-weight="700"><tspan x="-119.52" y="0">ID ขึ้นต้นด้วยเลข 0</tspan><tspan font-family="IBMPlexSansThai, IBM Plex Sans Thai" font-weight="400" fill="#000"><tspan x="-139.14" y="45">ประเภททะเบียนราษฎร์ </tspan><tspan x="-102.255" y="90">ทร.38 ก. โดย ID</tspan><tspan x="-114.45" y="135">หลักที่ 6 และ 7 เป็น</tspan><tspan x="-74.04" y="180">เลข 8 และ 9</tspan></tspan></text>
      <g id="Group_564" data-name="Group 564" transform="translate(-6978.225 1948.966)">
        <g id="Group_242" data-name="Group 242">
          <circle id="Ellipse_29" data-name="Ellipse 29" cx="9.686" cy="9.686" r="9.686" transform="translate(2885.998 8489.132) rotate(-45)" fill="none" stroke="#009444" stroke-linecap="round" stroke-linejoin="round" stroke-width="3"/>
          <g id="Group_241" data-name="Group 241">
            <path id="Path_370" data-name="Path 370" d="M2911.322,8516.356v48.563c0,1.853-2.16,4.527-6.275,4.527a5.84,5.84,0,0,0-10.7,0c-4.116,0-6.276-2.675-6.276-4.527v-48.562" fill="none" stroke="#009444" stroke-linecap="round" stroke-linejoin="round" stroke-width="3"/>
            <path id="Path_371" data-name="Path 371" d="M2911.322,8539.2c10.082-5.4,8.746-13.581,8.746-21.607,0-6.636-7.045-13.271-13.216-13.271h-14.311c-6.174,0-13.217,6.636-13.217,13.271,0,8.026-1.338,16.205,8.746,21.607" fill="none" stroke="#009444" stroke-linecap="round" stroke-linejoin="round" stroke-width="3"/>
            <line id="Line_94" data-name="Line 94" y1="27.521" transform="translate(2899.695 8538.425)" fill="none" stroke="#009444" stroke-linecap="round" stroke-linejoin="round" stroke-width="3"/>
          </g>
        </g>
        <g id="Group_244" data-name="Group 244">
          <circle id="Ellipse_30" data-name="Ellipse 30" cx="9.686" cy="9.686" r="9.686" transform="translate(2935.498 8489.132) rotate(-45)" fill="none" stroke="#009444" stroke-linecap="round" stroke-linejoin="round" stroke-width="3"/>
          <g id="Group_243" data-name="Group 243">
            <path id="Path_372" data-name="Path 372" d="M2960.822,8516.356v48.563c0,1.853-2.16,4.527-6.275,4.527a5.84,5.84,0,0,0-10.7,0c-4.116,0-6.276-2.675-6.276-4.527v-48.562" fill="none" stroke="#009444" stroke-linecap="round" stroke-linejoin="round" stroke-width="3"/>
            <path id="Path_373" data-name="Path 373" d="M2960.822,8539.2c10.082-5.4,8.746-13.581,8.746-21.607,0-6.636-7.045-13.271-13.216-13.271h-14.311c-6.174,0-13.217,6.636-13.217,13.271,0,8.026-1.338,16.205,8.746,21.607" fill="none" stroke="#009444" stroke-linecap="round" stroke-linejoin="round" stroke-width="3"/>
            <line id="Line_95" data-name="Line 95" y1="27.521" transform="translate(2949.195 8538.425)" fill="none" stroke="#009444" stroke-linecap="round" stroke-linejoin="round" stroke-width="3"/>
          </g>
        </g>
        <g id="Group_246" data-name="Group 246">
          <path id="Path_374" data-name="Path 374" d="M3008.383,8489.132a9.687,9.687,0,1,0-9.688,9.686A9.688,9.688,0,0,0,3008.383,8489.132Z" fill="none" stroke="#009444" stroke-linecap="round" stroke-linejoin="round" stroke-width="3"/>
          <g id="Group_245" data-name="Group 245">
            <path id="Path_375" data-name="Path 375" d="M3010.322,8516.356v48.563c0,1.853-2.16,4.527-6.275,4.527a5.84,5.84,0,0,0-10.7,0c-4.116,0-6.276-2.675-6.276-4.527v-48.562" fill="none" stroke="#009444" stroke-linecap="round" stroke-linejoin="round" stroke-width="3"/>
            <path id="Path_376" data-name="Path 376" d="M3010.322,8539.2c10.084-5.4,8.746-13.581,8.746-21.607,0-6.636-7.045-13.271-13.216-13.271h-14.311c-6.174,0-13.217,6.636-13.217,13.271,0,8.026-1.338,16.205,8.746,21.607" fill="none" stroke="#009444" stroke-linecap="round" stroke-linejoin="round" stroke-width="3"/>
            <line id="Line_96" data-name="Line 96" y1="27.521" transform="translate(2998.695 8538.425)" fill="none" stroke="#009444" stroke-linecap="round" stroke-linejoin="round" stroke-width="3"/>
          </g>
        </g>
        <g id="Group_248" data-name="Group 248">
          <path id="Path_377" data-name="Path 377" d="M3057.881,8489.132a9.685,9.685,0,1,0-9.684,9.686A9.684,9.684,0,0,0,3057.881,8489.132Z" fill="none" stroke="#009444" stroke-linecap="round" stroke-linejoin="round" stroke-width="3"/>
          <g id="Group_247" data-name="Group 247">
            <path id="Path_378" data-name="Path 378" d="M3059.822,8516.356v48.563c0,1.853-2.16,4.527-6.275,4.527a5.84,5.84,0,0,0-10.7,0c-4.116,0-6.276-2.675-6.276-4.527v-48.562" fill="none" stroke="#009444" stroke-linecap="round" stroke-linejoin="round" stroke-width="3"/>
            <path id="Path_379" data-name="Path 379" d="M3059.822,8539.2c10.082-5.4,8.746-13.581,8.746-21.607,0-6.636-7.043-13.271-13.216-13.271h-14.311c-6.174,0-13.215,6.636-13.215,13.271,0,8.026-1.338,16.205,8.744,21.607" fill="none" stroke="#009444" stroke-linecap="round" stroke-linejoin="round" stroke-width="3"/>
            <line id="Line_97" data-name="Line 97" y1="27.521" transform="translate(3048.197 8538.425)" fill="none" stroke="#009444" stroke-linecap="round" stroke-linejoin="round" stroke-width="3"/>
          </g>
        </g>
        <g id="Group_250" data-name="Group 250">
          <circle id="Ellipse_31" data-name="Ellipse 31" cx="9.686" cy="9.686" r="9.686" transform="translate(3083.998 8489.132) rotate(-45)" fill="none" stroke="#009444" stroke-linecap="round" stroke-linejoin="round" stroke-width="3"/>
          <g id="Group_249" data-name="Group 249">
            <path id="Path_380" data-name="Path 380" d="M3109.322,8516.356v48.563c0,1.853-2.16,4.527-6.275,4.527a5.84,5.84,0,0,0-10.7,0c-4.116,0-6.276-2.675-6.276-4.527v-48.562" fill="none" stroke="#009444" stroke-linecap="round" stroke-linejoin="round" stroke-width="3"/>
            <path id="Path_381" data-name="Path 381" d="M3109.322,8539.2c10.082-5.4,8.746-13.581,8.746-21.607,0-6.636-7.043-13.271-13.216-13.271h-14.311c-6.172,0-13.217,6.636-13.217,13.271,0,8.026-1.338,16.205,8.746,21.607" fill="none" stroke="#009444" stroke-linecap="round" stroke-linejoin="round" stroke-width="3"/>
            <line id="Line_98" data-name="Line 98" y1="27.521" transform="translate(3097.695 8538.425)" fill="none" stroke="#009444" stroke-linecap="round" stroke-linejoin="round" stroke-width="3"/>
          </g>
        </g>
      </g>
    </g>
    <g id="Group_572" data-name="Group 572" transform="translate(-366 509.262)">
      <g id="Group_565" data-name="Group 565" transform="translate(-7000.594 1814)">
        <g id="Group_253" data-name="Group 253">
          <circle id="Ellipse_32" data-name="Ellipse 32" cx="9.686" cy="9.686" r="9.686" transform="matrix(0.383, -0.924, 0.924, 0.383, 3309.783, 8494.374)" fill="none" stroke="#009444" stroke-linecap="round" stroke-linejoin="round" stroke-width="3"/>
          <g id="Group_252" data-name="Group 252">
            <path id="Path_382" data-name="Path 382" d="M3334.065,8516.356v48.563c0,1.853-2.161,4.527-6.276,4.527a5.84,5.84,0,0,0-10.7,0c-4.115,0-6.275-2.675-6.275-4.527v-48.562" fill="none" stroke="#009444" stroke-linecap="round" stroke-linejoin="round" stroke-width="3"/>
            <path id="Path_383" data-name="Path 383" d="M3334.065,8539.2c10.082-5.4,8.745-13.581,8.745-21.607,0-6.636-7.044-13.271-13.216-13.271h-14.311c-6.174,0-13.217,6.636-13.217,13.271,0,8.026-1.337,16.205,8.747,21.607" fill="none" stroke="#009444" stroke-linecap="round" stroke-linejoin="round" stroke-width="3"/>
            <line id="Line_99" data-name="Line 99" y1="27.521" transform="translate(3322.438 8538.425)" fill="none" stroke="#009444" stroke-linecap="round" stroke-linejoin="round" stroke-width="3"/>
          </g>
        </g>
        <g id="Group_255" data-name="Group 255">
          <circle id="Ellipse_33" data-name="Ellipse 33" cx="9.686" cy="9.686" r="9.686" transform="matrix(0.383, -0.924, 0.924, 0.383, 3359.283, 8494.374)" fill="none" stroke="#009444" stroke-linecap="round" stroke-linejoin="round" stroke-width="3"/>
          <g id="Group_254" data-name="Group 254">
            <path id="Path_384" data-name="Path 384" d="M3383.565,8516.356v48.563c0,1.853-2.161,4.527-6.276,4.527a5.84,5.84,0,0,0-10.7,0c-4.115,0-6.275-2.675-6.275-4.527v-48.562" fill="none" stroke="#009444" stroke-linecap="round" stroke-linejoin="round" stroke-width="3"/>
            <path id="Path_385" data-name="Path 385" d="M3383.565,8539.2c10.082-5.4,8.745-13.581,8.745-21.607,0-6.636-7.044-13.271-13.216-13.271h-14.311c-6.174,0-13.217,6.636-13.217,13.271,0,8.026-1.337,16.205,8.747,21.607" fill="none" stroke="#009444" stroke-linecap="round" stroke-linejoin="round" stroke-width="3"/>
            <line id="Line_100" data-name="Line 100" y1="27.521" transform="translate(3371.938 8538.425)" fill="none" stroke="#009444" stroke-linecap="round" stroke-linejoin="round" stroke-width="3"/>
          </g>
        </g>
        <g id="Group_257" data-name="Group 257">
          <path id="Path_386" data-name="Path 386" d="M3431.125,8489.132a9.687,9.687,0,1,0-9.687,9.686A9.687,9.687,0,0,0,3431.125,8489.132Z" fill="none" stroke="#009444" stroke-linecap="round" stroke-linejoin="round" stroke-width="3"/>
          <g id="Group_256" data-name="Group 256">
            <path id="Path_387" data-name="Path 387" d="M3433.065,8516.356v48.563c0,1.853-2.161,4.527-6.276,4.527a5.84,5.84,0,0,0-10.7,0c-4.115,0-6.275-2.675-6.275-4.527v-48.562" fill="none" stroke="#009444" stroke-linecap="round" stroke-linejoin="round" stroke-width="3"/>
            <path id="Path_388" data-name="Path 388" d="M3433.065,8539.2c10.083-5.4,8.745-13.581,8.745-21.607,0-6.636-7.044-13.271-13.216-13.271h-14.311c-6.174,0-13.217,6.636-13.217,13.271,0,8.026-1.337,16.205,8.747,21.607" fill="none" stroke="#009444" stroke-linecap="round" stroke-linejoin="round" stroke-width="3"/>
            <line id="Line_101" data-name="Line 101" y1="27.521" transform="translate(3421.438 8538.425)" fill="none" stroke="#009444" stroke-linecap="round" stroke-linejoin="round" stroke-width="3"/>
          </g>
        </g>
        <g id="Group_259" data-name="Group 259">
          <path id="Path_389" data-name="Path 389" d="M3480.623,8489.132a9.685,9.685,0,1,0-9.683,9.686A9.684,9.684,0,0,0,3480.623,8489.132Z" fill="none" stroke="#009444" stroke-linecap="round" stroke-linejoin="round" stroke-width="3"/>
          <g id="Group_258" data-name="Group 258">
            <path id="Path_390" data-name="Path 390" d="M3482.565,8516.356v48.563c0,1.853-2.161,4.527-6.276,4.527a5.84,5.84,0,0,0-10.7,0c-4.115,0-6.275-2.675-6.275-4.527v-48.562" fill="none" stroke="#009444" stroke-linecap="round" stroke-linejoin="round" stroke-width="3"/>
            <path id="Path_391" data-name="Path 391" d="M3482.565,8539.2c10.082-5.4,8.745-13.581,8.745-21.607,0-6.636-7.042-13.271-13.216-13.271h-14.311c-6.174,0-13.215,6.636-13.215,13.271,0,8.026-1.338,16.205,8.745,21.607" fill="none" stroke="#009444" stroke-linecap="round" stroke-linejoin="round" stroke-width="3"/>
            <line id="Line_102" data-name="Line 102" y1="27.521" transform="translate(3470.939 8538.425)" fill="none" stroke="#009444" stroke-linecap="round" stroke-linejoin="round" stroke-width="3"/>
          </g>
        </g>
        <g id="Group_261" data-name="Group 261">
          <circle id="Ellipse_34" data-name="Ellipse 34" cx="9.686" cy="9.686" r="9.686" transform="matrix(0.383, -0.924, 0.924, 0.383, 3507.783, 8494.374)" fill="none" stroke="#009444" stroke-linecap="round" stroke-linejoin="round" stroke-width="3"/>
          <g id="Group_260" data-name="Group 260">
            <path id="Path_392" data-name="Path 392" d="M3532.065,8516.356v48.563c0,1.853-2.161,4.527-6.276,4.527a5.84,5.84,0,0,0-10.7,0c-4.115,0-6.275-2.675-6.275-4.527v-48.562" fill="none" stroke="#009444" stroke-linecap="round" stroke-linejoin="round" stroke-width="3"/>
            <path id="Path_393" data-name="Path 393" d="M3532.065,8539.2c10.082-5.4,8.745-13.581,8.745-21.607,0-6.636-7.042-13.271-13.216-13.271h-14.311c-6.172,0-13.217,6.636-13.217,13.271,0,8.026-1.337,16.205,8.747,21.607" fill="none" stroke="#009444" stroke-linecap="round" stroke-linejoin="round" stroke-width="3"/>
            <line id="Line_103" data-name="Line 103" y1="27.521" transform="translate(3520.438 8538.425)" fill="none" stroke="#009444" stroke-linecap="round" stroke-linejoin="round" stroke-width="3"/>
          </g>
        </g>
      </g>
      <text id="บุตรของบุคคลที่มีปัญหา_ไม่มีสถานะทางทะเบียนเกิด_ในประเทศไทย_มี_ID_13_หลัก_เป็นบุคคลประเภท_0_บุตรของกลุ่ม_1_" data-name="บุตรของบุคคลที่มีปัญหาฯ
ไม่มีสถานะทางทะเบียนเกิด
ในประเทศไทย มี ID 13 หลัก
เป็นบุคคลประเภท 0
(บุตรของกลุ่ม 1)" transform="translate(-3578.735 10449.508)" fill="#009444" font-size="30" font-family="IBMPlexSansThai-Bold, IBM Plex Sans Thai" font-weight="700"><tspan x="-159.75" y="0">บุตรของบุคคลที่มีปัญหาฯ</tspan><tspan font-family="IBMPlexSansThai, IBM Plex Sans Thai" font-weight="400" fill="#000"><tspan x="-158.415" y="45">ไม่มีสถานะทางทะเบียนเกิด</tspan><tspan x="-167.58" y="90">ในประเทศไทย มี ID 13 หลัก</tspan><tspan x="-118.905" y="135">เป็นบุคคลประเภท 0</tspan><tspan x="-101.895" y="180">(บุตรของกลุ่ม 1)</tspan></tspan></text>
    </g>
    <g id="Group_573" data-name="Group 573" transform="translate(-778.323 917.233)">
      <g id="Group_566" data-name="Group 566" transform="translate(-7000.594 1814)">
        <g id="Group_264" data-name="Group 264">
          <circle id="Ellipse_35" data-name="Ellipse 35" cx="9.686" cy="9.686" r="9.686" transform="translate(3731.484 8489.132) rotate(-45)" fill="none" stroke="#009444" stroke-linecap="round" stroke-linejoin="round" stroke-width="3"/>
          <g id="Group_263" data-name="Group 263">
            <path id="Path_394" data-name="Path 394" d="M3756.809,8516.356v48.563c0,1.853-2.161,4.527-6.276,4.527a5.84,5.84,0,0,0-10.7,0c-4.115,0-6.275-2.675-6.275-4.527v-48.562" fill="none" stroke="#009444" stroke-linecap="round" stroke-linejoin="round" stroke-width="3"/>
            <path id="Path_395" data-name="Path 395" d="M3756.809,8539.2c10.082-5.4,8.746-13.581,8.746-21.607,0-6.636-7.045-13.271-13.217-13.271h-14.311c-6.173,0-13.217,6.636-13.217,13.271,0,8.026-1.337,16.205,8.747,21.607" fill="none" stroke="#009444" stroke-linecap="round" stroke-linejoin="round" stroke-width="3"/>
            <line id="Line_104" data-name="Line 104" y1="27.521" transform="translate(3745.182 8538.425)" fill="none" stroke="#009444" stroke-linecap="round" stroke-linejoin="round" stroke-width="3"/>
          </g>
        </g>
        <g id="Group_266" data-name="Group 266">
          <circle id="Ellipse_36" data-name="Ellipse 36" cx="9.686" cy="9.686" r="9.686" transform="translate(3780.984 8489.132) rotate(-45)" fill="none" stroke="#009444" stroke-linecap="round" stroke-linejoin="round" stroke-width="3"/>
          <g id="Group_265" data-name="Group 265">
            <path id="Path_396" data-name="Path 396" d="M3806.309,8516.356v48.563c0,1.853-2.161,4.527-6.276,4.527a5.84,5.84,0,0,0-10.7,0c-4.115,0-6.275-2.675-6.275-4.527v-48.562" fill="none" stroke="#009444" stroke-linecap="round" stroke-linejoin="round" stroke-width="3"/>
            <path id="Path_397" data-name="Path 397" d="M3806.309,8539.2c10.082-5.4,8.746-13.581,8.746-21.607,0-6.636-7.045-13.271-13.217-13.271h-14.311c-6.173,0-13.217,6.636-13.217,13.271,0,8.026-1.337,16.205,8.747,21.607" fill="none" stroke="#009444" stroke-linecap="round" stroke-linejoin="round" stroke-width="3"/>
            <line id="Line_105" data-name="Line 105" y1="27.521" transform="translate(3794.682 8538.425)" fill="none" stroke="#009444" stroke-linecap="round" stroke-linejoin="round" stroke-width="3"/>
          </g>
        </g>
        <g id="Group_268" data-name="Group 268">
          <path id="Path_398" data-name="Path 398" d="M3853.869,8489.132a9.686,9.686,0,1,0-9.687,9.686A9.687,9.687,0,0,0,3853.869,8489.132Z" fill="none" stroke="#009444" stroke-linecap="round" stroke-linejoin="round" stroke-width="3"/>
          <g id="Group_267" data-name="Group 267">
            <path id="Path_399" data-name="Path 399" d="M3855.809,8516.356v48.563c0,1.853-2.161,4.527-6.276,4.527a5.84,5.84,0,0,0-10.7,0c-4.115,0-6.275-2.675-6.275-4.527v-48.562" fill="none" stroke="#009444" stroke-linecap="round" stroke-linejoin="round" stroke-width="3"/>
            <path id="Path_400" data-name="Path 400" d="M3855.809,8539.2c10.084-5.4,8.746-13.581,8.746-21.607,0-6.636-7.045-13.271-13.217-13.271h-14.311c-6.173,0-13.217,6.636-13.217,13.271,0,8.026-1.337,16.205,8.747,21.607" fill="none" stroke="#009444" stroke-linecap="round" stroke-linejoin="round" stroke-width="3"/>
            <line id="Line_106" data-name="Line 106" y1="27.521" transform="translate(3844.182 8538.425)" fill="none" stroke="#009444" stroke-linecap="round" stroke-linejoin="round" stroke-width="3"/>
          </g>
        </g>
        <g id="Group_270" data-name="Group 270">
          <path id="Path_401" data-name="Path 401" d="M3903.367,8489.132a9.684,9.684,0,1,0-9.683,9.686A9.684,9.684,0,0,0,3903.367,8489.132Z" fill="none" stroke="#009444" stroke-linecap="round" stroke-linejoin="round" stroke-width="3"/>
          <g id="Group_269" data-name="Group 269">
            <path id="Path_402" data-name="Path 402" d="M3905.309,8516.356v48.563c0,1.853-2.161,4.527-6.276,4.527a5.84,5.84,0,0,0-10.7,0c-4.115,0-6.275-2.675-6.275-4.527v-48.562" fill="none" stroke="#009444" stroke-linecap="round" stroke-linejoin="round" stroke-width="3"/>
            <path id="Path_403" data-name="Path 403" d="M3905.309,8539.2c10.082-5.4,8.746-13.581,8.746-21.607,0-6.636-7.043-13.271-13.217-13.271h-14.311c-6.173,0-13.214,6.636-13.214,13.271,0,8.026-1.338,16.205,8.744,21.607" fill="none" stroke="#009444" stroke-linecap="round" stroke-linejoin="round" stroke-width="3"/>
            <line id="Line_107" data-name="Line 107" y1="27.521" transform="translate(3893.684 8538.425)" fill="none" stroke="#009444" stroke-linecap="round" stroke-linejoin="round" stroke-width="3"/>
          </g>
        </g>
        <g id="Group_272" data-name="Group 272">
          <circle id="Ellipse_37" data-name="Ellipse 37" cx="9.686" cy="9.686" r="9.686" transform="translate(3929.484 8489.132) rotate(-45)" fill="none" stroke="#009444" stroke-linecap="round" stroke-linejoin="round" stroke-width="3"/>
          <g id="Group_271" data-name="Group 271">
            <path id="Path_404" data-name="Path 404" d="M3954.809,8516.356v48.563c0,1.853-2.161,4.527-6.276,4.527a5.84,5.84,0,0,0-10.7,0c-4.115,0-6.275-2.675-6.275-4.527v-48.562" fill="none" stroke="#009444" stroke-linecap="round" stroke-linejoin="round" stroke-width="3"/>
            <path id="Path_405" data-name="Path 405" d="M3954.809,8539.2c10.082-5.4,8.746-13.581,8.746-21.607,0-6.636-7.043-13.271-13.217-13.271h-14.311c-6.172,0-13.217,6.636-13.217,13.271,0,8.026-1.337,16.205,8.747,21.607" fill="none" stroke="#009444" stroke-linecap="round" stroke-linejoin="round" stroke-width="3"/>
            <line id="Line_108" data-name="Line 108" y1="27.521" transform="translate(3943.182 8538.425)" fill="none" stroke="#009444" stroke-linecap="round" stroke-linejoin="round" stroke-width="3"/>
          </g>
        </g>
      </g>
      <text id="บุคคลไม่มีสถานะทางทะเบียน_ID_ขึ้นต้นด้วยเลข_0_โดย_ID_หลักที่_6_และ_7_เป็นเลข_0_และ_0" data-name="บุคคลไม่มีสถานะทางทะเบียน
ID ขึ้นต้นด้วยเลข 0
โดย ID หลักที่ 6 และ 7
เป็นเลข 0 และ 0" transform="translate(-3156.411 10447.873)" fill="#009444" font-size="30" font-family="IBMPlexSansThai-Bold, IBM Plex Sans Thai" font-weight="700"><tspan x="-177.885" y="0">บุคคลไม่มีสถานะทางทะเบียน</tspan><tspan font-family="IBMPlexSansThai, IBM Plex Sans Thai" font-weight="400" fill="#000"><tspan x="-117.015" y="45">ID ขึ้นต้นด้วยเลข 0</tspan><tspan x="-134.31" y="90">โดย ID หลักที่ 6 และ 7</tspan><tspan x="-97.11" y="135">เป็นเลข 0 และ 0</tspan></tspan></text>
    </g>
    <g id="Group_567" data-name="Group 567" transform="translate(-7001.594 1751)">
      <line id="Line_109" data-name="Line 109" x1="0.207" y1="985.1" transform="translate(2764.887 8624.4)" fill="none" stroke="#fdb913" stroke-miterlimit="10" stroke-width="5" stroke-dasharray="5 10"/>
      <path id="Path_406" data-name="Path 406" d="M3003.01,8624.4a15,15,0,1,1-15-15A15,15,0,0,1,3003.01,8624.4Z" transform="translate(-223.124 45)" fill="#fdb913"/>
      <circle id="Ellipse_38" data-name="Ellipse 38" cx="15" cy="15" r="15" transform="translate(2749.886 9179.693)" fill="#fdb913"/>
      <circle id="Ellipse_39" data-name="Ellipse 39" cx="15" cy="15" r="15" transform="translate(2750.094 9588.5)" fill="#fdb913"/>
    </g>
    <g id="Group_568" data-name="Group 568" transform="translate(-7163.067 2178.97)">
      <path id="Path_407" data-name="Path 407" d="M3260.068,8533.059a50,50,0,1,1-50-50A50,50,0,0,1,3260.068,8533.059Z" fill="#009444"/>
      <text id="บุตรของ_กลุ่ม_1" data-name="บุตรของ
กลุ่ม 1" transform="translate(3210.067 8527.188)" fill="#fff" font-size="20" font-family="IBMPlexSansThai, IBM Plex Sans Thai"><tspan x="-35.01" y="0">บุตรของ</tspan><tspan x="-26.22" y="30">กลุ่ม 1</tspan></text>
    </g>
    <text id="บุคคลที่มีปัญหาสถานะและสิทธิ_จำนวน_457_409_คน_ได้รับสิทธิขั้นพื้นฐานด้านสาธารณสุขเช่นเดียวกับคนไทยทั่วไป" data-name="บุคคลที่มีปัญหาสถานะและสิทธิ จำนวน 457,409 คน
ได้รับสิทธิขั้นพื้นฐานด้านสาธารณสุขเช่นเดียวกับคนไทยทั่วไป" transform="translate(-4092 9835.609)" font-size="30" font-family="IBMPlexSansThai, IBM Plex Sans Thai"><tspan x="0" y="0">บุคคลที่มีปัญหาสถานะและสิทธิ จำนวน 457,409 คน</tspan><tspan x="0" y="45">ได้รับสิทธิขั้นพื้นฐานด้านสาธารณสุขเช่นเดียวกับคนไทยทั่วไป</tspan></text>
    <text id="คณะรัฐมนตรีมีมติเห็นชอบ_ให้สิทธิ_คืนสิทธิ_ขั้นพื้นฐานด้านสาธารณสุขเพิ่มเติม_ครั้งที่_2_แก่ผู้ที่มีปัญหาสถานะและสิทธิที่ได้_ID_จากมหาดไทยแล้ว_208_631_คน" data-name="คณะรัฐมนตรีมีมติเห็นชอบ ให้สิทธิ (คืนสิทธิ)
ขั้นพื้นฐานด้านสาธารณสุขเพิ่มเติม (ครั้งที่ 2)
แก่ผู้ที่มีปัญหาสถานะและสิทธิที่ได้ ID จากมหาดไทยแล้ว 208,631 คน" transform="translate(-4092 10086.149)" font-size="30" font-family="IBMPlexSansThai, IBM Plex Sans Thai"><tspan x="0" y="0">คณะรัฐมนตรีมีมติเห็นชอบ ให้สิทธิ (คืนสิทธิ)</tspan><tspan x="0" y="45">ขั้นพื้นฐานด้านสาธารณสุขเพิ่มเติม (ครั้งที่ 2)</tspan><tspan x="0" y="90">แก่ผู้ที่มีปัญหาสถานะและสิทธิที่ได้ ID จากมหาดไทยแล้ว 208,631 คน</tspan></text>
    <g id="Group_569" data-name="Group 569" transform="translate(-7000.594 1751)">
      <line id="Line_110" data-name="Line 110" y2="724.4" transform="translate(2763.594 7900)" fill="none" stroke="#fdb913" stroke-miterlimit="10" stroke-width="5"/>
      <g id="Group_276" data-name="Group 276">
        <circle id="Ellipse_40" data-name="Ellipse 40" cx="95" cy="95" r="95" transform="translate(2668.594 8005)" fill="#fff" stroke="#fdb913" stroke-linecap="round" stroke-linejoin="round" stroke-width="3"/>
        <text id="_1_เม.ย._2553" data-name="1 เม.ย.
2553" transform="translate(2763.594 8092.11)" fill="#009444" font-size="45" font-family="IBMPlexSansThai-Bold, IBM Plex Sans Thai" font-weight="700"><tspan x="-66.735" y="0">1 เม.ย.</tspan><tspan x="-54" y="50">2553</tspan></text>
      </g>
      <g id="Group_277" data-name="Group 277">
        <circle id="Ellipse_41" data-name="Ellipse 41" cx="95" cy="95" r="95" transform="translate(2668.594 8255)" fill="#fff" stroke="#fdb913" stroke-linecap="round" stroke-linejoin="round" stroke-width="3"/>
        <text id="_20_เม.ย._2558" data-name="20 เม.ย.
2558" transform="translate(2763.594 8342.109)" fill="#009444" font-size="45" font-family="IBMPlexSansThai-Bold, IBM Plex Sans Thai" font-weight="700"><tspan x="-80.235" y="0">20 เม.ย.</tspan><tspan x="-54" y="50">2558</tspan></text>
      </g>
    </g>
  </g>
</svg>
