<svg xmlns="http://www.w3.org/2000/svg" xmlns:xlink="http://www.w3.org/1999/xlink" width="1385.506" height="577.081" viewBox="0 0 1385.506 577.081">
  <defs>
    <linearGradient id="linear-gradient" x1="0.5" y1="1" x2="0.5" gradientUnits="objectBoundingBox">
      <stop offset="0" stop-color="#009444" stop-opacity="0.4"/>
      <stop offset="1" stop-color="#009444"/>
    </linearGradient>
  </defs>
  <g id="Group_537" data-name="Group 537" transform="translate(-144.022 -326.314)">
    <text id="งบประมาณ_ล้านบาท_" data-name="งบประมาณ (ล้านบาท)" transform="translate(266.022 356.314)" font-size="27" font-family="IBMPlexThai, IBM Plex Thai"><tspan x="-121.473" y="0">งบประมาณ (ล้านบาท)</tspan></text>
    <g id="Group_94" data-name="Group 94" transform="translate(-4840 -1580)">
      <path id="Path_158" data-name="Path 158" d="M6369.529,2460.636a20.059,20.059,0,0,1-20,20H5181.022a20.059,20.059,0,0,1-20-20h0a20.059,20.059,0,0,1,20-20H6349.529a20.059,20.059,0,0,1,20,20Z" fill="#939598"/>
      <g id="Group_93" data-name="Group 93">
        <text id="_2553" data-name="2553" transform="translate(5217.624 2469.395)" fill="#fff" font-size="27" font-family="IBMPlexThai, IBM Plex Thai"><tspan x="-32.4" y="0">2553</tspan></text>
        <text id="_2554" data-name="2554" transform="translate(5327.697 2469.395)" fill="#fff" font-size="27" font-family="IBMPlexThai, IBM Plex Thai"><tspan x="-32.4" y="0">2554</tspan></text>
        <text id="_2555" data-name="2555" transform="translate(5437.413 2469.395)" fill="#fff" font-size="27" font-family="IBMPlexThai, IBM Plex Thai"><tspan x="-32.4" y="0">2555</tspan></text>
        <text id="_2556" data-name="2556" transform="translate(5547.129 2469.395)" fill="#fff" font-size="27" font-family="IBMPlexThai, IBM Plex Thai"><tspan x="-32.4" y="0">2556</tspan></text>
        <text id="_2557" data-name="2557" transform="translate(5656.845 2469.395)" fill="#fff" font-size="27" font-family="IBMPlexThai, IBM Plex Thai"><tspan x="-32.4" y="0">2557</tspan></text>
        <text id="_2558" data-name="2558" transform="translate(5766.561 2469.395)" fill="#fff" font-size="27" font-family="IBMPlexThai, IBM Plex Thai"><tspan x="-32.4" y="0">2558</tspan></text>
        <text id="_2559" data-name="2559" transform="translate(5876.276 2469.395)" fill="#fff" font-size="27" font-family="IBMPlexThai, IBM Plex Thai"><tspan x="-32.4" y="0">2559</tspan></text>
        <text id="_2560" data-name="2560" transform="translate(5985.992 2469.395)" fill="#fff" font-size="27" font-family="IBMPlexThai, IBM Plex Thai"><tspan x="-32.4" y="0">2560</tspan></text>
        <text id="_2561" data-name="2561" transform="translate(6095.708 2469.395)" fill="#fff" font-size="27" font-family="IBMPlexThai, IBM Plex Thai"><tspan x="-32.4" y="0">2561</tspan></text>
        <text id="_2562" data-name="2562" transform="translate(6205.424 2469.395)" fill="#fff" font-size="27" font-family="IBMPlexThai, IBM Plex Thai"><tspan x="-32.4" y="0">2562</tspan></text>
        <text id="_2563" data-name="2563" transform="translate(6315.14 2469.395)" fill="#fff" font-size="27" font-family="IBMPlexThai, IBM Plex Thai"><tspan x="-32.4" y="0">2563</tspan></text>
      </g>
    </g>
    <text id="_200.0" data-name="200.0" transform="translate(310.434 810.672)" font-size="27" font-family="IBMPlexThai, IBM Plex Thai"><tspan x="-72.144" y="0">200.0</tspan></text>
    <text id="_0" data-name="0" transform="translate(305.434 868.719)" font-size="27" font-family="IBMPlexThai, IBM Plex Thai"><tspan x="-16.2" y="0">0</tspan></text>
    <text id="_400.0" data-name="400.0" transform="translate(310.434 752.625)" font-size="27" font-family="IBMPlexThai, IBM Plex Thai"><tspan x="-72.144" y="0">400.0</tspan></text>
    <text id="_600.0" data-name="600.0" transform="translate(310.434 694.579)" font-size="27" font-family="IBMPlexThai, IBM Plex Thai"><tspan x="-72.144" y="0">600.0</tspan></text>
    <text id="_800.0" data-name="800.0" transform="translate(310.434 636.532)" font-size="27" font-family="IBMPlexThai, IBM Plex Thai"><tspan x="-72.144" y="0">800.0</tspan></text>
    <text id="_1_000.0" data-name="1,000.0" transform="translate(310.434 578.485)" font-size="27" font-family="IBMPlexThai, IBM Plex Thai"><tspan x="-95.688" y="0">1,000.0</tspan></text>
    <text id="_1_200.0" data-name="1,200.0" transform="translate(310.434 520.438)" font-size="27" font-family="IBMPlexThai, IBM Plex Thai"><tspan x="-95.688" y="0">1,200.0</tspan></text>
    <text id="_1_400.0" data-name="1,400.0" transform="translate(310.434 462.391)" font-size="27" font-family="IBMPlexThai, IBM Plex Thai"><tspan x="-95.688" y="0">1,400.0</tspan></text>
    <text id="_1_600.0" data-name="1,600.0" transform="translate(310.434 404.344)" font-size="27" font-family="IBMPlexThai, IBM Plex Thai"><tspan x="-95.688" y="0">1,600.0</tspan></text>
    <line id="Line_47" data-name="Line 47" y2="479.631" transform="translate(322.862 380.329)" fill="none" stroke="#939598" stroke-miterlimit="10" stroke-width="2"/>
    <g id="Group_108" data-name="Group 108" transform="translate(-4840 -1580)">
      <path id="Path_159" data-name="Path 159" d="M5216.752,2338.659l110.418-165.615L5436.4,2314.2l109.628-125.612,109.623-31.736h109.628l109.624-88.593,109.626-11.9,110.021,4.3,109.231-50.907,110.021,2.645V2439.96H5216.752Z" opacity="0.4" fill="url(#linear-gradient)"/>
      <path id="Path_160" data-name="Path 160" d="M5216.752,2338.659l110.418-165.615L5436.4,2314.2l109.628-125.612,109.623-31.736h109.628l109.624-88.593,109.626-11.9,110.021,4.3,109.231-50.907,110.021,2.645" fill="none" stroke="#009444" stroke-linecap="round" stroke-miterlimit="10" stroke-width="3"/>
      <g id="Group_106" data-name="Group 106">
        <g id="Group_95" data-name="Group 95">
          <line id="Line_48" data-name="Line 48" y2="101.301" transform="translate(5216.518 2338.659)" fill="none" stroke="#fff" stroke-miterlimit="10" stroke-width="2"/>
        </g>
        <g id="Group_96" data-name="Group 96">
          <line id="Line_49" data-name="Line 49" y2="266.916" transform="translate(5326.27 2173.044)" fill="none" stroke="#fff" stroke-miterlimit="10" stroke-width="2"/>
        </g>
        <g id="Group_97" data-name="Group 97">
          <line id="Line_50" data-name="Line 50" y2="130.333" transform="translate(5436.02 2309.627)" fill="none" stroke="#fff" stroke-miterlimit="10" stroke-width="2"/>
        </g>
        <g id="Group_98" data-name="Group 98">
          <line id="Line_51" data-name="Line 51" y2="251.564" transform="translate(5545.772 2188.396)" fill="none" stroke="#fff" stroke-miterlimit="10" stroke-width="2"/>
        </g>
        <g id="Group_99" data-name="Group 99">
          <line id="Line_52" data-name="Line 52" y2="282.281" transform="translate(5655.524 2157.679)" fill="none" stroke="#fff" stroke-miterlimit="10" stroke-width="2"/>
        </g>
        <g id="Group_100" data-name="Group 100">
          <line id="Line_53" data-name="Line 53" y2="282.281" transform="translate(5765.276 2157.679)" fill="none" stroke="#fff" stroke-miterlimit="10" stroke-width="2"/>
        </g>
        <g id="Group_101" data-name="Group 101">
          <line id="Line_54" data-name="Line 54" y2="371.627" transform="translate(5875.027 2068.333)" fill="none" stroke="#fff" stroke-miterlimit="10" stroke-width="2"/>
        </g>
        <g id="Group_102" data-name="Group 102">
          <line id="Line_55" data-name="Line 55" y2="382.69" transform="translate(5984.779 2057.271)" fill="none" stroke="#fff" stroke-miterlimit="10" stroke-width="2"/>
        </g>
        <g id="Group_103" data-name="Group 103">
          <line id="Line_56" data-name="Line 56" y2="379.46" transform="translate(6094.53 2060.5)" fill="none" stroke="#fff" stroke-miterlimit="10" stroke-width="2"/>
        </g>
        <g id="Group_104" data-name="Group 104">
          <line id="Line_57" data-name="Line 57" y2="430.212" transform="translate(6204.282 2009.748)" fill="none" stroke="#fff" stroke-miterlimit="10" stroke-width="2"/>
        </g>
        <g id="Group_105" data-name="Group 105">
          <line id="Line_58" data-name="Line 58" y2="427.345" transform="translate(6314.034 2012.615)" fill="none" stroke="#fff" stroke-miterlimit="10" stroke-width="2"/>
        </g>
      </g>
      <g id="Group_107" data-name="Group 107">
        <path id="Path_161" data-name="Path 161" d="M5222.408,2338.661a5.655,5.655,0,1,1-5.654-5.659A5.654,5.654,0,0,1,5222.408,2338.661Z" fill="#009444"/>
        <path id="Path_162" data-name="Path 162" d="M5332.359,2173.272a5.656,5.656,0,1,1-5.656-5.659A5.654,5.654,0,0,1,5332.359,2173.272Z" fill="#009444"/>
        <path id="Path_163" data-name="Path 163" d="M5442.225,2313.891a5.656,5.656,0,1,1-5.657-5.657A5.654,5.654,0,0,1,5442.225,2313.891Z" fill="#009444"/>
        <path id="Path_164" data-name="Path 164" d="M5551.584,2188.4a5.656,5.656,0,1,1-5.654-5.659A5.653,5.653,0,0,1,5551.584,2188.4Z" fill="#009444"/>
        <path id="Path_165" data-name="Path 165" d="M5661.28,2157.679a5.656,5.656,0,1,1-5.653-5.656A5.653,5.653,0,0,1,5661.28,2157.679Z" fill="#009444"/>
        <path id="Path_166" data-name="Path 166" d="M5770.977,2157.679a5.656,5.656,0,1,1-5.655-5.656A5.655,5.655,0,0,1,5770.977,2157.679Z" fill="#009444"/>
        <path id="Path_167" data-name="Path 167" d="M5881.014,2069a5.656,5.656,0,1,1-5.654-5.656A5.654,5.654,0,0,1,5881.014,2069Z" fill="#009444"/>
        <circle id="Ellipse_15" data-name="Ellipse 15" cx="5.654" cy="5.654" r="5.654" transform="translate(5979.405 2051.616)" fill="#009444"/>
        <path id="Path_168" data-name="Path 168" d="M6100.4,2060.5a5.654,5.654,0,1,1-5.653-5.654A5.652,5.652,0,0,1,6100.4,2060.5Z" fill="#009444"/>
        <path id="Path_169" data-name="Path 169" d="M6210.1,2009.748a5.654,5.654,0,1,1-5.654-5.654A5.653,5.653,0,0,1,6210.1,2009.748Z" fill="#009444"/>
        <path id="Path_170" data-name="Path 170" d="M6319.453,2012.615a5.654,5.654,0,1,1-5.653-5.654A5.653,5.653,0,0,1,6319.453,2012.615Z" fill="#009444"/>
      </g>
    </g>
    <g id="Group_131" data-name="Group 131" transform="translate(-4840 -1580)">
      <g id="Group_110" data-name="Group 110">
        <g id="Group_109" data-name="Group 109">
          <path id="Path_171" data-name="Path 171" d="M5262.624,2310.488a13.039,13.039,0,0,1-13,13h-64a13.039,13.039,0,0,1-13-13h0a13.039,13.039,0,0,1,13-13h64a13.039,13.039,0,0,1,13,13Z" fill="#009444"/>
          <path id="Path_172" data-name="Path 172" d="M5217.624,2332.563l-7.483-9.074h14.967Z" fill="#009444"/>
        </g>
        <text id="_348.0" data-name="348.0" transform="translate(5222.22 2317.442)" fill="#fff" font-size="20" font-family="IBMPlexThai, IBM Plex Thai"><tspan x="-26.72" y="0">348.0</tspan></text>
      </g>
      <g id="Group_112" data-name="Group 112">
        <g id="Group_111" data-name="Group 111">
          <path id="Path_173" data-name="Path 173" d="M5372.375,2145.539a13.038,13.038,0,0,1-13,13h-64a13.038,13.038,0,0,1-13-13h0a13.038,13.038,0,0,1,13-13h64a13.038,13.038,0,0,1,13,13Z" fill="#009444"/>
          <path id="Path_174" data-name="Path 174" d="M5327.375,2167.613l-7.484-9.074h14.967Z" fill="#009444"/>
        </g>
        <text id="_918.1" data-name="918.1" transform="translate(5331.971 2152.494)" fill="#fff" font-size="20" font-family="IBMPlexThai, IBM Plex Thai"><tspan x="-26.72" y="0">918.1</tspan></text>
      </g>
      <g id="Group_114" data-name="Group 114">
        <g id="Group_113" data-name="Group 113">
          <path id="Path_175" data-name="Path 175" d="M5482.127,2285.9a13.038,13.038,0,0,1-13,13h-64a13.038,13.038,0,0,1-13-13h0a13.038,13.038,0,0,1,13-13h64a13.038,13.038,0,0,1,13,13Z" fill="#009444"/>
          <path id="Path_176" data-name="Path 176" d="M5437.127,2307.979l-7.484-9.074h14.967Z" fill="#009444"/>
        </g>
        <text id="_433.6" data-name="433.6" transform="translate(5441.722 2292.859)" fill="#fff" font-size="20" font-family="IBMPlexThai, IBM Plex Thai"><tspan x="-26.72" y="0">433.6</tspan></text>
      </g>
      <g id="Group_116" data-name="Group 116">
        <g id="Group_115" data-name="Group 115">
          <path id="Path_177" data-name="Path 177" d="M5591.879,2163.076a13.038,13.038,0,0,1-13,13h-64a13.038,13.038,0,0,1-13-13h0a13.038,13.038,0,0,1,13-13h64a13.038,13.038,0,0,1,13,13Z" fill="#009444"/>
          <path id="Path_178" data-name="Path 178" d="M5546.879,2185.15l-7.484-9.074h14.967Z" fill="#009444"/>
        </g>
        <text id="_863.7" data-name="863.7" transform="translate(5551.474 2170.031)" fill="#fff" font-size="20" font-family="IBMPlexThai, IBM Plex Thai"><tspan x="-26.72" y="0">863.7</tspan></text>
      </g>
      <g id="Group_118" data-name="Group 118">
        <g id="Group_117" data-name="Group 117">
          <path id="Path_179" data-name="Path 179" d="M5701.63,2130.733a13.039,13.039,0,0,1-13,13h-64a13.039,13.039,0,0,1-13-13h0a13.04,13.04,0,0,1,13-13h64a13.04,13.04,0,0,1,13,13Z" fill="#009444"/>
          <path id="Path_180" data-name="Path 180" d="M5656.63,2152.808l-7.484-9.074h14.968Z" fill="#009444"/>
        </g>
        <text id="_973.3" data-name="973.3" transform="translate(5661.225 2137.688)" fill="#fff" font-size="20" font-family="IBMPlexThai, IBM Plex Thai"><tspan x="-26.72" y="0">973.3</tspan></text>
      </g>
      <g id="Group_120" data-name="Group 120">
        <g id="Group_119" data-name="Group 119">
          <path id="Path_181" data-name="Path 181" d="M5811.381,2130.733a13.038,13.038,0,0,1-13,13h-64a13.039,13.039,0,0,1-13-13h0a13.04,13.04,0,0,1,13-13h64a13.039,13.039,0,0,1,13,13Z" fill="#009444"/>
          <path id="Path_182" data-name="Path 182" d="M5766.381,2152.808l-7.483-9.074h14.967Z" fill="#009444"/>
        </g>
        <text id="_973.3-2" data-name="973.3" transform="translate(5770.977 2137.688)" fill="#fff" font-size="20" font-family="IBMPlexThai, IBM Plex Thai"><tspan x="-26.72" y="0">973.3</tspan></text>
      </g>
      <g id="Group_122" data-name="Group 122">
        <g id="Group_121" data-name="Group 121">
          <path id="Path_183" data-name="Path 183" d="M5921.133,2042.732a13.038,13.038,0,0,1-13,13h-64a13.038,13.038,0,0,1-13-13h0a13.038,13.038,0,0,1,13-13h64a13.039,13.039,0,0,1,13,13Z" fill="#009444"/>
          <path id="Path_184" data-name="Path 184" d="M5876.133,2064.807l-7.484-9.074h14.967Z" fill="#009444"/>
        </g>
        <text id="_1_279.6" data-name="1,279.6" transform="translate(5876.729 2049.688)" fill="#fff" font-size="20" font-family="IBMPlexThai, IBM Plex Thai"><tspan x="-35.44" y="0">1,279.6</tspan></text>
      </g>
      <g id="Group_124" data-name="Group 124">
        <g id="Group_123" data-name="Group 123">
          <path id="Path_185" data-name="Path 185" d="M6030.885,2030.381a13.038,13.038,0,0,1-13,13h-64a13.038,13.038,0,0,1-13-13h0a13.038,13.038,0,0,1,13-13h64a13.038,13.038,0,0,1,13,13Z" fill="#009444"/>
          <path id="Path_186" data-name="Path 186" d="M5985.885,2052.456l-7.484-9.074h14.967Z" fill="#009444"/>
        </g>
        <text id="_1_319.6" data-name="1,319.6" transform="translate(5987.48 2037.336)" fill="#fff" font-size="20" font-family="IBMPlexThai, IBM Plex Thai"><tspan x="-35.44" y="0">1,319.6</tspan></text>
      </g>
      <g id="Group_126" data-name="Group 126">
        <g id="Group_125" data-name="Group 125">
          <path id="Path_187" data-name="Path 187" d="M6140.637,2032.8a13.038,13.038,0,0,1-13,13h-64a13.037,13.037,0,0,1-13-13h0a13.037,13.037,0,0,1,13-13h64a13.038,13.038,0,0,1,13,13Z" fill="#009444"/>
          <path id="Path_188" data-name="Path 188" d="M6095.637,2054.873l-7.484-9.074h14.967Z" fill="#009444"/>
        </g>
        <text id="_1_305.2" data-name="1,305.2" transform="translate(6097.232 2039.754)" fill="#fff" font-size="20" font-family="IBMPlexThai, IBM Plex Thai"><tspan x="-35.44" y="0">1,305.2</tspan></text>
      </g>
      <g id="Group_128" data-name="Group 128">
        <g id="Group_127" data-name="Group 127">
          <path id="Path_189" data-name="Path 189" d="M6250.387,1979.807a13.038,13.038,0,0,1-13,13h-64a13.039,13.039,0,0,1-13-13h0a13.039,13.039,0,0,1,13-13h64a13.038,13.038,0,0,1,13,13Z" fill="#009444"/>
          <path id="Path_190" data-name="Path 190" d="M6205.387,2001.881l-7.484-9.074h14.969Z" fill="#009444"/>
        </g>
        <text id="_1_479.9" data-name="1,479.9" transform="translate(6206.983 1986.762)" fill="#fff" font-size="20" font-family="IBMPlexThai, IBM Plex Thai"><tspan x="-35.44" y="0">1,479.9</tspan></text>
      </g>
      <g id="Group_130" data-name="Group 130">
        <g id="Group_129" data-name="Group 129">
          <path id="Path_191" data-name="Path 191" d="M6360.14,1985.225a13.039,13.039,0,0,1-13,13h-64a13.038,13.038,0,0,1-13-13h0a13.038,13.038,0,0,1,13-13h64a13.039,13.039,0,0,1,13,13Z" fill="#009444"/>
          <path id="Path_192" data-name="Path 192" d="M6315.14,2007.3l-7.484-9.074h14.967Z" fill="#009444"/>
        </g>
        <text id="_1_471.8" data-name="1,471.8" transform="translate(6317.735 1992.18)" fill="#fff" font-size="20" font-family="IBMPlexThai, IBM Plex Thai"><tspan x="-35.44" y="0">1,471.8</tspan></text>
      </g>
    </g>
  </g>
</svg>
