<svg xmlns="http://www.w3.org/2000/svg" width="852.001" height="476.104" viewBox="0 0 852.001 476.104">
  <g id="Group_584" data-name="Group 584" transform="translate(-1050.703 -308.385)">
    <text id="_รักษาก่อน_แล้วขึ้นทะเบียนภายหลังได้_ได้สิทธิคุ้มครองความเสียหายจากการรับบริการ_ได้รับการบริการทุกรายการ_ได้สิทธิประโยชน์และวิธีจ่ายเงิน_มีระบบบริหารจัดการเฉพาะทุกรายการ_เบิกอุปกรณ์และอวัยวะเทียมได้_336_รายการ_ใช้บริการได้ทุกหน่วยบริการ" data-name="•  รักษาก่อน แล้วขึ้นทะเบียนภายหลังได้
•  ได้สิทธิคุ้มครองความเสียหายจากการรับบริการ
•  ได้รับการบริการทุกรายการ
•  ได้สิทธิประโยชน์และวิธีจ่ายเงิน
•  มีระบบบริหารจัดการเฉพาะทุกรายการ
•  เบิกอุปกรณ์และอวัยวะเทียมได้ 336 รายการ
•  ใช้บริการได้ทุกหน่วยบริการ" transform="translate(1100.704 396.488)" fill="#39b54a" font-size="35" font-family="IBMPlexSansThai, IBM Plex Sans Thai"><tspan x="0" y="39" xml:space="preserve">•  </tspan><tspan y="39" fill="#000">รักษาก่อน แล้วขึ้นทะเบียนภายหลังได้</tspan><tspan x="0" y="94" xml:space="preserve">•  </tspan><tspan y="94" fill="#000">ได้สิทธิคุ้มครองความเสียหายจากการรับบริการ</tspan><tspan x="0" y="149" xml:space="preserve">•  </tspan><tspan y="149" fill="#000">ได้รับการบริการทุกรายการ</tspan><tspan x="0" y="204" xml:space="preserve">•  </tspan><tspan y="204" fill="#000">ได้สิทธิประโยชน์และวิธีจ่ายเงิน</tspan><tspan x="0" y="259" xml:space="preserve">•  </tspan><tspan y="259" fill="#000">มีระบบบริหารจัดการเฉพาะทุกรายการ</tspan><tspan x="0" y="314" xml:space="preserve">•  </tspan><tspan y="314" fill="#000">เบิกอุปกรณ์และอวัยวะเทียมได้ 336 รายการ</tspan><tspan x="0" y="369" xml:space="preserve">•  </tspan><tspan y="369" fill="#000">ใช้บริการได้ทุกหน่วยบริการ</tspan></text>
    <g id="Group_583" data-name="Group 583">
      <path id="Path_33" data-name="Path 33" d="M6590.7,9823.385a35.1,35.1,0,0,1-35,35h-630a35.1,35.1,0,0,1-35-35h0a35.1,35.1,0,0,1,35-35h630a35.1,35.1,0,0,1,35,35Z" transform="translate(-4840 -9480)" fill="#39b54a"/>
      <text id="ผู้ที่มีสิทธิในระบบหลักประกันสุขภาพแห่งชาติ" transform="translate(1400.705 357.181)" fill="#fff" font-size="35" font-family="IBMPlexSansThai-Bold, IBM Plex Sans Thai" font-weight="700"><tspan x="-320.582" y="0">ผู้ที่มีสิทธิในระบบหลักประกันสุขภาพแห่งชาติ</tspan></text>
    </g>
  </g>
</svg>
