<svg xmlns="http://www.w3.org/2000/svg" width="1251.75" height="371.22" viewBox="0 0 1251.75 371.22">
  <g id="Group_544" data-name="Group 544" transform="translate(-2520.416 -3332.807)">
    <path id="Path_1443" data-name="Path 1443" d="M5.67-29.79a21.384,21.384,0,0,1,1.71-8.73,19.109,19.109,0,0,1,4.86-6.66,21.513,21.513,0,0,1,7.7-4.275A32.8,32.8,0,0,1,30.15-50.94a32.8,32.8,0,0,1,10.215,1.485,21.513,21.513,0,0,1,7.7,4.275,19.109,19.109,0,0,1,4.86,6.66,21.384,21.384,0,0,1,1.71,8.73V0H41.31V-29.16q0-5.4-2.97-8.325T30.15-40.41q-5.22,0-8.19,2.925T18.99-29.16v10.71h.45a14.677,14.677,0,0,1,1.26-3.825,11.672,11.672,0,0,1,2.385-3.285,11.166,11.166,0,0,1,3.555-2.3,12.674,12.674,0,0,1,4.86-.855h2.34v12.42H30.51q-5.85,0-8.685,1.53T18.99-9.09V0H5.67ZM18.72-67.23h14.4v-7.92h9.99v9.09h6.93v-9.09H60.3v17.64H18.72Zm63,68.31q-7.74,0-11.745-5.085T65.97-18.54V-49.86H79.29v30.15a20.927,20.927,0,0,0,.36,4.005,8.271,8.271,0,0,0,1.26,3.15,6.245,6.245,0,0,0,2.475,2.07A8.927,8.927,0,0,0,87.3-9.72a11.487,11.487,0,0,0,3.285-.495A8.687,8.687,0,0,0,93.51-11.7a8.11,8.11,0,0,0,2.07-2.43,6.677,6.677,0,0,0,.81-3.33v-32.4h13.32v39.51h4.41V0h-8.01q-8.1,0-8.37-9.27h-.63a17.614,17.614,0,0,1-1.935,3.915,13.762,13.762,0,0,1-3.06,3.285,14.6,14.6,0,0,1-4.41,2.3A18.947,18.947,0,0,1,81.72,1.08Zm60.03,0a28.617,28.617,0,0,1-12.195-2.34,27.088,27.088,0,0,1-8.775-6.57l8.01-7.74a21.27,21.27,0,0,0,5.985,4.635,16.237,16.237,0,0,0,7.6,1.755q4.14,0,6.03-1.35a4.134,4.134,0,0,0,1.89-3.51,3.777,3.777,0,0,0-1.53-3.375,9.735,9.735,0,0,0-4.14-1.4l-5.13-.63q-8.19-.99-12.555-4.77T122.58-34.74a15.7,15.7,0,0,1,1.4-6.75,14.52,14.52,0,0,1,3.96-5.085,18.069,18.069,0,0,1,6.12-3.24,26.011,26.011,0,0,1,7.875-1.125,38.471,38.471,0,0,1,6.48.495,24.551,24.551,0,0,1,5.265,1.485,21.215,21.215,0,0,1,4.365,2.43,32.632,32.632,0,0,1,3.87,3.33l-7.83,7.74a16.4,16.4,0,0,0-5.31-3.78,15.629,15.629,0,0,0-6.57-1.44q-3.69,0-5.4,1.35a4.265,4.265,0,0,0-1.71,3.51,4.52,4.52,0,0,0,1.4,3.465A8.754,8.754,0,0,0,141.3-30.6l5.13.72a34.674,34.674,0,0,1,6.885,1.62,16.843,16.843,0,0,1,5.13,2.835,11.656,11.656,0,0,1,3.24,4.275,14.718,14.718,0,0,1,1.125,6.03,13.94,13.94,0,0,1-1.53,6.48,15.536,15.536,0,0,1-4.275,5.13,20.456,20.456,0,0,1-6.66,3.375A28.888,28.888,0,0,1,141.75,1.08Zm51.21,0a28.616,28.616,0,0,1-8.82-1.305,22.22,22.22,0,0,1-6.975-3.6,16.931,16.931,0,0,1-4.59-5.445,14.6,14.6,0,0,1-1.665-6.93v-4.41a8.21,8.21,0,0,1,2.025-5.85q2.025-2.16,6.075-2.16h10.8v9.81h-6.93v1.44a7.36,7.36,0,0,0,2.7,6.165q2.7,2.115,7.83,2.115a8.51,8.51,0,0,0,7.065-3.105q2.475-3.1,2.475-8.5v-8.28q0-5.4-2.88-8.415t-8.1-3.015a17.13,17.13,0,0,0-4.725.63,18.219,18.219,0,0,0-3.96,1.62,16,16,0,0,0-3.06,2.205,13.366,13.366,0,0,0-2.025,2.3l-8.1-7.2a21.831,21.831,0,0,1,8.415-7.155q5.625-2.925,14-2.925a28.171,28.171,0,0,1,10.215,1.755,20.417,20.417,0,0,1,7.7,5.13,22.69,22.69,0,0,1,4.815,8.19A33.36,33.36,0,0,1,216.9-24.93,34.21,34.21,0,0,1,215.28-14a22.52,22.52,0,0,1-4.725,8.19A20.148,20.148,0,0,1,203-.675,27.189,27.189,0,0,1,192.96,1.08Zm52.47,0q-9.81,0-15.39-3.825a12.38,12.38,0,0,1-5.58-10.845,11.11,11.11,0,0,1,2.565-7.38,13.745,13.745,0,0,1,6.615-4.32v-.54a12.583,12.583,0,0,1-7.02-4.41,12.231,12.231,0,0,1-2.52-7.74,12.616,12.616,0,0,1,1.08-5.265,12.012,12.012,0,0,1,3.015-4.1A13.712,13.712,0,0,1,232.875-50a18.276,18.276,0,0,1,5.985-.945,31.448,31.448,0,0,1,4.725.409,13.643,13.643,0,0,1,4.725,1.588l-2.79,9.613a7.288,7.288,0,0,0-2.115-.855,10.364,10.364,0,0,0-2.205-.225,5.837,5.837,0,0,0-3.645,1.2,4.161,4.161,0,0,0-1.575,3.523q0,4.9,6.3,4.9h4.68v8.82h-4.68a4.306,4.306,0,0,0-3.24,1.305,4.778,4.778,0,0,0-1.26,3.465v1.71a5.219,5.219,0,0,0,2.07,4.545,10.281,10.281,0,0,0,6.03,1.485,9.911,9.911,0,0,0,7.11-2.475q2.61-2.475,2.61-7.245V-49.86h13.32v32.4a17.246,17.246,0,0,1-1.665,7.65,16.774,16.774,0,0,1-4.725,5.85,21.917,21.917,0,0,1-7.38,3.735A33.574,33.574,0,0,1,245.43,1.08Zm54.09,0q-9.81,0-15.39-3.825a12.38,12.38,0,0,1-5.58-10.845,11.11,11.11,0,0,1,2.565-7.38,13.744,13.744,0,0,1,6.615-4.32v-.54a12.583,12.583,0,0,1-7.02-4.41,12.231,12.231,0,0,1-2.52-7.74,12.616,12.616,0,0,1,1.08-5.265,12.012,12.012,0,0,1,3.015-4.1A13.713,13.713,0,0,1,286.965-50a18.276,18.276,0,0,1,5.985-.945,31.448,31.448,0,0,1,4.725.409,13.643,13.643,0,0,1,4.725,1.588l-2.79,9.613a7.288,7.288,0,0,0-2.115-.855,10.364,10.364,0,0,0-2.2-.225,5.837,5.837,0,0,0-3.645,1.2,4.161,4.161,0,0,0-1.575,3.523q0,4.9,6.3,4.9h4.68v8.82h-4.68a4.306,4.306,0,0,0-3.24,1.305,4.778,4.778,0,0,0-1.26,3.465v1.71a5.219,5.219,0,0,0,2.07,4.545,10.281,10.281,0,0,0,6.03,1.485,9.911,9.911,0,0,0,7.11-2.475q2.61-2.475,2.61-7.245V-49.86h13.32v32.4a17.246,17.246,0,0,1-1.665,7.65,16.774,16.774,0,0,1-4.725,5.85,21.917,21.917,0,0,1-7.38,3.735A33.574,33.574,0,0,1,299.52,1.08ZM287.1-67.23h41.58v9.72H287.1Zm23.04-19.44h5.22v-3.06a2.522,2.522,0,0,0-.585-1.845,3.134,3.134,0,0,0-2.2-.585h-2.43v-7.56h6.84a9.1,9.1,0,0,1,5.805,1.62,5.442,5.442,0,0,1,2.025,4.5,6.482,6.482,0,0,1-1.17,3.645,7.482,7.482,0,0,1-3.06,2.655v.63h14.04v7.65H310.14ZM363.06,1.08a17.528,17.528,0,0,1-5.625-.81,14.928,14.928,0,0,1-4.14-2.115,11.91,11.91,0,0,1-2.88-3.015,16,16,0,0,1-1.755-3.51h-.45V0H334.89V-49.86h13.32v32.4a6.677,6.677,0,0,0,.81,3.33,7.842,7.842,0,0,0,2.115,2.43,9.205,9.205,0,0,0,2.97,1.485,11.487,11.487,0,0,0,3.285.495,9.546,9.546,0,0,0,4.185-.81,6.184,6.184,0,0,0,2.565-2.2,9.136,9.136,0,0,0,1.26-3.195,19.24,19.24,0,0,0,.36-3.78V-49.86h13.32v31.32q0,9.45-4.05,14.535T363.06,1.08ZM5.67,90.21a21.384,21.384,0,0,1,1.71-8.73,19.109,19.109,0,0,1,4.86-6.66,21.513,21.513,0,0,1,7.7-4.275A32.8,32.8,0,0,1,30.15,69.06a32.8,32.8,0,0,1,10.215,1.485,21.513,21.513,0,0,1,7.7,4.275,19.109,19.109,0,0,1,4.86,6.66,21.384,21.384,0,0,1,1.71,8.73V120H41.31V90.84q0-5.4-2.97-8.325T30.15,79.59q-5.22,0-8.19,2.925T18.99,90.84v10.71h.45a14.677,14.677,0,0,1,1.26-3.825,11.672,11.672,0,0,1,2.385-3.285,11.166,11.166,0,0,1,3.555-2.3,12.674,12.674,0,0,1,4.86-.855h2.34v12.42H30.51q-5.85,0-8.685,1.53t-2.835,5.67V120H5.67ZM18.72,52.77h14.4V44.85h9.99v9.09h6.93V44.85H60.3V62.49H18.72Zm63,68.31q-7.74,0-11.745-5.085T65.97,101.46V70.14H79.29v30.15a20.927,20.927,0,0,0,.36,4,8.271,8.271,0,0,0,1.26,3.15,6.245,6.245,0,0,0,2.475,2.07,8.927,8.927,0,0,0,3.915.765,11.487,11.487,0,0,0,3.285-.495A8.687,8.687,0,0,0,93.51,108.3a8.11,8.11,0,0,0,2.07-2.43,6.677,6.677,0,0,0,.81-3.33V70.14h13.32v39.51h4.41V120h-8.01q-8.1,0-8.37-9.27h-.63a17.614,17.614,0,0,1-1.935,3.915,13.762,13.762,0,0,1-3.06,3.285,14.6,14.6,0,0,1-4.41,2.295A18.947,18.947,0,0,1,81.72,121.08Zm41.04-30.87a21.384,21.384,0,0,1,1.71-8.73,19.109,19.109,0,0,1,4.86-6.66,21.513,21.513,0,0,1,7.7-4.275,35.876,35.876,0,0,1,20.43,0,21.513,21.513,0,0,1,7.7,4.275,19.109,19.109,0,0,1,4.86,6.66,21.384,21.384,0,0,1,1.71,8.73V120H158.4V90.84q0-5.4-2.97-8.325t-8.19-2.925q-5.22,0-8.19,2.925t-2.97,8.325v10.71h.45a14.677,14.677,0,0,1,1.26-3.825,11.672,11.672,0,0,1,2.385-3.285,11.166,11.166,0,0,1,3.555-2.3,12.674,12.674,0,0,1,4.86-.855h2.34v12.42H147.6q-5.85,0-8.685,1.53t-2.835,5.67V120H122.76Zm76.59,30.87a30.1,30.1,0,0,1-7.83-.99,20.04,20.04,0,0,1-6.57-3.06l4.95-9.36a28.233,28.233,0,0,0,3.6,1.935,12.339,12.339,0,0,0,5.13.945,7.659,7.659,0,0,0,6.525-2.925,12.779,12.779,0,0,0,2.205-7.875V90.48a13.179,13.179,0,0,0-2.16-7.92,7.491,7.491,0,0,0-6.48-2.97,8.69,8.69,0,0,0-6.12,2.07,9.862,9.862,0,0,0-2.97,5.04l-10.8-4.68a18.76,18.76,0,0,1,7.515-9.54,23.386,23.386,0,0,1,13.005-3.42,22.68,22.68,0,0,1,9.4,1.845,18.842,18.842,0,0,1,6.885,5.22,23.082,23.082,0,0,1,4.23,8.145,37.008,37.008,0,0,1,1.44,10.71,37.94,37.94,0,0,1-1.44,10.8,23.005,23.005,0,0,1-4.23,8.235,18.842,18.842,0,0,1-6.885,5.22A22.68,22.68,0,0,1,199.35,121.08Zm52.38-34.11a7.851,7.851,0,0,0-1.755-5.4q-1.755-1.98-5.8-1.98a10.079,10.079,0,0,0-6.12,1.665,16.917,16.917,0,0,0-3.78,3.825l-7.92-7.02a20.911,20.911,0,0,1,7.155-6.615q4.275-2.385,11.655-2.385,9.81,0,14.85,4.41t5.04,12.87V120H251.73Zm53.37,34.11a17.528,17.528,0,0,1-5.625-.81,14.928,14.928,0,0,1-4.14-2.115,11.91,11.91,0,0,1-2.88-3.015,16,16,0,0,1-1.755-3.51h-.45V120H276.93V70.14h13.32v32.4a6.677,6.677,0,0,0,.81,3.33,7.842,7.842,0,0,0,2.115,2.43,9.205,9.205,0,0,0,2.97,1.485,11.487,11.487,0,0,0,3.285.495,9.546,9.546,0,0,0,4.185-.81,6.184,6.184,0,0,0,2.565-2.205,9.136,9.136,0,0,0,1.26-3.195,19.242,19.242,0,0,0,.36-3.78V70.14h13.32v31.32q0,9.45-4.05,14.535T305.1,121.08Zm41.85-.18q-7.2,0-11.475-3.555T331.2,106.23q0-7.02,4.05-10.89t11.7-3.87H361.8V88.86q0-4.5-2.385-6.885T351.63,79.59a14.541,14.541,0,0,0-8.19,2.295,15.822,15.822,0,0,0-2.88,2.34,21.431,21.431,0,0,0-2.25,2.745l-8.46-7.38a25.042,25.042,0,0,1,8.64-7.695q5.22-2.835,14.04-2.835,9.36,0,15.03,3.6a6.446,6.446,0,0,1,2.655-3.87,8.823,8.823,0,0,1,4.9-1.26h9.9V78.51H373.14v.36a20.788,20.788,0,0,1,1.98,9.54V120H361.8V99.93H351.72q-7.02,0-7.02,5.76v1.53a6.574,6.574,0,0,0,1.44,4.455,5.288,5.288,0,0,0,4.23,1.665h1.08a3.4,3.4,0,0,0,1.08-.18l.9,7.11a6.352,6.352,0,0,1-1.215.315,13.622,13.622,0,0,1-1.71.18l-1.89.09Q347.67,120.9,346.95,120.9Zm27.45,17.01h-6.39v-8.55h8.91q4.5,0,6.435,1.89a6.841,6.841,0,0,1,1.935,5.13V151.5H374.4Zm36.45-16.83a33.131,33.131,0,0,1-8.73-1.08,18.252,18.252,0,0,1-6.75-3.33,15.229,15.229,0,0,1-4.32-5.58,18.839,18.839,0,0,1-1.53-7.92,23.815,23.815,0,0,1,.36-4.41,20.137,20.137,0,0,1,.945-3.42,16.164,16.164,0,0,1,1.3-2.7q.72-1.17,1.35-2.16a27.308,27.308,0,0,0,2.2-4.275,11.869,11.869,0,0,0,.945-4.545v-.63h-7.65V70.14h9.99q5.13,0,7.83,2.295a7.678,7.678,0,0,1,2.7,6.165v.36a20.551,20.551,0,0,1-.72,5.31,33.008,33.008,0,0,1-2.43,6.12q-1.26,2.52-2.115,4.635a14.7,14.7,0,0,0-.855,5.445v2.43a7.337,7.337,0,0,0,1.89,5.355,7.083,7.083,0,0,0,5.31,1.935,7.444,7.444,0,0,0,5.355-1.845,6.93,6.93,0,0,0,1.935-5.265V70.14h13.05V101.1q0,9.36-5.265,14.67T410.85,121.08ZM5.67,210.21a21.384,21.384,0,0,1,1.71-8.73,19.109,19.109,0,0,1,4.86-6.66,21.513,21.513,0,0,1,7.7-4.275A32.8,32.8,0,0,1,30.15,189.06a32.8,32.8,0,0,1,10.215,1.485,21.513,21.513,0,0,1,7.7,4.275,19.109,19.109,0,0,1,4.86,6.66,21.384,21.384,0,0,1,1.71,8.73V240H41.31V210.84q0-5.4-2.97-8.325t-8.19-2.925q-5.22,0-8.19,2.925t-2.97,8.325v10.71h.45a14.677,14.677,0,0,1,1.26-3.825,11.673,11.673,0,0,1,2.385-3.285,11.166,11.166,0,0,1,3.555-2.295,12.674,12.674,0,0,1,4.86-.855h2.34v12.42H30.51q-5.85,0-8.685,1.53t-2.835,5.67V240H5.67Zm13.05-37.44h14.4v-7.92h9.99v9.09h6.93v-9.09H60.3v17.64H18.72Zm63,68.31q-7.74,0-11.745-5.085T65.97,221.46V190.14H79.29v30.15a20.927,20.927,0,0,0,.36,4.005,8.271,8.271,0,0,0,1.26,3.15,6.245,6.245,0,0,0,2.475,2.07,8.928,8.928,0,0,0,3.915.765,11.487,11.487,0,0,0,3.285-.495A8.687,8.687,0,0,0,93.51,228.3a8.11,8.11,0,0,0,2.07-2.43,6.677,6.677,0,0,0,.81-3.33v-32.4h13.32v39.51h4.41V240h-8.01q-8.1,0-8.37-9.27h-.63a17.614,17.614,0,0,1-1.935,3.915,13.762,13.762,0,0,1-3.06,3.285,14.6,14.6,0,0,1-4.41,2.3A18.947,18.947,0,0,1,81.72,241.08Zm55.53-.18q-7.2,0-11.475-3.555T121.5,226.23q0-7.02,4.05-10.89t11.7-3.87H152.1v-2.61q0-4.5-2.385-6.885t-7.785-2.385a14.541,14.541,0,0,0-8.19,2.295,15.822,15.822,0,0,0-2.88,2.34,21.43,21.43,0,0,0-2.25,2.745l-8.46-7.38a25.042,25.042,0,0,1,8.64-7.695q5.22-2.835,14.04-2.835,9.36,0,15.03,3.6a6.446,6.446,0,0,1,2.655-3.87,8.823,8.823,0,0,1,4.9-1.26h9.9v10.98H163.44v.36a20.788,20.788,0,0,1,1.98,9.54V240H152.1V219.93H142.02q-7.02,0-7.02,5.76v1.53a6.574,6.574,0,0,0,1.44,4.455,5.288,5.288,0,0,0,4.23,1.665h1.08a3.4,3.4,0,0,0,1.08-.18l.9,7.11a6.354,6.354,0,0,1-1.215.315,13.624,13.624,0,0,1-1.71.18l-1.89.09Q137.97,240.9,137.25,240.9Zm-4.14-68.13h41.58v9.72H133.11Zm47.79,17.37h13.32v8.37h.45a14.444,14.444,0,0,1,1.8-3.6A12.656,12.656,0,0,1,199.4,191.9a13.991,13.991,0,0,1,4.185-2.07,18.929,18.929,0,0,1,5.67-.765q8.01,0,12.105,5.085t4.1,14.535V240H212.13V209.85q0-4.86-1.935-7.425t-6.525-2.565a12.094,12.094,0,0,0-3.465.495,9.756,9.756,0,0,0-3.015,1.485,7.61,7.61,0,0,0-2.16,2.43,6.677,6.677,0,0,0-.81,3.33V240H180.9Zm55.53,30.96h11.88v9H265.5v-6.84q0-3.51-1.755-4.95t-5.985-1.8l-22.23-1.8v-7.29q0-8.73,5.625-13.545t16.425-4.815a34.306,34.306,0,0,1,12.1,1.89,27.893,27.893,0,0,1,8.6,5.04l-6.3,8.55a16.913,16.913,0,0,0-6.345-3.78,26.328,26.328,0,0,0-8.955-1.44q-4.5,0-6.93,1.8a5.651,5.651,0,0,0-2.43,4.77l12.15,1.08a58.733,58.733,0,0,1,8.1,1.3,16.374,16.374,0,0,1,5.9,2.61,11.03,11.03,0,0,1,3.6,4.5,17.049,17.049,0,0,1,1.215,6.885v4.77q0,6.3-3.2,9.63T265.14,240H236.43Zm3.6-48.33h41.58v9.72H240.03ZM323.55,240q-6.84,0-10.035-3.33t-3.2-9.63V194.19a10.83,10.83,0,0,1,.675-3.915,15.155,15.155,0,0,1,1.71-3.24,16.807,16.807,0,0,1,2.34-2.7q1.3-1.215,2.565-2.475a28.149,28.149,0,0,0,3.1-3.622,7.281,7.281,0,0,0,1.305-4.336,5.81,5.81,0,0,0-1.575-4.382A6.024,6.024,0,0,0,316.08,168a6.791,6.791,0,0,0-5.085,1.98,14.083,14.083,0,0,0-3.1,5.67l-9.63-5.4a23.224,23.224,0,0,1,2.43-4.746,16.945,16.945,0,0,1,3.825-4.085,18.881,18.881,0,0,1,5.49-2.86,23.329,23.329,0,0,1,7.515-1.089,22.647,22.647,0,0,1,6.84.993A15.578,15.578,0,0,1,329.8,161.4a13.824,13.824,0,0,1,3.6,4.692,14.469,14.469,0,0,1,1.305,6.272,12.364,12.364,0,0,1-1.755,6.632,43.184,43.184,0,0,1-3.825,5.279q-2.07,2.426-3.78,4.672a7.855,7.855,0,0,0-1.71,4.854V229.65h6.21V240Zm14.85-49.86h13.32V204l11.43-1.53a5.565,5.565,0,0,0,3.735-1.755,9.116,9.116,0,0,0,1.485-4.635l.63-5.94h13.77l-.63,6.39a11.8,11.8,0,0,1-3.24,7.065q-2.79,2.925-8.01,3.375v.45a10.718,10.718,0,0,1,5.49,2.34,13.819,13.819,0,0,1,3.285,4.185,18.577,18.577,0,0,1,1.71,5q.495,2.61.675,4.68L383.58,240H369.9l-1.35-17.28a12.432,12.432,0,0,0-2.43-7.155,6.056,6.056,0,0,0-5.76-2.025l-8.64,1.08V240H338.4Zm30.78-17.37h5.67v-3.06a3.031,3.031,0,0,0-.675-2.2,4,4,0,0,0-2.745-.675h-2.25v-9.18h7.47a10.73,10.73,0,0,1,6.84,1.935,6.37,6.37,0,0,1,2.43,5.265,7.014,7.014,0,0,1-1.395,4.185,9.2,9.2,0,0,1-3.825,3.015v.72h16.74v9.18H369.18Zm25.2,17.37H407.7v8.37h.45a14.444,14.444,0,0,1,1.8-3.6,12.656,12.656,0,0,1,2.925-3.015,13.992,13.992,0,0,1,4.185-2.07,18.928,18.928,0,0,1,5.67-.765q8.01,0,12.105,5.085t4.1,14.535V240H425.61V209.85q0-4.86-1.935-7.425t-6.525-2.565a12.094,12.094,0,0,0-3.465.495,9.756,9.756,0,0,0-3.015,1.485,7.611,7.611,0,0,0-2.16,2.43,6.677,6.677,0,0,0-.81,3.33V240H394.38Zm39.33,67.77h-6.39v-8.55h8.91q4.5,0,6.435,1.89a6.841,6.841,0,0,1,1.935,5.13V271.5H433.71Zm21.42-44.1-7.83-3.15a23.4,23.4,0,0,1,2.385-8.955,21.281,21.281,0,0,1,5.355-6.795,24.078,24.078,0,0,1,7.875-4.32,31,31,0,0,1,9.945-1.53,30.5,30.5,0,0,1,9.855,1.485,21.174,21.174,0,0,1,7.425,4.23,18.6,18.6,0,0,1,4.725,6.66,21.974,21.974,0,0,1,1.665,8.685V240H483.21V211.83q0-5.76-2.925-9t-8.6-3.24a14.558,14.558,0,0,0-7.425,1.8,11.5,11.5,0,0,0-4.545,4.5l3.15,1.17a9.659,9.659,0,0,1,4.41,2.88,8.294,8.294,0,0,1,1.17,4.86V240H455.13Zm52.74-3.6a21.384,21.384,0,0,1,1.71-8.73,19.109,19.109,0,0,1,4.86-6.66,21.513,21.513,0,0,1,7.7-4.275,35.876,35.876,0,0,1,20.43,0,21.513,21.513,0,0,1,7.7,4.275,19.107,19.107,0,0,1,4.86,6.66,21.384,21.384,0,0,1,1.71,8.73V240H543.51V210.84q0-5.4-2.97-8.325t-8.19-2.925q-5.22,0-8.19,2.925t-2.97,8.325v10.71h.45a14.675,14.675,0,0,1,1.26-3.825,11.671,11.671,0,0,1,2.385-3.285,11.165,11.165,0,0,1,3.555-2.295,12.674,12.674,0,0,1,4.86-.855h2.34v12.42h-3.33q-5.85,0-8.685,1.53t-2.835,5.67V240H507.87Zm76.05,30.87q-7.74,0-11.745-5.085T568.17,221.46V190.14h13.32v30.15a20.928,20.928,0,0,0,.36,4.005,8.272,8.272,0,0,0,1.26,3.15,6.246,6.246,0,0,0,2.475,2.07,8.927,8.927,0,0,0,3.915.765,11.487,11.487,0,0,0,3.285-.495,8.687,8.687,0,0,0,2.925-1.485,8.111,8.111,0,0,0,2.07-2.43,6.677,6.677,0,0,0,.81-3.33v-32.4h13.32v39.51h4.41V240h-8.01q-8.1,0-8.37-9.27h-.63a17.614,17.614,0,0,1-1.935,3.915,13.762,13.762,0,0,1-3.06,3.285,14.6,14.6,0,0,1-4.41,2.3A18.948,18.948,0,0,1,583.92,241.08Z" transform="translate(3155.846 3432.527)" fill="#002a28"/>
    <path id="Path_1442" data-name="Path 1442" d="M-462.36-34.92l-10.44-4.2a31.2,31.2,0,0,1,3.18-11.94,28.375,28.375,0,0,1,7.14-9.06,32.1,32.1,0,0,1,10.5-5.76,41.337,41.337,0,0,1,13.26-2.04,40.667,40.667,0,0,1,13.14,1.98,28.231,28.231,0,0,1,9.9,5.64,24.8,24.8,0,0,1,6.3,8.88,29.3,29.3,0,0,1,2.22,11.58V0h-17.76V-37.56q0-7.68-3.9-12t-11.46-4.32a19.411,19.411,0,0,0-9.9,2.4,15.334,15.334,0,0,0-6.06,6l4.2,1.56q4.32,1.68,5.88,3.84t1.56,6.48V0h-17.76Zm92.04,36.36A40.138,40.138,0,0,1-380.76.12a26.72,26.72,0,0,1-8.76-4.08l6.6-12.48a37.646,37.646,0,0,0,4.8,2.58,16.451,16.451,0,0,0,6.84,1.26q5.76,0,8.7-3.9t2.94-10.5V-39.36q0-6.6-2.88-10.56t-8.64-3.96a11.587,11.587,0,0,0-8.16,2.76,13.149,13.149,0,0,0-3.96,6.72l-14.4-6.24a25.013,25.013,0,0,1,10.02-12.72q7.02-4.56,17.34-4.56a30.24,30.24,0,0,1,12.54,2.46,25.123,25.123,0,0,1,9.18,6.96,30.776,30.776,0,0,1,5.64,10.86,49.344,49.344,0,0,1,1.92,14.28,50.586,50.586,0,0,1-1.92,14.4A30.673,30.673,0,0,1-348.6-7.98a25.123,25.123,0,0,1-9.18,6.96A30.239,30.239,0,0,1-370.32,1.44Zm16.08-102.96h16.08v24.84h-16.08Zm53.76,57.48a10.469,10.469,0,0,0-2.34-7.2q-2.34-2.64-7.74-2.64-5.16,0-8.16,2.22a22.555,22.555,0,0,0-5.04,5.1l-10.56-9.36a27.882,27.882,0,0,1,9.54-8.82q5.7-3.18,15.54-3.18,13.08,0,19.8,5.88t6.72,17.16V0h-17.76ZM-235.56,0V-14.52H-213V-70.68h-1.08l-17.04,22.32-11.52-9,20.04-26.4H-195v69.24h17.76V0Zm96.72,1.44q-16.44,0-24.36-11.4t-7.92-31.92q0-20.52,7.92-31.92t24.36-11.4q16.44,0,24.36,11.4t7.92,31.92q0,20.52-7.92,31.92T-138.84,1.44Zm0-15.24q7.2,0,9.96-5.28t2.76-14.88V-49.8q0-9.6-2.76-14.88t-9.96-5.28q-7.2,0-9.96,5.28t-2.76,14.88v15.84q0,9.6,2.76,14.88T-138.84-13.8ZM-37.2,1.44A37.853,37.853,0,0,1-49.68-.48a26.9,26.9,0,0,1-9.36-5.4,22.925,22.925,0,0,1-5.88-8.52,29.487,29.487,0,0,1-2.04-11.16V-66.48H-49.2V-26.4q0,6.6,3.18,10.2a11.156,11.156,0,0,0,8.82,3.6q5.64,0,8.76-3.6t3.12-10.2V-89.64H-7.56v64.08A29.487,29.487,0,0,1-9.6-14.4a22.925,22.925,0,0,1-5.88,8.52,26.9,26.9,0,0,1-9.36,5.4A37.456,37.456,0,0,1-37.2,1.44ZM-51.12-89.64h27.24V-100.2H-7.8v23.52H-51.12ZM-528.08,85.72h-3.71V77.67h5.32a7.018,7.018,0,0,1,4.13,1.05,6.862,6.862,0,0,1,2.31,3.43l3.57,10.15h1.89a3.966,3.966,0,0,0,3.5-2.275,12.778,12.778,0,0,0,1.33-6.405V77.18a8.563,8.563,0,0,0-2.275-6.335,8.66,8.66,0,0,0-6.405-2.275,11.437,11.437,0,0,0-3.955.63,14.814,14.814,0,0,0-3.045,1.505,10.768,10.768,0,0,0-2.24,1.925,19.361,19.361,0,0,0-1.47,1.89l-6.3-5.6a20.136,20.136,0,0,1,2.7-3.22,17.348,17.348,0,0,1,3.71-2.73,20.32,20.32,0,0,1,4.865-1.89,25.165,25.165,0,0,1,6.23-.7,21.911,21.911,0,0,1,7.945,1.365A16.08,16.08,0,0,1-504,65.7a17.345,17.345,0,0,1,3.745,6.3,25.4,25.4,0,0,1,1.3,8.4,28.071,28.071,0,0,1-1.12,8.26,17.9,17.9,0,0,1-3.185,6.16,13.762,13.762,0,0,1-4.97,3.85A15.548,15.548,0,0,1-514.78,100h-8.05Zm52.78-11.41a6.107,6.107,0,0,0-1.365-4.2q-1.365-1.54-4.515-1.54a7.839,7.839,0,0,0-4.76,1.295,13.157,13.157,0,0,0-2.94,2.975l-6.16-5.46a16.264,16.264,0,0,1,5.565-5.145q3.325-1.855,9.065-1.855,7.63,0,11.55,3.43t3.92,10.01V100H-475.3Zm22.96,5.32-6.09-2.45a18.2,18.2,0,0,1,1.855-6.965,16.552,16.552,0,0,1,4.165-5.285,18.728,18.728,0,0,1,6.125-3.36,24.113,24.113,0,0,1,7.735-1.19,23.722,23.722,0,0,1,7.665,1.155,16.468,16.468,0,0,1,5.775,3.29A14.465,14.465,0,0,1-421.435,70a17.092,17.092,0,0,1,1.3,6.755V100H-430.5V78.09a10.071,10.071,0,0,0-2.275-7q-2.275-2.52-6.685-2.52a11.323,11.323,0,0,0-5.775,1.4,8.945,8.945,0,0,0-3.535,3.5l2.45.91a7.513,7.513,0,0,1,3.43,2.24,6.451,6.451,0,0,1,.91,3.78V100h-10.36Zm41.02-2.8a16.632,16.632,0,0,1,1.33-6.79,14.863,14.863,0,0,1,3.78-5.18,16.732,16.732,0,0,1,5.985-3.325,25.511,25.511,0,0,1,7.945-1.155,25.51,25.51,0,0,1,7.945,1.155,16.732,16.732,0,0,1,5.985,3.325,14.862,14.862,0,0,1,3.78,5.18,16.632,16.632,0,0,1,1.33,6.79V100H-383.6V77.32a8.681,8.681,0,0,0-2.31-6.475,8.685,8.685,0,0,0-6.37-2.275,8.685,8.685,0,0,0-6.37,2.275,8.681,8.681,0,0,0-2.31,6.475v8.33h.35a11.415,11.415,0,0,1,.98-2.975,9.078,9.078,0,0,1,1.855-2.555,8.685,8.685,0,0,1,2.765-1.785,9.858,9.858,0,0,1,3.78-.665h1.82v9.66H-392q-4.55,0-6.755,1.19t-2.205,4.41V100h-10.36Zm59.57,24.01a23.414,23.414,0,0,1-6.09-.77,15.586,15.586,0,0,1-5.11-2.38l3.85-7.28a21.959,21.959,0,0,0,2.8,1.505,9.6,9.6,0,0,0,3.99.735,5.957,5.957,0,0,0,5.075-2.275,9.939,9.939,0,0,0,1.715-6.125V77.04a10.251,10.251,0,0,0-1.68-6.16,5.826,5.826,0,0,0-5.04-2.31A6.759,6.759,0,0,0-357,70.18a7.67,7.67,0,0,0-2.31,3.92l-8.4-3.64a14.591,14.591,0,0,1,5.845-7.42,18.19,18.19,0,0,1,10.115-2.66,17.64,17.64,0,0,1,7.315,1.435,14.655,14.655,0,0,1,5.355,4.06,17.952,17.952,0,0,1,3.29,6.335,28.784,28.784,0,0,1,1.12,8.33,29.508,29.508,0,0,1-1.12,8.4,17.893,17.893,0,0,1-3.29,6.4,14.655,14.655,0,0,1-5.355,4.06A17.64,17.64,0,0,1-351.75,100.84Zm40.74-26.53a6.107,6.107,0,0,0-1.365-4.2q-1.365-1.54-4.515-1.54a7.839,7.839,0,0,0-4.76,1.295,13.157,13.157,0,0,0-2.94,2.975l-6.16-5.46a16.264,16.264,0,0,1,5.565-5.145q3.325-1.855,9.065-1.855,7.63,0,11.55,3.43t3.92,10.01V100h-10.36Zm41.51,26.53a13.633,13.633,0,0,1-4.375-.63,11.61,11.61,0,0,1-3.22-1.645,9.263,9.263,0,0,1-2.24-2.345,12.442,12.442,0,0,1-1.365-2.73h-.35V100h-10.36V61.22h10.36v25.2a5.193,5.193,0,0,0,.63,2.59,6.1,6.1,0,0,0,1.645,1.89,7.16,7.16,0,0,0,2.31,1.155,8.934,8.934,0,0,0,2.555.385,7.425,7.425,0,0,0,3.255-.63A4.809,4.809,0,0,0-268.66,90.1a7.106,7.106,0,0,0,.98-2.485,14.965,14.965,0,0,0,.28-2.94V61.22h10.36V85.58q0,7.35-3.15,11.305T-269.5,100.84Zm20.65-39.62h9.45l1.82,20.23.42,6.37h.56l1.4-6.37,5.25-20.23h6.86l5.25,20.23,1.4,6.37h.49l.21-6.37,2.1-20.23h9.45L-209.44,100h-10.99l-5.04-22.75-.98-5.46h-.21l-1.12,5.46L-232.89,100h-10.78Zm67.83,39.62q-7.63,0-11.97-2.975a9.629,9.629,0,0,1-4.34-8.435,8.641,8.641,0,0,1,1.995-5.74,10.69,10.69,0,0,1,5.145-3.36v-.42a9.787,9.787,0,0,1-5.46-3.43,9.513,9.513,0,0,1-1.96-6.02,9.812,9.812,0,0,1,.84-4.1,9.342,9.342,0,0,1,2.345-3.185,10.665,10.665,0,0,1,3.64-2.065,14.214,14.214,0,0,1,4.655-.735,24.46,24.46,0,0,1,3.675.318,10.611,10.611,0,0,1,3.675,1.235l-2.17,7.477a5.669,5.669,0,0,0-1.645-.665,8.061,8.061,0,0,0-1.715-.175,4.539,4.539,0,0,0-2.835.936,3.237,3.237,0,0,0-1.225,2.74q0,3.814,4.9,3.814h3.64v6.86h-3.64a3.349,3.349,0,0,0-2.52,1.015,3.716,3.716,0,0,0-.98,2.695v1.33a4.059,4.059,0,0,0,1.61,3.535,8,8,0,0,0,4.69,1.155,7.708,7.708,0,0,0,5.53-1.925,7.4,7.4,0,0,0,2.03-5.635V61.22h10.36v25.2a13.414,13.414,0,0,1-1.295,5.95,13.046,13.046,0,0,1-3.675,4.55,17.047,17.047,0,0,1-5.74,2.9A26.113,26.113,0,0,1-181.02,100.84Zm44.24-26.53a6.107,6.107,0,0,0-1.365-4.2q-1.365-1.54-4.515-1.54a7.839,7.839,0,0,0-4.76,1.295,13.157,13.157,0,0,0-2.94,2.975l-6.16-5.46a16.264,16.264,0,0,1,5.565-5.145q3.325-1.855,9.065-1.855,7.63,0,11.55,3.43t3.92,10.01V100h-10.36Zm34.16,26.53q-7.63,0-11.97-2.975a9.629,9.629,0,0,1-4.34-8.435,8.641,8.641,0,0,1,1.995-5.74,10.69,10.69,0,0,1,5.145-3.36v-.42a9.787,9.787,0,0,1-5.46-3.43,9.513,9.513,0,0,1-1.96-6.02,9.812,9.812,0,0,1,.84-4.1,9.343,9.343,0,0,1,2.345-3.185,10.665,10.665,0,0,1,3.64-2.065,14.214,14.214,0,0,1,4.655-.735,24.46,24.46,0,0,1,3.675.318,10.611,10.611,0,0,1,3.675,1.235l-2.17,7.477a5.668,5.668,0,0,0-1.645-.665,8.061,8.061,0,0,0-1.715-.175,4.539,4.539,0,0,0-2.835.936,3.237,3.237,0,0,0-1.225,2.74q0,3.814,4.9,3.814h3.64v6.86h-3.64a3.349,3.349,0,0,0-2.52,1.015,3.716,3.716,0,0,0-.98,2.695v1.33a4.059,4.059,0,0,0,1.61,3.535,8,8,0,0,0,4.69,1.155,7.708,7.708,0,0,0,5.53-1.925,7.4,7.4,0,0,0,2.03-5.635V61.22h10.36v25.2a13.414,13.414,0,0,1-1.295,5.95,13.046,13.046,0,0,1-3.675,4.55,17.047,17.047,0,0,1-5.74,2.9A26.113,26.113,0,0,1-102.62,100.84Zm44.24-26.53a6.107,6.107,0,0,0-1.365-4.2q-1.365-1.54-4.515-1.54a7.839,7.839,0,0,0-4.76,1.295,13.157,13.157,0,0,0-2.94,2.975l-6.16-5.46a16.264,16.264,0,0,1,5.565-5.145q3.325-1.855,9.065-1.855,7.63,0,11.55,3.43t3.92,10.01V100H-58.38Zm41.51,26.53a13.633,13.633,0,0,1-4.375-.63,11.61,11.61,0,0,1-3.22-1.645A9.263,9.263,0,0,1-26.7,96.22a12.443,12.443,0,0,1-1.365-2.73h-.35V100H-38.78V61.22h10.36v25.2a5.193,5.193,0,0,0,.63,2.59,6.1,6.1,0,0,0,1.645,1.89,7.16,7.16,0,0,0,2.31,1.155,8.934,8.934,0,0,0,2.555.385,7.425,7.425,0,0,0,3.255-.63,4.809,4.809,0,0,0,2-1.715,7.106,7.106,0,0,0,.98-2.485,14.966,14.966,0,0,0,.28-2.94V61.22H-4.41V85.58q0,7.35-3.15,11.305T-16.87,100.84ZM-392,200.7q-5.6,0-8.925-2.765t-3.325-8.645q0-5.46,3.15-8.47t9.1-3.01h11.55v-2.03a7.25,7.25,0,0,0-1.855-5.355q-1.855-1.855-6.055-1.855a11.791,11.791,0,0,0-3.57.49,11.841,11.841,0,0,0-2.8,1.295,12.307,12.307,0,0,0-2.24,1.82,16.67,16.67,0,0,0-1.75,2.135l-6.58-5.74a19.478,19.478,0,0,1,6.72-5.985q4.06-2.2,10.92-2.2,7.28,0,11.69,2.8a5.014,5.014,0,0,1,2.065-3.01,6.862,6.862,0,0,1,3.815-.98h7.7v8.54h-9.24v.28a16.168,16.168,0,0,1,1.54,7.42V200h-10.36V184.39h-7.84q-5.46,0-5.46,4.48v1.19a5.113,5.113,0,0,0,1.12,3.465,4.113,4.113,0,0,0,3.29,1.3h.84a2.642,2.642,0,0,0,.84-.14l.7,5.53a4.94,4.94,0,0,1-.945.245,10.6,10.6,0,0,1-1.33.14l-1.47.07Q-391.44,200.7-392,200.7Zm17.22,24.36a16.731,16.731,0,0,1-5.075-.665,8.353,8.353,0,0,1-3.325-1.89,7.178,7.178,0,0,1-1.82-2.87,11.357,11.357,0,0,1-.56-3.675v-2.03h-4.48v-6.65h5.53q3.5,0,5.005,1.33A4.526,4.526,0,0,1-378,212.18v2.31q0,3.92,3.29,3.92a3.162,3.162,0,0,0,2.59-.945,4.683,4.683,0,0,0,.77-2.975v-7.21h8.47v6.37a11.732,11.732,0,0,1-2.9,8.225Q-368.69,225.06-374.78,225.06Zm2.1-84.28h9.38v14.49h-9.38Zm24.5,60.06a10.507,10.507,0,0,1-5.705-1.435,10.029,10.029,0,0,1-3.6-4.06,20.278,20.278,0,0,1-1.855-6.335,59.269,59.269,0,0,1-.525-8.26q0-9.17,3.815-14.35t11.3-5.18h2.24v8.47h-1.19q-2.94,0-4.13,1.825a9.05,9.05,0,0,0-1.19,4.985v9.9a12.689,12.689,0,0,0,.665,4.6,2.413,2.413,0,0,0,2.415,1.65,2.486,2.486,0,0,0,2.2-1.085,5.1,5.1,0,0,0,.735-2.9v-6.72h8.47v6.72a4.925,4.925,0,0,0,.77,2.9,2.506,2.506,0,0,0,2.17,1.085,2.5,2.5,0,0,0,2.135-.982,4.478,4.478,0,0,0,.735-2.734V147.71h10.36v42.21a11.573,11.573,0,0,1-2.625,7.945,9.33,9.33,0,0,1-7.385,2.975,10.546,10.546,0,0,1-6.965-2.08,8.541,8.541,0,0,1-3.045-5.13h-.49a8.668,8.668,0,0,1-2.975,5.13A9.366,9.366,0,0,1-348.18,200.84Zm16.66-45.57a9.682,9.682,0,0,1-6.545-2.03,7.442,7.442,0,0,1-2.345-5.95v-5.74h8.61v6.16h13.3v7.56Zm34.23,45.57q-6.02,0-9.135-3.955t-3.115-11.3V161.22h10.36v23.45a16.276,16.276,0,0,0,.28,3.115,6.433,6.433,0,0,0,.98,2.45,4.858,4.858,0,0,0,1.925,1.61,6.944,6.944,0,0,0,3.045.6,8.934,8.934,0,0,0,2.555-.385,6.757,6.757,0,0,0,2.275-1.155,6.308,6.308,0,0,0,1.61-1.89,5.193,5.193,0,0,0,.63-2.59v-25.2h10.36v30.73h3.43V200h-6.23q-6.3,0-6.51-7.21h-.49a13.7,13.7,0,0,1-1.505,3.045,10.7,10.7,0,0,1-2.38,2.555,11.358,11.358,0,0,1-3.43,1.785A14.736,14.736,0,0,1-297.29,200.84Zm32.34-39.62h10.36v6.51h.35a11.234,11.234,0,0,1,1.4-2.8,9.844,9.844,0,0,1,2.275-2.345,10.883,10.883,0,0,1,3.255-1.61,14.722,14.722,0,0,1,4.41-.6q6.23,0,9.415,3.955t3.185,11.305V200h-10.36V176.55a9.466,9.466,0,0,0-1.5-5.775q-1.505-2-5.075-1.995a9.407,9.407,0,0,0-2.7.385,7.588,7.588,0,0,0-2.345,1.155,5.919,5.919,0,0,0-1.68,1.89,5.193,5.193,0,0,0-.63,2.59V200h-10.36Zm6.72-13.51h22.96v-6.16h9.38v13.72h-32.34Zm23.66-20.37h8.68v11.2h-8.68ZM-209.79,200q-5.32,0-7.805-2.59t-2.485-7.49v-28.7h10.36v30.73h4.83V200Zm28.49.84a22.081,22.081,0,0,1-7.28-1.12,15.691,15.691,0,0,1-5.46-3.15,13.373,13.373,0,0,1-3.43-4.97,17.2,17.2,0,0,1-1.19-6.51V161.22h10.36V184.6a8.7,8.7,0,0,0,1.855,5.95,6.507,6.507,0,0,0,5.145,2.1,6.4,6.4,0,0,0,5.11-2.1,8.808,8.808,0,0,0,1.82-5.95V147.71h10.36v37.38a17.2,17.2,0,0,1-1.19,6.51,13.373,13.373,0,0,1-3.43,4.97,15.691,15.691,0,0,1-5.46,3.15A21.85,21.85,0,0,1-181.3,200.84Zm-2.31-44.66a6.835,6.835,0,0,1-5.425-2.38,9.489,9.489,0,0,1-2.065-6.44q0-4.83,2.765-7.175a11.374,11.374,0,0,1,7.6-2.345h17.29v6.09h-17.01a3.452,3.452,0,0,0-2.31.77,3.229,3.229,0,0,0-.91,2.59,4.321,4.321,0,0,0,.525,2,1.789,1.789,0,0,0,1.715,1.015,1.813,1.813,0,0,0,1.855-1.05,5.837,5.837,0,0,0,.385-2.59h3.99a6.745,6.745,0,0,0,.56,2.625,1.719,1.719,0,0,0,1.68,1.015,1.83,1.83,0,0,0,1.54-.735,3.476,3.476,0,0,0,.56-2.135v-1.96h7.42v2.66a8.369,8.369,0,0,1-1.96,5.985,7.076,7.076,0,0,1-5.39,2.065,7.51,7.51,0,0,1-1.68-.21,6.625,6.625,0,0,1-1.82-.735,6.185,6.185,0,0,1-1.645-1.4,5.582,5.582,0,0,1-1.085-2.2h-.35a5.654,5.654,0,0,1-2.555,3.57A7.545,7.545,0,0,1-183.61,156.18Zm40.67,44.66q-6.02,0-9.135-3.955t-3.115-11.3V161.22h10.36v23.45a16.277,16.277,0,0,0,.28,3.115,6.433,6.433,0,0,0,.98,2.45,4.857,4.857,0,0,0,1.925,1.61,6.944,6.944,0,0,0,3.045.6,8.934,8.934,0,0,0,2.555-.385,6.757,6.757,0,0,0,2.275-1.155,6.308,6.308,0,0,0,1.61-1.89,5.193,5.193,0,0,0,.63-2.59v-25.2h10.36v30.73h3.43V200h-6.23q-6.3,0-6.51-7.21h-.49a13.7,13.7,0,0,1-1.505,3.045,10.7,10.7,0,0,1-2.38,2.555,11.358,11.358,0,0,1-3.43,1.785A14.737,14.737,0,0,1-142.94,200.84Zm35.28-15.12h-3.71v-8.05h5.32a7.018,7.018,0,0,1,4.13,1.05,6.862,6.862,0,0,1,2.31,3.43l3.57,10.15h1.89a3.966,3.966,0,0,0,3.5-2.275,12.779,12.779,0,0,0,1.33-6.4v-6.44a8.563,8.563,0,0,0-2.275-6.335A8.661,8.661,0,0,0-98,168.57a11.437,11.437,0,0,0-3.955.63A14.814,14.814,0,0,0-105,170.705a10.769,10.769,0,0,0-2.24,1.925,19.349,19.349,0,0,0-1.47,1.89l-6.3-5.6a20.136,20.136,0,0,1,2.695-3.22,17.348,17.348,0,0,1,3.71-2.73,20.319,20.319,0,0,1,4.865-1.89,25.166,25.166,0,0,1,6.23-.7,21.911,21.911,0,0,1,7.945,1.365A16.08,16.08,0,0,1-83.58,165.7a17.345,17.345,0,0,1,3.745,6.3,25.4,25.4,0,0,1,1.295,8.4,28.071,28.071,0,0,1-1.12,8.26,17.9,17.9,0,0,1-3.185,6.16,13.762,13.762,0,0,1-4.97,3.85A15.548,15.548,0,0,1-94.36,200h-8.05Zm51.1,15.12a22.257,22.257,0,0,1-9.485-1.82,21.068,21.068,0,0,1-6.825-5.11l6.23-6.02a16.543,16.543,0,0,0,4.655,3.6,12.628,12.628,0,0,0,5.915,1.365,8.2,8.2,0,0,0,4.69-1.05,3.215,3.215,0,0,0,1.47-2.73,2.938,2.938,0,0,0-1.19-2.625,7.572,7.572,0,0,0-3.22-1.085l-3.99-.49q-6.37-.77-9.765-3.71a10.258,10.258,0,0,1-3.395-8.19,12.207,12.207,0,0,1,1.085-5.25,11.294,11.294,0,0,1,3.08-3.955,14.054,14.054,0,0,1,4.76-2.52,20.23,20.23,0,0,1,6.125-.875,29.922,29.922,0,0,1,5.04.385,19.1,19.1,0,0,1,4.1,1.155,16.5,16.5,0,0,1,3.395,1.89,25.38,25.38,0,0,1,3.01,2.59l-6.09,6.02a12.759,12.759,0,0,0-4.13-2.94,12.156,12.156,0,0,0-5.11-1.12,6.775,6.775,0,0,0-4.2,1.05,3.317,3.317,0,0,0-1.33,2.73,3.516,3.516,0,0,0,1.085,2.695A6.808,6.808,0,0,0-56.91,176.2l3.99.56a26.968,26.968,0,0,1,5.355,1.26,13.1,13.1,0,0,1,3.99,2.205,9.065,9.065,0,0,1,2.52,3.325,11.447,11.447,0,0,1,.875,4.69,10.842,10.842,0,0,1-1.19,5.04,12.083,12.083,0,0,1-3.325,3.99,15.91,15.91,0,0,1-5.18,2.625A22.469,22.469,0,0,1-56.56,200.84Zm-14.28-53.13H-38.5v7.56H-70.84Zm33.18,24.57h10.08l8.4,19.53h.35a4.391,4.391,0,0,0,3.85-2.1,10.534,10.534,0,0,0,1.4-5.88v-6.44a10.141,10.141,0,0,0-1.47-5.88,4.687,4.687,0,0,0-4.06-2.1H-21.7v-8.19h2.8a16.386,16.386,0,0,1,6.755,1.33,13.773,13.773,0,0,1,5.04,3.815,17.552,17.552,0,0,1,3.185,6.09A27.456,27.456,0,0,1-2.8,180.61a28.282,28.282,0,0,1-1.085,8.155,17.118,17.118,0,0,1-3.15,6.09,13.773,13.773,0,0,1-5.04,3.815A16.207,16.207,0,0,1-18.76,200h-6.79Z" transform="translate(3055.846 3458.938)" fill="#002a28"/>
    <line id="Line_137" data-name="Line 137" y2="340" transform="translate(3105.846 3347.653)" fill="none" stroke="#fff" stroke-miterlimit="10" stroke-width="5"/>
  </g>
</svg>
