<svg xmlns="http://www.w3.org/2000/svg" width="1024.847" height="363.806" viewBox="0 0 1024.847 363.806">
  <g id="Group_456" data-name="Group 456" transform="translate(-448.171 -5092.932)">
    <text id="ยังมีคนในประเทศไทยไร้สิทธิขั้นพื้นฐาน_ด้านสาธารณสุข_อีกจำนวนมาก" data-name="ยังมีคนในประเทศไทยไร้สิทธิขั้นพื้นฐาน
ด้านสาธารณสุข อีกจำนวนมาก" transform="translate(1216.171 5349.737)" fill="#fff" font-size="50" font-family="IBMPlexThai, IBM Plex Thai"><tspan x="-767.7" y="0">ยังมีคนในประเทศไทยไร้สิทธิขั้นพื้นฐาน</tspan><tspan x="-620.6" y="80">ด้านสาธารณสุข อีกจำนวนมาก</tspan></text>
    <text id="เชื่อหรือไม่" transform="translate(1216.171 5248.932)" fill="#fdb913" font-size="140" font-family="IBMPlexThai, IBM Plex Thai"><tspan x="-574.84" y="0">เชื่อหรือไม่</tspan></text>
    <g id="Group_455" data-name="Group 455">
      <path id="Path_1427" data-name="Path 1427" d="M1266.247,5233.322q-.783-26.536,6.554-48.157a104.473,104.473,0,0,1,21.231-37,93.94,93.94,0,0,1,33.717-23.727q19.824-8.349,44.021-8.352a126.049,126.049,0,0,1,40.351,6.166,90.178,90.178,0,0,1,31.532,17.874,80.734,80.734,0,0,1,20.528,28.566q7.335,16.859,7.337,38.244a73.385,73.385,0,0,1-3.9,24.9,85.743,85.743,0,0,1-9.835,19.513,101.882,101.882,0,0,1-13.19,15.688q-7.258,7.025-13.971,13.268-5.777,5.466-11.4,10.3a81.737,81.737,0,0,0-10.069,10.3,47.947,47.947,0,0,0-7.181,12.1,40.6,40.6,0,0,0-2.73,15.533v16.233h-58.071V5324.8a72.033,72.033,0,0,1,4.528-23.806,86.614,86.614,0,0,1,9.99-18.731,102.171,102.171,0,0,1,13.113-15.143q7.178-6.79,13.892-13.19,4.839-4.682,10.147-10.3a107.659,107.659,0,0,0,9.756-11.942,62.442,62.442,0,0,0,7.18-13.346,33.791,33.791,0,0,0,2.264-14.518,54.667,54.667,0,0,0-3.668-15.688,34.98,34.98,0,0,0-8.04-12.1,35.749,35.749,0,0,0-12.332-7.726,45.409,45.409,0,0,0-16.233-2.732q-12.645,0-21.777,5.541a44.4,44.4,0,0,0-14.907,14.908,69.712,69.712,0,0,0-8.507,21.62,117.671,117.671,0,0,0-2.732,25.678Zm136.9,133.934v62.127h-65.875v-62.127Z" fill="none" stroke="#fdb913" stroke-linecap="round" stroke-linejoin="round" stroke-width="3"/>
    </g>
  </g>
</svg>
