<svg xmlns="http://www.w3.org/2000/svg" width="1157.774" height="966.633" viewBox="0 0 1157.774 966.633">
  <g id="Group_562" data-name="Group 562" transform="translate(-103.5)">
    <text id="คณะรัฐมนตรีเห็นชอบการให้สิทธิ_คืนสิทธิ_ขั้นพื้นฐาน_ด้านสาธารณสุข_ครั้งที่_1_ให้กับบุคคลที่มีปัญหาสถานะ_และสิทธิ_457_490_คน" data-name="คณะรัฐมนตรีเห็นชอบการให้สิทธิ (คืนสิทธิ) ขั้นพื้นฐาน
ด้านสาธารณสุข (ครั้งที่ 1) ให้กับบุคคลที่มีปัญหาสถานะ
และสิทธิ 457,490 คน" transform="translate(340 162.65)" font-size="30" font-family="IBMPlexSansThai, IBM Plex Sans Thai"><tspan x="0" y="0">คณะรัฐมนตรีเห็นชอบการให้สิทธิ (คืนสิทธิ) ขั้นพื้นฐาน</tspan><tspan x="0" y="45">ด้านสาธารณสุข (ครั้งที่ 1) ให้กับบุคคลที่มีปัญหาสถานะ</tspan><tspan x="0" y="90">และสิทธิ 457,490 คน</tspan></text>
    <text id="กลุ่มที่มีปัญหาการส่งกลับ_ได้รับการสำรวจจัดทำทะเบียนประวัติและบัตรสี" data-name="กลุ่มที่มีปัญหาการส่งกลับ
ได้รับการสำรวจจัดทำทะเบียนประวัติและบัตรสี" transform="translate(636.16 617.617)" fill="#009444" font-size="30" font-family="IBMPlexSansThai-Bold, IBM Plex Sans Thai" font-weight="700"><tspan x="0" y="0">กลุ่มที่มีปัญหาการส่งกลับ</tspan><tspan font-family="IBMPlexSansThai, IBM Plex Sans Thai" font-weight="400" fill="#000"><tspan x="0" y="45">ได้รับการสำรวจจัดทำทะเบียนประวัติและบัตรสี</tspan></tspan></text>
    <g id="Group_291" data-name="Group 291" transform="translate(-2420 -6320)">
      <g id="Group_282" data-name="Group 282">
        <path id="Path_409" data-name="Path 409" d="M2796.472,6917.682a9.686,9.686,0,1,0-9.688,9.685A9.687,9.687,0,0,0,2796.472,6917.682Z" fill="none" stroke="#009444" stroke-linecap="round" stroke-linejoin="round" stroke-width="3"/>
        <g id="Group_281" data-name="Group 281">
          <path id="Path_410" data-name="Path 410" d="M2798.411,6944.906v48.563c0,1.851-2.16,4.527-6.275,4.527a5.84,5.84,0,0,0-10.7,0c-4.116,0-6.276-2.676-6.276-4.527v-48.563" fill="none" stroke="#009444" stroke-linecap="round" stroke-linejoin="round" stroke-width="3"/>
          <path id="Path_411" data-name="Path 411" d="M2798.411,6967.746c10.081-5.4,8.746-13.579,8.746-21.607,0-6.635-7.044-13.272-13.217-13.272h-14.311c-6.172,0-13.217,6.637-13.217,13.272,0,8.028-1.337,16.205,8.747,21.607" fill="none" stroke="#009444" stroke-linecap="round" stroke-linejoin="round" stroke-width="3"/>
          <line id="Line_111" data-name="Line 111" y1="27.521" transform="translate(2786.784 6966.975)" fill="none" stroke="#009444" stroke-linecap="round" stroke-linejoin="round" stroke-width="3"/>
        </g>
      </g>
      <g id="Group_284" data-name="Group 284">
        <path id="Path_412" data-name="Path 412" d="M2845.972,6917.682a9.686,9.686,0,1,0-9.688,9.685A9.687,9.687,0,0,0,2845.972,6917.682Z" fill="none" stroke="#009444" stroke-linecap="round" stroke-linejoin="round" stroke-width="3"/>
        <g id="Group_283" data-name="Group 283">
          <path id="Path_413" data-name="Path 413" d="M2847.911,6944.906v48.563c0,1.851-2.16,4.527-6.275,4.527a5.84,5.84,0,0,0-10.7,0c-4.116,0-6.276-2.676-6.276-4.527v-48.563" fill="none" stroke="#009444" stroke-linecap="round" stroke-linejoin="round" stroke-width="3"/>
          <path id="Path_414" data-name="Path 414" d="M2847.911,6967.746c10.081-5.4,8.746-13.579,8.746-21.607,0-6.635-7.044-13.272-13.217-13.272h-14.311c-6.172,0-13.217,6.637-13.217,13.272,0,8.028-1.337,16.205,8.747,21.607" fill="none" stroke="#009444" stroke-linecap="round" stroke-linejoin="round" stroke-width="3"/>
          <line id="Line_112" data-name="Line 112" y1="27.521" transform="translate(2836.284 6966.975)" fill="none" stroke="#009444" stroke-linecap="round" stroke-linejoin="round" stroke-width="3"/>
        </g>
      </g>
      <g id="Group_286" data-name="Group 286">
        <circle id="Ellipse_42" data-name="Ellipse 42" cx="9.687" cy="9.687" r="9.687" transform="translate(2875.984 6908.111) rotate(-0.682)" fill="none" stroke="#009444" stroke-linecap="round" stroke-linejoin="round" stroke-width="3"/>
        <g id="Group_285" data-name="Group 285">
          <path id="Path_415" data-name="Path 415" d="M2897.411,6944.906v48.563c0,1.851-2.16,4.527-6.275,4.527a5.84,5.84,0,0,0-10.7,0c-4.116,0-6.276-2.676-6.276-4.527v-48.563" fill="none" stroke="#009444" stroke-linecap="round" stroke-linejoin="round" stroke-width="3"/>
          <path id="Path_416" data-name="Path 416" d="M2897.411,6967.746c10.083-5.4,8.747-13.579,8.747-21.607,0-6.635-7.045-13.272-13.218-13.272h-14.311c-6.172,0-13.217,6.637-13.217,13.272,0,8.028-1.337,16.205,8.747,21.607" fill="none" stroke="#009444" stroke-linecap="round" stroke-linejoin="round" stroke-width="3"/>
          <line id="Line_113" data-name="Line 113" y1="27.521" transform="translate(2885.785 6966.975)" fill="none" stroke="#009444" stroke-linecap="round" stroke-linejoin="round" stroke-width="3"/>
        </g>
      </g>
      <g id="Group_288" data-name="Group 288">
        <circle id="Ellipse_43" data-name="Ellipse 43" cx="9.686" cy="9.686" r="9.686" transform="translate(2923.633 6910.48) rotate(-13.283)" fill="none" stroke="#009444" stroke-linecap="round" stroke-linejoin="round" stroke-width="3"/>
        <g id="Group_287" data-name="Group 287">
          <path id="Path_417" data-name="Path 417" d="M2946.911,6944.906v48.563c0,1.851-2.16,4.527-6.275,4.527a5.84,5.84,0,0,0-10.7,0c-4.116,0-6.276-2.676-6.276-4.527v-48.563" fill="none" stroke="#009444" stroke-linecap="round" stroke-linejoin="round" stroke-width="3"/>
          <path id="Path_418" data-name="Path 418" d="M2946.911,6967.746c10.083-5.4,8.747-13.579,8.747-21.607,0-6.635-7.045-13.272-13.218-13.272h-14.309c-6.174,0-13.219,6.637-13.219,13.272,0,8.028-1.336,16.205,8.747,21.607" fill="none" stroke="#009444" stroke-linecap="round" stroke-linejoin="round" stroke-width="3"/>
          <line id="Line_114" data-name="Line 114" y1="27.521" transform="translate(2935.285 6966.975)" fill="none" stroke="#009444" stroke-linecap="round" stroke-linejoin="round" stroke-width="3"/>
        </g>
      </g>
      <g id="Group_290" data-name="Group 290">
        <circle id="Ellipse_44" data-name="Ellipse 44" cx="9.686" cy="9.686" r="9.686" transform="translate(2973.133 6910.48) rotate(-13.283)" fill="none" stroke="#009444" stroke-linecap="round" stroke-linejoin="round" stroke-width="3"/>
        <g id="Group_289" data-name="Group 289">
          <path id="Path_419" data-name="Path 419" d="M2996.411,6944.906v48.563c0,1.851-2.16,4.527-6.275,4.527a5.84,5.84,0,0,0-10.7,0c-4.116,0-6.276-2.676-6.276-4.527v-48.563" fill="none" stroke="#009444" stroke-linecap="round" stroke-linejoin="round" stroke-width="3"/>
          <path id="Path_420" data-name="Path 420" d="M2996.411,6967.746c10.083-5.4,8.747-13.579,8.747-21.607,0-6.635-7.045-13.272-13.218-13.272h-14.309c-6.174,0-13.219,6.637-13.219,13.272,0,8.028-1.336,16.205,8.747,21.607" fill="none" stroke="#009444" stroke-linecap="round" stroke-linejoin="round" stroke-width="3"/>
          <line id="Line_115" data-name="Line 115" y1="27.521" transform="translate(2984.785 6966.975)" fill="none" stroke="#009444" stroke-linecap="round" stroke-linejoin="round" stroke-width="3"/>
        </g>
      </g>
    </g>
    <text id="กลุ่มที่ได้รับการสำรวจจัดทำทะเบียนประวัติ_และบัตรประจำตัวผู้ไม่มีสถานะทางทะเบียน_เฉพาะเด็กนักเรียนในสถานศึกษา_กลุ่มคนไร้รากเหง้า_กลุ่มคนที่ทำประโยชน์ให้ประเทศ_ID_ขึ้นต้นด้วยเลข_0" data-name="กลุ่มที่ได้รับการสำรวจจัดทำทะเบียนประวัติ
และบัตรประจำตัวผู้ไม่มีสถานะทางทะเบียน
เฉพาะเด็กนักเรียนในสถานศึกษา กลุ่มคนไร้รากเหง้า 
กลุ่มคนที่ทำประโยชน์ให้ประเทศ ID ขึ้นต้นด้วยเลข 0" transform="translate(634.274 815.633)" fill="#009444" font-size="30" font-family="IBMPlexSansThai-Bold, IBM Plex Sans Thai" font-weight="700"><tspan x="0" y="0">กลุ่มที่ได้รับการสำรวจจัดทำทะเบียนประวัติ</tspan><tspan x="0" y="45">และบัตรประจำตัวผู้ไม่มีสถานะทางทะเบียน</tspan><tspan font-family="IBMPlexSansThai, IBM Plex Sans Thai" font-weight="400" fill="#000"><tspan x="0" y="90">เฉพาะเด็กนักเรียนในสถานศึกษา กลุ่มคนไร้รากเหง้า </tspan><tspan x="0" y="135">กลุ่มคนที่ทำประโยชน์ให้ประเทศ ID ขึ้นต้นด้วยเลข 0</tspan></tspan></text>
    <g id="Group_302" data-name="Group 302" transform="translate(-2420 -6320)">
      <g id="Group_293" data-name="Group 293">
        <path id="Path_421" data-name="Path 421" d="M2796.472,7114.88a9.686,9.686,0,1,0-9.688,9.686A9.687,9.687,0,0,0,2796.472,7114.88Z" fill="none" stroke="#009444" stroke-linecap="round" stroke-linejoin="round" stroke-width="3"/>
        <g id="Group_292" data-name="Group 292">
          <path id="Path_422" data-name="Path 422" d="M2798.411,7142.106v48.562c0,1.852-2.16,4.527-6.275,4.527a5.84,5.84,0,0,0-10.7,0c-4.116,0-6.276-2.675-6.276-4.527v-48.562" fill="none" stroke="#009444" stroke-linecap="round" stroke-linejoin="round" stroke-width="3"/>
          <path id="Path_423" data-name="Path 423" d="M2798.411,7164.945c10.081-5.4,8.746-13.58,8.746-21.608,0-6.634-7.044-13.271-13.217-13.271h-14.311c-6.172,0-13.217,6.637-13.217,13.271,0,8.028-1.337,16.206,8.747,21.608" fill="none" stroke="#009444" stroke-linecap="round" stroke-linejoin="round" stroke-width="3"/>
          <line id="Line_116" data-name="Line 116" y1="27.521" transform="translate(2786.784 7164.173)" fill="none" stroke="#009444" stroke-linecap="round" stroke-linejoin="round" stroke-width="3"/>
        </g>
      </g>
      <g id="Group_295" data-name="Group 295">
        <path id="Path_424" data-name="Path 424" d="M2845.972,7114.88a9.686,9.686,0,1,0-9.688,9.686A9.687,9.687,0,0,0,2845.972,7114.88Z" fill="none" stroke="#009444" stroke-linecap="round" stroke-linejoin="round" stroke-width="3"/>
        <g id="Group_294" data-name="Group 294">
          <path id="Path_425" data-name="Path 425" d="M2847.911,7142.106v48.562c0,1.852-2.16,4.527-6.275,4.527a5.84,5.84,0,0,0-10.7,0c-4.116,0-6.276-2.675-6.276-4.527v-48.562" fill="none" stroke="#009444" stroke-linecap="round" stroke-linejoin="round" stroke-width="3"/>
          <path id="Path_426" data-name="Path 426" d="M2847.911,7164.945c10.081-5.4,8.746-13.58,8.746-21.608,0-6.634-7.044-13.271-13.217-13.271h-14.311c-6.172,0-13.217,6.637-13.217,13.271,0,8.028-1.337,16.206,8.747,21.608" fill="none" stroke="#009444" stroke-linecap="round" stroke-linejoin="round" stroke-width="3"/>
          <line id="Line_117" data-name="Line 117" y1="27.521" transform="translate(2836.284 7164.173)" fill="none" stroke="#009444" stroke-linecap="round" stroke-linejoin="round" stroke-width="3"/>
        </g>
      </g>
      <g id="Group_297" data-name="Group 297">
        <circle id="Ellipse_45" data-name="Ellipse 45" cx="9.686" cy="9.686" r="9.686" transform="translate(2875.979 7124.444) rotate(-89.284)" fill="none" stroke="#009444" stroke-linecap="round" stroke-linejoin="round" stroke-width="3"/>
        <g id="Group_296" data-name="Group 296">
          <path id="Path_427" data-name="Path 427" d="M2897.411,7142.106v48.562c0,1.852-2.16,4.527-6.275,4.527a5.84,5.84,0,0,0-10.7,0c-4.116,0-6.276-2.675-6.276-4.527v-48.562" fill="none" stroke="#009444" stroke-linecap="round" stroke-linejoin="round" stroke-width="3"/>
          <path id="Path_428" data-name="Path 428" d="M2897.411,7164.945c10.083-5.4,8.747-13.58,8.747-21.608,0-6.634-7.045-13.271-13.218-13.271h-14.311c-6.172,0-13.217,6.637-13.217,13.271,0,8.028-1.337,16.206,8.747,21.608" fill="none" stroke="#009444" stroke-linecap="round" stroke-linejoin="round" stroke-width="3"/>
          <line id="Line_118" data-name="Line 118" y1="27.521" transform="translate(2885.785 7164.173)" fill="none" stroke="#009444" stroke-linecap="round" stroke-linejoin="round" stroke-width="3"/>
        </g>
      </g>
      <g id="Group_299" data-name="Group 299">
        <circle id="Ellipse_46" data-name="Ellipse 46" cx="9.686" cy="9.686" r="9.686" transform="translate(2921.588 7114.88) rotate(-45)" fill="none" stroke="#009444" stroke-linecap="round" stroke-linejoin="round" stroke-width="3"/>
        <g id="Group_298" data-name="Group 298">
          <path id="Path_429" data-name="Path 429" d="M2946.911,7142.106v48.562c0,1.852-2.16,4.527-6.275,4.527a5.84,5.84,0,0,0-10.7,0c-4.116,0-6.276-2.675-6.276-4.527v-48.562" fill="none" stroke="#009444" stroke-linecap="round" stroke-linejoin="round" stroke-width="3"/>
          <path id="Path_430" data-name="Path 430" d="M2946.911,7164.945c10.083-5.4,8.747-13.58,8.747-21.608,0-6.634-7.045-13.271-13.218-13.271h-14.309c-6.174,0-13.219,6.637-13.219,13.271,0,8.028-1.336,16.206,8.747,21.608" fill="none" stroke="#009444" stroke-linecap="round" stroke-linejoin="round" stroke-width="3"/>
          <line id="Line_119" data-name="Line 119" y1="27.521" transform="translate(2935.285 7164.173)" fill="none" stroke="#009444" stroke-linecap="round" stroke-linejoin="round" stroke-width="3"/>
        </g>
      </g>
      <g id="Group_301" data-name="Group 301">
        <circle id="Ellipse_47" data-name="Ellipse 47" cx="9.686" cy="9.686" r="9.686" transform="translate(2971.088 7114.88) rotate(-45)" fill="none" stroke="#009444" stroke-linecap="round" stroke-linejoin="round" stroke-width="3"/>
        <g id="Group_300" data-name="Group 300">
          <path id="Path_431" data-name="Path 431" d="M2996.411,7142.106v48.562c0,1.852-2.16,4.527-6.275,4.527a5.84,5.84,0,0,0-10.7,0c-4.116,0-6.276-2.675-6.276-4.527v-48.562" fill="none" stroke="#009444" stroke-linecap="round" stroke-linejoin="round" stroke-width="3"/>
          <path id="Path_432" data-name="Path 432" d="M2996.411,7164.945c10.083-5.4,8.747-13.58,8.747-21.608,0-6.634-7.045-13.271-13.218-13.271h-14.309c-6.174,0-13.219,6.637-13.219,13.271,0,8.028-1.336,16.206,8.747,21.608" fill="none" stroke="#009444" stroke-linecap="round" stroke-linejoin="round" stroke-width="3"/>
          <line id="Line_120" data-name="Line 120" y1="27.521" transform="translate(2984.785 7164.173)" fill="none" stroke="#009444" stroke-linecap="round" stroke-linejoin="round" stroke-width="3"/>
        </g>
      </g>
    </g>
    <g id="Group_303" data-name="Group 303" transform="translate(-2420 -6320)">
      <rect id="Rectangle_82" data-name="Rectangle 82" width="400" height="150" rx="40" transform="translate(2766.354 6672.139)" fill="#009444"/>
      <text id="กลุ่มที่ได้รับการผ่อนผัน_5_แสนคน" data-name="กลุ่มที่ได้รับการผ่อนผัน
5 แสนคน" transform="translate(2966.354 6734.383)" fill="#fff" font-size="30" font-family="IBMPlexSansThai-Bold, IBM Plex Sans Thai" font-weight="700"><tspan x="-144" y="0">กลุ่มที่ได้รับการผ่อนผัน</tspan><tspan font-size="50"><tspan x="-100.325" y="55">5 แสนคน</tspan></tspan></text>
    </g>
    <g id="Group_307" data-name="Group 307" transform="translate(-2420 -6320)">
      <g id="Group_305" data-name="Group 305">
        <line id="Line_121" data-name="Line 121" y2="427.138" transform="translate(2620 6320)" fill="none" stroke="#fdb913" stroke-miterlimit="10" stroke-width="3"/>
        <line id="Line_122" data-name="Line 122" x1="85.001" transform="translate(2619.999 6747.137)" fill="none" stroke="#fdb913" stroke-miterlimit="10" stroke-width="3"/>
        <g id="Group_304" data-name="Group 304">
          <line id="Line_123" data-name="Line 123" y2="403.724" transform="translate(2705.001 6746.472)" fill="none" stroke="#fdb913" stroke-miterlimit="10" stroke-width="3" stroke-dasharray="5 10"/>
          <path id="Path_433" data-name="Path 433" d="M2720,6953a15,15,0,1,1-15-15A15,15,0,0,1,2720,6953Z" fill="#fdb913"/>
          <path id="Path_434" data-name="Path 434" d="M2720,7150.195a15,15,0,1,1-15-15A15,15,0,0,1,2720,7150.195Z" fill="#fdb913"/>
        </g>
        <path id="Path_435" data-name="Path 435" d="M2669,6883" fill="#009444"/>
      </g>
      <g id="Group_306" data-name="Group 306">
        <circle id="Ellipse_48" data-name="Ellipse 48" cx="95" cy="95" r="95" transform="translate(2525 6425)" fill="#fff" stroke="#fdb913" stroke-linecap="round" stroke-linejoin="round" stroke-width="3"/>
        <text id="_23_มี.ค._2553" data-name="23 มี.ค.
2553" transform="translate(2620 6512.11)" fill="#009444" font-size="45" font-family="IBMPlexSansThai-Bold, IBM Plex Sans Thai" font-weight="700"><tspan x="-74.903" y="0">23 มี.ค.</tspan><tspan x="-54" y="50">2553</tspan></text>
      </g>
    </g>
  </g>
</svg>
