<svg xmlns="http://www.w3.org/2000/svg" width="1052.348" height="517.056" viewBox="0 0 1052.348 517.056">
  <g id="Group_43" data-name="Group 43" transform="translate(-5276.097 -8182.221)">
    <g id="Group_41" data-name="Group 41">
      <path id="Path_1449" data-name="Path 1449" d="M-683.05.5a9.958,9.958,0,0,1-6.6-2.05A7.319,7.319,0,0,1-692.1-7.5a7.235,7.235,0,0,1,2.425-5.85,9.938,9.938,0,0,1,6.625-2.05h8.7V-18q0-6.45-7.05-6.45a9.554,9.554,0,0,0-5.025,1.225A9.361,9.361,0,0,0-689.7-19.85l-2.55-2.25a10.867,10.867,0,0,1,4-4.125A13.218,13.218,0,0,1-681.2-27.9a12.149,12.149,0,0,1,6.95,1.8,2.505,2.505,0,0,1,2.8-2.6h6.65V-25h-8.05a9.188,9.188,0,0,1,2.5,6.8V0h-4V-12.55h-7.8a6.766,6.766,0,0,0-4.2,1.15,3.856,3.856,0,0,0-1.5,3.25V-7a4.256,4.256,0,0,0,1.375,3.425A5.544,5.544,0,0,0-682.75-2.4a11.522,11.522,0,0,0,1.175-.05q.475-.05.775-.1l.35,2.75a3.576,3.576,0,0,1-1.125.225Q-682.4.5-683.05.5Zm-2-36.6h20.4v3.45h-20.4Zm24.65,8.8h4v4.45h.25a10.923,10.923,0,0,1,1.025-1.875,6.435,6.435,0,0,1,1.6-1.625,8.215,8.215,0,0,1,2.3-1.125,10.081,10.081,0,0,1,3.075-.425,8.755,8.755,0,0,1,6.825,2.725q2.475,2.725,2.475,7.775V0h-4V-16.9q0-7.6-6.6-7.6a9.413,9.413,0,0,0-2.55.35,7.028,7.028,0,0,0-2.225,1.05,5.469,5.469,0,0,0-1.575,1.75,4.853,4.853,0,0,0-.6,2.45V0h-4Zm29.05,17.35h3.7v6.6h13.55V-8.9a10.763,10.763,0,0,0-.2-2.2,3.262,3.262,0,0,0-.85-1.625,4.69,4.69,0,0,0-1.9-1.1,15.238,15.238,0,0,0-3.35-.625l-11.45-1V-18.4a8.676,8.676,0,0,1,2.95-7q2.95-2.5,8.3-2.5a14.165,14.165,0,0,1,6.175,1.175A12.042,12.042,0,0,1-610.4-23.65l-2.55,2.4a9.415,9.415,0,0,0-2.9-2.3,10.31,10.31,0,0,0-4.9-1,8.466,8.466,0,0,0-5.225,1.425,5.03,5.03,0,0,0-1.875,4.275v.6l8.2.75a23.856,23.856,0,0,1,4.075.675,8.9,8.9,0,0,1,3,1.375,5.676,5.676,0,0,1,1.85,2.3A8.454,8.454,0,0,1-610.1-9.7v5.5a4.286,4.286,0,0,1-1.075,3.05A4.139,4.139,0,0,1-614.35,0h-17Zm3.5-26.15h20.4v3.45h-20.4Zm24.65,8.8h4v8.75l7.45-1.1a9.618,9.618,0,0,0,3.6-1.225,3.892,3.892,0,0,0,1.65-3.075l.4-3.35h4.2l-.4,3.45a5.764,5.764,0,0,1-1.75,3.75,6.992,6.992,0,0,1-3.85,1.75v.25q4.95,1.35,5.55,7.65l1,10.45h-4.2l-.95-10.7a10.525,10.525,0,0,0-.55-2.35,4.9,4.9,0,0,0-1.2-1.875,4.508,4.508,0,0,0-2.025-1.1,7.549,7.549,0,0,0-2.975-.075l-5.95.85V0h-4ZM-565.7.5a9.958,9.958,0,0,1-6.6-2.05,7.319,7.319,0,0,1-2.45-5.95,7.235,7.235,0,0,1,2.425-5.85A9.938,9.938,0,0,1-565.7-15.4h8.7V-18q0-6.45-7.05-6.45a9.554,9.554,0,0,0-5.025,1.225,9.361,9.361,0,0,0-3.275,3.375l-2.55-2.25a10.867,10.867,0,0,1,4-4.125,13.218,13.218,0,0,1,7.05-1.675q5.2,0,8.025,2.575A9.155,9.155,0,0,1-553-18.2V0h-4V-12.55h-7.8A6.766,6.766,0,0,0-569-11.4a3.856,3.856,0,0,0-1.5,3.25V-7a4.256,4.256,0,0,0,1.375,3.425A5.544,5.544,0,0,0-565.4-2.4a11.522,11.522,0,0,0,1.175-.05q.475-.05.775-.1L-563.1.2a3.576,3.576,0,0,1-1.125.225Q-565.05.5-565.7.5Zm12.5-33.15a4.379,4.379,0,0,1-3.3-1.1,4.025,4.025,0,0,1-1.05-2.9v-3.1h4v3.65h12.75v3.45Zm10.9,17.05-4.25-1.8a10.8,10.8,0,0,1,1.125-4.225,10.943,10.943,0,0,1,2.575-3.325,11.662,11.662,0,0,1,3.725-2.175A13.4,13.4,0,0,1-534.5-27.9q5.85,0,8.95,2.925a10.375,10.375,0,0,1,3.1,7.925V0h-4V-16.55a7.62,7.62,0,0,0-2.175-5.9,8.125,8.125,0,0,0-5.725-2,11.074,11.074,0,0,0-2.925.375,9.464,9.464,0,0,0-2.475,1.05,7.535,7.535,0,0,0-1.9,1.65A6.08,6.08,0,0,0-542.8-19.2l2.5,1a3.36,3.36,0,0,1,1.525,1.025,2.791,2.791,0,0,1,.475,1.725V0h-4ZM-503.05.6q-5.3,0-8.35-2.875a10.3,10.3,0,0,1-3.05-7.875V-27.3h4v16.75a7.753,7.753,0,0,0,1.975,5.725A7.331,7.331,0,0,0-503.05-2.85a7.331,7.331,0,0,0,5.425-1.975,7.753,7.753,0,0,0,1.975-5.725V-36.1h4v25.95a10.3,10.3,0,0,1-3.05,7.875Q-497.75.6-503.05.6Zm29,0a13.962,13.962,0,0,1-6.4-1.35,12.5,12.5,0,0,1-4.45-3.8l2.85-2.3a9.693,9.693,0,0,0,3.575,3.075,10.777,10.777,0,0,0,4.725.975,7.691,7.691,0,0,0,4.575-1.15,3.941,3.941,0,0,0,1.575-3.4,3.751,3.751,0,0,0-1.225-2.975A7.646,7.646,0,0,0-472.75-11.8l-2.35-.35a25.29,25.29,0,0,1-3.15-.7,10.167,10.167,0,0,1-2.825-1.3,6.352,6.352,0,0,1-2.05-2.25,7.154,7.154,0,0,1-.775-3.5,7.835,7.835,0,0,1,.725-3.45,6.789,6.789,0,0,1,2.05-2.5A9.588,9.588,0,0,1-478-27.375a13.877,13.877,0,0,1,3.9-.525,13.306,13.306,0,0,1,5.925,1.175A12.181,12.181,0,0,1-464.2-23.65l-2.55,2.4a9.763,9.763,0,0,0-2.95-2.275,9.55,9.55,0,0,0-4.5-.975,6.953,6.953,0,0,0-4.3,1.15,3.8,3.8,0,0,0-1.5,3.2,3.356,3.356,0,0,0,1.45,3.1,10.828,10.828,0,0,0,4,1.3l2.35.35a23.165,23.165,0,0,1,3.4.8,8.326,8.326,0,0,1,2.675,1.4,6.444,6.444,0,0,1,1.775,2.225,7.271,7.271,0,0,1,.65,3.225,7.421,7.421,0,0,1-2.775,6.125A11.782,11.782,0,0,1-474.05.6ZM-452.5-5a4.379,4.379,0,0,1-3.3-1.1A4.026,4.026,0,0,1-456.85-9v-2.15h4v2.7h8.65V-5Zm0-12.85a4.379,4.379,0,0,1-3.3-1.1,4.026,4.026,0,0,1-1.05-2.9V-24h4v2.7h8.65v3.45Zm19,2.25-4.25-1.8a10.8,10.8,0,0,1,1.125-4.225,10.944,10.944,0,0,1,2.575-3.325,11.662,11.662,0,0,1,3.725-2.175A13.4,13.4,0,0,1-425.7-27.9q5.85,0,8.95,2.925a10.375,10.375,0,0,1,3.1,7.925V0h-4V-16.55a7.62,7.62,0,0,0-2.175-5.9,8.125,8.125,0,0,0-5.725-2,11.074,11.074,0,0,0-2.925.375,9.464,9.464,0,0,0-2.475,1.05,7.534,7.534,0,0,0-1.9,1.65A6.079,6.079,0,0,0-434-19.2l2.5,1a3.361,3.361,0,0,1,1.525,1.025,2.791,2.791,0,0,1,.475,1.725V0h-4Zm19.65-17.05a4.379,4.379,0,0,1-3.3-1.1,4.026,4.026,0,0,1-1.05-2.9v-3.1h4v3.65h12.75v3.45ZM-396.4.6a8.637,8.637,0,0,1-6.8-2.75q-2.45-2.75-2.45-7.75V-27.3h4v16.9q0,7.6,6.5,7.6a9.235,9.235,0,0,0,2.5-.35,6.727,6.727,0,0,0,2.2-1.05,5.592,5.592,0,0,0,1.55-1.75,4.853,4.853,0,0,0,.6-2.45V-27.3h4V-3.55h3.2V0h-2.95a3.46,3.46,0,0,1-2.925-1.2,5.624,5.624,0,0,1-1.075-3.05h-.2a6.529,6.529,0,0,1-2.975,3.575A10.054,10.054,0,0,1-396.4.6Zm29.3-.1a9.959,9.959,0,0,1-6.6-2.05,7.319,7.319,0,0,1-2.45-5.95,7.235,7.235,0,0,1,2.425-5.85A9.938,9.938,0,0,1-367.1-15.4h8.7V-18q0-6.45-7.05-6.45a9.553,9.553,0,0,0-5.025,1.225,9.361,9.361,0,0,0-3.275,3.375l-2.55-2.25a10.867,10.867,0,0,1,4-4.125,13.218,13.218,0,0,1,7.05-1.675,12.149,12.149,0,0,1,6.95,1.8,2.505,2.505,0,0,1,2.8-2.6h6.65V-25h-8.05a9.188,9.188,0,0,1,2.5,6.8V0h-4V-12.55h-7.8a6.766,6.766,0,0,0-4.2,1.15,3.856,3.856,0,0,0-1.5,3.25V-7a4.256,4.256,0,0,0,1.375,3.425A5.544,5.544,0,0,0-366.8-2.4a11.523,11.523,0,0,0,1.175-.05q.475-.05.775-.1L-364.5.2a3.576,3.576,0,0,1-1.125.225Q-366.45.5-367.1.5Zm14.6,8.35h-3.3V5.65h4.25a2.7,2.7,0,0,1,2.175.8A3.226,3.226,0,0,1-348.7,8.6v8.6h-3.8ZM-334.65.6a13.923,13.923,0,0,1-4.2-.6,9.065,9.065,0,0,1-3.275-1.8,7.939,7.939,0,0,1-2.125-3.019A11.152,11.152,0,0,1-345-9.08a13.165,13.165,0,0,1,.225-2.57,11.366,11.366,0,0,1,.6-2.046,11.124,11.124,0,0,1,.875-1.721,16.323,16.323,0,0,1,1.1-1.547,21.563,21.563,0,0,0,1.75-2.694,5.7,5.7,0,0,0,.7-2.745V-23.75h-5.7V-27.3h5.85a3.826,3.826,0,0,1,2.825.975,3.481,3.481,0,0,1,.975,2.575v.45a8.123,8.123,0,0,1-.675,3.325A28.238,28.238,0,0,1-338.45-16.4a17.209,17.209,0,0,0-1.7,3.175,8.609,8.609,0,0,0-.55,3.125v1.55a5.358,5.358,0,0,0,1.625,4.325A6.472,6.472,0,0,0-334.75-2.85a5.707,5.707,0,0,0,4.5-1.8,7.424,7.424,0,0,0,1.6-5.1V-27.3h4v18a10.038,10.038,0,0,1-2.55,7.225Q-329.75.6-334.65.6Zm17.7-4.15h3.2V-15.6L-318-17.4a10.8,10.8,0,0,1,1.125-4.225,11.133,11.133,0,0,1,2.55-3.325,11.364,11.364,0,0,1,3.7-2.175A13.4,13.4,0,0,1-306-27.9q5.75,0,8.775,2.925A10.511,10.511,0,0,1-294.2-17.05V0h-4V-16.55a7.72,7.72,0,0,0-2.125-5.9,7.8,7.8,0,0,0-5.575-2,10.108,10.108,0,0,0-5.35,1.4,6.465,6.465,0,0,0-3,3.838l2.45,1a3.813,3.813,0,0,1,1.575,1.051,2.685,2.685,0,0,1,.475,1.7V-4.2a4.356,4.356,0,0,1-1.05,3.054A4.054,4.054,0,0,1-313.95,0h-3Zm42.4-15.2q0-5.75-5.95-5.75a6.777,6.777,0,0,0-3.925,1.05A8.884,8.884,0,0,0-287-20.65l-2.45-2.15a9.676,9.676,0,0,1,3.375-3.65,10.51,10.51,0,0,1,5.825-1.45q4.7,0,7.2,2.3a8.39,8.39,0,0,1,2.5,6.5V0h-4Zm10.6-8.55H-260l1.8,12.9.9,10.05h.2l2.55-10.05,3.7-12.9h3.6l3.75,12.9L-241-4.35h.25l.9-10.05,1.75-12.9h4l-4,27.3h-4.55l-4.4-15.15L-249-22.8h-.15l-1.95,7.65L-255.5,0h-4.45Zm43,27.3a4.139,4.139,0,0,1-3.175-1.15A4.286,4.286,0,0,1-225.2-4.2V-27.3h4V-3.55h4.2V0Zm13,0a4.139,4.139,0,0,1-3.175-1.15A4.286,4.286,0,0,1-212.2-4.2V-27.3h4V-3.55h4.2V0Zm10-27.3h4v8.75l7.45-1.1a9.618,9.618,0,0,0,3.6-1.225,3.892,3.892,0,0,0,1.65-3.075l.4-3.35h4.2l-.4,3.45a5.764,5.764,0,0,1-1.75,3.75,6.992,6.992,0,0,1-3.85,1.75v.25q4.95,1.35,5.55,7.65l1,10.45h-4.2l-.95-10.7a10.522,10.522,0,0,0-.55-2.35,4.9,4.9,0,0,0-1.2-1.875,4.508,4.508,0,0,0-2.025-1.1A7.549,7.549,0,0,0-188-16.1l-5.95.85V0h-4Zm20.85-14.6h3.9v9.25h-3.9Zm5.5,22.15h4.3l7.25,16.4h.15a5.864,5.864,0,0,0,4.875-2.175A9.547,9.547,0,0,0-153.3-11.6v-4.1a9.351,9.351,0,0,0-1.725-6,5.893,5.893,0,0,0-4.875-2.15h-1.6V-27.3h1.65a9.622,9.622,0,0,1,8,3.6Q-149-20.1-149-13.65T-151.825-3.6A9.552,9.552,0,0,1-159.8,0h-3.1ZM-131.85.6a11.448,11.448,0,0,1-7.575-2.395Q-142.3-4.19-142.3-9.08a13.164,13.164,0,0,1,.225-2.57,11.366,11.366,0,0,1,.6-2.046,11.125,11.125,0,0,1,.875-1.721,16.318,16.318,0,0,1,1.1-1.547,21.559,21.559,0,0,0,1.75-2.694,5.7,5.7,0,0,0,.7-2.745V-23.75h-5.7V-27.3h5.85a3.826,3.826,0,0,1,2.825.975,3.481,3.481,0,0,1,.975,2.575v.45a8.123,8.123,0,0,1-.675,3.325A28.236,28.236,0,0,1-135.75-16.4a17.209,17.209,0,0,0-1.7,3.175A8.609,8.609,0,0,0-138-10.1v1.55a5.316,5.316,0,0,0,1.65,4.325,6.653,6.653,0,0,0,4.4,1.375,6.415,6.415,0,0,0,4.4-1.375A4.971,4.971,0,0,0-126-8.15V-12.5a6.6,6.6,0,0,0-1-3.925,3.215,3.215,0,0,0-2.75-1.375h-1.4V-21h1.5a3.75,3.75,0,0,0,2.775-1.025,4.565,4.565,0,0,0,1.025-3.325V-28.1h4v2.6a5.253,5.253,0,0,1-.45,2.225,5.749,5.749,0,0,1-1.15,1.675,5.559,5.559,0,0,1-1.625,1.125,7.148,7.148,0,0,1-1.875.575v.25A6.2,6.2,0,0,1-123-16.4a12.742,12.742,0,0,1,1.3,5.95q0,5.15-2.65,8.1A9.561,9.561,0,0,1-131.85.6Zm29.8-19.35q0-5.75-5.95-5.75a6.777,6.777,0,0,0-3.925,1.05,8.884,8.884,0,0,0-2.575,2.8l-2.45-2.15a9.676,9.676,0,0,1,3.375-3.65,10.51,10.51,0,0,1,5.825-1.45q4.7,0,7.2,2.3a8.39,8.39,0,0,1,2.5,6.5V0h-4ZM-79.4.6q-5.7,0-8.675-3.775T-91.05-13.75q0-6.7,2-10.425A6.626,6.626,0,0,1-82.8-27.9a6.109,6.109,0,0,1,3.425,1,4.8,4.8,0,0,1,2.025,2.95h.2a5,5,0,0,1,2.075-2.95,6.2,6.2,0,0,1,3.475-1A5.753,5.753,0,0,1-66.975-26a7.9,7.9,0,0,1,1.625,5.3V0h-4V-20.65a4.23,4.23,0,0,0-.825-2.875A2.953,2.953,0,0,0-72.5-24.45a3.431,3.431,0,0,0-1.55.325,2.757,2.757,0,0,0-1.05.9,5.271,5.271,0,0,0-.65,1.3,7.593,7.593,0,0,0-.35,1.475h-2.6A10.158,10.158,0,0,0-79-21.9a4.268,4.268,0,0,0-.6-1.275,2.972,2.972,0,0,0-1.05-.925,3.34,3.34,0,0,0-1.6-.35,3.437,3.437,0,0,0-2.15.65A4.628,4.628,0,0,0-85.775-22a9.952,9.952,0,0,0-.75,2.725,24.282,24.282,0,0,0-.225,3.425v4a10.292,10.292,0,0,0,1.925,6.575Q-82.9-2.85-78.7-2.85q.55,0,1.175-.05t1.225-.15L-75.8.3a12.323,12.323,0,0,1-1.875.25Q-78.6.6-79.4.6Zm-2.35-36.7h20.4v3.45h-20.4Zm27.1,20.5-4.25-1.8a10.8,10.8,0,0,1,1.125-4.225A10.944,10.944,0,0,1-55.2-24.95a11.662,11.662,0,0,1,3.725-2.175A13.4,13.4,0,0,1-46.85-27.9q5.85,0,8.95,2.925a10.374,10.374,0,0,1,3.1,7.925V0h-4V-16.55a7.62,7.62,0,0,0-2.175-5.9,8.125,8.125,0,0,0-5.725-2,11.074,11.074,0,0,0-2.925.375,9.464,9.464,0,0,0-2.475,1.05,7.534,7.534,0,0,0-1.9,1.65A6.08,6.08,0,0,0-55.15-19.2l2.5,1a3.361,3.361,0,0,1,1.525,1.025,2.791,2.791,0,0,1,.475,1.725V0h-4ZM-35-32.65a4.379,4.379,0,0,1-3.3-1.1,4.025,4.025,0,0,1-1.05-2.9v-3.1h4v3.65H-22.6v3.45ZM-15.4.6q-5.3,0-8.35-2.875A10.3,10.3,0,0,1-26.8-10.15V-27.3h4v16.75a7.753,7.753,0,0,0,1.975,5.725A7.331,7.331,0,0,0-15.4-2.85,7.331,7.331,0,0,0-9.975-4.825,7.753,7.753,0,0,0-8-10.55V-27.3h4v17.15A10.3,10.3,0,0,1-7.05-2.275Q-10.1.6-15.4.6ZM-676.3,80.5a9.958,9.958,0,0,1-6.6-2.05,7.319,7.319,0,0,1-2.45-5.95,7.235,7.235,0,0,1,2.425-5.85A9.938,9.938,0,0,1-676.3,64.6h8.7V62q0-6.45-7.05-6.45a9.554,9.554,0,0,0-5.025,1.225,9.36,9.36,0,0,0-3.275,3.375l-2.55-2.25a10.867,10.867,0,0,1,4-4.125,13.218,13.218,0,0,1,7.05-1.675,12.149,12.149,0,0,1,6.95,1.8,2.505,2.505,0,0,1,2.8-2.6h6.65V55h-8.05a9.188,9.188,0,0,1,2.5,6.8V80h-4V67.45h-7.8a6.766,6.766,0,0,0-4.2,1.15,3.856,3.856,0,0,0-1.5,3.25V73a4.256,4.256,0,0,0,1.375,3.425A5.544,5.544,0,0,0-676,77.6a11.522,11.522,0,0,0,1.175-.05q.475-.05.775-.1l.35,2.75a3.576,3.576,0,0,1-1.125.225Q-675.65,80.5-676.3,80.5Zm-2-36.6h20.4v3.45h-20.4Zm24.65,8.8h4v4.45h.25a10.922,10.922,0,0,1,1.025-1.875,6.434,6.434,0,0,1,1.6-1.625,8.215,8.215,0,0,1,2.3-1.125A10.081,10.081,0,0,1-641.4,52.1a8.755,8.755,0,0,1,6.825,2.725Q-632.1,57.55-632.1,62.6V80h-4V63.1q0-7.6-6.6-7.6a9.413,9.413,0,0,0-2.55.35,7.028,7.028,0,0,0-2.225,1.05,5.469,5.469,0,0,0-1.575,1.75,4.853,4.853,0,0,0-.6,2.45V80h-4Zm29.05,17.35h3.7v6.6h13.55V71.1a10.763,10.763,0,0,0-.2-2.2,3.262,3.262,0,0,0-.85-1.625,4.69,4.69,0,0,0-1.9-1.1,15.238,15.238,0,0,0-3.35-.625l-11.45-1V61.6a8.676,8.676,0,0,1,2.95-7q2.95-2.5,8.3-2.5a14.165,14.165,0,0,1,6.175,1.175,12.042,12.042,0,0,1,4.025,3.075l-2.55,2.4a9.415,9.415,0,0,0-2.9-2.3,10.31,10.31,0,0,0-4.9-1,8.466,8.466,0,0,0-5.225,1.425A5.03,5.03,0,0,0-621.1,61.15v.6l8.2.75a23.856,23.856,0,0,1,4.075.675,8.9,8.9,0,0,1,3,1.375,5.676,5.676,0,0,1,1.85,2.3,8.454,8.454,0,0,1,.625,3.45v5.5a4.286,4.286,0,0,1-1.075,3.05A4.139,4.139,0,0,1-607.6,80h-17Zm3.5-26.15h20.4v3.45h-20.4ZM-594,64.4l-4.25-1.8a10.8,10.8,0,0,1,1.125-4.225,10.943,10.943,0,0,1,2.575-3.325,11.662,11.662,0,0,1,3.725-2.175A13.4,13.4,0,0,1-586.2,52.1q5.85,0,8.95,2.925a10.375,10.375,0,0,1,3.1,7.925V80h-4V63.45a7.62,7.62,0,0,0-2.175-5.9,8.125,8.125,0,0,0-5.725-2,11.074,11.074,0,0,0-2.925.375,9.463,9.463,0,0,0-2.475,1.05,7.535,7.535,0,0,0-1.9,1.65A6.08,6.08,0,0,0-594.5,60.8l2.5,1a3.36,3.36,0,0,1,1.525,1.025A2.791,2.791,0,0,1-590,64.55V80h-4Zm39.5-3.15q0-5.75-5.95-5.75a6.777,6.777,0,0,0-3.925,1.05,8.884,8.884,0,0,0-2.575,2.8l-2.45-2.15a9.676,9.676,0,0,1,3.375-3.65A10.51,10.51,0,0,1-560.2,52.1q4.7,0,7.2,2.3a8.39,8.39,0,0,1,2.5,6.5V80h-4Zm21.6,19.35a13.962,13.962,0,0,1-6.4-1.35,12.5,12.5,0,0,1-4.45-3.8l2.85-2.3a9.694,9.694,0,0,0,3.575,3.075,10.777,10.777,0,0,0,4.725.975,7.691,7.691,0,0,0,4.575-1.15,3.941,3.941,0,0,0,1.575-3.4,3.751,3.751,0,0,0-1.225-2.975A7.647,7.647,0,0,0-531.6,68.2l-2.35-.35a25.289,25.289,0,0,1-3.15-.7,10.166,10.166,0,0,1-2.825-1.3,6.351,6.351,0,0,1-2.05-2.25,7.154,7.154,0,0,1-.775-3.5,7.835,7.835,0,0,1,.725-3.45,6.789,6.789,0,0,1,2.05-2.5,9.587,9.587,0,0,1,3.125-1.525,13.877,13.877,0,0,1,3.9-.525,13.306,13.306,0,0,1,5.925,1.175,12.182,12.182,0,0,1,3.975,3.075l-2.55,2.4a9.763,9.763,0,0,0-2.95-2.275,9.55,9.55,0,0,0-4.5-.975,6.952,6.952,0,0,0-4.3,1.15,3.8,3.8,0,0,0-1.5,3.2,3.356,3.356,0,0,0,1.45,3.1,10.828,10.828,0,0,0,4,1.3l2.35.35a23.163,23.163,0,0,1,3.4.8,8.325,8.325,0,0,1,2.675,1.4,6.444,6.444,0,0,1,1.775,2.225,7.271,7.271,0,0,1,.65,3.225,7.421,7.421,0,0,1-2.775,6.125A11.782,11.782,0,0,1-532.9,80.6Zm26.6,0a13.962,13.962,0,0,1-6.4-1.35,12.5,12.5,0,0,1-4.45-3.8l2.85-2.3a9.694,9.694,0,0,0,3.575,3.075A10.777,10.777,0,0,0-506,77.2a7.691,7.691,0,0,0,4.575-1.15,3.941,3.941,0,0,0,1.575-3.4,3.751,3.751,0,0,0-1.225-2.975A7.646,7.646,0,0,0-505,68.2l-2.35-.35a25.29,25.29,0,0,1-3.15-.7,10.166,10.166,0,0,1-2.825-1.3,6.351,6.351,0,0,1-2.05-2.25,7.154,7.154,0,0,1-.775-3.5,7.835,7.835,0,0,1,.725-3.45,6.789,6.789,0,0,1,2.05-2.5,9.587,9.587,0,0,1,3.125-1.525,13.877,13.877,0,0,1,3.9-.525,13.306,13.306,0,0,1,5.925,1.175,12.181,12.181,0,0,1,3.975,3.075l-2.55,2.4a9.763,9.763,0,0,0-2.95-2.275,9.55,9.55,0,0,0-4.5-.975,6.953,6.953,0,0,0-4.3,1.15,3.8,3.8,0,0,0-1.5,3.2,3.356,3.356,0,0,0,1.45,3.1,10.828,10.828,0,0,0,4,1.3l2.35.35a23.165,23.165,0,0,1,3.4.8,8.326,8.326,0,0,1,2.675,1.4,6.444,6.444,0,0,1,1.775,2.225,7.271,7.271,0,0,1,.65,3.225,7.421,7.421,0,0,1-2.775,6.125A11.782,11.782,0,0,1-506.3,80.6Zm8.8-33.25a4.379,4.379,0,0,1-3.3-1.1,4.026,4.026,0,0,1-1.05-2.9v-3.1h4V43.9h12.75v3.45Zm19.6,33.25q-5.3,0-8.35-2.875a10.3,10.3,0,0,1-3.05-7.875V52.7h4V69.45a7.753,7.753,0,0,0,1.975,5.725A7.331,7.331,0,0,0-477.9,77.15a7.331,7.331,0,0,0,5.425-1.975A7.753,7.753,0,0,0-470.5,69.45V52.7h4V69.85a10.3,10.3,0,0,1-3.05,7.875Q-472.6,80.6-477.9,80.6Zm30.8,0q-5.3,0-8.35-2.875a10.3,10.3,0,0,1-3.05-7.875V52.7h4V69.45a7.753,7.753,0,0,0,1.975,5.725A7.331,7.331,0,0,0-447.1,77.15a7.331,7.331,0,0,0,5.425-1.975A7.753,7.753,0,0,0-439.7,69.45V52.7h4V69.85a10.3,10.3,0,0,1-3.05,7.875Q-441.8,80.6-447.1,80.6Zm29,0a13.962,13.962,0,0,1-6.4-1.35,12.5,12.5,0,0,1-4.45-3.8l2.85-2.3a9.693,9.693,0,0,0,3.575,3.075,10.777,10.777,0,0,0,4.725.975,7.691,7.691,0,0,0,4.575-1.15,3.941,3.941,0,0,0,1.575-3.4,3.751,3.751,0,0,0-1.225-2.975A7.646,7.646,0,0,0-416.8,68.2l-2.35-.35a25.29,25.29,0,0,1-3.15-.7,10.167,10.167,0,0,1-2.825-1.3,6.352,6.352,0,0,1-2.05-2.25,7.154,7.154,0,0,1-.775-3.5,7.835,7.835,0,0,1,.725-3.45,6.789,6.789,0,0,1,2.05-2.5,9.588,9.588,0,0,1,3.125-1.525,13.877,13.877,0,0,1,3.9-.525,13.306,13.306,0,0,1,5.925,1.175,12.181,12.181,0,0,1,3.975,3.075l-2.55,2.4a9.763,9.763,0,0,0-2.95-2.275,9.55,9.55,0,0,0-4.5-.975,6.953,6.953,0,0,0-4.3,1.15,3.8,3.8,0,0,0-1.5,3.2,3.356,3.356,0,0,0,1.45,3.1,10.828,10.828,0,0,0,4,1.3l2.35.35a23.165,23.165,0,0,1,3.4.8,8.326,8.326,0,0,1,2.675,1.4,6.444,6.444,0,0,1,1.775,2.225,7.271,7.271,0,0,1,.65,3.225,7.421,7.421,0,0,1-2.775,6.125A11.782,11.782,0,0,1-418.1,80.6Zm-7.4-36.7h20.4v3.45h-20.4Zm27.1,20.5-4.25-1.8a10.8,10.8,0,0,1,1.125-4.225,10.944,10.944,0,0,1,2.575-3.325,11.662,11.662,0,0,1,3.725-2.175A13.4,13.4,0,0,1-390.6,52.1q5.85,0,8.95,2.925a10.375,10.375,0,0,1,3.1,7.925V80h-4V63.45a7.62,7.62,0,0,0-2.175-5.9,8.125,8.125,0,0,0-5.725-2,11.074,11.074,0,0,0-2.925.375,9.464,9.464,0,0,0-2.475,1.05,7.534,7.534,0,0,0-1.9,1.65A6.079,6.079,0,0,0-398.9,60.8l2.5,1a3.361,3.361,0,0,1,1.525,1.025,2.791,2.791,0,0,1,.475,1.725V80h-4Zm39.5-3.15q0-5.75-5.95-5.75a6.777,6.777,0,0,0-3.925,1.05,8.884,8.884,0,0,0-2.575,2.8l-2.45-2.15a9.676,9.676,0,0,1,3.375-3.65A10.51,10.51,0,0,1-364.6,52.1q4.7,0,7.2,2.3a8.39,8.39,0,0,1,2.5,6.5V80h-4Zm21.6,19.35a13.962,13.962,0,0,1-6.4-1.35,12.5,12.5,0,0,1-4.45-3.8l2.85-2.3a9.693,9.693,0,0,0,3.575,3.075A10.777,10.777,0,0,0-337,77.2a7.691,7.691,0,0,0,4.575-1.15,3.941,3.941,0,0,0,1.575-3.4,3.751,3.751,0,0,0-1.225-2.975A7.646,7.646,0,0,0-336,68.2l-2.35-.35a25.29,25.29,0,0,1-3.15-.7,10.167,10.167,0,0,1-2.825-1.3,6.352,6.352,0,0,1-2.05-2.25,7.154,7.154,0,0,1-.775-3.5,7.835,7.835,0,0,1,.725-3.45,6.789,6.789,0,0,1,2.05-2.5,9.588,9.588,0,0,1,3.125-1.525,13.877,13.877,0,0,1,3.9-.525,13.306,13.306,0,0,1,5.925,1.175,12.181,12.181,0,0,1,3.975,3.075l-2.55,2.4a9.763,9.763,0,0,0-2.95-2.275,9.55,9.55,0,0,0-4.5-.975,6.953,6.953,0,0,0-4.3,1.15,3.8,3.8,0,0,0-1.5,3.2,3.356,3.356,0,0,0,1.45,3.1,10.828,10.828,0,0,0,4,1.3l2.35.35a23.165,23.165,0,0,1,3.4.8,8.326,8.326,0,0,1,2.675,1.4,6.444,6.444,0,0,1,1.775,2.225,7.271,7.271,0,0,1,.65,3.225,7.421,7.421,0,0,1-2.775,6.125A11.782,11.782,0,0,1-337.3,80.6Zm27.7,0a11.786,11.786,0,0,1-4.975-1,10.216,10.216,0,0,1-3.675-2.825,12.459,12.459,0,0,1-2.275-4.475,21.181,21.181,0,0,1-.775-5.95,18.1,18.1,0,0,1,.9-5.85,12.684,12.684,0,0,1,2.575-4.5,11.522,11.522,0,0,1,4.075-2.875,13.623,13.623,0,0,1,5.4-1.025,14.469,14.469,0,0,1,4.925.8,10.85,10.85,0,0,1,3.8,2.275,9.978,9.978,0,0,1,2.425,3.55,12.1,12.1,0,0,1,.85,4.625V80h-4V63.9a8.369,8.369,0,0,0-2.175-6.15,8.022,8.022,0,0,0-5.975-2.2,8.1,8.1,0,0,0-6.25,2.425A9.286,9.286,0,0,0-317,64.55v3.6q0,4.4,2,6.7t6.15,2.3q.55,0,1.125-.025a5.9,5.9,0,0,0,1.175-.175l.5,3.35a7.007,7.007,0,0,1-1.8.275Q-308.8,80.6-309.6,80.6Zm8.9-36.7h3.8V42.05a2.394,2.394,0,0,0-.575-1.825A2.83,2.83,0,0,0-299.4,39.7h-1.3v-3h2.8a5.152,5.152,0,0,1,3.425,1,3.307,3.307,0,0,1,1.175,2.65,4.635,4.635,0,0,1-.45,1.9,2.831,2.831,0,0,1-1.4,1.45v.2h8.75v3h-14.3Zm24,17.35q0-5.75-5.95-5.75a6.777,6.777,0,0,0-3.925,1.05,8.884,8.884,0,0,0-2.575,2.8l-2.45-2.15a9.676,9.676,0,0,1,3.375-3.65A10.51,10.51,0,0,1-282.4,52.1q4.7,0,7.2,2.3a8.39,8.39,0,0,1,2.5,6.5V80h-4Zm21.25,19.35a8.637,8.637,0,0,1-6.8-2.75q-2.45-2.75-2.45-7.75V52.7h4V69.6q0,7.6,6.5,7.6a9.235,9.235,0,0,0,2.5-.35,6.727,6.727,0,0,0,2.2-1.05,5.592,5.592,0,0,0,1.55-1.75,4.853,4.853,0,0,0,.6-2.45V52.7h4V76.45h3.2V80h-2.95a3.46,3.46,0,0,1-2.925-1.2,5.624,5.624,0,0,1-1.075-3.05h-.2a6.529,6.529,0,0,1-2.975,3.575A10.054,10.054,0,0,1-255.45,80.6Zm29.3-.1a9.959,9.959,0,0,1-6.6-2.05,7.319,7.319,0,0,1-2.45-5.95,7.235,7.235,0,0,1,2.425-5.85,9.938,9.938,0,0,1,6.625-2.05h8.7V62q0-6.45-7.05-6.45a9.553,9.553,0,0,0-5.025,1.225A9.361,9.361,0,0,0-232.8,60.15l-2.55-2.25a10.867,10.867,0,0,1,4-4.125A13.218,13.218,0,0,1-224.3,52.1a12.149,12.149,0,0,1,6.95,1.8,2.505,2.505,0,0,1,2.8-2.6h6.65V55h-8.05a9.188,9.188,0,0,1,2.5,6.8V80h-4V67.45h-7.8a6.766,6.766,0,0,0-4.2,1.15,3.856,3.856,0,0,0-1.5,3.25V73a4.256,4.256,0,0,0,1.375,3.425A5.544,5.544,0,0,0-225.85,77.6a11.523,11.523,0,0,0,1.175-.05q.475-.05.775-.1l.35,2.75a3.576,3.576,0,0,1-1.125.225Q-225.5,80.5-226.15,80.5Zm34.55-19.25q0-5.75-5.95-5.75a6.777,6.777,0,0,0-3.925,1.05,8.884,8.884,0,0,0-2.575,2.8l-2.45-2.15a9.676,9.676,0,0,1,3.375-3.65A10.51,10.51,0,0,1-197.3,52.1q4.7,0,7.2,2.3a8.39,8.39,0,0,1,2.5,6.5V80h-4Zm11.5,8.8h3.7v6.6h13.55V71.1a10.765,10.765,0,0,0-.2-2.2,3.261,3.261,0,0,0-.85-1.625,4.69,4.69,0,0,0-1.9-1.1,15.238,15.238,0,0,0-3.35-.625l-11.45-1V61.6a8.676,8.676,0,0,1,2.95-7q2.95-2.5,8.3-2.5a14.165,14.165,0,0,1,6.175,1.175,12.041,12.041,0,0,1,4.025,3.075l-2.55,2.4a9.415,9.415,0,0,0-2.9-2.3,10.31,10.31,0,0,0-4.9-1,8.466,8.466,0,0,0-5.225,1.425A5.03,5.03,0,0,0-176.6,61.15v.6l8.2.75a23.855,23.855,0,0,1,4.075.675,8.9,8.9,0,0,1,3,1.375,5.676,5.676,0,0,1,1.85,2.3,8.455,8.455,0,0,1,.625,3.45v5.5a4.286,4.286,0,0,1-1.075,3.05A4.139,4.139,0,0,1-163.1,80h-17Zm40.05-8.8q0-5.75-5.95-5.75a6.777,6.777,0,0,0-3.925,1.05,8.884,8.884,0,0,0-2.575,2.8l-2.45-2.15a9.676,9.676,0,0,1,3.375-3.65,10.51,10.51,0,0,1,5.825-1.45q4.7,0,7.2,2.3a8.39,8.39,0,0,1,2.5,6.5V80h-4Zm21.6,19.35a13.962,13.962,0,0,1-6.4-1.35,12.5,12.5,0,0,1-4.45-3.8l2.85-2.3a9.694,9.694,0,0,0,3.575,3.075,10.777,10.777,0,0,0,4.725.975,7.691,7.691,0,0,0,4.575-1.15A3.941,3.941,0,0,0-112,72.65a3.751,3.751,0,0,0-1.225-2.975A7.646,7.646,0,0,0-117.15,68.2l-2.35-.35a25.289,25.289,0,0,1-3.15-.7,10.167,10.167,0,0,1-2.825-1.3,6.352,6.352,0,0,1-2.05-2.25,7.154,7.154,0,0,1-.775-3.5,7.835,7.835,0,0,1,.725-3.45,6.789,6.789,0,0,1,2.05-2.5,9.588,9.588,0,0,1,3.125-1.525,13.877,13.877,0,0,1,3.9-.525,13.306,13.306,0,0,1,5.925,1.175A12.181,12.181,0,0,1-108.6,56.35l-2.55,2.4a9.762,9.762,0,0,0-2.95-2.275,9.55,9.55,0,0,0-4.5-.975,6.952,6.952,0,0,0-4.3,1.15,3.8,3.8,0,0,0-1.5,3.2,3.356,3.356,0,0,0,1.45,3.1,10.828,10.828,0,0,0,4,1.3l2.35.35a23.163,23.163,0,0,1,3.4.8,8.326,8.326,0,0,1,2.675,1.4,6.445,6.445,0,0,1,1.775,2.225,7.271,7.271,0,0,1,.65,3.225,7.421,7.421,0,0,1-2.775,6.125A11.782,11.782,0,0,1-118.45,80.6Zm43.25,0a7.79,7.79,0,0,1-6.325-2.725Q-83.8,75.15-83.8,70.1V63.5a8.09,8.09,0,0,0-2-5.925,7.181,7.181,0,0,0-5.35-2.025,9.533,9.533,0,0,0-5.175,1.4,6.533,6.533,0,0,0-2.925,3.838l2.45,1a3.811,3.811,0,0,1,1.575,1.048,2.671,2.671,0,0,1,.475,1.7V76.45h3.2V80h-2.9a4.208,4.208,0,0,1-3.225-1.15A4.286,4.286,0,0,1-98.75,75.8V64.4L-103,62.6a11.076,11.076,0,0,1,1.1-4.225,10.792,10.792,0,0,1,2.525-3.325,11.482,11.482,0,0,1,3.65-2.175A12.835,12.835,0,0,1-91.2,52.1q5.55,0,8.475,2.925A10.776,10.776,0,0,1-79.8,63v6.6q0,7.6,5.85,7.6a7.618,7.618,0,0,0,2.275-.35A6.331,6.331,0,0,0-69.65,75.8a5.3,5.3,0,0,0,1.45-1.75,5.207,5.207,0,0,0,.55-2.45V52.7h4V76.45h3.2V80H-63.4a3.442,3.442,0,0,1-2.925-1.214A5.729,5.729,0,0,1-67.4,75.7h-.2a10.412,10.412,0,0,1-1,1.843,6.431,6.431,0,0,1-1.525,1.566A7.546,7.546,0,0,1-72.3,80.2,9.442,9.442,0,0,1-75.2,80.6Zm28.75-.1a9.959,9.959,0,0,1-6.6-2.05A7.319,7.319,0,0,1-55.5,72.5a7.235,7.235,0,0,1,2.425-5.85A9.938,9.938,0,0,1-46.45,64.6h8.7V62q0-6.45-7.05-6.45a9.553,9.553,0,0,0-5.025,1.225A9.361,9.361,0,0,0-53.1,60.15l-2.55-2.25a10.867,10.867,0,0,1,4-4.125A13.218,13.218,0,0,1-44.6,52.1a12.149,12.149,0,0,1,6.95,1.8,2.505,2.505,0,0,1,2.8-2.6h6.65V55h-8.05a9.188,9.188,0,0,1,2.5,6.8V80h-4V67.45h-7.8a6.766,6.766,0,0,0-4.2,1.15,3.856,3.856,0,0,0-1.5,3.25V73a4.256,4.256,0,0,0,1.375,3.425A5.544,5.544,0,0,0-46.15,77.6a11.523,11.523,0,0,0,1.175-.05q.475-.05.775-.1l.35,2.75a3.576,3.576,0,0,1-1.125.225Q-45.8,80.5-46.45,80.5Zm14.6,8.35h-3.3v-3.2h4.25a2.7,2.7,0,0,1,2.175.8,3.226,3.226,0,0,1,.675,2.15v8.6h-3.8ZM-14,80.6a13.923,13.923,0,0,1-4.2-.6,9.065,9.065,0,0,1-3.275-1.8A7.939,7.939,0,0,1-23.6,75.186a11.152,11.152,0,0,1-.75-4.266,13.165,13.165,0,0,1,.225-2.57,11.367,11.367,0,0,1,.6-2.046,11.125,11.125,0,0,1,.875-1.721,16.321,16.321,0,0,1,1.1-1.547,21.56,21.56,0,0,0,1.75-2.694,5.7,5.7,0,0,0,.7-2.745V56.25h-5.7V52.7h5.85a3.826,3.826,0,0,1,2.825.975,3.481,3.481,0,0,1,.975,2.575v.45a8.123,8.123,0,0,1-.675,3.325A28.237,28.237,0,0,1-17.8,63.6a17.209,17.209,0,0,0-1.7,3.175,8.609,8.609,0,0,0-.55,3.125v1.55a5.358,5.358,0,0,0,1.625,4.325A6.472,6.472,0,0,0-14.1,77.15a5.706,5.706,0,0,0,4.5-1.8A7.424,7.424,0,0,0-8,70.25V52.7h4v18a10.038,10.038,0,0,1-2.55,7.225Q-9.1,80.6-14,80.6Zm-583.7,80a13.923,13.923,0,0,1-4.2-.6,9.065,9.065,0,0,1-3.275-1.8,7.938,7.938,0,0,1-2.125-3.019,11.152,11.152,0,0,1-.75-4.266,13.167,13.167,0,0,1,.225-2.57,11.369,11.369,0,0,1,.6-2.046,11.127,11.127,0,0,1,.875-1.721,16.324,16.324,0,0,1,1.1-1.547,21.558,21.558,0,0,0,1.75-2.694,5.7,5.7,0,0,0,.7-2.745V136.25h-5.7V132.7h5.85a3.826,3.826,0,0,1,2.825.975,3.481,3.481,0,0,1,.975,2.575v.45a8.122,8.122,0,0,1-.675,3.325A28.241,28.241,0,0,1-601.5,143.6a17.208,17.208,0,0,0-1.7,3.175,8.61,8.61,0,0,0-.55,3.125v1.55a5.358,5.358,0,0,0,1.625,4.325,6.472,6.472,0,0,0,4.325,1.375,5.707,5.707,0,0,0,4.5-1.8,7.424,7.424,0,0,0,1.6-5.1V132.7h4v18a10.038,10.038,0,0,1-2.55,7.225Q-592.8,160.6-597.7,160.6Zm28.25,0a14.141,14.141,0,0,1-4.5-.7,10.809,10.809,0,0,1-3.65-2.025,9.812,9.812,0,0,1-2.45-3.15,9.088,9.088,0,0,1-.9-4.075V148.1a3.9,3.9,0,0,1,.6-2.325,3.042,3.042,0,0,1,2.55-.825h5.3v3.45h-4.4v2.05a7.488,7.488,0,0,0,.575,3.05,5.678,5.678,0,0,0,1.575,2.125,6.528,6.528,0,0,0,2.425,1.225,11.339,11.339,0,0,0,3.075.4,7.522,7.522,0,0,0,5.85-2.3,9.219,9.219,0,0,0,2.1-6.45v-4.1a8.936,8.936,0,0,0-2.275-6.525,8.443,8.443,0,0,0-6.325-2.325,10.85,10.85,0,0,0-5.35,1.25,9.536,9.536,0,0,0-3.55,3.35l-2.6-2.3a11.156,11.156,0,0,1,4.275-4.1,14.8,14.8,0,0,1,7.425-1.65q6.05,0,9.375,3.775T-557,146.35a20.371,20.371,0,0,1-.8,5.9,12.346,12.346,0,0,1-2.375,4.5,10.475,10.475,0,0,1-3.9,2.85A13.5,13.5,0,0,1-569.45,160.6Zm17.05-20.35h4.3l7.25,16.4h.15a5.864,5.864,0,0,0,4.875-2.175A9.547,9.547,0,0,0-534.1,148.4v-4.1a9.351,9.351,0,0,0-1.725-6,5.893,5.893,0,0,0-4.875-2.15h-1.6V132.7h1.65a9.622,9.622,0,0,1,8,3.6q2.85,3.6,2.85,10.05t-2.825,10.05A9.552,9.552,0,0,1-540.6,160h-3.1Zm36.6,20.35a6.168,6.168,0,0,1-6.05-3.675q-1.75-3.675-1.75-10.475t2.6-10.275a8.539,8.539,0,0,1,7.25-3.475h1.3v3.45h-1.1a5.156,5.156,0,0,0-4.3,1.9q-1.5,1.9-1.5,6.2v4.7q0,1.85.15,3.375a9.054,9.054,0,0,0,.6,2.6,3.754,3.754,0,0,0,1.25,1.65,3.519,3.519,0,0,0,2.1.575,3.366,3.366,0,0,0,2.7-1.25,6.086,6.086,0,0,0,1.05-3.95v-4.7h3.95v4.7a6.431,6.431,0,0,0,.975,3.95,3.207,3.207,0,0,0,2.675,1.25,3.157,3.157,0,0,0,2.525-1.075,4.749,4.749,0,0,0,.925-3.175V132.7h4v20.6a7.739,7.739,0,0,1-1.75,5.325A6.084,6.084,0,0,1-503,160.6a6.134,6.134,0,0,1-4.5-1.625,6.4,6.4,0,0,1-1.9-4.025h-.25a6.521,6.521,0,0,1-1.85,4.025A5.761,5.761,0,0,1-515.8,160.6Zm16.5,16.9a6.706,6.706,0,0,1-4.95-1.7,5.766,5.766,0,0,1-1.7-4.25v-2.7h-3.3v-3.2h4.1a2.914,2.914,0,0,1,2.175.7,2.553,2.553,0,0,1,.675,1.85v2.5a4.9,4.9,0,0,0,.65,2.7,2.589,2.589,0,0,0,2.35,1,2.647,2.647,0,0,0,2.4-1,4.9,4.9,0,0,0,.65-2.7v-5.05h3.8v5.65a6.1,6.1,0,0,1-1.725,4.425A6.836,6.836,0,0,1-499.3,177.5Zm-1-53.6h3.8v-1.85a2.394,2.394,0,0,0-.575-1.825A2.83,2.83,0,0,0-499,119.7h-1.3v-3h2.8a5.152,5.152,0,0,1,3.425,1,3.307,3.307,0,0,1,1.175,2.65,4.635,4.635,0,0,1-.45,1.9,2.831,2.831,0,0,1-1.4,1.45v.2H-486v3h-14.3Zm12.1,8.8h4v4.45h.25a10.925,10.925,0,0,1,1.025-1.875,6.434,6.434,0,0,1,1.6-1.625,8.217,8.217,0,0,1,2.3-1.125,10.08,10.08,0,0,1,3.075-.425,8.755,8.755,0,0,1,6.825,2.725q2.475,2.725,2.475,7.775V160h-4V143.1q0-7.6-6.6-7.6a9.414,9.414,0,0,0-2.55.35,7.027,7.027,0,0,0-2.225,1.05,5.468,5.468,0,0,0-1.575,1.75,4.853,4.853,0,0,0-.6,2.45V160h-4Zm5.15-8.8h16.5v-3.65h3.9v7.1h-20.4Zm16.7-14.25h3.7v7.45h-3.7Zm20.1,50.95a9.838,9.838,0,0,1-3.05-.425,7.9,7.9,0,0,1-2.25-1.125,6.82,6.82,0,0,1-1.575-1.6,9.522,9.522,0,0,1-1.025-1.9h-.25V160h-4V132.7h4v18.9a4.853,4.853,0,0,0,.6,2.45,5.468,5.468,0,0,0,1.575,1.75,7.067,7.067,0,0,0,2.2,1.05,9.146,9.146,0,0,0,2.525.35,6.24,6.24,0,0,0,4.975-1.925,8.421,8.421,0,0,0,1.675-5.675V132.7h4v17.4q0,5.05-2.5,7.775A8.9,8.9,0,0,1-446.25,160.6Zm-7-36.7h16.5v-3.65h3.9v7.1h-20.4Zm35.8,36.7q-5.3,0-8.35-2.875a10.3,10.3,0,0,1-3.05-7.875V132.7h4v16.75a7.753,7.753,0,0,0,1.975,5.725,7.331,7.331,0,0,0,5.425,1.975,7.331,7.331,0,0,0,5.425-1.975,7.753,7.753,0,0,0,1.975-5.725V123.9h4v25.95a10.3,10.3,0,0,1-3.05,7.875Q-412.15,160.6-417.45,160.6Zm1.2-33.25a4.379,4.379,0,0,1-3.3-1.1,4.026,4.026,0,0,1-1.05-2.9v-3.1h4v3.65h11.3v3.45Zm45.9,33.25a12.043,12.043,0,0,1-4.15-.675,8.927,8.927,0,0,1-3.175-1.95,8.553,8.553,0,0,1-2.025-3.025,10.559,10.559,0,0,1-.7-3.95v-7.5a8.09,8.09,0,0,0-2-5.925,7.181,7.181,0,0,0-5.35-2.025,9.533,9.533,0,0,0-5.175,1.4,6.533,6.533,0,0,0-2.925,3.838l2.45,1a3.811,3.811,0,0,1,1.575,1.048,2.671,2.671,0,0,1,.475,1.7V156.45h3.2V160h-2.9a4.208,4.208,0,0,1-3.225-1.15,4.286,4.286,0,0,1-1.075-3.05V144.4l-4.25-1.8a11.076,11.076,0,0,1,1.1-4.225,10.792,10.792,0,0,1,2.525-3.325,11.482,11.482,0,0,1,3.65-2.175,12.835,12.835,0,0,1,4.525-.775q5.55,0,8.475,2.919a10.742,10.742,0,0,1,2.925,7.959v8.034a5.811,5.811,0,0,0,1.675,4.491,6.193,6.193,0,0,0,4.375,1.547,6.173,6.173,0,0,0,4.4-1.547,5.859,5.859,0,0,0,1.65-4.491V132.7h4V151a10.559,10.559,0,0,1-.7,3.95,8.553,8.553,0,0,1-2.025,3.025,8.927,8.927,0,0,1-3.175,1.95A12.043,12.043,0,0,1-370.35,160.6Zm-5.65,11a4.441,4.441,0,0,1-3.3-1.075,3.938,3.938,0,0,1-1.05-2.875V164.5h4v3.7h16.05v3.4Zm24-38.9h4v8.75l7.45-1.1a9.618,9.618,0,0,0,3.6-1.225,3.892,3.892,0,0,0,1.65-3.075l.4-3.35h4.2l-.4,3.45a5.763,5.763,0,0,1-1.75,3.75,6.992,6.992,0,0,1-3.85,1.75v.25q4.95,1.35,5.55,7.65l1,10.45h-4.2l-.95-10.7a10.523,10.523,0,0,0-.55-2.35,4.9,4.9,0,0,0-1.2-1.875,4.508,4.508,0,0,0-2.025-1.1,7.549,7.549,0,0,0-2.975-.075l-5.95.85V160h-4Zm41.4,8.55q0-5.75-5.95-5.75a6.777,6.777,0,0,0-3.925,1.05,8.883,8.883,0,0,0-2.575,2.8l-2.45-2.15a9.675,9.675,0,0,1,3.375-3.65,10.51,10.51,0,0,1,5.825-1.45q4.7,0,7.2,2.3a8.39,8.39,0,0,1,2.5,6.5V160h-4Zm20.25,19.25a9.959,9.959,0,0,1-6.6-2.05,7.319,7.319,0,0,1-2.45-5.95,7.235,7.235,0,0,1,2.425-5.85,9.939,9.939,0,0,1,6.625-2.05h8.7V142q0-6.45-7.05-6.45a9.553,9.553,0,0,0-5.025,1.225A9.361,9.361,0,0,0-297,140.15l-2.55-2.25a10.867,10.867,0,0,1,4-4.125,13.218,13.218,0,0,1,7.05-1.675,12.149,12.149,0,0,1,6.95,1.8,2.505,2.505,0,0,1,2.8-2.6h6.65V135h-8.05a9.188,9.188,0,0,1,2.5,6.8V160h-4V147.45h-7.8a6.766,6.766,0,0,0-4.2,1.15,3.856,3.856,0,0,0-1.5,3.25V153a4.256,4.256,0,0,0,1.375,3.425,5.544,5.544,0,0,0,3.725,1.175,11.521,11.521,0,0,0,1.175-.05q.475-.05.775-.1l.35,2.75a3.576,3.576,0,0,1-1.125.225Q-289.7,160.5-290.35,160.5Zm29.4-.5a4.208,4.208,0,0,1-3.225-1.15,4.286,4.286,0,0,1-1.075-3.05V144.4l-4.25-1.8a10.8,10.8,0,0,1,1.125-4.225,10.944,10.944,0,0,1,2.575-3.325,11.605,11.605,0,0,1,3.75-2.175,13.613,13.613,0,0,1,4.65-.775q5.9,0,9.025,2.925a10.331,10.331,0,0,1,3.125,7.925V160h-4V143.45a7.573,7.573,0,0,0-2.2-5.9,8.289,8.289,0,0,0-5.8-2,11.107,11.107,0,0,0-2.925.374,9.9,9.9,0,0,0-2.5,1.047,7.368,7.368,0,0,0-1.925,1.645,6.053,6.053,0,0,0-1.15,2.168l2.45,1a3.811,3.811,0,0,1,1.575,1.048,2.671,2.671,0,0,1,.475,1.7V156.45h3.2V160Zm35.35-18.75q0-5.75-5.95-5.75a6.778,6.778,0,0,0-3.925,1.05,8.884,8.884,0,0,0-2.575,2.8l-2.45-2.15a9.675,9.675,0,0,1,3.375-3.65,10.51,10.51,0,0,1,5.825-1.45q4.7,0,7.2,2.3a8.39,8.39,0,0,1,2.5,6.5V160h-4Zm21.25,19.35a8.637,8.637,0,0,1-6.8-2.75q-2.45-2.75-2.45-7.75V132.7h4v16.9q0,7.6,6.5,7.6a9.235,9.235,0,0,0,2.5-.35,6.728,6.728,0,0,0,2.2-1.05,5.592,5.592,0,0,0,1.55-1.75,4.853,4.853,0,0,0,.6-2.45V132.7h4v23.75h3.2V160H-192a3.46,3.46,0,0,1-2.925-1.2A5.624,5.624,0,0,1-196,155.75h-.2a6.529,6.529,0,0,1-2.975,3.575A10.054,10.054,0,0,1-204.35,160.6Zm25.6-5.6a4.379,4.379,0,0,1-3.3-1.1,4.025,4.025,0,0,1-1.05-2.9v-2.15h4v2.7h8.65V155Zm0-12.85a4.379,4.379,0,0,1-3.3-1.1,4.026,4.026,0,0,1-1.05-2.9V136h4v2.7h8.65v3.45ZM-156.4,160a4.139,4.139,0,0,1-3.175-1.15,4.286,4.286,0,0,1-1.075-3.05V132.7h4v23.75h4.2V160Zm13,0a4.139,4.139,0,0,1-3.175-1.15,4.286,4.286,0,0,1-1.075-3.05V132.7h4v23.75h4.2V160Zm18,.5a9.959,9.959,0,0,1-6.6-2.05,7.319,7.319,0,0,1-2.45-5.95,7.235,7.235,0,0,1,2.425-5.85,9.939,9.939,0,0,1,6.625-2.05h8.7V142q0-6.45-7.05-6.45a9.553,9.553,0,0,0-5.025,1.225,9.361,9.361,0,0,0-3.275,3.375l-2.55-2.25a10.867,10.867,0,0,1,4-4.125,13.218,13.218,0,0,1,7.05-1.675q5.2,0,8.025,2.575A9.155,9.155,0,0,1-112.7,141.8V160h-4V147.45h-7.8a6.766,6.766,0,0,0-4.2,1.15,3.856,3.856,0,0,0-1.5,3.25V153a4.256,4.256,0,0,0,1.375,3.425A5.544,5.544,0,0,0-125.1,157.6a11.52,11.52,0,0,0,1.175-.05q.475-.05.775-.1l.35,2.75a3.576,3.576,0,0,1-1.125.225Q-124.75,160.5-125.4,160.5Zm25.25-5.5a4.379,4.379,0,0,1-3.3-1.1,4.025,4.025,0,0,1-1.05-2.9v-2.15h4v2.7h8.65V155Zm0-12.85a4.379,4.379,0,0,1-3.3-1.1,4.025,4.025,0,0,1-1.05-2.9V136h4v2.7h8.65v3.45ZM-75.6,160.5a9.959,9.959,0,0,1-6.6-2.05,7.319,7.319,0,0,1-2.45-5.95,7.235,7.235,0,0,1,2.425-5.85A9.939,9.939,0,0,1-75.6,144.6h8.7V142q0-6.45-7.05-6.45a9.553,9.553,0,0,0-5.025,1.225,9.361,9.361,0,0,0-3.275,3.375l-2.55-2.25a10.867,10.867,0,0,1,4-4.125,13.218,13.218,0,0,1,7.05-1.675,12.149,12.149,0,0,1,6.95,1.8,2.505,2.505,0,0,1,2.8-2.6h6.65V135H-65.4a9.188,9.188,0,0,1,2.5,6.8V160h-4V147.45h-7.8a6.766,6.766,0,0,0-4.2,1.15,3.856,3.856,0,0,0-1.5,3.25V153a4.256,4.256,0,0,0,1.375,3.425A5.544,5.544,0,0,0-75.3,157.6a11.52,11.52,0,0,0,1.175-.05q.475-.05.775-.1l.35,2.75a3.576,3.576,0,0,1-1.125.225Q-74.95,160.5-75.6,160.5Zm-2-36.6h20.4v3.45H-77.6Zm24.65,8.8h4v4.45h.25a10.924,10.924,0,0,1,1.025-1.875,6.434,6.434,0,0,1,1.6-1.625,8.217,8.217,0,0,1,2.3-1.125A10.08,10.08,0,0,1-40.7,132.1a8.755,8.755,0,0,1,6.825,2.725Q-31.4,137.55-31.4,142.6V160h-4V143.1q0-7.6-6.6-7.6a9.413,9.413,0,0,0-2.55.35,7.027,7.027,0,0,0-2.225,1.05,5.468,5.468,0,0,0-1.575,1.75,4.853,4.853,0,0,0-.6,2.45V160h-4Zm29.05,17.35h3.7v6.6H-6.65V151.1a10.766,10.766,0,0,0-.2-2.2,3.261,3.261,0,0,0-.85-1.625,4.69,4.69,0,0,0-1.9-1.1,15.238,15.238,0,0,0-3.35-.625l-11.45-1V141.6a8.676,8.676,0,0,1,2.95-7q2.95-2.5,8.3-2.5a14.165,14.165,0,0,1,6.175,1.175A12.041,12.041,0,0,1-2.95,136.35l-2.55,2.4a9.415,9.415,0,0,0-2.9-2.3,10.31,10.31,0,0,0-4.9-1,8.466,8.466,0,0,0-5.225,1.425A5.03,5.03,0,0,0-20.4,141.15v.6l8.2.75a23.855,23.855,0,0,1,4.075.675,8.9,8.9,0,0,1,3,1.375,5.676,5.676,0,0,1,1.85,2.3,8.455,8.455,0,0,1,.625,3.45v5.5a4.286,4.286,0,0,1-1.075,3.05A4.139,4.139,0,0,1-6.9,160h-17Zm3.5-26.15H0v3.45H-20.4ZM-515.85,240.6a9.838,9.838,0,0,1-3.05-.425,7.9,7.9,0,0,1-2.25-1.125,6.821,6.821,0,0,1-1.575-1.6,9.521,9.521,0,0,1-1.025-1.9H-524V240h-4V212.7h4v18.9a4.853,4.853,0,0,0,.6,2.45,5.469,5.469,0,0,0,1.575,1.75,7.067,7.067,0,0,0,2.2,1.05,9.146,9.146,0,0,0,2.525.35,6.24,6.24,0,0,0,4.975-1.925,8.421,8.421,0,0,0,1.675-5.675V212.7h4v17.4q0,5.05-2.5,7.775A8.9,8.9,0,0,1-515.85,240.6Zm-7-36.7h16.5v-3.65h3.9v7.1h-20.4Zm24.4,19a11.566,11.566,0,0,1,.825-4.45,9.52,9.52,0,0,1,2.375-3.425,10.433,10.433,0,0,1,3.75-2.175,15.286,15.286,0,0,1,4.95-.75,15.118,15.118,0,0,1,4.9.75,10.433,10.433,0,0,1,3.75,2.175,9.794,9.794,0,0,1,2.4,3.425,11.268,11.268,0,0,1,.85,4.45V240h-4V223.3a7.617,7.617,0,0,0-2.075-5.75,8.05,8.05,0,0,0-5.825-2,8.05,8.05,0,0,0-5.825,2,7.617,7.617,0,0,0-2.075,5.75v6.5h.25a8.287,8.287,0,0,1,.95-1.825,6.6,6.6,0,0,1,1.5-1.55,7.272,7.272,0,0,1,2.125-1.075,9.1,9.1,0,0,1,2.825-.4h1.65v4h-2.3a9.166,9.166,0,0,0-5.1,1.25,3.919,3.919,0,0,0-1.9,3.45V240h-4Zm40.15,17.7a14.636,14.636,0,0,1-3.75-.475,10.543,10.543,0,0,1-3.1-1.325l1.5-2.95a9.971,9.971,0,0,0,5.25,1.3,6.52,6.52,0,0,0,5.35-2.325,9.875,9.875,0,0,0,1.9-6.425v-4.1a10.179,10.179,0,0,0-1.825-6.4,6.446,6.446,0,0,0-5.425-2.35,8.087,8.087,0,0,0-4.45,1.125,7.388,7.388,0,0,0-2.7,3.125l-3.25-1.65a10.255,10.255,0,0,1,3.85-4.375,12.072,12.072,0,0,1,6.65-1.675q5.6,0,8.525,3.775t2.925,10.475q0,6.7-3,10.475A10.176,10.176,0,0,1-458.3,240.6Zm30.1-19.35q0-5.75-5.95-5.75a6.777,6.777,0,0,0-3.925,1.05,8.883,8.883,0,0,0-2.575,2.8l-2.45-2.15a9.675,9.675,0,0,1,3.375-3.65,10.51,10.51,0,0,1,5.825-1.45q4.7,0,7.2,2.3a8.39,8.39,0,0,1,2.5,6.5V240h-4Zm24.4,19.35a9.838,9.838,0,0,1-3.05-.425,7.9,7.9,0,0,1-2.25-1.125,6.82,6.82,0,0,1-1.575-1.6,9.522,9.522,0,0,1-1.025-1.9h-.25V240h-4V212.7h4v18.9a4.853,4.853,0,0,0,.6,2.45,5.468,5.468,0,0,0,1.575,1.75,7.067,7.067,0,0,0,2.2,1.05,9.146,9.146,0,0,0,2.525.35,6.24,6.24,0,0,0,4.975-1.925A8.421,8.421,0,0,0-398.4,229.6V212.7h4v17.4q0,5.05-2.5,7.775A8.9,8.9,0,0,1-403.8,240.6Zm23.45-.6a4.139,4.139,0,0,1-3.175-1.15,4.286,4.286,0,0,1-1.075-3.05V212.7h4v23.75h4.2V240Zm13,0a4.139,4.139,0,0,1-3.175-1.15,4.286,4.286,0,0,1-1.075-3.05V212.7h4v23.75h4.2V240Zm20.4.6q-5.7,0-8.675-3.775T-358.6,226.25q0-6.7,2-10.425a6.626,6.626,0,0,1,6.25-3.725,6.109,6.109,0,0,1,3.425,1,4.8,4.8,0,0,1,2.025,2.95h.2a5,5,0,0,1,2.075-2.95,6.2,6.2,0,0,1,3.475-1,5.753,5.753,0,0,1,4.625,1.9,7.9,7.9,0,0,1,1.625,5.3V240h-4V219.35a4.23,4.23,0,0,0-.825-2.875,2.953,2.953,0,0,0-2.325-.925,3.431,3.431,0,0,0-1.55.325,2.756,2.756,0,0,0-1.05.9,5.27,5.27,0,0,0-.65,1.3,7.592,7.592,0,0,0-.35,1.475h-2.6a10.16,10.16,0,0,0-.3-1.45,4.268,4.268,0,0,0-.6-1.275,2.972,2.972,0,0,0-1.05-.925,3.34,3.34,0,0,0-1.6-.35,3.437,3.437,0,0,0-2.15.65,4.628,4.628,0,0,0-1.375,1.8,9.951,9.951,0,0,0-.75,2.725,24.283,24.283,0,0,0-.225,3.425v4a10.292,10.292,0,0,0,1.925,6.575q1.925,2.425,6.125,2.425.55,0,1.175-.05t1.225-.15l.5,3.35a12.324,12.324,0,0,1-1.875.25Q-346.15,240.6-346.95,240.6Zm24.75-16.2-4.25-1.8a10.8,10.8,0,0,1,1.125-4.225,10.944,10.944,0,0,1,2.575-3.325,11.662,11.662,0,0,1,3.725-2.175,13.4,13.4,0,0,1,4.625-.775q5.85,0,8.95,2.925a10.375,10.375,0,0,1,3.1,7.925V240h-4V223.45a7.62,7.62,0,0,0-2.175-5.9,8.125,8.125,0,0,0-5.725-2,11.074,11.074,0,0,0-2.925.375,9.464,9.464,0,0,0-2.475,1.05,7.534,7.534,0,0,0-1.9,1.65,6.079,6.079,0,0,0-1.15,2.175l2.5,1a3.361,3.361,0,0,1,1.525,1.025,2.791,2.791,0,0,1,.475,1.725V240h-4Zm38.5,16.2q-5.7,0-8.675-3.775t-2.975-10.575q0-6.7,2-10.425a6.626,6.626,0,0,1,6.25-3.725,6.109,6.109,0,0,1,3.425,1,4.8,4.8,0,0,1,2.025,2.95h.2a5,5,0,0,1,2.075-2.95,6.2,6.2,0,0,1,3.475-1,5.753,5.753,0,0,1,4.625,1.9,7.9,7.9,0,0,1,1.625,5.3V240h-4V219.35a4.23,4.23,0,0,0-.825-2.875,2.953,2.953,0,0,0-2.325-.925,3.431,3.431,0,0,0-1.55.325,2.756,2.756,0,0,0-1.05.9,5.27,5.27,0,0,0-.65,1.3,7.592,7.592,0,0,0-.35,1.475H-283a10.16,10.16,0,0,0-.3-1.45,4.268,4.268,0,0,0-.6-1.275,2.972,2.972,0,0,0-1.05-.925,3.34,3.34,0,0,0-1.6-.35,3.437,3.437,0,0,0-2.15.65,4.628,4.628,0,0,0-1.375,1.8,9.951,9.951,0,0,0-.75,2.725,24.283,24.283,0,0,0-.225,3.425v4a10.292,10.292,0,0,0,1.925,6.575q1.925,2.425,6.125,2.425.55,0,1.175-.05t1.225-.15l.5,3.35a12.324,12.324,0,0,1-1.875.25Q-282.9,240.6-283.7,240.6Zm13.65-42.5h3.9v9.25h-3.9ZM-250,221.25q0-5.75-5.95-5.75a6.777,6.777,0,0,0-3.925,1.05,8.883,8.883,0,0,0-2.575,2.8l-2.45-2.15a9.675,9.675,0,0,1,3.375-3.65,10.51,10.51,0,0,1,5.825-1.45q4.7,0,7.2,2.3a8.39,8.39,0,0,1,2.5,6.5V240h-4Zm9.6-1h4.3l7.25,16.4h.15a5.864,5.864,0,0,0,4.875-2.175A9.547,9.547,0,0,0-222.1,228.4v-4.1a9.351,9.351,0,0,0-1.725-6,5.893,5.893,0,0,0-4.875-2.15h-1.6V212.7h1.65a9.622,9.622,0,0,1,8,3.6q2.85,3.6,2.85,10.05t-2.825,10.05A9.552,9.552,0,0,1-228.6,240h-3.1Zm32.3,4.15-4.25-1.8a10.8,10.8,0,0,1,1.125-4.225,10.944,10.944,0,0,1,2.575-3.325,11.662,11.662,0,0,1,3.725-2.175,13.4,13.4,0,0,1,4.625-.775q5.85,0,8.95,2.925a10.375,10.375,0,0,1,3.1,7.925V240h-4V223.45a7.62,7.62,0,0,0-2.175-5.9,8.125,8.125,0,0,0-5.725-2,11.074,11.074,0,0,0-2.925.375,9.464,9.464,0,0,0-2.475,1.05,7.534,7.534,0,0,0-1.9,1.65,6.08,6.08,0,0,0-1.15,2.175l2.5,1a3.36,3.36,0,0,1,1.525,1.025,2.791,2.791,0,0,1,.475,1.725V240h-4Zm19.65-17.05a4.379,4.379,0,0,1-3.3-1.1,4.025,4.025,0,0,1-1.05-2.9v-3.1h4v3.65h12.75v3.45ZM-171,240.6a8.637,8.637,0,0,1-6.8-2.75q-2.45-2.75-2.45-7.75V212.7h4v16.9q0,7.6,6.5,7.6a9.235,9.235,0,0,0,2.5-.35,6.728,6.728,0,0,0,2.2-1.05,5.592,5.592,0,0,0,1.55-1.75,4.853,4.853,0,0,0,.6-2.45V212.7h4v23.75h3.2V240h-2.95a3.46,3.46,0,0,1-2.925-1.2,5.624,5.624,0,0,1-1.075-3.05h-.2a6.529,6.529,0,0,1-2.975,3.575A10.054,10.054,0,0,1-171,240.6Zm31.8,0a14.142,14.142,0,0,1-4.5-.7,10.807,10.807,0,0,1-3.65-2.025,9.812,9.812,0,0,1-2.45-3.15,9.088,9.088,0,0,1-.9-4.075V228.1a3.9,3.9,0,0,1,.6-2.325,3.042,3.042,0,0,1,2.55-.825h5.3v3.45h-4.4v2.05a7.488,7.488,0,0,0,.575,3.05,5.678,5.678,0,0,0,1.575,2.125,6.528,6.528,0,0,0,2.425,1.225,11.339,11.339,0,0,0,3.075.4,7.522,7.522,0,0,0,5.85-2.3,9.219,9.219,0,0,0,2.1-6.45v-4.1a8.936,8.936,0,0,0-2.275-6.525,8.443,8.443,0,0,0-6.325-2.325A10.85,10.85,0,0,0-145,216.8a9.536,9.536,0,0,0-3.55,3.35l-2.6-2.3a11.156,11.156,0,0,1,4.275-4.1,14.8,14.8,0,0,1,7.425-1.65q6.05,0,9.375,3.775t3.325,10.475a20.371,20.371,0,0,1-.8,5.9,12.345,12.345,0,0,1-2.375,4.5,10.475,10.475,0,0,1-3.9,2.85A13.5,13.5,0,0,1-139.2,240.6Zm29.65,0q-5,0-7.775-2.15a7.212,7.212,0,0,1-2.775-6.05,5.964,5.964,0,0,1,1.45-4.125A7.376,7.376,0,0,1-115,226.05v-.25a6.774,6.774,0,0,1-3.875-2.275A6.564,6.564,0,0,1-120.3,219.2a6.914,6.914,0,0,1,1.975-5.15,7.455,7.455,0,0,1,5.475-1.95,14.152,14.152,0,0,1,2.175.175,6.6,6.6,0,0,1,2.075.675l-.85,3.05a7.256,7.256,0,0,0-2.65-.55,4.394,4.394,0,0,0-3.325,1.175,4.194,4.194,0,0,0-1.125,3.025,6.575,6.575,0,0,0,.2,1.6,3.363,3.363,0,0,0,.75,1.425,4.021,4.021,0,0,0,1.525,1.025,6.9,6.9,0,0,0,2.575.4h2.9v2.85h-2.9a4.689,4.689,0,0,0-3.175,1.1,4,4,0,0,0-1.275,3.2v1.25a4.072,4.072,0,0,0,1.65,3.475,7.872,7.872,0,0,0,4.75,1.225,8.228,8.228,0,0,0,5.725-1.875,6.937,6.937,0,0,0,2.075-5.425V212.7h4v17.8a10.257,10.257,0,0,1-.825,4.175,8.614,8.614,0,0,1-2.375,3.175,11.273,11.273,0,0,1-3.725,2.025A15.363,15.363,0,0,1-109.55,240.6Zm11.9-42.5h3.9v9.25h-3.9Zm20.05,23.15q0-5.75-5.95-5.75a6.777,6.777,0,0,0-3.925,1.05,8.884,8.884,0,0,0-2.575,2.8l-2.45-2.15a9.676,9.676,0,0,1,3.375-3.65A10.51,10.51,0,0,1-83.3,212.1q4.7,0,7.2,2.3a8.39,8.39,0,0,1,2.5,6.5V240h-4Zm9.6-1h4.3l7.25,16.4h.15a5.864,5.864,0,0,0,4.875-2.175A9.547,9.547,0,0,0-49.7,228.4v-4.1a9.351,9.351,0,0,0-1.725-6,5.893,5.893,0,0,0-4.875-2.15h-1.6V212.7h1.65a9.622,9.622,0,0,1,8,3.6q2.85,3.6,2.85,10.05t-2.825,10.05A9.552,9.552,0,0,1-56.2,240h-3.1ZM-32.3,240a4.208,4.208,0,0,1-3.225-1.15A4.286,4.286,0,0,1-36.6,235.8V207.45a8.864,8.864,0,0,1,.4-2.8,6.978,6.978,0,0,1,1.05-2.05,6.39,6.39,0,0,1,1.5-1.425,8.361,8.361,0,0,1,1.8-.925v-.2h-10.9v-3.3H-27.2v3.3h-.5a4.734,4.734,0,0,0-3.65,1.348,5.373,5.373,0,0,0-1.25,3.795V236.45h4.2V240Zm19.3.6a13.962,13.962,0,0,1-6.4-1.35,12.5,12.5,0,0,1-4.45-3.8l2.85-2.3a9.694,9.694,0,0,0,3.575,3.075,10.777,10.777,0,0,0,4.725.975,7.691,7.691,0,0,0,4.575-1.15,3.941,3.941,0,0,0,1.575-3.4,3.751,3.751,0,0,0-1.225-2.975A7.647,7.647,0,0,0-11.7,228.2l-2.35-.35a25.289,25.289,0,0,1-3.15-.7,10.167,10.167,0,0,1-2.825-1.3,6.352,6.352,0,0,1-2.05-2.25,7.154,7.154,0,0,1-.775-3.5,7.835,7.835,0,0,1,.725-3.45,6.789,6.789,0,0,1,2.05-2.5,9.588,9.588,0,0,1,3.125-1.525,13.877,13.877,0,0,1,3.9-.525,13.306,13.306,0,0,1,5.925,1.175A12.181,12.181,0,0,1-3.15,216.35l-2.55,2.4a9.762,9.762,0,0,0-2.95-2.275,9.55,9.55,0,0,0-4.5-.975,6.952,6.952,0,0,0-4.3,1.15,3.8,3.8,0,0,0-1.5,3.2,3.356,3.356,0,0,0,1.45,3.1,10.828,10.828,0,0,0,4,1.3l2.35.35a23.164,23.164,0,0,1,3.4.8,8.325,8.325,0,0,1,2.675,1.4A6.445,6.445,0,0,1-3.3,229.025a7.271,7.271,0,0,1,.65,3.225,7.421,7.421,0,0,1-2.775,6.125A11.782,11.782,0,0,1-13,240.6Z" transform="translate(5968.347 8431.127)"/>
      <path id="Path_1448" data-name="Path 1448" d="M-419.72,1.68q-11.2,0-18.97-3.64a42.137,42.137,0,0,1-13.65-10.22l12.46-12.04a33.086,33.086,0,0,0,9.31,7.21,25.257,25.257,0,0,0,11.83,2.73q6.44,0,9.38-2.1a6.431,6.431,0,0,0,2.94-5.46q0-3.64-2.38-5.25a15.143,15.143,0,0,0-6.44-2.17l-7.98-.98q-12.74-1.54-19.53-7.42t-6.79-16.38a24.415,24.415,0,0,1,2.17-10.5,22.587,22.587,0,0,1,6.16-7.91,28.107,28.107,0,0,1,9.52-5.04,40.462,40.462,0,0,1,12.25-1.75,59.844,59.844,0,0,1,10.08.77,38.19,38.19,0,0,1,8.19,2.31,33,33,0,0,1,6.79,3.78,50.762,50.762,0,0,1,6.02,5.18l-12.18,12.04a25.518,25.518,0,0,0-8.26-5.88,24.311,24.311,0,0,0-10.22-2.24q-5.74,0-8.4,2.1a6.634,6.634,0,0,0-2.66,5.46,7.032,7.032,0,0,0,2.17,5.39q2.17,2.03,7.49,2.73l7.98,1.12a53.938,53.938,0,0,1,10.71,2.52,26.2,26.2,0,0,1,7.98,4.41,18.131,18.131,0,0,1,5.04,6.65,22.894,22.894,0,0,1,1.75,9.38,21.685,21.685,0,0,1-2.38,10.08,24.167,24.167,0,0,1-6.65,7.98A31.82,31.82,0,0,1-406.35-.21,44.938,44.938,0,0,1-419.72,1.68Zm15.12,48.44a33.462,33.462,0,0,1-10.15-1.33,16.707,16.707,0,0,1-6.65-3.78,14.356,14.356,0,0,1-3.64-5.74,22.712,22.712,0,0,1-1.12-7.35V27.86h-8.96V14.56h11.06q7,0,10.01,2.66a9.052,9.052,0,0,1,3.01,7.14v4.62q0,7.84,6.58,7.84,3.64,0,5.18-1.89t1.54-5.95V14.56h16.94V27.3q0,10.08-5.81,16.45T-404.6,50.12Zm-5.74-154.7h8.82v-4.76a4.714,4.714,0,0,0-1.05-3.43q-1.05-1.05-4.27-1.05h-3.5V-128.1h11.62q6.86,0,10.64,3.01a9.91,9.91,0,0,1,3.78,8.19,10.91,10.91,0,0,1-2.17,6.51,14.3,14.3,0,0,1-5.95,4.69v1.12h26.04V-90.3h-43.96Zm39.2,27.02h20.72V-56l17.78-2.38q4.06-.56,5.81-2.73t2.31-7.21l.98-9.24h21.42l-.98,9.94a18.353,18.353,0,0,1-5.04,10.99q-4.34,4.55-12.46,5.25v.7a16.673,16.673,0,0,1,8.54,3.64,21.5,21.5,0,0,1,5.11,6.51,28.9,28.9,0,0,1,2.66,7.77q.77,4.06,1.05,7.28L-300.86,0h-21.28l-2.1-26.88q-.56-7.28-3.78-11.13t-8.96-3.15l-13.44,1.68V0h-20.72ZM-255.36,1.68q-11.2,0-18.97-3.64a42.137,42.137,0,0,1-13.65-10.22l12.46-12.04a33.086,33.086,0,0,0,9.31,7.21,25.257,25.257,0,0,0,11.83,2.73q6.44,0,9.38-2.1a6.431,6.431,0,0,0,2.94-5.46q0-3.64-2.38-5.25a15.143,15.143,0,0,0-6.44-2.17l-7.98-.98q-12.74-1.54-19.53-7.42t-6.79-16.38a24.415,24.415,0,0,1,2.17-10.5,22.587,22.587,0,0,1,6.16-7.91,28.107,28.107,0,0,1,9.52-5.04,40.462,40.462,0,0,1,12.25-1.75,59.844,59.844,0,0,1,10.08.77,38.19,38.19,0,0,1,8.19,2.31,33,33,0,0,1,6.79,3.78A50.762,50.762,0,0,1-224-67.2l-12.18,12.04a25.518,25.518,0,0,0-8.26-5.88,24.311,24.311,0,0,0-10.22-2.24q-5.74,0-8.4,2.1a6.634,6.634,0,0,0-2.66,5.46,7.032,7.032,0,0,0,2.17,5.39q2.17,2.03,7.49,2.73l7.98,1.12a53.938,53.938,0,0,1,10.71,2.52,26.2,26.2,0,0,1,7.98,4.41,18.131,18.131,0,0,1,5.04,6.65,22.894,22.894,0,0,1,1.75,9.38,21.685,21.685,0,0,1-2.38,10.08,24.166,24.166,0,0,1-6.65,7.98A31.82,31.82,0,0,1-241.99-.21,44.938,44.938,0,0,1-255.36,1.68Zm-25.76-106.26h22.4V-116.9h15.54v14.14h10.78V-116.9h15.96v27.44h-64.68ZM-175.7,1.68A44.514,44.514,0,0,1-189.42-.35a34.564,34.564,0,0,1-10.85-5.6,26.338,26.338,0,0,1-7.14-8.47A22.709,22.709,0,0,1-210-25.2v-6.86q0-5.74,3.15-9.1t9.45-3.36h16.8v15.26h-10.78v2.24q0,6.3,4.2,9.59T-175-14.14q7.14,0,10.99-4.83t3.85-13.23V-45.08q0-8.4-4.48-13.09t-12.6-4.69a26.646,26.646,0,0,0-7.35.98,28.341,28.341,0,0,0-6.16,2.52,24.892,24.892,0,0,0-4.76,3.43,20.792,20.792,0,0,0-3.15,3.57l-12.6-11.2q4.34-6.58,13.09-11.13t21.77-4.55a43.822,43.822,0,0,1,15.89,2.73,31.76,31.76,0,0,1,11.97,7.98,35.3,35.3,0,0,1,7.49,12.74,51.893,51.893,0,0,1,2.59,17.01,53.216,53.216,0,0,1-2.52,17.01,35.031,35.031,0,0,1-7.35,12.74,31.341,31.341,0,0,1-11.76,7.98A42.294,42.294,0,0,1-175.7,1.68ZM-100.66,0q-10.64,0-15.61-5.18t-4.97-14.98V-91.98q0-8.12,4.06-12.32a19.918,19.918,0,0,1,9.52-5.6v-.7h-30.1v-16.1H-86.8v16.1h-1.96a11.23,11.23,0,0,0-8.61,3.36q-3.15,3.36-3.15,9.52V-16.1h9.66V0Zm66.92,1.68A27.266,27.266,0,0,1-42.49.42a23.221,23.221,0,0,1-6.44-3.29,18.526,18.526,0,0,1-4.48-4.69,24.885,24.885,0,0,1-2.73-5.46h-.7V0H-77.56V-77.56h20.72v50.4a10.386,10.386,0,0,0,1.26,5.18,12.2,12.2,0,0,0,3.29,3.78,14.319,14.319,0,0,0,4.62,2.31,17.868,17.868,0,0,0,5.11.77,14.85,14.85,0,0,0,6.51-1.26,9.619,9.619,0,0,0,3.99-3.43,14.212,14.212,0,0,0,1.96-4.97,29.931,29.931,0,0,0,.56-5.88v-46.9H-8.82v48.72q0,14.7-6.3,22.61T-33.74,1.68ZM-19.6-118.44H-.84v28.98H-19.6Z" transform="translate(5968.347 8310.321)" fill="#002a28"/>
    </g>
    <g id="Group_42" data-name="Group 42">
      <path id="Path_34" data-name="Path 34" d="M6015.209,8400.026q-1.189-40.3,9.955-73.134t32.24-56.184a142.708,142.708,0,0,1,51.207-36.033q30.107-12.68,66.852-12.684,33.425,0,61.279,9.364t47.889,27.144a122.65,122.65,0,0,1,31.174,43.383q11.139,25.6,11.14,58.08,0,21.335-5.925,37.812a130.3,130.3,0,0,1-14.936,29.633,154.716,154.716,0,0,1-20.031,23.825q-11.025,10.667-21.217,20.149-8.775,8.3-17.307,15.646a124.078,124.078,0,0,0-15.291,15.646,72.794,72.794,0,0,0-10.9,18.372q-4.152,10.078-4.148,23.588v24.654H6129v-30.344q.713-20.385,6.875-36.152a131.56,131.56,0,0,1,15.172-28.447,155.229,155.229,0,0,1,19.914-23q10.9-10.311,21.1-20.031,7.347-7.112,15.41-15.646a163.155,163.155,0,0,0,14.814-18.135,94.894,94.894,0,0,0,10.905-20.269,51.327,51.327,0,0,0,3.439-22.047,82.917,82.917,0,0,0-5.572-23.824,53.081,53.081,0,0,0-12.209-18.373,54.312,54.312,0,0,0-18.729-11.735,69,69,0,0,0-24.652-4.147q-19.2,0-33.072,8.415a67.449,67.449,0,0,0-22.639,22.641,105.885,105.885,0,0,0-12.92,32.833,178.76,178.76,0,0,0-4.148,39Zm207.9,203.4v94.352H6123.072v-94.352Z" fill="none" stroke="#fff" stroke-linecap="round" stroke-linejoin="round" stroke-width="3"/>
    </g>
  </g>
</svg>
