<svg xmlns="http://www.w3.org/2000/svg" width="1076.594" height="953.286" viewBox="0 0 1076.594 953.286">
  <g id="Group_563" data-name="Group 563" transform="translate(-774.003)">
    <text id="กลุ่มคนดั้งเดิมที่ไม่มีสัญชาติไทย_แต่มีชื่อในทะเบียนราษฎร์ได้รับการขึ้นทะเบียน_มี_ID_13_หลักแล้ว_ขึ้นต้นด้วยเลข_3_และ_4" data-name="กลุ่มคนดั้งเดิมที่ไม่มีสัญชาติไทย
แต่มีชื่อในทะเบียนราษฎร์ได้รับการขึ้นทะเบียน 
มี ID 13 หลักแล้ว ขึ้นต้นด้วยเลข 3 และ 4" transform="translate(1302.598 298.879)" fill="#009444" font-size="30" font-family="IBMPlexSansThai-Bold, IBM Plex Sans Thai" font-weight="700"><tspan x="0" y="0">กลุ่มคนดั้งเดิมที่ไม่มีสัญชาติไทย</tspan><tspan font-family="IBMPlexSansThai, IBM Plex Sans Thai" font-weight="400" fill="#000"><tspan x="0" y="45">แต่มีชื่อในทะเบียนราษฎร์ได้รับการขึ้นทะเบียน </tspan><tspan x="0" y="90">มี ID 13 หลักแล้ว ขึ้นต้นด้วยเลข 3 และ 4</tspan></tspan></text>
    <g id="Group_224" data-name="Group 224" transform="translate(-2420 -9480)">
      <g id="Group_215" data-name="Group 215">
        <path id="Path_346" data-name="Path 346" d="M3463.853,9782.126a9.687,9.687,0,1,0-9.688,9.686A9.687,9.687,0,0,0,3463.853,9782.126Z" fill="none" stroke="#009444" stroke-linecap="round" stroke-linejoin="round" stroke-width="3"/>
        <g id="Group_214" data-name="Group 214">
          <path id="Path_347" data-name="Path 347" d="M3465.792,9809.351v48.563c0,1.852-2.16,4.527-6.275,4.527a5.84,5.84,0,0,0-10.7,0c-4.116,0-6.276-2.676-6.276-4.527v-48.562" fill="none" stroke="#009444" stroke-linecap="round" stroke-linejoin="round" stroke-width="3"/>
          <path id="Path_348" data-name="Path 348" d="M3465.792,9832.19c10.081-5.4,8.746-13.58,8.746-21.607,0-6.635-7.044-13.271-13.217-13.271H3447.01c-6.172,0-13.217,6.637-13.217,13.271,0,8.027-1.337,16.205,8.747,21.607" fill="none" stroke="#009444" stroke-linecap="round" stroke-linejoin="round" stroke-width="3"/>
          <line id="Line_83" data-name="Line 83" y1="27.521" transform="translate(3454.165 9831.419)" fill="none" stroke="#009444" stroke-linecap="round" stroke-linejoin="round" stroke-width="3"/>
        </g>
      </g>
      <g id="Group_217" data-name="Group 217">
        <path id="Path_349" data-name="Path 349" d="M3513.353,9782.126a9.687,9.687,0,1,0-9.688,9.686A9.687,9.687,0,0,0,3513.353,9782.126Z" fill="none" stroke="#009444" stroke-linecap="round" stroke-linejoin="round" stroke-width="3"/>
        <g id="Group_216" data-name="Group 216">
          <path id="Path_350" data-name="Path 350" d="M3515.292,9809.351v48.563c0,1.852-2.16,4.527-6.275,4.527a5.84,5.84,0,0,0-10.7,0c-4.116,0-6.276-2.676-6.276-4.527v-48.562" fill="none" stroke="#009444" stroke-linecap="round" stroke-linejoin="round" stroke-width="3"/>
          <path id="Path_351" data-name="Path 351" d="M3515.292,9832.19c10.081-5.4,8.746-13.58,8.746-21.607,0-6.635-7.044-13.271-13.217-13.271H3496.51c-6.172,0-13.217,6.637-13.217,13.271,0,8.027-1.337,16.205,8.747,21.607" fill="none" stroke="#009444" stroke-linecap="round" stroke-linejoin="round" stroke-width="3"/>
          <line id="Line_84" data-name="Line 84" y1="27.521" transform="translate(3503.665 9831.419)" fill="none" stroke="#009444" stroke-linecap="round" stroke-linejoin="round" stroke-width="3"/>
        </g>
      </g>
      <g id="Group_219" data-name="Group 219">
        <circle id="Ellipse_20" data-name="Ellipse 20" cx="9.686" cy="9.686" r="9.686" transform="matrix(0.014, -1, 1, 0.014, 3543.351, 9791.68)" fill="none" stroke="#009444" stroke-linecap="round" stroke-linejoin="round" stroke-width="3"/>
        <g id="Group_218" data-name="Group 218">
          <path id="Path_352" data-name="Path 352" d="M3564.792,9809.351v48.563c0,1.852-2.16,4.527-6.275,4.527a5.84,5.84,0,0,0-10.7,0c-4.116,0-6.276-2.676-6.276-4.527v-48.562" fill="none" stroke="#009444" stroke-linecap="round" stroke-linejoin="round" stroke-width="3"/>
          <path id="Path_353" data-name="Path 353" d="M3564.792,9832.19c10.083-5.4,8.747-13.58,8.747-21.607,0-6.635-7.045-13.271-13.218-13.271H3546.01c-6.172,0-13.217,6.637-13.217,13.271,0,8.027-1.337,16.205,8.747,21.607" fill="none" stroke="#009444" stroke-linecap="round" stroke-linejoin="round" stroke-width="3"/>
          <line id="Line_85" data-name="Line 85" y1="27.521" transform="translate(3553.166 9831.419)" fill="none" stroke="#009444" stroke-linecap="round" stroke-linejoin="round" stroke-width="3"/>
        </g>
      </g>
      <g id="Group_221" data-name="Group 221">
        <circle id="Ellipse_21" data-name="Ellipse 21" cx="9.686" cy="9.686" r="9.686" transform="matrix(0.973, -0.23, 0.23, 0.973, 3591.014, 9774.925)" fill="none" stroke="#009444" stroke-linecap="round" stroke-linejoin="round" stroke-width="3"/>
        <g id="Group_220" data-name="Group 220">
          <path id="Path_354" data-name="Path 354" d="M3614.292,9809.351v48.563c0,1.852-2.16,4.527-6.275,4.527a5.84,5.84,0,0,0-10.7,0c-4.116,0-6.276-2.676-6.276-4.527v-48.562" fill="none" stroke="#009444" stroke-linecap="round" stroke-linejoin="round" stroke-width="3"/>
          <path id="Path_355" data-name="Path 355" d="M3614.292,9832.19c10.083-5.4,8.747-13.58,8.747-21.607,0-6.635-7.045-13.271-13.218-13.271h-14.309c-6.174,0-13.219,6.637-13.219,13.271,0,8.027-1.336,16.205,8.747,21.607" fill="none" stroke="#009444" stroke-linecap="round" stroke-linejoin="round" stroke-width="3"/>
          <line id="Line_86" data-name="Line 86" y1="27.521" transform="translate(3602.666 9831.419)" fill="none" stroke="#009444" stroke-linecap="round" stroke-linejoin="round" stroke-width="3"/>
        </g>
      </g>
      <g id="Group_223" data-name="Group 223">
        <circle id="Ellipse_22" data-name="Ellipse 22" cx="9.686" cy="9.686" r="9.686" transform="matrix(0.973, -0.23, 0.23, 0.973, 3640.514, 9774.925)" fill="none" stroke="#009444" stroke-linecap="round" stroke-linejoin="round" stroke-width="3"/>
        <g id="Group_222" data-name="Group 222">
          <path id="Path_356" data-name="Path 356" d="M3663.792,9809.351v48.563c0,1.852-2.16,4.527-6.275,4.527a5.84,5.84,0,0,0-10.7,0c-4.116,0-6.276-2.676-6.276-4.527v-48.562" fill="none" stroke="#009444" stroke-linecap="round" stroke-linejoin="round" stroke-width="3"/>
          <path id="Path_357" data-name="Path 357" d="M3663.792,9832.19c10.083-5.4,8.747-13.58,8.747-21.607,0-6.635-7.045-13.271-13.218-13.271h-14.309c-6.174,0-13.219,6.637-13.219,13.271,0,8.027-1.336,16.205,8.747,21.607" fill="none" stroke="#009444" stroke-linecap="round" stroke-linejoin="round" stroke-width="3"/>
          <line id="Line_87" data-name="Line 87" y1="27.521" transform="translate(3652.166 9831.419)" fill="none" stroke="#009444" stroke-linecap="round" stroke-linejoin="round" stroke-width="3"/>
        </g>
      </g>
    </g>
    <text id="คณะรัฐมนตรีมีมติเห็นชอบ_ให้สิทธิเพิ่มเติม_ครั้งที่_3_จำนวน_24_071_คน" data-name="คณะรัฐมนตรีมีมติเห็นชอบ ให้สิทธิเพิ่มเติม (ครั้งที่ 3) 
จำนวน 24,071 คน" transform="translate(1013.734 185.149)" font-size="30" font-family="IBMPlexSansThai, IBM Plex Sans Thai"><tspan x="0" y="0">คณะรัฐมนตรีมีมติเห็นชอบ ให้สิทธิเพิ่มเติม (ครั้งที่ 3) </tspan><tspan x="0" y="45">จำนวน 24,071 คน</tspan></text>
    <text id="เด็กและบุคคลที่เรียนในสถานศึกษา_ที่ได้รับการพิสูจน์แล้ว_ไม่ซ้ำซ้อนกับ_กลุ่มเป้าหมายก่อนหน้า" data-name="เด็กและบุคคลที่เรียนในสถานศึกษา
ที่ได้รับการพิสูจน์แล้ว ไม่ซ้ำซ้อนกับ
กลุ่มเป้าหมายก่อนหน้า" transform="translate(1302.598 623.319)" fill="#009444" font-size="30" font-family="IBMPlexSansThai-Bold, IBM Plex Sans Thai" font-weight="700"><tspan x="0" y="0">เด็กและบุคคลที่เรียนในสถานศึกษา</tspan><tspan font-family="IBMPlexSansThai, IBM Plex Sans Thai" font-weight="400" fill="#000"><tspan x="0" y="45">ที่ได้รับการพิสูจน์แล้ว ไม่ซ้ำซ้อนกับ</tspan><tspan x="0" y="90">กลุ่มเป้าหมายก่อนหน้า</tspan></tspan></text>
    <g id="Group_235" data-name="Group 235" transform="translate(-2420 -9480)">
      <g id="Group_226" data-name="Group 226">
        <path id="Path_358" data-name="Path 358" d="M3463.853,10106.566a9.687,9.687,0,1,0-9.688,9.686A9.687,9.687,0,0,0,3463.853,10106.566Z" fill="none" stroke="#009444" stroke-linecap="round" stroke-linejoin="round" stroke-width="3"/>
        <g id="Group_225" data-name="Group 225">
          <path id="Path_359" data-name="Path 359" d="M3465.792,10133.791v48.563c0,1.852-2.16,4.527-6.275,4.527a5.84,5.84,0,0,0-10.7,0c-4.116,0-6.276-2.676-6.276-4.527v-48.562" fill="none" stroke="#009444" stroke-linecap="round" stroke-linejoin="round" stroke-width="3"/>
          <path id="Path_360" data-name="Path 360" d="M3465.792,10156.631c10.081-5.4,8.746-13.58,8.746-21.607,0-6.635-7.044-13.271-13.217-13.271H3447.01c-6.172,0-13.217,6.637-13.217,13.271,0,8.027-1.337,16.205,8.747,21.607" fill="none" stroke="#009444" stroke-linecap="round" stroke-linejoin="round" stroke-width="3"/>
          <line id="Line_88" data-name="Line 88" y1="27.521" transform="translate(3454.165 10155.859)" fill="none" stroke="#009444" stroke-linecap="round" stroke-linejoin="round" stroke-width="3"/>
        </g>
      </g>
      <g id="Group_228" data-name="Group 228">
        <path id="Path_361" data-name="Path 361" d="M3513.353,10106.566a9.687,9.687,0,1,0-9.688,9.686A9.687,9.687,0,0,0,3513.353,10106.566Z" fill="none" stroke="#009444" stroke-linecap="round" stroke-linejoin="round" stroke-width="3"/>
        <g id="Group_227" data-name="Group 227">
          <path id="Path_362" data-name="Path 362" d="M3515.292,10133.791v48.563c0,1.852-2.16,4.527-6.275,4.527a5.84,5.84,0,0,0-10.7,0c-4.116,0-6.276-2.676-6.276-4.527v-48.562" fill="none" stroke="#009444" stroke-linecap="round" stroke-linejoin="round" stroke-width="3"/>
          <path id="Path_363" data-name="Path 363" d="M3515.292,10156.631c10.081-5.4,8.746-13.58,8.746-21.607,0-6.635-7.044-13.271-13.217-13.271H3496.51c-6.172,0-13.217,6.637-13.217,13.271,0,8.027-1.337,16.205,8.747,21.607" fill="none" stroke="#009444" stroke-linecap="round" stroke-linejoin="round" stroke-width="3"/>
          <line id="Line_89" data-name="Line 89" y1="27.521" transform="translate(3503.665 10155.859)" fill="none" stroke="#009444" stroke-linecap="round" stroke-linejoin="round" stroke-width="3"/>
        </g>
      </g>
      <g id="Group_230" data-name="Group 230">
        <circle id="Ellipse_23" data-name="Ellipse 23" cx="9.687" cy="9.687" r="9.687" transform="matrix(1, -0.013, 0.013, 1, 3543.356, 10097.005)" fill="none" stroke="#009444" stroke-linecap="round" stroke-linejoin="round" stroke-width="3"/>
        <g id="Group_229" data-name="Group 229">
          <path id="Path_364" data-name="Path 364" d="M3564.792,10133.791v48.563c0,1.852-2.16,4.527-6.275,4.527a5.84,5.84,0,0,0-10.7,0c-4.116,0-6.276-2.676-6.276-4.527v-48.562" fill="none" stroke="#009444" stroke-linecap="round" stroke-linejoin="round" stroke-width="3"/>
          <path id="Path_365" data-name="Path 365" d="M3564.792,10156.631c10.083-5.4,8.747-13.58,8.747-21.607,0-6.635-7.045-13.271-13.218-13.271H3546.01c-6.172,0-13.217,6.637-13.217,13.271,0,8.027-1.337,16.205,8.747,21.607" fill="none" stroke="#009444" stroke-linecap="round" stroke-linejoin="round" stroke-width="3"/>
          <line id="Line_90" data-name="Line 90" y1="27.521" transform="translate(3553.166 10155.859)" fill="none" stroke="#009444" stroke-linecap="round" stroke-linejoin="round" stroke-width="3"/>
        </g>
      </g>
      <g id="Group_232" data-name="Group 232">
        <circle id="Ellipse_24" data-name="Ellipse 24" cx="9.686" cy="9.686" r="9.686" transform="translate(3588.969 10106.566) rotate(-45)" fill="none" stroke="#009444" stroke-linecap="round" stroke-linejoin="round" stroke-width="3"/>
        <g id="Group_231" data-name="Group 231">
          <path id="Path_366" data-name="Path 366" d="M3614.292,10133.791v48.563c0,1.852-2.16,4.527-6.275,4.527a5.84,5.84,0,0,0-10.7,0c-4.116,0-6.276-2.676-6.276-4.527v-48.562" fill="none" stroke="#009444" stroke-linecap="round" stroke-linejoin="round" stroke-width="3"/>
          <path id="Path_367" data-name="Path 367" d="M3614.292,10156.631c10.083-5.4,8.747-13.58,8.747-21.607,0-6.635-7.045-13.271-13.218-13.271h-14.309c-6.174,0-13.219,6.637-13.219,13.271,0,8.027-1.336,16.205,8.747,21.607" fill="none" stroke="#009444" stroke-linecap="round" stroke-linejoin="round" stroke-width="3"/>
          <line id="Line_91" data-name="Line 91" y1="27.521" transform="translate(3602.666 10155.859)" fill="none" stroke="#009444" stroke-linecap="round" stroke-linejoin="round" stroke-width="3"/>
        </g>
      </g>
      <g id="Group_234" data-name="Group 234">
        <circle id="Ellipse_25" data-name="Ellipse 25" cx="9.686" cy="9.686" r="9.686" transform="translate(3638.469 10106.566) rotate(-45)" fill="none" stroke="#009444" stroke-linecap="round" stroke-linejoin="round" stroke-width="3"/>
        <g id="Group_233" data-name="Group 233">
          <path id="Path_368" data-name="Path 368" d="M3663.792,10133.791v48.563c0,1.852-2.16,4.527-6.275,4.527a5.84,5.84,0,0,0-10.7,0c-4.116,0-6.276-2.676-6.276-4.527v-48.562" fill="none" stroke="#009444" stroke-linecap="round" stroke-linejoin="round" stroke-width="3"/>
          <path id="Path_369" data-name="Path 369" d="M3663.792,10156.631c10.083-5.4,8.747-13.58,8.747-21.607,0-6.635-7.045-13.271-13.218-13.271h-14.309c-6.174,0-13.219,6.637-13.219,13.271,0,8.027-1.336,16.205,8.747,21.607" fill="none" stroke="#009444" stroke-linecap="round" stroke-linejoin="round" stroke-width="3"/>
          <line id="Line_92" data-name="Line 92" y1="27.521" transform="translate(3652.166 10155.859)" fill="none" stroke="#009444" stroke-linecap="round" stroke-linejoin="round" stroke-width="3"/>
        </g>
      </g>
    </g>
    <text id="คณะรัฐมนตรีมีมติเห็นชอบ_ให้สิทธิ_เพิ่มเติม_ครั้งที่_4_จำนวน_3_042_คน" data-name="คณะรัฐมนตรีมีมติเห็นชอบ ให้สิทธิ เพิ่มเติม (ครั้งที่ 4) 
จำนวน 3,042 คน" transform="translate(1013.734 509.591)" font-size="30" font-family="IBMPlexSansThai, IBM Plex Sans Thai"><tspan x="0" y="0">คณะรัฐมนตรีมีมติเห็นชอบ ให้สิทธิ เพิ่มเติม (ครั้งที่ 4) </tspan><tspan x="0" y="45">จำนวน 3,042 คน</tspan></text>
    <text id="คณะรัฐมนตรีมีมติให้สิทธิขั้นพื้นฐาน_แก่เด็กและบุคคลที่เรียนอยู่_ในสถานศึกษา_ครั้งที่_2_จำนวน_5_203_คน" data-name="คณะรัฐมนตรีมีมติให้สิทธิขั้นพื้นฐานฯ แก่เด็กและบุคคลที่เรียนอยู่
ในสถานศึกษา ครั้งที่ 2 จำนวน 5,203 คน" transform="translate(1014.034 841.937)" font-size="30" font-family="IBMPlexSansThai, IBM Plex Sans Thai"><tspan x="0" y="0">คณะรัฐมนตรีมีมติให้สิทธิขั้นพื้นฐานฯ แก่เด็กและบุคคลที่เรียนอยู่</tspan><tspan x="0" y="45">ในสถานศึกษา ครั้งที่ 2 จำนวน 5,203 คน</tspan></text>
    <g id="Group_239" data-name="Group 239" transform="translate(-2420 -9480)">
      <line id="Line_93" data-name="Line 93" y2="848.996" transform="translate(3290.503 9480)" fill="none" stroke="#fdb913" stroke-miterlimit="10" stroke-width="3"/>
      <g id="Group_236" data-name="Group 236">
        <circle id="Ellipse_26" data-name="Ellipse 26" cx="95" cy="95" r="95" transform="translate(3195.503 9585)" fill="#fff" stroke="#fdb913" stroke-linecap="round" stroke-linejoin="round" stroke-width="3"/>
        <text id="_10_มี.ค._2563" data-name="10 มี.ค.
2563" transform="translate(3290.503 9672.109)" fill="#009444" font-size="45" font-family="IBMPlexSansThai-Bold, IBM Plex Sans Thai" font-weight="700"><tspan x="-74.903" y="0">10 มี.ค.</tspan><tspan x="-54" y="50">2563</tspan></text>
      </g>
      <g id="Group_237" data-name="Group 237">
        <circle id="Ellipse_27" data-name="Ellipse 27" cx="95" cy="95" r="95" transform="translate(3195.503 9909.44)" fill="#fff" stroke="#fdb913" stroke-linecap="round" stroke-linejoin="round" stroke-width="3"/>
        <text id="_22_ก.ย._2563" data-name="22 ก.ย.
2563" transform="translate(3290.503 9996.551)" fill="#009444" font-size="45" font-family="IBMPlexSansThai-Bold, IBM Plex Sans Thai" font-weight="700"><tspan x="-73.733" y="0">22 ก.ย.</tspan><tspan x="-54" y="50">2563</tspan></text>
      </g>
      <g id="Group_238" data-name="Group 238">
        <circle id="Ellipse_28" data-name="Ellipse 28" cx="95" cy="95" r="95" transform="translate(3195.503 10241.786)" fill="#fff" stroke="#fdb913" stroke-linecap="round" stroke-linejoin="round" stroke-width="3"/>
        <text id="_30_มี.ค._2564" data-name="30 มี.ค.
2564" transform="translate(3290.503 10328.896)" fill="#009444" font-size="45" font-family="IBMPlexSansThai-Bold, IBM Plex Sans Thai" font-weight="700"><tspan x="-74.903" y="0">30 มี.ค.</tspan><tspan x="-54" y="50">2564</tspan></text>
      </g>
    </g>
  </g>
</svg>
