<svg xmlns="http://www.w3.org/2000/svg" width="1056.098" height="544.956" viewBox="0 0 1056.098 544.956">
  <g id="Group_43" data-name="Group 43" transform="translate(-5272.347 -8154.321)">
    <g id="Group_41" data-name="Group 41">
      <text id="สิทธิหลักประกันสุขภาพแห่งชาติกับ_สิทธิการรับบริการด้านสาธารณสุข_ของผู้ที่มีปัญหาสถานะและสิทธิ_มีความแตกต่างกันอย่างไร" data-name="สิทธิหลักประกันสุขภาพแห่งชาติกับ
สิทธิการรับบริการด้านสาธารณสุข
ของผู้ที่มีปัญหาสถานะและสิทธิ
มีความแตกต่างกันอย่างไร" transform="translate(5968.347 8431.127)" font-size="50" font-family="IBMPlexSansThai, IBM Plex Sans Thai"><tspan x="-695.3" y="0">สิทธิหลักประกันสุขภาพแห่งชาติกับ</tspan><tspan x="-688.55" y="80">สิทธิการรับบริการด้านสาธารณสุข</tspan><tspan x="-611.75" y="160">ของผู้ที่มีปัญหาสถานะและสิทธิ</tspan><tspan x="-532.25" y="240">มีความแตกต่างกันอย่างไร</tspan></text>
      <text id="รู้หรือไม่" transform="translate(5968.347 8310.321)" fill="#002a28" font-size="140" font-family="IBMPlexSansThai-Bold, IBM Plex Sans Thai" font-weight="700"><tspan x="-458.08" y="0">รู้หรือไม่</tspan></text>
    </g>
    <g id="Group_42" data-name="Group 42">
      <path id="Path_34" data-name="Path 34" d="M6015.209,8400.026q-1.189-40.3,9.955-73.134t32.24-56.184a142.708,142.708,0,0,1,51.207-36.033q30.107-12.68,66.852-12.684,33.425,0,61.279,9.364t47.889,27.144a122.65,122.65,0,0,1,31.174,43.383q11.139,25.6,11.14,58.08,0,21.335-5.925,37.812a130.3,130.3,0,0,1-14.936,29.633,154.716,154.716,0,0,1-20.031,23.825q-11.025,10.667-21.217,20.149-8.775,8.3-17.307,15.646a124.078,124.078,0,0,0-15.291,15.646,72.794,72.794,0,0,0-10.9,18.372q-4.152,10.078-4.148,23.588v24.654H6129v-30.344q.713-20.385,6.875-36.152a131.56,131.56,0,0,1,15.172-28.447,155.229,155.229,0,0,1,19.914-23q10.9-10.311,21.1-20.031,7.347-7.112,15.41-15.646a163.155,163.155,0,0,0,14.814-18.135,94.894,94.894,0,0,0,10.905-20.269,51.327,51.327,0,0,0,3.439-22.047,82.917,82.917,0,0,0-5.572-23.824,53.081,53.081,0,0,0-12.209-18.373,54.312,54.312,0,0,0-18.729-11.735,69,69,0,0,0-24.652-4.147q-19.2,0-33.072,8.415a67.449,67.449,0,0,0-22.639,22.641,105.885,105.885,0,0,0-12.92,32.833,178.76,178.76,0,0,0-4.148,39Zm207.9,203.4v94.352H6123.072v-94.352Z" fill="none" stroke="#fff" stroke-linecap="round" stroke-linejoin="round" stroke-width="3"/>
    </g>
  </g>
</svg>
