<svg xmlns="http://www.w3.org/2000/svg" width="1673.568" height="513.288" viewBox="0 0 1673.568 513.288">
  <g id="Group_20" data-name="Group 20" transform="translate(-133.612 -337.636)">
    <g id="Group_1" data-name="Group 1">
      <path id="Path_1" data-name="Path 1" d="M1310.1,649.544c0,77.32-156.7,140-350,140s-350-62.68-350-140v-53h700Z" fill="none" stroke="#fff" stroke-miterlimit="10" stroke-width="4"/>
    </g>
    <g id="Group_3" data-name="Group 3">
      <g id="Group_2" data-name="Group 2">
        <path id="Path_2" data-name="Path 2" d="M959.892,596.839l334.6,40.845c-17.458,22.8-44.97,41.083-87.192,57.94Z" fill="#f7941e" stroke="#fff" stroke-miterlimit="10" stroke-width="4"/>
      </g>
    </g>
    <g id="Group_5" data-name="Group 5">
      <g id="Group_4" data-name="Group 4">
        <path id="Path_3" data-name="Path 3" d="M959.892,596.839l347.286-17.026c6.217,20.217,2.236,38.392-12.682,57.871Z" fill="#d7df23" stroke="#fff" stroke-miterlimit="10" stroke-width="4"/>
      </g>
    </g>
    <g id="Group_7" data-name="Group 7">
      <g id="Group_6" data-name="Group 6">
        <path id="Path_4" data-name="Path 4" d="M959.892,596.839,1189.441,491.4c66.943,23.234,106.926,53.259,117.737,88.411Z" fill="#39b54a" stroke="#fff" stroke-miterlimit="10" stroke-width="4"/>
      </g>
    </g>
    <g id="Group_9" data-name="Group 9">
      <g id="Group_8" data-name="Group 8">
        <path id="Path_5" data-name="Path 5" d="M959.892,596.839,1207.3,695.624c-136.644,54.558-358.181,54.558-494.824,0s-136.64-143.015,0-197.572c132-52.7,336.081-55.549,476.961-6.65Z" fill="#006838" stroke="#fff" stroke-miterlimit="10" stroke-width="4"/>
      </g>
    </g>
    <g id="Group_16" data-name="Group 16">
      <path id="Path_9" data-name="Path 9" d="M536.974,479.67h51.952l61.42,46.42" fill="none" stroke="#fff" stroke-linecap="round" stroke-linejoin="round" stroke-width="3" stroke-dasharray="5 10"/>
      <g id="Group_13" data-name="Group 13">
        <path id="Path_11" data-name="Path 11" d="M11.8,42V37.31H1.05V32.795L10.57,17.57H16.8V33.215h3.08v4.1H16.8V42ZM5.25,33.215H11.8V22.995h-.35Zm34.02-11.06H28.175L27.65,29.89h.28a10.655,10.655,0,0,1,.788-1.593,5.048,5.048,0,0,1,1.032-1.225,4.257,4.257,0,0,1,1.435-.787A6.332,6.332,0,0,1,33.18,26a8.12,8.12,0,0,1,2.94.525,6.877,6.877,0,0,1,2.38,1.522,7.222,7.222,0,0,1,1.61,2.45,8.564,8.564,0,0,1,.6,3.273,9.523,9.523,0,0,1-.613,3.447,7.454,7.454,0,0,1-1.82,2.748,8.463,8.463,0,0,1-2.957,1.8,11.449,11.449,0,0,1-3.99.647,11.641,11.641,0,0,1-3.15-.385A9.478,9.478,0,0,1,25.76,41a8.5,8.5,0,0,1-1.82-1.487,10.747,10.747,0,0,1-1.33-1.785l3.815-3.01a9.339,9.339,0,0,0,1.925,2.432,4.36,4.36,0,0,0,3.01,1,3.614,3.614,0,0,0,2.853-1.085,4.165,4.165,0,0,0,.963-2.87v-.28a3.594,3.594,0,0,0-.98-2.66,3.642,3.642,0,0,0-2.695-.98,4.4,4.4,0,0,0-2.362.578A6.322,6.322,0,0,0,27.72,31.99L23.415,31.4l.91-13.825H39.27Zm8.155,20.23A3.085,3.085,0,0,1,45.1,41.6a2.794,2.794,0,0,1-.752-2.013v-.7a2.794,2.794,0,0,1,.752-2.012,3.085,3.085,0,0,1,2.327-.788,3.085,3.085,0,0,1,2.328.788,2.794,2.794,0,0,1,.752,2.012v.7a2.794,2.794,0,0,1-.752,2.013A3.085,3.085,0,0,1,47.425,42.385ZM62.02,27.23a4.394,4.394,0,0,0,2.852-.752,2.352,2.352,0,0,0,.893-1.873V24.36a2.79,2.79,0,0,0-.857-2.135,3.419,3.419,0,0,0-2.433-.805,5.414,5.414,0,0,0-2.765.753A6.57,6.57,0,0,0,57.5,24.325l-3.29-3.08a13.721,13.721,0,0,1,1.5-1.662,8.554,8.554,0,0,1,1.82-1.3,9.376,9.376,0,0,1,2.275-.84,12.37,12.37,0,0,1,2.835-.3A12.918,12.918,0,0,1,66.2,17.6a8.252,8.252,0,0,1,2.73,1.313,5.972,5.972,0,0,1,1.75,2.048,6.126,6.126,0,0,1,.245,4.76,5.136,5.136,0,0,1-1.015,1.645,5.428,5.428,0,0,1-1.487,1.138,6.342,6.342,0,0,1-1.785.612v.21a7.583,7.583,0,0,1,2.012.683,5.716,5.716,0,0,1,1.61,1.208,5.343,5.343,0,0,1,1.068,1.733,6.232,6.232,0,0,1,.385,2.257,6.4,6.4,0,0,1-2.555,5.25,8.889,8.889,0,0,1-2.94,1.452,13.285,13.285,0,0,1-3.78.507,12.737,12.737,0,0,1-3.29-.385A9.6,9.6,0,0,1,56.647,41a8.726,8.726,0,0,1-1.855-1.487A11.8,11.8,0,0,1,53.41,37.73l3.885-3.01a8.057,8.057,0,0,0,1.978,2.467,4.843,4.843,0,0,0,3.167.963,4.027,4.027,0,0,0,2.782-.893,3.1,3.1,0,0,0,1-2.432v-.21a2.526,2.526,0,0,0-1.138-2.257A5.629,5.629,0,0,0,61.95,31.6h-2.2V27.23Zm30.1-5.075H81.025L80.5,29.89h.28a10.655,10.655,0,0,1,.787-1.593A5.048,5.048,0,0,1,82.6,27.072a4.257,4.257,0,0,1,1.435-.787,6.332,6.332,0,0,1,2-.28,8.12,8.12,0,0,1,2.94.525,6.877,6.877,0,0,1,2.38,1.522,7.222,7.222,0,0,1,1.61,2.45,8.564,8.564,0,0,1,.6,3.273,9.523,9.523,0,0,1-.613,3.447,7.454,7.454,0,0,1-1.82,2.748,8.463,8.463,0,0,1-2.957,1.8,11.449,11.449,0,0,1-3.99.647,11.641,11.641,0,0,1-3.15-.385A9.478,9.478,0,0,1,78.61,41a8.5,8.5,0,0,1-1.82-1.487,10.747,10.747,0,0,1-1.33-1.785l3.815-3.01A9.339,9.339,0,0,0,81.2,37.153a4.36,4.36,0,0,0,3.01,1,3.614,3.614,0,0,0,2.853-1.085,4.165,4.165,0,0,0,.963-2.87v-.28a3.594,3.594,0,0,0-.98-2.66,3.642,3.642,0,0,0-2.695-.98,4.4,4.4,0,0,0-2.362.578A6.322,6.322,0,0,0,80.57,31.99L76.265,31.4l.91-13.825H92.12ZM110.95,42.35a6.76,6.76,0,0,1-4.462-1.382,5.305,5.305,0,0,1-1.663-4.322A5.58,5.58,0,0,1,106.4,32.41a6.334,6.334,0,0,1,4.55-1.505h5.775V29.89a3.625,3.625,0,0,0-.927-2.677,4.161,4.161,0,0,0-3.027-.927,5.655,5.655,0,0,0-3.185.892,6.153,6.153,0,0,0-1.12.91,8.333,8.333,0,0,0-.875,1.067l-3.29-2.87a9.739,9.739,0,0,1,3.36-2.993,11.476,11.476,0,0,1,5.46-1.1q4.375,0,6.58,1.908a7.024,7.024,0,0,1,2.2,5.618V42h-5.18V34.195h-3.92q-2.73,0-2.73,2.24v.6a2.557,2.557,0,0,0,.56,1.733,2.056,2.056,0,0,0,1.645.647h.42a1.321,1.321,0,0,0,.42-.07l.35,2.765a2.471,2.471,0,0,1-.473.123,5.3,5.3,0,0,1-.665.07l-.735.035Q111.23,42.35,110.95,42.35Zm5.425-26.495h2.205v-1.19a1.179,1.179,0,0,0-.262-.858,1.554,1.554,0,0,0-1.068-.262h-.875V9.975h2.9a4.173,4.173,0,0,1,2.66.753,2.477,2.477,0,0,1,.945,2.047,2.728,2.728,0,0,1-.543,1.628,3.576,3.576,0,0,1-1.487,1.172v.28h6.51v3.57h-10.99Zm18.165,13.3a3.053,3.053,0,0,0-.683-2.1,2.885,2.885,0,0,0-2.257-.77,3.92,3.92,0,0,0-2.38.647,6.579,6.579,0,0,0-1.47,1.488l-3.08-2.73a8.132,8.132,0,0,1,2.782-2.572,9.339,9.339,0,0,1,4.533-.928A8.536,8.536,0,0,1,137.76,23.9a6.294,6.294,0,0,1,1.96,5.005V42h-5.18ZM150.255,42.42a5.464,5.464,0,0,1-4.568-1.977,8.957,8.957,0,0,1-1.557-5.653V22.61h5.18V34.335a8.138,8.138,0,0,0,.14,1.558,3.216,3.216,0,0,0,.49,1.225,2.429,2.429,0,0,0,.962.805,3.472,3.472,0,0,0,1.523.3,4.467,4.467,0,0,0,1.277-.193,3.378,3.378,0,0,0,1.137-.577,3.154,3.154,0,0,0,.805-.945,2.6,2.6,0,0,0,.315-1.3V22.61h5.18V37.975h1.715V42H159.74q-3.15,0-3.255-3.6h-.245a6.85,6.85,0,0,1-.753,1.522,5.352,5.352,0,0,1-1.19,1.278,5.679,5.679,0,0,1-1.715.893A7.368,7.368,0,0,1,150.255,42.42Zm15.96-12a8.316,8.316,0,0,1,.665-3.4,7.431,7.431,0,0,1,1.89-2.59,8.366,8.366,0,0,1,2.993-1.663,13.952,13.952,0,0,1,7.945,0A8.366,8.366,0,0,1,182.7,24.43a7.431,7.431,0,0,1,1.89,2.59,8.316,8.316,0,0,1,.665,3.4V42h-5.18V30.66a4.349,4.349,0,1,0-8.68,0v4.165h.175a5.708,5.708,0,0,1,.49-1.487,4.539,4.539,0,0,1,.927-1.278,4.342,4.342,0,0,1,1.383-.892,4.929,4.929,0,0,1,1.89-.333h.91v4.83h-1.295a7.378,7.378,0,0,0-3.378.595,2.278,2.278,0,0,0-1.1,2.205V42h-5.18Zm29.575,12a5.464,5.464,0,0,1-4.568-1.977,8.957,8.957,0,0,1-1.557-5.653V22.61h5.18V34.335a8.138,8.138,0,0,0,.14,1.558,3.216,3.216,0,0,0,.49,1.225,2.429,2.429,0,0,0,.962.805,3.472,3.472,0,0,0,1.523.3,4.467,4.467,0,0,0,1.277-.193,3.378,3.378,0,0,0,1.137-.577,3.154,3.154,0,0,0,.805-.945,2.6,2.6,0,0,0,.315-1.3V22.61h5.18V37.975h1.715V42h-3.115q-3.15,0-3.255-3.6h-.245a6.85,6.85,0,0,1-.753,1.522,5.352,5.352,0,0,1-1.19,1.278,5.679,5.679,0,0,1-1.715.893A7.368,7.368,0,0,1,195.79,42.42Z" transform="translate(132.562 488.765)" fill="#fdb913"/>
        <path id="Path_10" data-name="Path 10" d="M2.975-19.11h2.8v6.125l5.215-.77a6.733,6.733,0,0,0,2.52-.858,2.724,2.724,0,0,0,1.155-2.153l.28-2.345h2.94l-.28,2.415A4.034,4.034,0,0,1,16.38-14.07a4.894,4.894,0,0,1-2.695,1.225v.175q3.465.945,3.885,5.355L18.27,0H15.33l-.665-7.49a7.366,7.366,0,0,0-.385-1.645,3.431,3.431,0,0,0-.84-1.313,3.156,3.156,0,0,0-1.417-.77A5.285,5.285,0,0,0,9.94-11.27l-4.165.6V0h-2.8ZM29.225.35A6.971,6.971,0,0,1,24.6-1.085,5.123,5.123,0,0,1,22.89-5.25a5.065,5.065,0,0,1,1.7-4.1,6.957,6.957,0,0,1,4.637-1.435h6.09V-12.6q0-4.515-4.935-4.515a6.687,6.687,0,0,0-3.518.858A6.553,6.553,0,0,0,24.57-13.9L22.785-15.47a7.607,7.607,0,0,1,2.8-2.887A9.252,9.252,0,0,1,30.52-19.53a8.046,8.046,0,0,1,5.618,1.8,6.409,6.409,0,0,1,1.977,4.988V0h-2.8V-8.785h-5.46a4.736,4.736,0,0,0-2.94.805A2.7,2.7,0,0,0,25.865-5.7v.8a2.979,2.979,0,0,0,.962,2.4,3.881,3.881,0,0,0,2.608.822,8.066,8.066,0,0,0,.822-.035q.332-.035.542-.07L31.045.14A2.5,2.5,0,0,1,30.257.3Q29.68.35,29.225.35Zm8.75-23.205a3.065,3.065,0,0,1-2.31-.77,2.818,2.818,0,0,1-.735-2.03v-2.17h2.8v2.555h8.925v2.415ZM45.6-10.92,42.63-12.18a7.562,7.562,0,0,1,.787-2.958,7.661,7.661,0,0,1,1.8-2.327,8.164,8.164,0,0,1,2.607-1.523,9.381,9.381,0,0,1,3.238-.542,8.791,8.791,0,0,1,6.265,2.047,7.262,7.262,0,0,1,2.17,5.548V0H56.7V-11.585a5.334,5.334,0,0,0-1.522-4.13,5.688,5.688,0,0,0-4.007-1.4,7.752,7.752,0,0,0-2.048.263,6.625,6.625,0,0,0-1.733.735,5.274,5.274,0,0,0-1.33,1.155,4.256,4.256,0,0,0-.805,1.523l1.75.7a2.352,2.352,0,0,1,1.068.717,1.954,1.954,0,0,1,.333,1.208V0H45.6ZM73.08.42a8.178,8.178,0,0,1-5.845-2.013A7.21,7.21,0,0,1,65.1-7.105V-19.11h2.8V-7.385a5.427,5.427,0,0,0,1.382,4.008A5.132,5.132,0,0,0,73.08-2a5.132,5.132,0,0,0,3.8-1.382A5.427,5.427,0,0,0,78.26-7.385V-25.27h2.8V-7.105a7.21,7.21,0,0,1-2.135,5.513A8.178,8.178,0,0,1,73.08.42Zm20.3,0A9.774,9.774,0,0,1,88.9-.525a8.753,8.753,0,0,1-3.115-2.66L87.78-4.8a6.786,6.786,0,0,0,2.5,2.153,7.544,7.544,0,0,0,3.308.683,5.384,5.384,0,0,0,3.2-.805,2.759,2.759,0,0,0,1.1-2.38,2.626,2.626,0,0,0-.858-2.083A5.352,5.352,0,0,0,94.29-8.26l-1.645-.245a17.7,17.7,0,0,1-2.205-.49,7.117,7.117,0,0,1-1.978-.91,4.446,4.446,0,0,1-1.435-1.575,5.008,5.008,0,0,1-.543-2.45,5.485,5.485,0,0,1,.507-2.415,4.753,4.753,0,0,1,1.435-1.75,6.712,6.712,0,0,1,2.188-1.067,9.714,9.714,0,0,1,2.73-.368,9.314,9.314,0,0,1,4.147.823,8.527,8.527,0,0,1,2.783,2.153l-1.785,1.68a6.834,6.834,0,0,0-2.065-1.593,6.685,6.685,0,0,0-3.15-.682,4.867,4.867,0,0,0-3.01.8,2.663,2.663,0,0,0-1.05,2.24,2.349,2.349,0,0,0,1.015,2.17,7.58,7.58,0,0,0,2.8.91l1.645.245a16.214,16.214,0,0,1,2.38.56,5.828,5.828,0,0,1,1.873.98,4.511,4.511,0,0,1,1.242,1.557,5.09,5.09,0,0,1,.455,2.258,5.2,5.2,0,0,1-1.942,4.288A8.247,8.247,0,0,1,93.38.42ZM108.465-3.5a3.065,3.065,0,0,1-2.31-.77,2.818,2.818,0,0,1-.735-2.03V-7.805h2.8v1.89h6.055V-3.5Zm0-9a3.065,3.065,0,0,1-2.31-.77,2.818,2.818,0,0,1-.735-2.03V-16.8h2.8v1.89h6.055V-12.5Zm13.3,1.575-2.975-1.26a7.562,7.562,0,0,1,.788-2.958,7.661,7.661,0,0,1,1.8-2.327,8.164,8.164,0,0,1,2.607-1.523,9.381,9.381,0,0,1,3.238-.542,8.791,8.791,0,0,1,6.265,2.047,7.262,7.262,0,0,1,2.17,5.548V0h-2.8V-11.585a5.334,5.334,0,0,0-1.522-4.13,5.688,5.688,0,0,0-4.008-1.4,7.752,7.752,0,0,0-2.048.263,6.625,6.625,0,0,0-1.732.735,5.274,5.274,0,0,0-1.33,1.155,4.256,4.256,0,0,0-.8,1.523l1.75.7a2.352,2.352,0,0,1,1.067.717,1.954,1.954,0,0,1,.332,1.208V0h-2.8ZM135.52-22.855a3.065,3.065,0,0,1-2.31-.77,2.818,2.818,0,0,1-.735-2.03v-2.17h2.8v2.555H144.2v2.415ZM147.735.42a6.046,6.046,0,0,1-4.76-1.925A7.881,7.881,0,0,1,141.26-6.93V-19.11h2.8V-7.28q0,5.32,4.55,5.32a6.464,6.464,0,0,0,1.75-.245,4.709,4.709,0,0,0,1.54-.735,3.915,3.915,0,0,0,1.085-1.225,3.4,3.4,0,0,0,.42-1.715V-19.11h2.8V-2.485h2.24V0H156.38a2.422,2.422,0,0,1-2.048-.84,3.937,3.937,0,0,1-.753-2.135h-.14a4.57,4.57,0,0,1-2.082,2.5A7.038,7.038,0,0,1,147.735.42Zm20.51-.07a6.971,6.971,0,0,1-4.62-1.435A5.123,5.123,0,0,1,161.91-5.25a5.065,5.065,0,0,1,1.7-4.1,6.957,6.957,0,0,1,4.637-1.435h6.09V-12.6q0-4.515-4.935-4.515a6.687,6.687,0,0,0-3.518.858A6.553,6.553,0,0,0,163.59-13.9l-1.785-1.575a7.607,7.607,0,0,1,2.8-2.887,9.252,9.252,0,0,1,4.935-1.173,8.5,8.5,0,0,1,4.865,1.26,1.754,1.754,0,0,1,1.96-1.82h4.655v2.59h-5.635a6.432,6.432,0,0,1,1.75,4.76V0h-2.8V-8.785h-5.46a4.736,4.736,0,0,0-2.94.805,2.7,2.7,0,0,0-1.05,2.275v.8a2.979,2.979,0,0,0,.963,2.4,3.881,3.881,0,0,0,2.607.822,8.066,8.066,0,0,0,.822-.035q.332-.035.542-.07L170.065.14a2.5,2.5,0,0,1-.788.158Q168.7.35,168.245.35ZM178.465,6.2h-2.31V3.955h2.975a1.887,1.887,0,0,1,1.522.56,2.258,2.258,0,0,1,.473,1.5v6.02h-2.66ZM190.96.42A9.746,9.746,0,0,1,188.02,0a6.346,6.346,0,0,1-2.293-1.258A5.557,5.557,0,0,1,184.24-3.37a7.806,7.806,0,0,1-.525-2.986,9.216,9.216,0,0,1,.158-1.8,7.956,7.956,0,0,1,.42-1.432,7.787,7.787,0,0,1,.613-1.205,11.425,11.425,0,0,1,.77-1.083,15.09,15.09,0,0,0,1.225-1.886,3.988,3.988,0,0,0,.49-1.921v-.943H183.4V-19.11h4.1a2.678,2.678,0,0,1,1.978.682,2.437,2.437,0,0,1,.682,1.8v.315a5.686,5.686,0,0,1-.473,2.328,19.763,19.763,0,0,1-1.382,2.5,12.046,12.046,0,0,0-1.19,2.222,6.026,6.026,0,0,0-.385,2.188v1.085a3.751,3.751,0,0,0,1.137,3.027A4.531,4.531,0,0,0,190.89-2a4,4,0,0,0,3.15-1.26,5.2,5.2,0,0,0,1.12-3.57V-19.11h2.8v12.6a7.026,7.026,0,0,1-1.785,5.058A6.87,6.87,0,0,1,190.96.42Zm12.39-2.905h2.24V-10.92l-2.975-1.26a7.563,7.563,0,0,1,.788-2.958,7.794,7.794,0,0,1,1.785-2.327,7.955,7.955,0,0,1,2.59-1.523,9.381,9.381,0,0,1,3.238-.542,8.491,8.491,0,0,1,6.143,2.047,7.358,7.358,0,0,1,2.117,5.548V0h-2.8V-11.585a5.4,5.4,0,0,0-1.488-4.13,5.462,5.462,0,0,0-3.9-1.4,7.076,7.076,0,0,0-3.745.977,4.525,4.525,0,0,0-2.1,2.687l1.715.7a2.669,2.669,0,0,1,1.1.736,1.879,1.879,0,0,1,.333,1.191v7.883a3.049,3.049,0,0,1-.735,2.137A2.838,2.838,0,0,1,205.45,0h-2.1Zm29.68-10.64q0-4.025-4.165-4.025a4.744,4.744,0,0,0-2.747.735,6.219,6.219,0,0,0-1.8,1.96L222.6-15.96a6.773,6.773,0,0,1,2.363-2.555,7.357,7.357,0,0,1,4.077-1.015,7.185,7.185,0,0,1,5.04,1.61,5.873,5.873,0,0,1,1.75,4.55V0h-2.8Zm7.42-5.985h2.765l1.26,9.03.63,7.035h.14l1.785-7.035,2.59-9.03h2.52l2.625,9.03,1.75,7.035h.175l.63-7.035,1.225-9.03h2.8L258.545,0H255.36l-3.08-10.605-1.365-5.355h-.1l-1.365,5.355L246.365,0H243.25ZM270.865,0a2.946,2.946,0,0,1-2.258-.805,3,3,0,0,1-.753-2.135v-7.98l-2.975-1.26a7.563,7.563,0,0,1,.788-2.958,7.661,7.661,0,0,1,1.8-2.327,8.124,8.124,0,0,1,2.625-1.523,9.53,9.53,0,0,1,3.255-.542q4.13,0,6.318,2.047a7.232,7.232,0,0,1,2.188,5.548V0h-2.8V-11.585a5.3,5.3,0,0,0-1.54-4.13,5.8,5.8,0,0,0-4.06-1.4,7.775,7.775,0,0,0-2.048.262,6.931,6.931,0,0,0-1.75.733,5.157,5.157,0,0,0-1.348,1.151,4.238,4.238,0,0,0-.8,1.518l1.715.7a2.667,2.667,0,0,1,1.1.734,1.87,1.87,0,0,1,.332,1.188v8.348h2.24V0Zm8.295-25.27h2.66v-1.3a1.675,1.675,0,0,0-.4-1.277,1.981,1.981,0,0,0-1.348-.368h-.91v-2.1h1.96a3.606,3.606,0,0,1,2.4.7,2.315,2.315,0,0,1,.823,1.855,3.245,3.245,0,0,1-.315,1.33,1.982,1.982,0,0,1-.98,1.015v.14h6.125v2.1H279.16ZM293.3.42a10.245,10.245,0,0,1-2.625-.333,7.38,7.38,0,0,1-2.17-.928l1.05-2.065A6.98,6.98,0,0,0,293.23-2a4.564,4.564,0,0,0,3.745-1.628,6.912,6.912,0,0,0,1.33-4.5v-2.87a7.125,7.125,0,0,0-1.277-4.48,4.512,4.512,0,0,0-3.8-1.645,5.661,5.661,0,0,0-3.115.788,5.172,5.172,0,0,0-1.89,2.188L285.95-15.3a7.179,7.179,0,0,1,2.695-3.062A8.451,8.451,0,0,1,293.3-19.53a7.091,7.091,0,0,1,5.967,2.642,11.708,11.708,0,0,1,2.048,7.333,11.5,11.5,0,0,1-2.1,7.333A7.123,7.123,0,0,1,293.3.42Zm19.39,0A6.046,6.046,0,0,1,307.93-1.5a7.881,7.881,0,0,1-1.715-5.425V-19.11h2.8V-7.28q0,5.32,4.55,5.32a6.464,6.464,0,0,0,1.75-.245,4.709,4.709,0,0,0,1.54-.735,3.915,3.915,0,0,0,1.085-1.225,3.4,3.4,0,0,0,.42-1.715V-19.11h2.8V-2.485h2.24V0h-2.065a2.422,2.422,0,0,1-2.048-.84,3.937,3.937,0,0,1-.753-2.135h-.14a4.57,4.57,0,0,1-2.083,2.5A7.038,7.038,0,0,1,312.69.42ZM327.6-19.11h2.8v6.125l5.215-.77a6.733,6.733,0,0,0,2.52-.858,2.724,2.724,0,0,0,1.155-2.153l.28-2.345h2.94l-.28,2.415a4.035,4.035,0,0,1-1.225,2.625,4.894,4.894,0,0,1-2.7,1.225v.175q3.465.945,3.885,5.355l.7,7.315h-2.94l-.665-7.49a7.366,7.366,0,0,0-.385-1.645,3.431,3.431,0,0,0-.84-1.313,3.155,3.155,0,0,0-1.418-.77,5.285,5.285,0,0,0-2.082-.052l-4.165.6V0h-2.8ZM354.55.42A6.046,6.046,0,0,1,349.79-1.5a7.881,7.881,0,0,1-1.715-5.425V-19.11h2.8V-7.28q0,5.32,4.55,5.32a6.464,6.464,0,0,0,1.75-.245,4.709,4.709,0,0,0,1.54-.735A3.915,3.915,0,0,0,359.8-4.165a3.4,3.4,0,0,0,.42-1.715V-19.11h2.8V-2.485h2.24V0H363.2a2.422,2.422,0,0,1-2.048-.84,3.937,3.937,0,0,1-.753-2.135h-.14a4.57,4.57,0,0,1-2.083,2.5A7.038,7.038,0,0,1,354.55.42Zm5.775-25.69h2.66v-1.3a1.675,1.675,0,0,0-.4-1.277,1.981,1.981,0,0,0-1.348-.368h-.91v-2.1h1.96a3.606,3.606,0,0,1,2.4.7,2.315,2.315,0,0,1,.823,1.855,3.245,3.245,0,0,1-.315,1.33,1.982,1.982,0,0,1-.98,1.015v.14h6.125v2.1h-10.01Zm16.8,12.145q0-4.025-4.165-4.025a4.744,4.744,0,0,0-2.748.735,6.219,6.219,0,0,0-1.8,1.96L366.7-15.96a6.773,6.773,0,0,1,2.362-2.555,7.357,7.357,0,0,1,4.078-1.015,7.185,7.185,0,0,1,5.04,1.61,5.873,5.873,0,0,1,1.75,4.55V0h-2.8Z" transform="translate(132.562 488.765)" fill="#fff"/>
      </g>
    </g>
    <g id="Group_17" data-name="Group 17">
      <path id="Path_6" data-name="Path 6" d="M1410.65,357.366H1358.7l-92.676,167.642" fill="none" stroke="#fff" stroke-linecap="round" stroke-linejoin="round" stroke-width="3" stroke-dasharray="5 10"/>
      <g id="Group_14" data-name="Group 14">
        <path id="Path_13" data-name="Path 13" d="M5.81,42,14,21.84H6.37v4.445H1.925V17.57h17.29v4.55L11.34,42Zm20.615.385A3.085,3.085,0,0,1,24.1,41.6a2.794,2.794,0,0,1-.753-2.013v-.7a2.794,2.794,0,0,1,.753-2.012,3.085,3.085,0,0,1,2.327-.788,3.085,3.085,0,0,1,2.328.788,2.794,2.794,0,0,1,.753,2.012v.7a2.794,2.794,0,0,1-.753,2.013A3.085,3.085,0,0,1,26.425,42.385Zm15.925.035q-4.8,0-7.1-3.325t-2.31-9.31q0-5.985,2.31-9.31t7.1-3.325q4.8,0,7.105,3.325t2.31,9.31q0,5.985-2.31,9.31T42.35,42.42Zm0-4.445a2.984,2.984,0,0,0,2.905-1.54,9.524,9.524,0,0,0,.805-4.34v-4.62a9.524,9.524,0,0,0-.805-4.34,2.984,2.984,0,0,0-2.905-1.54,2.984,2.984,0,0,0-2.9,1.54,9.524,9.524,0,0,0-.805,4.34V32.1a9.524,9.524,0,0,0,.805,4.34A2.984,2.984,0,0,0,42.35,37.975ZM72.135,42H54.845V37.2l7.525-6.44q1.015-.875,1.715-1.592a8.953,8.953,0,0,0,1.137-1.4,4.847,4.847,0,0,0,.823-2.782V24.5a2.565,2.565,0,0,0-.28-1.225,2.679,2.679,0,0,0-.735-.875A3.2,3.2,0,0,0,64,21.875a4.022,4.022,0,0,0-1.172-.175,3.813,3.813,0,0,0-1.523.28,3.568,3.568,0,0,0-1.12.752,4.312,4.312,0,0,0-.788,1.085,6.086,6.086,0,0,0-.49,1.313L54.32,23.38a10.551,10.551,0,0,1,1.155-2.4,8.053,8.053,0,0,1,1.838-1.995A8.48,8.48,0,0,1,59.92,17.64a10.94,10.94,0,0,1,3.4-.49,10.312,10.312,0,0,1,3.535.56,7.686,7.686,0,0,1,2.608,1.54,6.516,6.516,0,0,1,1.627,2.328,8,8,0,0,1,.035,5.792A10.036,10.036,0,0,1,69.7,29.8a15.032,15.032,0,0,1-2.083,2.153q-1.19,1.015-2.485,2.065l-4.55,3.57h11.55Zm17.815.35a6.76,6.76,0,0,1-4.462-1.382,5.305,5.305,0,0,1-1.663-4.322A5.58,5.58,0,0,1,85.4,32.41,6.334,6.334,0,0,1,89.95,30.9h5.775V29.89a3.625,3.625,0,0,0-.927-2.677,4.161,4.161,0,0,0-3.027-.927,5.655,5.655,0,0,0-3.185.892,6.153,6.153,0,0,0-1.12.91,8.333,8.333,0,0,0-.875,1.067l-3.29-2.87a9.739,9.739,0,0,1,3.36-2.993,11.476,11.476,0,0,1,5.46-1.1q4.375,0,6.58,1.908a7.024,7.024,0,0,1,2.2,5.618V42h-5.18V34.195h-3.92q-2.73,0-2.73,2.24v.6a2.557,2.557,0,0,0,.56,1.733,2.056,2.056,0,0,0,1.645.647h.42a1.321,1.321,0,0,0,.42-.07l.35,2.765a2.471,2.471,0,0,1-.473.123,5.3,5.3,0,0,1-.665.07l-.735.035Q90.23,42.35,89.95,42.35Zm5.425-26.495H97.58v-1.19a1.179,1.179,0,0,0-.262-.858,1.554,1.554,0,0,0-1.068-.262h-.875V9.975h2.9a4.173,4.173,0,0,1,2.66.753,2.477,2.477,0,0,1,.945,2.047,2.728,2.728,0,0,1-.543,1.628,3.576,3.576,0,0,1-1.487,1.172v.28h6.51v3.57H95.375Zm18.165,13.3a3.053,3.053,0,0,0-.682-2.1,2.885,2.885,0,0,0-2.257-.77,3.92,3.92,0,0,0-2.38.647,6.578,6.578,0,0,0-1.47,1.488l-3.08-2.73a8.132,8.132,0,0,1,2.782-2.572,9.339,9.339,0,0,1,4.533-.928A8.536,8.536,0,0,1,116.76,23.9a6.294,6.294,0,0,1,1.96,5.005V42h-5.18ZM129.255,42.42a5.464,5.464,0,0,1-4.568-1.977,8.957,8.957,0,0,1-1.557-5.653V22.61h5.18V34.335a8.138,8.138,0,0,0,.14,1.558,3.216,3.216,0,0,0,.49,1.225,2.429,2.429,0,0,0,.962.805,3.472,3.472,0,0,0,1.523.3,4.467,4.467,0,0,0,1.277-.193,3.378,3.378,0,0,0,1.137-.577,3.154,3.154,0,0,0,.805-.945,2.6,2.6,0,0,0,.315-1.3V22.61h5.18V37.975h1.715V42H138.74q-3.15,0-3.255-3.6h-.245a6.85,6.85,0,0,1-.753,1.522,5.352,5.352,0,0,1-1.19,1.278,5.679,5.679,0,0,1-1.715.893A7.368,7.368,0,0,1,129.255,42.42Zm15.96-12a8.316,8.316,0,0,1,.665-3.4,7.431,7.431,0,0,1,1.89-2.59,8.366,8.366,0,0,1,2.993-1.663,13.952,13.952,0,0,1,7.945,0A8.366,8.366,0,0,1,161.7,24.43a7.431,7.431,0,0,1,1.89,2.59,8.316,8.316,0,0,1,.665,3.4V42h-5.18V30.66a4.349,4.349,0,1,0-8.68,0v4.165h.175a5.708,5.708,0,0,1,.49-1.487,4.539,4.539,0,0,1,.927-1.278,4.342,4.342,0,0,1,1.383-.892,4.929,4.929,0,0,1,1.89-.333h.91v4.83h-1.295a7.378,7.378,0,0,0-3.378.595,2.278,2.278,0,0,0-1.1,2.205V42h-5.18Zm29.575,12a5.464,5.464,0,0,1-4.568-1.977,8.957,8.957,0,0,1-1.557-5.653V22.61h5.18V34.335a8.138,8.138,0,0,0,.14,1.558,3.216,3.216,0,0,0,.49,1.225,2.429,2.429,0,0,0,.962.805,3.472,3.472,0,0,0,1.523.3,4.467,4.467,0,0,0,1.277-.193,3.378,3.378,0,0,0,1.137-.577,3.154,3.154,0,0,0,.805-.945,2.6,2.6,0,0,0,.315-1.3V22.61h5.18V37.975h1.715V42h-3.115q-3.15,0-3.255-3.6h-.245a6.85,6.85,0,0,1-.753,1.522,5.352,5.352,0,0,1-1.19,1.278,5.679,5.679,0,0,1-1.715.893A7.368,7.368,0,0,1,174.79,42.42Z" transform="translate(1430.649 365.461)" fill="#fdb913"/>
        <path id="Path_12" data-name="Path 12" d="M8.575.35a6.971,6.971,0,0,1-4.62-1.435A5.123,5.123,0,0,1,2.24-5.25a5.065,5.065,0,0,1,1.7-4.1A6.957,6.957,0,0,1,8.575-10.78h6.09V-12.6q0-4.515-4.935-4.515a6.687,6.687,0,0,0-3.517.858A6.553,6.553,0,0,0,3.92-13.9L2.135-15.47a7.607,7.607,0,0,1,2.8-2.887A9.252,9.252,0,0,1,9.87-19.53a8.5,8.5,0,0,1,4.865,1.26,1.754,1.754,0,0,1,1.96-1.82H21.35v2.59H15.715a6.432,6.432,0,0,1,1.75,4.76V0h-2.8V-8.785H9.2a4.736,4.736,0,0,0-2.94.805A2.7,2.7,0,0,0,5.215-5.7v.8a2.979,2.979,0,0,0,.963,2.4,3.881,3.881,0,0,0,2.608.822,8.066,8.066,0,0,0,.822-.035q.332-.035.543-.07L10.4.14A2.5,2.5,0,0,1,9.608.3Q9.03.35,8.575.35ZM30.1.42A10.246,10.246,0,0,1,27.475.088a7.38,7.38,0,0,1-2.17-.928l1.05-2.065A6.98,6.98,0,0,0,30.03-2a4.564,4.564,0,0,0,3.745-1.628,6.912,6.912,0,0,0,1.33-4.5v-2.87a7.125,7.125,0,0,0-1.278-4.48,4.512,4.512,0,0,0-3.8-1.645,5.661,5.661,0,0,0-3.115.788,5.172,5.172,0,0,0-1.89,2.188L22.75-15.3a7.178,7.178,0,0,1,2.695-3.062A8.451,8.451,0,0,1,30.1-19.53a7.091,7.091,0,0,1,5.968,2.642,11.708,11.708,0,0,1,2.047,7.333,11.5,11.5,0,0,1-2.1,7.333A7.123,7.123,0,0,1,30.1.42Zm7.175-23.275a3.065,3.065,0,0,1-2.31-.77,2.818,2.818,0,0,1-.735-2.03v-2.17h2.8v2.555h8.925v2.415ZM48.79.35a6.971,6.971,0,0,1-4.62-1.435A5.123,5.123,0,0,1,42.455-5.25a5.065,5.065,0,0,1,1.7-4.1A6.957,6.957,0,0,1,48.79-10.78h6.09V-12.6q0-4.515-4.935-4.515a6.687,6.687,0,0,0-3.517.858A6.553,6.553,0,0,0,44.135-13.9L42.35-15.47a7.607,7.607,0,0,1,2.8-2.887,9.252,9.252,0,0,1,4.935-1.173,8.5,8.5,0,0,1,4.865,1.26,1.754,1.754,0,0,1,1.96-1.82h4.655v2.59H55.93a6.432,6.432,0,0,1,1.75,4.76V0h-2.8V-8.785H49.42a4.736,4.736,0,0,0-2.94.805A2.7,2.7,0,0,0,45.43-5.7v.8a2.979,2.979,0,0,0,.963,2.4A3.881,3.881,0,0,0,49-1.68a8.066,8.066,0,0,0,.823-.035q.332-.035.542-.07L50.61.14A2.5,2.5,0,0,1,49.823.3Q49.245.35,48.79.35ZM71.96.42a8.25,8.25,0,0,1-3.482-.7A7.151,7.151,0,0,1,65.9-2.258,8.721,8.721,0,0,1,64.313-5.39a14.826,14.826,0,0,1-.543-4.165,12.67,12.67,0,0,1,.63-4.1,8.879,8.879,0,0,1,1.8-3.15,8.066,8.066,0,0,1,2.853-2.012,9.536,9.536,0,0,1,3.78-.718,10.128,10.128,0,0,1,3.448.56,7.6,7.6,0,0,1,2.66,1.593,6.985,6.985,0,0,1,1.7,2.485,8.467,8.467,0,0,1,.6,3.238V0h-2.8V-11.27a5.859,5.859,0,0,0-1.522-4.305,5.615,5.615,0,0,0-4.183-1.54,5.673,5.673,0,0,0-4.375,1.7,6.5,6.5,0,0,0-1.575,4.6V-8.3a6.951,6.951,0,0,0,1.4,4.69A5.4,5.4,0,0,0,72.485-2q.385,0,.787-.017a4.127,4.127,0,0,0,.823-.123L74.445.21A4.9,4.9,0,0,1,73.185.4Q72.52.42,71.96.42ZM69.755-25.27h14.28v2.415H69.755Zm18.97,14.35L85.75-12.18a7.562,7.562,0,0,1,.788-2.958,7.661,7.661,0,0,1,1.8-2.327,8.164,8.164,0,0,1,2.607-1.523,9.381,9.381,0,0,1,3.238-.542,8.791,8.791,0,0,1,6.265,2.047,7.262,7.262,0,0,1,2.17,5.548V0h-2.8V-11.585a5.334,5.334,0,0,0-1.522-4.13,5.688,5.688,0,0,0-4.008-1.4,7.752,7.752,0,0,0-2.048.263,6.625,6.625,0,0,0-1.732.735,5.274,5.274,0,0,0-1.33,1.155,4.256,4.256,0,0,0-.8,1.523l1.75.7a2.352,2.352,0,0,1,1.067.717,1.954,1.954,0,0,1,.332,1.208V0h-2.8Zm27.65-2.205q0-4.025-4.165-4.025a4.744,4.744,0,0,0-2.747.735,6.219,6.219,0,0,0-1.8,1.96l-1.715-1.505a6.773,6.773,0,0,1,2.363-2.555,7.357,7.357,0,0,1,4.077-1.015,7.185,7.185,0,0,1,5.04,1.61,5.873,5.873,0,0,1,1.75,4.55V0h-2.8ZM131.495.42a9.774,9.774,0,0,1-4.48-.945,8.753,8.753,0,0,1-3.115-2.66l1.995-1.61a6.786,6.786,0,0,0,2.5,2.153,7.544,7.544,0,0,0,3.307.683,5.384,5.384,0,0,0,3.2-.805,2.759,2.759,0,0,0,1.1-2.38,2.626,2.626,0,0,0-.857-2.083A5.353,5.353,0,0,0,132.4-8.26l-1.645-.245a17.7,17.7,0,0,1-2.205-.49,7.117,7.117,0,0,1-1.978-.91,4.446,4.446,0,0,1-1.435-1.575,5.008,5.008,0,0,1-.543-2.45,5.485,5.485,0,0,1,.507-2.415,4.753,4.753,0,0,1,1.435-1.75,6.712,6.712,0,0,1,2.188-1.067,9.714,9.714,0,0,1,2.73-.368,9.314,9.314,0,0,1,4.148.823,8.527,8.527,0,0,1,2.782,2.153l-1.785,1.68a6.834,6.834,0,0,0-2.065-1.593,6.685,6.685,0,0,0-3.15-.682,4.867,4.867,0,0,0-3.01.8,2.663,2.663,0,0,0-1.05,2.24,2.349,2.349,0,0,0,1.015,2.17,7.58,7.58,0,0,0,2.8.91l1.645.245a16.214,16.214,0,0,1,2.38.56,5.828,5.828,0,0,1,1.873.98,4.511,4.511,0,0,1,1.242,1.557,5.09,5.09,0,0,1,.455,2.258A5.2,5.2,0,0,1,136.8-1.138,8.247,8.247,0,0,1,131.495.42Zm14.07-8.54H143.43v-2.415h2.87a2.271,2.271,0,0,1,1,.227,1.232,1.232,0,0,1,.648.788l2.52,7.175h1.33A3.192,3.192,0,0,0,154.56-3.92,7.826,7.826,0,0,0,155.61-8.3v-2.87a6.02,6.02,0,0,0-1.522-4.393,5.533,5.533,0,0,0-4.148-1.558,7.66,7.66,0,0,0-4.1,1,7.284,7.284,0,0,0-2.52,2.572l-1.82-1.61a7.607,7.607,0,0,1,1.207-1.68,7.393,7.393,0,0,1,1.82-1.4,10.11,10.11,0,0,1,2.45-.945,12.479,12.479,0,0,1,3.063-.35,7.871,7.871,0,0,1,6.318,2.59,10.726,10.726,0,0,1,2.223,7.21,15.056,15.056,0,0,1-.508,4.078A9.652,9.652,0,0,1,156.66-2.59a6.106,6.106,0,0,1-2.24,1.925A6.481,6.481,0,0,1,151.48,0H148.4Zm26.075-5.005q0-4.025-4.165-4.025a4.744,4.744,0,0,0-2.747.735,6.219,6.219,0,0,0-1.8,1.96L161.21-15.96a6.773,6.773,0,0,1,2.363-2.555,7.357,7.357,0,0,1,4.077-1.015,7.185,7.185,0,0,1,5.04,1.61,5.873,5.873,0,0,1,1.75,4.55V0h-2.8Zm10.29,2.205-2.975-1.26a7.563,7.563,0,0,1,.788-2.958,7.661,7.661,0,0,1,1.8-2.327,8.164,8.164,0,0,1,2.608-1.523,9.381,9.381,0,0,1,3.237-.542,8.791,8.791,0,0,1,6.265,2.047,7.262,7.262,0,0,1,2.17,5.548V0h-2.8V-11.585a5.334,5.334,0,0,0-1.523-4.13,5.688,5.688,0,0,0-4.007-1.4,7.752,7.752,0,0,0-2.048.263,6.624,6.624,0,0,0-1.732.735,5.274,5.274,0,0,0-1.33,1.155,4.256,4.256,0,0,0-.805,1.523l1.75.7a2.352,2.352,0,0,1,1.068.717,1.954,1.954,0,0,1,.333,1.208V0h-2.8ZM209.4.42a8.178,8.178,0,0,1-5.845-2.013,7.21,7.21,0,0,1-2.135-5.513V-19.11h2.8V-7.385a5.427,5.427,0,0,0,1.382,4.008A5.132,5.132,0,0,0,209.4-2a5.132,5.132,0,0,0,3.8-1.382,5.427,5.427,0,0,0,1.383-4.008V-25.27h2.8V-7.105a7.21,7.21,0,0,1-2.135,5.513A8.178,8.178,0,0,1,209.4.42Zm20.3,0a9.774,9.774,0,0,1-4.48-.945,8.753,8.753,0,0,1-3.115-2.66L224.1-4.8a6.786,6.786,0,0,0,2.5,2.153,7.544,7.544,0,0,0,3.307.683,5.384,5.384,0,0,0,3.2-.805,2.759,2.759,0,0,0,1.1-2.38,2.626,2.626,0,0,0-.857-2.083,5.353,5.353,0,0,0-2.747-1.032l-1.645-.245a17.7,17.7,0,0,1-2.205-.49,7.117,7.117,0,0,1-1.978-.91,4.446,4.446,0,0,1-1.435-1.575,5.008,5.008,0,0,1-.542-2.45,5.485,5.485,0,0,1,.508-2.415,4.753,4.753,0,0,1,1.435-1.75,6.711,6.711,0,0,1,2.188-1.067,9.714,9.714,0,0,1,2.73-.368,9.314,9.314,0,0,1,4.148.823,8.527,8.527,0,0,1,2.782,2.153l-1.785,1.68a6.834,6.834,0,0,0-2.065-1.593,6.685,6.685,0,0,0-3.15-.682,4.867,4.867,0,0,0-3.01.8,2.663,2.663,0,0,0-1.05,2.24,2.349,2.349,0,0,0,1.015,2.17,7.58,7.58,0,0,0,2.8.91L231-10.78a16.214,16.214,0,0,1,2.38.56,5.828,5.828,0,0,1,1.873.98,4.511,4.511,0,0,1,1.242,1.557,5.09,5.09,0,0,1,.455,2.258,5.2,5.2,0,0,1-1.943,4.288A8.247,8.247,0,0,1,229.7.42ZM244.79-3.5a3.065,3.065,0,0,1-2.31-.77,2.818,2.818,0,0,1-.735-2.03V-7.805h2.8v1.89H250.6V-3.5Zm0-9a3.065,3.065,0,0,1-2.31-.77,2.818,2.818,0,0,1-.735-2.03V-16.8h2.8v1.89H250.6V-12.5Zm13.3,1.575-2.975-1.26a7.563,7.563,0,0,1,.788-2.958,7.661,7.661,0,0,1,1.8-2.327,8.163,8.163,0,0,1,2.607-1.523,9.381,9.381,0,0,1,3.238-.542,8.791,8.791,0,0,1,6.265,2.047,7.262,7.262,0,0,1,2.17,5.548V0h-2.8V-11.585a5.334,5.334,0,0,0-1.522-4.13,5.688,5.688,0,0,0-4.008-1.4,7.752,7.752,0,0,0-2.047.263,6.625,6.625,0,0,0-1.733.735,5.274,5.274,0,0,0-1.33,1.155,4.256,4.256,0,0,0-.8,1.523l1.75.7a2.352,2.352,0,0,1,1.067.717,1.954,1.954,0,0,1,.333,1.208V0h-2.8Zm13.755-11.935a3.065,3.065,0,0,1-2.31-.77,2.818,2.818,0,0,1-.735-2.03v-2.17h2.8v2.555h8.925v2.415ZM284.06.42A6.046,6.046,0,0,1,279.3-1.5a7.881,7.881,0,0,1-1.715-5.425V-19.11h2.8V-7.28q0,5.32,4.55,5.32a6.464,6.464,0,0,0,1.75-.245,4.709,4.709,0,0,0,1.54-.735,3.915,3.915,0,0,0,1.085-1.225,3.4,3.4,0,0,0,.42-1.715V-19.11h2.8V-2.485h2.24V0H292.7a2.422,2.422,0,0,1-2.048-.84,3.937,3.937,0,0,1-.753-2.135h-.14a4.57,4.57,0,0,1-2.083,2.5A7.038,7.038,0,0,1,284.06.42ZM304.57.35a6.971,6.971,0,0,1-4.62-1.435,5.123,5.123,0,0,1-1.715-4.165,5.065,5.065,0,0,1,1.7-4.1,6.957,6.957,0,0,1,4.638-1.435h6.09V-12.6q0-4.515-4.935-4.515a6.687,6.687,0,0,0-3.518.858,6.553,6.553,0,0,0-2.292,2.362L298.13-15.47a7.607,7.607,0,0,1,2.8-2.887,9.252,9.252,0,0,1,4.935-1.173,8.5,8.5,0,0,1,4.865,1.26,1.754,1.754,0,0,1,1.96-1.82h4.655v2.59H311.71a6.432,6.432,0,0,1,1.75,4.76V0h-2.8V-8.785H305.2a4.736,4.736,0,0,0-2.94.805A2.7,2.7,0,0,0,301.21-5.7v.8a2.979,2.979,0,0,0,.962,2.4,3.881,3.881,0,0,0,2.608.822,8.066,8.066,0,0,0,.823-.035q.332-.035.542-.07L306.39.14A2.5,2.5,0,0,1,305.6.3Q305.025.35,304.57.35Zm9.66-23.205a3.065,3.065,0,0,1-2.31-.77,2.818,2.818,0,0,1-.735-2.03v-2.17h2.8v2.555h8.925v2.415Zm4.06,9.03h3.01l5.075,11.48h.105a4.1,4.1,0,0,0,3.413-1.523A6.683,6.683,0,0,0,331.1-8.12v-2.87a6.546,6.546,0,0,0-1.207-4.2A4.125,4.125,0,0,0,326.48-16.7h-1.12V-19.11h1.155a6.735,6.735,0,0,1,5.6,2.52,11.07,11.07,0,0,1,1.995,7.035,11.14,11.14,0,0,1-1.978,7.035A6.687,6.687,0,0,1,326.55,0h-2.17Zm20.72,1.855a8.1,8.1,0,0,1,.578-3.115,6.664,6.664,0,0,1,1.663-2.4,7.3,7.3,0,0,1,2.625-1.522,10.7,10.7,0,0,1,3.465-.525,10.583,10.583,0,0,1,3.43.525,7.3,7.3,0,0,1,2.625,1.522,6.856,6.856,0,0,1,1.68,2.4,7.887,7.887,0,0,1,.6,3.115V0h-2.8V-11.69a5.332,5.332,0,0,0-1.453-4.025,5.635,5.635,0,0,0-4.077-1.4,5.635,5.635,0,0,0-4.078,1.4,5.332,5.332,0,0,0-1.452,4.025v4.55h.175a5.8,5.8,0,0,1,.665-1.278A4.621,4.621,0,0,1,343.7-9.5a5.091,5.091,0,0,1,1.488-.752,6.371,6.371,0,0,1,1.977-.28h1.155v2.8h-1.61a6.416,6.416,0,0,0-3.57.875,2.743,2.743,0,0,0-1.33,2.415V0h-2.8ZM369.95.42a6.887,6.887,0,0,1-2.135-.3,5.53,5.53,0,0,1-1.575-.788,4.774,4.774,0,0,1-1.1-1.12,6.667,6.667,0,0,1-.717-1.33h-.175V0h-2.8V-19.11h2.8V-5.88a3.4,3.4,0,0,0,.42,1.715,3.828,3.828,0,0,0,1.1,1.225,4.947,4.947,0,0,0,1.54.735,6.4,6.4,0,0,0,1.768.245,4.368,4.368,0,0,0,3.482-1.348A5.9,5.9,0,0,0,373.73-7.28V-19.11h2.8V-6.93a7.766,7.766,0,0,1-1.75,5.443A6.228,6.228,0,0,1,369.95.42Z" transform="translate(1430.649 365.461)" fill="#fff"/>
      </g>
    </g>
    <g id="Group_18" data-name="Group 18">
      <path id="Path_8" data-name="Path 8" d="M1410.65,527.672H1358.7l-48.478,83.641" fill="none" stroke="#fff" stroke-linecap="round" stroke-linejoin="round" stroke-width="3" stroke-dasharray="5 10"/>
      <g id="Group_15" data-name="Group 15">
        <path id="Path_22" data-name="Path 22" d="M8.575.35a6.971,6.971,0,0,1-4.62-1.435A5.123,5.123,0,0,1,2.24-5.25a5.065,5.065,0,0,1,1.7-4.1A6.957,6.957,0,0,1,8.575-10.78h6.09V-12.6q0-4.515-4.935-4.515a6.687,6.687,0,0,0-3.517.858A6.553,6.553,0,0,0,3.92-13.9L2.135-15.47a7.607,7.607,0,0,1,2.8-2.887A9.252,9.252,0,0,1,9.87-19.53a8.5,8.5,0,0,1,4.865,1.26,1.754,1.754,0,0,1,1.96-1.82H21.35v2.59H15.715a6.432,6.432,0,0,1,1.75,4.76V0h-2.8V-8.785H9.2a4.736,4.736,0,0,0-2.94.805A2.7,2.7,0,0,0,5.215-5.7v.8a2.979,2.979,0,0,0,.963,2.4,3.881,3.881,0,0,0,2.608.822,8.066,8.066,0,0,0,.822-.035q.332-.035.543-.07L10.4.14A2.5,2.5,0,0,1,9.608.3Q9.03.35,8.575.35ZM30.1.42A10.246,10.246,0,0,1,27.475.088a7.38,7.38,0,0,1-2.17-.928l1.05-2.065A6.98,6.98,0,0,0,30.03-2a4.564,4.564,0,0,0,3.745-1.628,6.912,6.912,0,0,0,1.33-4.5v-2.87a7.125,7.125,0,0,0-1.278-4.48,4.512,4.512,0,0,0-3.8-1.645,5.661,5.661,0,0,0-3.115.788,5.172,5.172,0,0,0-1.89,2.188L22.75-15.3a7.178,7.178,0,0,1,2.695-3.062A8.451,8.451,0,0,1,30.1-19.53a7.091,7.091,0,0,1,5.968,2.642,11.708,11.708,0,0,1,2.047,7.333,11.5,11.5,0,0,1-2.1,7.333A7.123,7.123,0,0,1,30.1.42Zm7.175-23.275a3.065,3.065,0,0,1-2.31-.77,2.818,2.818,0,0,1-.735-2.03v-2.17h2.8v2.555h8.925v2.415ZM48.79.35a6.971,6.971,0,0,1-4.62-1.435A5.123,5.123,0,0,1,42.455-5.25a5.065,5.065,0,0,1,1.7-4.1A6.957,6.957,0,0,1,48.79-10.78h6.09V-12.6q0-4.515-4.935-4.515a6.687,6.687,0,0,0-3.517.858A6.553,6.553,0,0,0,44.135-13.9L42.35-15.47a7.607,7.607,0,0,1,2.8-2.887,9.252,9.252,0,0,1,4.935-1.173,8.5,8.5,0,0,1,4.865,1.26,1.754,1.754,0,0,1,1.96-1.82h4.655v2.59H55.93a6.432,6.432,0,0,1,1.75,4.76V0h-2.8V-8.785H49.42a4.736,4.736,0,0,0-2.94.805A2.7,2.7,0,0,0,45.43-5.7v.8a2.979,2.979,0,0,0,.963,2.4A3.881,3.881,0,0,0,49-1.68a8.066,8.066,0,0,0,.823-.035q.332-.035.542-.07L50.61.14A2.5,2.5,0,0,1,49.823.3Q49.245.35,48.79.35ZM71.96.42a8.25,8.25,0,0,1-3.482-.7A7.151,7.151,0,0,1,65.9-2.258,8.721,8.721,0,0,1,64.313-5.39a14.826,14.826,0,0,1-.543-4.165,12.67,12.67,0,0,1,.63-4.1,8.879,8.879,0,0,1,1.8-3.15,8.066,8.066,0,0,1,2.853-2.012,9.536,9.536,0,0,1,3.78-.718,10.128,10.128,0,0,1,3.448.56,7.6,7.6,0,0,1,2.66,1.593,6.985,6.985,0,0,1,1.7,2.485,8.467,8.467,0,0,1,.6,3.238V0h-2.8V-11.27a5.859,5.859,0,0,0-1.522-4.305,5.615,5.615,0,0,0-4.183-1.54,5.673,5.673,0,0,0-4.375,1.7,6.5,6.5,0,0,0-1.575,4.6V-8.3a6.951,6.951,0,0,0,1.4,4.69A5.4,5.4,0,0,0,72.485-2q.385,0,.787-.017a4.127,4.127,0,0,0,.823-.123L74.445.21A4.9,4.9,0,0,1,73.185.4Q72.52.42,71.96.42ZM69.755-25.27h14.28v2.415H69.755Zm18.97,14.35L85.75-12.18a7.562,7.562,0,0,1,.788-2.958,7.661,7.661,0,0,1,1.8-2.327,8.164,8.164,0,0,1,2.607-1.523,9.381,9.381,0,0,1,3.238-.542,8.791,8.791,0,0,1,6.265,2.047,7.262,7.262,0,0,1,2.17,5.548V0h-2.8V-11.585a5.334,5.334,0,0,0-1.522-4.13,5.688,5.688,0,0,0-4.008-1.4,7.752,7.752,0,0,0-2.048.263,6.625,6.625,0,0,0-1.732.735,5.274,5.274,0,0,0-1.33,1.155,4.256,4.256,0,0,0-.8,1.523l1.75.7a2.352,2.352,0,0,1,1.067.717,1.954,1.954,0,0,1,.332,1.208V0h-2.8Zm27.65-2.205q0-4.025-4.165-4.025a4.744,4.744,0,0,0-2.747.735,6.219,6.219,0,0,0-1.8,1.96l-1.715-1.505a6.773,6.773,0,0,1,2.363-2.555,7.357,7.357,0,0,1,4.077-1.015,7.185,7.185,0,0,1,5.04,1.61,5.873,5.873,0,0,1,1.75,4.55V0h-2.8ZM131.495.42a9.774,9.774,0,0,1-4.48-.945,8.753,8.753,0,0,1-3.115-2.66l1.995-1.61a6.786,6.786,0,0,0,2.5,2.153,7.544,7.544,0,0,0,3.307.683,5.384,5.384,0,0,0,3.2-.805,2.759,2.759,0,0,0,1.1-2.38,2.626,2.626,0,0,0-.857-2.083A5.353,5.353,0,0,0,132.4-8.26l-1.645-.245a17.7,17.7,0,0,1-2.205-.49,7.117,7.117,0,0,1-1.978-.91,4.446,4.446,0,0,1-1.435-1.575,5.008,5.008,0,0,1-.543-2.45,5.485,5.485,0,0,1,.507-2.415,4.753,4.753,0,0,1,1.435-1.75,6.712,6.712,0,0,1,2.188-1.067,9.714,9.714,0,0,1,2.73-.368,9.314,9.314,0,0,1,4.148.823,8.527,8.527,0,0,1,2.782,2.153l-1.785,1.68a6.834,6.834,0,0,0-2.065-1.593,6.685,6.685,0,0,0-3.15-.682,4.867,4.867,0,0,0-3.01.8,2.663,2.663,0,0,0-1.05,2.24,2.349,2.349,0,0,0,1.015,2.17,7.58,7.58,0,0,0,2.8.91l1.645.245a16.214,16.214,0,0,1,2.38.56,5.828,5.828,0,0,1,1.873.98,4.511,4.511,0,0,1,1.242,1.557,5.09,5.09,0,0,1,.455,2.258A5.2,5.2,0,0,1,136.8-1.138,8.247,8.247,0,0,1,131.495.42Zm14.07-8.54H143.43v-2.415h2.87a2.271,2.271,0,0,1,1,.227,1.232,1.232,0,0,1,.648.788l2.52,7.175h1.33A3.192,3.192,0,0,0,154.56-3.92,7.826,7.826,0,0,0,155.61-8.3v-2.87a6.02,6.02,0,0,0-1.522-4.393,5.533,5.533,0,0,0-4.148-1.558,7.66,7.66,0,0,0-4.1,1,7.284,7.284,0,0,0-2.52,2.572l-1.82-1.61a7.607,7.607,0,0,1,1.207-1.68,7.393,7.393,0,0,1,1.82-1.4,10.11,10.11,0,0,1,2.45-.945,12.479,12.479,0,0,1,3.063-.35,7.871,7.871,0,0,1,6.318,2.59,10.726,10.726,0,0,1,2.223,7.21,15.056,15.056,0,0,1-.508,4.078A9.652,9.652,0,0,1,156.66-2.59a6.106,6.106,0,0,1-2.24,1.925A6.481,6.481,0,0,1,151.48,0H148.4Zm26.075-5.005q0-4.025-4.165-4.025a4.744,4.744,0,0,0-2.747.735,6.219,6.219,0,0,0-1.8,1.96L161.21-15.96a6.773,6.773,0,0,1,2.363-2.555,7.357,7.357,0,0,1,4.077-1.015,7.185,7.185,0,0,1,5.04,1.61,5.873,5.873,0,0,1,1.75,4.55V0h-2.8Zm10.29,2.205-2.975-1.26a7.563,7.563,0,0,1,.788-2.958,7.661,7.661,0,0,1,1.8-2.327,8.164,8.164,0,0,1,2.608-1.523,9.381,9.381,0,0,1,3.237-.542,8.791,8.791,0,0,1,6.265,2.047,7.262,7.262,0,0,1,2.17,5.548V0h-2.8V-11.585a5.334,5.334,0,0,0-1.523-4.13,5.688,5.688,0,0,0-4.007-1.4,7.752,7.752,0,0,0-2.048.263,6.624,6.624,0,0,0-1.732.735,5.274,5.274,0,0,0-1.33,1.155,4.256,4.256,0,0,0-.805,1.523l1.75.7a2.352,2.352,0,0,1,1.068.717,1.954,1.954,0,0,1,.333,1.208V0h-2.8ZM208.46.42A9.746,9.746,0,0,1,205.52,0a6.346,6.346,0,0,1-2.293-1.258A5.557,5.557,0,0,1,201.74-3.37a7.806,7.806,0,0,1-.525-2.986,9.216,9.216,0,0,1,.158-1.8,7.956,7.956,0,0,1,.42-1.432,7.787,7.787,0,0,1,.613-1.205,11.425,11.425,0,0,1,.77-1.083,15.09,15.09,0,0,0,1.225-1.886,3.988,3.988,0,0,0,.49-1.921v-.943H200.9V-19.11h4.1a2.678,2.678,0,0,1,1.978.682,2.437,2.437,0,0,1,.682,1.8v.315a5.686,5.686,0,0,1-.473,2.328,19.763,19.763,0,0,1-1.382,2.5,12.046,12.046,0,0,0-1.19,2.222,6.026,6.026,0,0,0-.385,2.188v1.085a3.751,3.751,0,0,0,1.137,3.027A4.531,4.531,0,0,0,208.39-2a4,4,0,0,0,3.15-1.26,5.2,5.2,0,0,0,1.12-3.57V-19.11h2.8v12.6a7.026,7.026,0,0,1-1.785,5.058A6.87,6.87,0,0,1,208.46.42Zm4.3-25.69h2.66v-1.3a1.676,1.676,0,0,0-.4-1.277,1.981,1.981,0,0,0-1.348-.368h-.91v-2.1h1.96a3.606,3.606,0,0,1,2.4.7,2.315,2.315,0,0,1,.822,1.855,3.244,3.244,0,0,1-.315,1.33,1.982,1.982,0,0,1-.98,1.015v.14h6.125v2.1h-10.01Zm16.8,12.145q0-4.025-4.165-4.025a4.744,4.744,0,0,0-2.747.735,6.219,6.219,0,0,0-1.8,1.96l-1.715-1.505a6.773,6.773,0,0,1,2.363-2.555,7.357,7.357,0,0,1,4.077-1.015,7.185,7.185,0,0,1,5.04,1.61,5.873,5.873,0,0,1,1.75,4.55V0h-2.8ZM244.685.42a9.774,9.774,0,0,1-4.48-.945,8.753,8.753,0,0,1-3.115-2.66l1.995-1.61a6.786,6.786,0,0,0,2.5,2.153,7.544,7.544,0,0,0,3.307.683,5.384,5.384,0,0,0,3.2-.805,2.759,2.759,0,0,0,1.1-2.38,2.626,2.626,0,0,0-.857-2.083,5.353,5.353,0,0,0-2.748-1.032l-1.645-.245a17.7,17.7,0,0,1-2.205-.49,7.117,7.117,0,0,1-1.978-.91,4.446,4.446,0,0,1-1.435-1.575,5.008,5.008,0,0,1-.542-2.45,5.485,5.485,0,0,1,.508-2.415,4.753,4.753,0,0,1,1.435-1.75,6.711,6.711,0,0,1,2.188-1.067,9.714,9.714,0,0,1,2.73-.368,9.314,9.314,0,0,1,4.148.823,8.527,8.527,0,0,1,2.783,2.153l-1.785,1.68a6.834,6.834,0,0,0-2.065-1.593,6.685,6.685,0,0,0-3.15-.682,4.867,4.867,0,0,0-3.01.8,2.663,2.663,0,0,0-1.05,2.24,2.349,2.349,0,0,0,1.015,2.17,7.58,7.58,0,0,0,2.8.91l1.645.245a16.215,16.215,0,0,1,2.38.56,5.828,5.828,0,0,1,1.872.98,4.511,4.511,0,0,1,1.242,1.557,5.09,5.09,0,0,1,.455,2.258,5.2,5.2,0,0,1-1.943,4.288A8.247,8.247,0,0,1,244.685.42Zm20.4-13.545q0-4.025-4.165-4.025a4.744,4.744,0,0,0-2.748.735,6.219,6.219,0,0,0-1.8,1.96L254.66-15.96a6.773,6.773,0,0,1,2.362-2.555A7.357,7.357,0,0,1,261.1-19.53a7.185,7.185,0,0,1,5.04,1.61,5.873,5.873,0,0,1,1.75,4.55V0h-2.8ZM280.595.42a8.014,8.014,0,0,1-5.3-1.676,6.259,6.259,0,0,1-2.013-5.1,9.214,9.214,0,0,1,.158-1.8,7.956,7.956,0,0,1,.42-1.432,7.786,7.786,0,0,1,.612-1.205,11.425,11.425,0,0,1,.77-1.083,15.089,15.089,0,0,0,1.225-1.886,3.988,3.988,0,0,0,.49-1.921v-.943h-3.99V-19.11h4.1a2.678,2.678,0,0,1,1.978.682,2.437,2.437,0,0,1,.682,1.8v.315a5.686,5.686,0,0,1-.473,2.328,19.767,19.767,0,0,1-1.383,2.5,12.048,12.048,0,0,0-1.19,2.222,6.027,6.027,0,0,0-.385,2.188v1.085a3.721,3.721,0,0,0,1.155,3.027,4.657,4.657,0,0,0,3.08.963,4.49,4.49,0,0,0,3.08-.963A3.48,3.48,0,0,0,284.69-5.7V-8.75a4.618,4.618,0,0,0-.7-2.748,2.251,2.251,0,0,0-1.925-.962h-.98V-14.7h1.05a2.625,2.625,0,0,0,1.943-.717,3.2,3.2,0,0,0,.717-2.328V-19.67h2.8v1.82a3.677,3.677,0,0,1-.315,1.558,4.024,4.024,0,0,1-.8,1.173,3.891,3.891,0,0,1-1.138.787,5,5,0,0,1-1.312.4v.175a4.339,4.339,0,0,1,2.765,2.275,8.919,8.919,0,0,1,.91,4.165,8.177,8.177,0,0,1-1.855,5.67A6.693,6.693,0,0,1,280.595.42ZM294.56-10.92l-2.975-1.26a7.563,7.563,0,0,1,.788-2.958,7.661,7.661,0,0,1,1.8-2.327,8.164,8.164,0,0,1,2.608-1.523,9.381,9.381,0,0,1,3.237-.542,8.791,8.791,0,0,1,6.265,2.047,7.262,7.262,0,0,1,2.17,5.548V0h-2.8V-11.585a5.334,5.334,0,0,0-1.522-4.13,5.688,5.688,0,0,0-4.008-1.4,7.752,7.752,0,0,0-2.048.263,6.625,6.625,0,0,0-1.732.735,5.274,5.274,0,0,0-1.33,1.155,4.256,4.256,0,0,0-.8,1.523l1.75.7a2.352,2.352,0,0,1,1.068.717,1.954,1.954,0,0,1,.332,1.208V0h-2.8Zm27.65-2.205q0-4.025-4.165-4.025a4.744,4.744,0,0,0-2.748.735,6.219,6.219,0,0,0-1.8,1.96L311.78-15.96a6.773,6.773,0,0,1,2.362-2.555,7.357,7.357,0,0,1,4.078-1.015,7.185,7.185,0,0,1,5.04,1.61,5.873,5.873,0,0,1,1.75,4.55V0h-2.8ZM337.33.42a9.774,9.774,0,0,1-4.48-.945,8.753,8.753,0,0,1-3.115-2.66l2-1.61a6.786,6.786,0,0,0,2.5,2.153,7.544,7.544,0,0,0,3.308.683,5.384,5.384,0,0,0,3.2-.805,2.759,2.759,0,0,0,1.1-2.38,2.626,2.626,0,0,0-.858-2.083A5.352,5.352,0,0,0,338.24-8.26l-1.645-.245a17.7,17.7,0,0,1-2.205-.49,7.117,7.117,0,0,1-1.977-.91,4.446,4.446,0,0,1-1.435-1.575,5.008,5.008,0,0,1-.543-2.45,5.484,5.484,0,0,1,.508-2.415,4.753,4.753,0,0,1,1.435-1.75,6.711,6.711,0,0,1,2.188-1.067,9.714,9.714,0,0,1,2.73-.368,9.314,9.314,0,0,1,4.147.823,8.527,8.527,0,0,1,2.783,2.153l-1.785,1.68a6.834,6.834,0,0,0-2.065-1.593,6.685,6.685,0,0,0-3.15-.682,4.867,4.867,0,0,0-3.01.8,2.663,2.663,0,0,0-1.05,2.24,2.349,2.349,0,0,0,1.015,2.17,7.58,7.58,0,0,0,2.8.91l1.645.245a16.214,16.214,0,0,1,2.38.56,5.828,5.828,0,0,1,1.872.98,4.511,4.511,0,0,1,1.242,1.557,5.089,5.089,0,0,1,.455,2.258,5.2,5.2,0,0,1-1.943,4.288A8.248,8.248,0,0,1,337.33.42Zm9.415,4.865L355.88-25.9h2.52L349.265,5.285ZM9.52,42.42a9.774,9.774,0,0,1-4.48-.945,8.753,8.753,0,0,1-3.115-2.66l2-1.61a6.785,6.785,0,0,0,2.5,2.153,7.544,7.544,0,0,0,3.308.683,5.384,5.384,0,0,0,3.2-.805,2.759,2.759,0,0,0,1.1-2.38,2.626,2.626,0,0,0-.858-2.083A5.352,5.352,0,0,0,10.43,33.74l-1.645-.245a17.7,17.7,0,0,1-2.205-.49A7.117,7.117,0,0,1,4.6,32.1,4.446,4.446,0,0,1,3.168,30.52a5.008,5.008,0,0,1-.543-2.45,5.485,5.485,0,0,1,.508-2.415A4.753,4.753,0,0,1,4.568,23.9a6.712,6.712,0,0,1,2.188-1.067,9.714,9.714,0,0,1,2.73-.368,9.314,9.314,0,0,1,4.148.823,8.527,8.527,0,0,1,2.783,2.153l-1.785,1.68a6.834,6.834,0,0,0-2.065-1.593,6.685,6.685,0,0,0-3.15-.682,4.867,4.867,0,0,0-3.01.8,2.663,2.663,0,0,0-1.05,2.24,2.349,2.349,0,0,0,1.015,2.17,7.58,7.58,0,0,0,2.8.91l1.645.245a16.215,16.215,0,0,1,2.38.56,5.828,5.828,0,0,1,1.873.98,4.511,4.511,0,0,1,1.243,1.557,5.09,5.09,0,0,1,.455,2.257,5.2,5.2,0,0,1-1.943,4.287A8.247,8.247,0,0,1,9.52,42.42Zm6.16-23.275a3.065,3.065,0,0,1-2.31-.77,2.818,2.818,0,0,1-.735-2.03v-2.17h2.8V16.73H24.36v2.415ZM23.59,33.88H21.455V31.465h2.87a2.271,2.271,0,0,1,1,.227,1.232,1.232,0,0,1,.647.788l2.52,7.175h1.33a3.192,3.192,0,0,0,2.765-1.575,7.826,7.826,0,0,0,1.05-4.375v-2.87a6.02,6.02,0,0,0-1.522-4.392,5.533,5.533,0,0,0-4.148-1.558,7.66,7.66,0,0,0-4.095,1,7.284,7.284,0,0,0-2.52,2.572l-1.82-1.61a7.607,7.607,0,0,1,1.208-1.68,7.393,7.393,0,0,1,1.82-1.4,10.11,10.11,0,0,1,2.45-.945,12.479,12.479,0,0,1,3.063-.35,8.614,8.614,0,0,1,4.8,1.3,2.2,2.2,0,0,1,.507-1.4,1.952,1.952,0,0,1,1.453-.455H39.97V24.5H33.845v.035a8.277,8.277,0,0,1,2.048,3.2,13.059,13.059,0,0,1,.717,4.533,15.056,15.056,0,0,1-.507,4.077,9.652,9.652,0,0,1-1.417,3.063,6.106,6.106,0,0,1-2.24,1.925,6.481,6.481,0,0,1-2.94.665h-3.08ZM21.91,47.81h1.82a2.7,2.7,0,0,0,1.242-.245,2.387,2.387,0,0,0,.77-.613,2.193,2.193,0,0,0,.42-.84,5.319,5.319,0,0,0,.157-.927h2.1a3.867,3.867,0,0,0,.192.927,2.873,2.873,0,0,0,.438.84,2.452,2.452,0,0,0,.683.613,2.1,2.1,0,0,0,2.45-.35,2.573,2.573,0,0,0,.542-1.785V43.995h2.8V45.43a4.915,4.915,0,0,1-1.138,3.447,4.035,4.035,0,0,1-3.132,1.243,4.959,4.959,0,0,1-1.173-.14,3.439,3.439,0,0,1-1.1-.49,3.872,3.872,0,0,1-.927-.875,3.313,3.313,0,0,1-.577-1.33H27.3a3.274,3.274,0,0,1-1.365,2.205,4.354,4.354,0,0,1-2.345.63H21.91Zm27.02-5.39a10.246,10.246,0,0,1-2.625-.332,7.38,7.38,0,0,1-2.17-.928l1.05-2.065a6.98,6.98,0,0,0,3.675.91,4.564,4.564,0,0,0,3.745-1.628,6.912,6.912,0,0,0,1.33-4.5V31.01a7.125,7.125,0,0,0-1.278-4.48,4.512,4.512,0,0,0-3.8-1.645,5.661,5.661,0,0,0-3.115.788,5.172,5.172,0,0,0-1.89,2.188L41.58,26.7a7.178,7.178,0,0,1,2.7-3.062A8.451,8.451,0,0,1,48.93,22.47,7.091,7.091,0,0,1,54.9,25.112a11.708,11.708,0,0,1,2.047,7.333,11.5,11.5,0,0,1-2.1,7.333A7.123,7.123,0,0,1,48.93,42.42ZM44.765,16.73h14.28v2.415H44.765ZM67.62,42.35A6.971,6.971,0,0,1,63,40.915a5.123,5.123,0,0,1-1.715-4.165,5.065,5.065,0,0,1,1.7-4.1A6.957,6.957,0,0,1,67.62,31.22h6.09V29.4q0-4.515-4.935-4.515a6.687,6.687,0,0,0-3.518.858A6.553,6.553,0,0,0,62.965,28.1L61.18,26.53a7.607,7.607,0,0,1,2.8-2.887,9.252,9.252,0,0,1,4.935-1.173,8.5,8.5,0,0,1,4.865,1.26,1.754,1.754,0,0,1,1.96-1.82H80.4V24.5H74.76a6.432,6.432,0,0,1,1.75,4.76V42h-2.8V33.215H68.25a4.736,4.736,0,0,0-2.94.805,2.7,2.7,0,0,0-1.05,2.275V37.1a2.979,2.979,0,0,0,.962,2.4,3.881,3.881,0,0,0,2.608.822,8.065,8.065,0,0,0,.822-.035q.333-.035.543-.07l.245,1.925a2.5,2.5,0,0,1-.787.158Q68.075,42.35,67.62,42.35ZM91.805,28.875q0-4.025-4.165-4.025a4.744,4.744,0,0,0-2.747.735,6.219,6.219,0,0,0-1.8,1.96l-1.715-1.5a6.773,6.773,0,0,1,2.363-2.555,7.357,7.357,0,0,1,4.077-1.015,7.185,7.185,0,0,1,5.04,1.61,5.873,5.873,0,0,1,1.75,4.55V42h-2.8Zm8.575-5.985h2.8v6.125l5.215-.77a6.733,6.733,0,0,0,2.52-.858,2.724,2.724,0,0,0,1.155-2.153l.28-2.345h2.94l-.28,2.415a4.034,4.034,0,0,1-1.225,2.625,4.894,4.894,0,0,1-2.695,1.225v.175q3.465.945,3.885,5.355l.7,7.315h-2.94l-.665-7.49a7.366,7.366,0,0,0-.385-1.645,3.431,3.431,0,0,0-.84-1.312,3.156,3.156,0,0,0-1.418-.77,5.285,5.285,0,0,0-2.082-.052l-4.165.6V42h-2.8Zm22.365,8.19-2.975-1.26a7.562,7.562,0,0,1,.788-2.958,7.661,7.661,0,0,1,1.8-2.327,8.164,8.164,0,0,1,2.607-1.523,9.381,9.381,0,0,1,3.237-.542,8.791,8.791,0,0,1,6.265,2.047,7.262,7.262,0,0,1,2.17,5.548V42h-2.8V30.415a5.334,5.334,0,0,0-1.523-4.13,5.688,5.688,0,0,0-4.007-1.4,7.752,7.752,0,0,0-2.048.263,6.625,6.625,0,0,0-1.733.735,5.274,5.274,0,0,0-1.33,1.155,4.256,4.256,0,0,0-.805,1.523l1.75.7a2.352,2.352,0,0,1,1.068.718,1.954,1.954,0,0,1,.332,1.208V42h-2.8Zm2.415-14.35h14.28v2.415H125.16Zm19.25,17.15h-2.135V31.465h2.87a2.271,2.271,0,0,1,1,.227,1.232,1.232,0,0,1,.648.788l2.52,7.175h1.33A3.192,3.192,0,0,0,153.4,38.08a7.826,7.826,0,0,0,1.05-4.375v-2.87a6.02,6.02,0,0,0-1.523-4.392,5.533,5.533,0,0,0-4.147-1.558,7.66,7.66,0,0,0-4.1,1,7.284,7.284,0,0,0-2.52,2.572l-1.82-1.61a7.607,7.607,0,0,1,1.207-1.68,7.393,7.393,0,0,1,1.82-1.4,10.11,10.11,0,0,1,2.45-.945,12.479,12.479,0,0,1,3.063-.35,7.871,7.871,0,0,1,6.318,2.59,10.726,10.726,0,0,1,2.223,7.21,15.056,15.056,0,0,1-.508,4.077,9.652,9.652,0,0,1-1.417,3.063,6.106,6.106,0,0,1-2.24,1.925,6.481,6.481,0,0,1-2.94.665h-3.08Z" transform="translate(1430.649 535.767)" fill="#fff"/>
        <path id="Path_14" data-name="Path 14" d="M11.8,84V79.31H1.05V74.795L10.57,59.57H16.8V75.215h3.08v4.1H16.8V84ZM5.25,75.215H11.8V64.995h-.35Zm21.175,9.17A3.085,3.085,0,0,1,24.1,83.6a2.794,2.794,0,0,1-.753-2.013v-.7a2.794,2.794,0,0,1,.753-2.013,3.085,3.085,0,0,1,2.327-.787,3.085,3.085,0,0,1,2.328.787,2.794,2.794,0,0,1,.753,2.013v.7a2.794,2.794,0,0,1-.753,2.013A3.085,3.085,0,0,1,26.425,84.385Zm15.925.035q-4.8,0-7.1-3.325t-2.31-9.31q0-5.985,2.31-9.31t7.1-3.325q4.8,0,7.105,3.325t2.31,9.31q0,5.985-2.31,9.31T42.35,84.42Zm0-4.445a2.984,2.984,0,0,0,2.905-1.54,9.524,9.524,0,0,0,.805-4.34v-4.62a9.524,9.524,0,0,0-.805-4.34A2.984,2.984,0,0,0,42.35,63.6a2.984,2.984,0,0,0-2.9,1.54,9.524,9.524,0,0,0-.805,4.34V74.1a9.524,9.524,0,0,0,.805,4.34A2.984,2.984,0,0,0,42.35,79.975Zm28.77-15.82H60.025L59.5,71.89h.28a10.654,10.654,0,0,1,.787-1.592A5.048,5.048,0,0,1,61.6,69.073a4.257,4.257,0,0,1,1.435-.788A6.332,6.332,0,0,1,65.03,68a8.12,8.12,0,0,1,2.94.525,6.877,6.877,0,0,1,2.38,1.522,7.222,7.222,0,0,1,1.61,2.45,8.564,8.564,0,0,1,.6,3.272,9.523,9.523,0,0,1-.613,3.448,7.454,7.454,0,0,1-1.82,2.747,8.463,8.463,0,0,1-2.957,1.8,11.449,11.449,0,0,1-3.99.647,11.641,11.641,0,0,1-3.15-.385A9.479,9.479,0,0,1,57.61,83a8.5,8.5,0,0,1-1.82-1.488,10.747,10.747,0,0,1-1.33-1.785l3.815-3.01A9.339,9.339,0,0,0,60.2,79.152a4.36,4.36,0,0,0,3.01,1,3.614,3.614,0,0,0,2.853-1.085,4.165,4.165,0,0,0,.963-2.87v-.28a3.594,3.594,0,0,0-.98-2.66,3.642,3.642,0,0,0-2.695-.98,4.4,4.4,0,0,0-2.362.577A6.322,6.322,0,0,0,59.57,73.99l-4.305-.6.91-13.825H71.12ZM89.95,84.35a6.76,6.76,0,0,1-4.462-1.382,5.305,5.305,0,0,1-1.663-4.323A5.58,5.58,0,0,1,85.4,74.41a6.334,6.334,0,0,1,4.55-1.5h5.775V71.89a3.625,3.625,0,0,0-.927-2.677,4.161,4.161,0,0,0-3.027-.928,5.655,5.655,0,0,0-3.185.893,6.153,6.153,0,0,0-1.12.91,8.334,8.334,0,0,0-.875,1.067l-3.29-2.87a9.739,9.739,0,0,1,3.36-2.993,11.476,11.476,0,0,1,5.46-1.1q4.375,0,6.58,1.908a7.024,7.024,0,0,1,2.2,5.617V84h-5.18V76.195h-3.92q-2.73,0-2.73,2.24v.6a2.557,2.557,0,0,0,.56,1.732,2.056,2.056,0,0,0,1.645.648h.42a1.321,1.321,0,0,0,.42-.07l.35,2.765a2.47,2.47,0,0,1-.473.122,5.3,5.3,0,0,1-.665.07l-.735.035Q90.23,84.35,89.95,84.35Zm5.425-26.495H97.58v-1.19a1.179,1.179,0,0,0-.262-.858,1.554,1.554,0,0,0-1.068-.263h-.875v-3.57h2.9a4.173,4.173,0,0,1,2.66.753,2.477,2.477,0,0,1,.945,2.047,2.728,2.728,0,0,1-.543,1.628,3.576,3.576,0,0,1-1.487,1.172v.28h6.51v3.57H95.375Zm18.165,13.3a3.053,3.053,0,0,0-.682-2.1,2.885,2.885,0,0,0-2.257-.77,3.92,3.92,0,0,0-2.38.647,6.579,6.579,0,0,0-1.47,1.488l-3.08-2.73a8.132,8.132,0,0,1,2.782-2.573,9.339,9.339,0,0,1,4.533-.927A8.536,8.536,0,0,1,116.76,65.9a6.294,6.294,0,0,1,1.96,5.005V84h-5.18ZM129.255,84.42a5.464,5.464,0,0,1-4.568-1.978,8.957,8.957,0,0,1-1.557-5.652V64.61h5.18V76.335a8.138,8.138,0,0,0,.14,1.558,3.216,3.216,0,0,0,.49,1.225,2.429,2.429,0,0,0,.962.805,3.472,3.472,0,0,0,1.523.3,4.467,4.467,0,0,0,1.277-.193,3.378,3.378,0,0,0,1.137-.577,3.154,3.154,0,0,0,.805-.945,2.6,2.6,0,0,0,.315-1.295V64.61h5.18V79.975h1.715V84H138.74q-3.15,0-3.255-3.605h-.245a6.85,6.85,0,0,1-.753,1.523,5.352,5.352,0,0,1-1.19,1.277,5.679,5.679,0,0,1-1.715.893A7.368,7.368,0,0,1,129.255,84.42Zm15.96-12a8.316,8.316,0,0,1,.665-3.4,7.431,7.431,0,0,1,1.89-2.59,8.366,8.366,0,0,1,2.993-1.662,13.952,13.952,0,0,1,7.945,0A8.366,8.366,0,0,1,161.7,66.43a7.431,7.431,0,0,1,1.89,2.59,8.316,8.316,0,0,1,.665,3.4V84h-5.18V72.66a4.349,4.349,0,1,0-8.68,0v4.165h.175a5.708,5.708,0,0,1,.49-1.487,4.539,4.539,0,0,1,.927-1.278,4.342,4.342,0,0,1,1.383-.893,4.929,4.929,0,0,1,1.89-.332h.91v4.83h-1.295a7.378,7.378,0,0,0-3.378.6,2.278,2.278,0,0,0-1.1,2.2V84h-5.18Zm29.575,12a5.464,5.464,0,0,1-4.568-1.978,8.957,8.957,0,0,1-1.557-5.652V64.61h5.18V76.335a8.138,8.138,0,0,0,.14,1.558,3.216,3.216,0,0,0,.49,1.225,2.429,2.429,0,0,0,.962.805,3.472,3.472,0,0,0,1.523.3,4.467,4.467,0,0,0,1.277-.193,3.378,3.378,0,0,0,1.137-.577,3.154,3.154,0,0,0,.805-.945,2.6,2.6,0,0,0,.315-1.295V64.61h5.18V79.975h1.715V84h-3.115q-3.15,0-3.255-3.605h-.245a6.85,6.85,0,0,1-.753,1.523,5.352,5.352,0,0,1-1.19,1.277,5.679,5.679,0,0,1-1.715.893A7.368,7.368,0,0,1,174.79,84.42Z" transform="translate(1430.649 535.767)" fill="#fdb913"/>
      </g>
    </g>
    <g id="Group_19" data-name="Group 19">
      <path id="Path_7" data-name="Path 7" d="M1410.65,752.527H1358.7l-104.481-79.835" fill="none" stroke="#fff" stroke-linecap="round" stroke-linejoin="round" stroke-width="3" stroke-dasharray="5 10"/>
      <g id="Group_10" data-name="Group 10">
        <path id="Path_16" data-name="Path 16" d="M8.575.35a6.971,6.971,0,0,1-4.62-1.435A5.123,5.123,0,0,1,2.24-5.25a5.065,5.065,0,0,1,1.7-4.1A6.957,6.957,0,0,1,8.575-10.78h6.09V-12.6q0-4.515-4.935-4.515a6.687,6.687,0,0,0-3.517.858A6.553,6.553,0,0,0,3.92-13.9L2.135-15.47a7.607,7.607,0,0,1,2.8-2.887A9.252,9.252,0,0,1,9.87-19.53a8.5,8.5,0,0,1,4.865,1.26,1.754,1.754,0,0,1,1.96-1.82H21.35v2.59H15.715a6.432,6.432,0,0,1,1.75,4.76V0h-2.8V-8.785H9.2a4.736,4.736,0,0,0-2.94.805A2.7,2.7,0,0,0,5.215-5.7v.8a2.979,2.979,0,0,0,.963,2.4,3.881,3.881,0,0,0,2.608.822,8.066,8.066,0,0,0,.822-.035q.332-.035.543-.07L10.4.14A2.5,2.5,0,0,1,9.608.3Q9.03.35,8.575.35Zm-1.4-25.62h14.28v2.415H7.175ZM24.43-19.11h2.8V-16h.175a7.647,7.647,0,0,1,.717-1.312,4.5,4.5,0,0,1,1.12-1.137,5.752,5.752,0,0,1,1.61-.788,7.057,7.057,0,0,1,2.153-.3,6.128,6.128,0,0,1,4.778,1.907,7.817,7.817,0,0,1,1.732,5.443V0h-2.8V-11.83q0-5.32-4.62-5.32a6.59,6.59,0,0,0-1.785.245,4.919,4.919,0,0,0-1.558.735,3.828,3.828,0,0,0-1.1,1.225,3.4,3.4,0,0,0-.42,1.715V0h-2.8ZM44.765-6.965h2.59v4.62H56.84V-6.23a7.536,7.536,0,0,0-.14-1.54,2.283,2.283,0,0,0-.6-1.137,3.283,3.283,0,0,0-1.33-.77,10.667,10.667,0,0,0-2.345-.437l-8.015-.7V-12.88a6.073,6.073,0,0,1,2.065-4.9,8.726,8.726,0,0,1,5.81-1.75,9.915,9.915,0,0,1,4.322.823,8.429,8.429,0,0,1,2.818,2.153l-1.785,1.68a6.59,6.59,0,0,0-2.03-1.61,7.217,7.217,0,0,0-3.43-.7,5.926,5.926,0,0,0-3.657,1,3.521,3.521,0,0,0-1.312,2.993v.42l5.74.525a16.7,16.7,0,0,1,2.853.472,6.232,6.232,0,0,1,2.1.963A3.973,3.973,0,0,1,59.2-9.2,5.918,5.918,0,0,1,59.64-6.79v3.85a3,3,0,0,1-.752,2.135A2.9,2.9,0,0,1,56.665,0h-11.9Zm2.45-18.305H61.5v2.415H47.215ZM72.38.42a8,8,0,0,1-5.3-1.68,6.278,6.278,0,0,1-2.012-5.11,9.253,9.253,0,0,1,.158-1.8,7.987,7.987,0,0,1,.42-1.435,7.806,7.806,0,0,1,.613-1.208,11.452,11.452,0,0,1,.77-1.085q.77-1.015,1.295-1.873a3.519,3.519,0,0,0,.525-1.872,1.731,1.731,0,0,0-.507-1.382,1.837,1.837,0,0,0-1.243-.437,1.855,1.855,0,0,0-1.592.735,4.369,4.369,0,0,0-.683,2.17h-2.1v-4.865h2.345v2.415h.21a3.729,3.729,0,0,1,1.138-1.855,2.959,2.959,0,0,1,1.977-.665,2.89,2.89,0,0,1,2.275.945,3.5,3.5,0,0,1,.84,2.415,5.313,5.313,0,0,1-.49,2.275A21.229,21.229,0,0,1,69.65-11.48a12.046,12.046,0,0,0-1.19,2.222,6.026,6.026,0,0,0-.385,2.188v1.085A3.721,3.721,0,0,0,69.23-2.958,4.657,4.657,0,0,0,72.31-2a4.49,4.49,0,0,0,3.08-.963A3.48,3.48,0,0,0,76.475-5.7V-8.75a4.618,4.618,0,0,0-.7-2.748,2.251,2.251,0,0,0-1.925-.962h-.98V-14.7h1.05a2.625,2.625,0,0,0,1.942-.717,3.2,3.2,0,0,0,.717-2.328V-19.67h2.8v1.82a3.677,3.677,0,0,1-.315,1.558,4.024,4.024,0,0,1-.805,1.173,3.891,3.891,0,0,1-1.137.787,5,5,0,0,1-1.312.4v.175a4.339,4.339,0,0,1,2.765,2.275,8.919,8.919,0,0,1,.91,4.165,8.177,8.177,0,0,1-1.855,5.67A6.693,6.693,0,0,1,72.38.42Zm8.155-23.905A1.8,1.8,0,0,0,81.8-23.9a1.431,1.431,0,0,0,.455-1.11V-25.7a1.431,1.431,0,0,0-.455-1.11,1.8,1.8,0,0,0-1.26-.416,1.8,1.8,0,0,0-1.26.416,1.431,1.431,0,0,0-.455,1.11v.693a1.431,1.431,0,0,0,.455,1.11A1.8,1.8,0,0,0,80.535-23.485Zm0,1.89a3.9,3.9,0,0,1-2.835-1.02,3.647,3.647,0,0,1-1.05-2.743A3.647,3.647,0,0,1,77.7-28.1a3.9,3.9,0,0,1,2.835-1.02A3.9,3.9,0,0,1,83.37-28.1a3.647,3.647,0,0,1,1.05,2.743,3.647,3.647,0,0,1-1.05,2.743A3.9,3.9,0,0,1,80.535-21.6ZM76.475-31.85H79.1v-1.26q0-1.61-1.855-1.61h-.77v-1.785H78.19a3.568,3.568,0,0,1,2.4.665,2.184,2.184,0,0,1,.753,1.715,3.006,3.006,0,0,1-.28,1.225,1.755,1.755,0,0,1-.875.91v.14H85.61v1.82H76.475ZM93.24-13.125q0-4.025-4.165-4.025a4.744,4.744,0,0,0-2.747.735,6.219,6.219,0,0,0-1.8,1.96L82.81-15.96a6.773,6.773,0,0,1,2.363-2.555A7.357,7.357,0,0,1,89.25-19.53a7.185,7.185,0,0,1,5.04,1.61,5.873,5.873,0,0,1,1.75,4.55V0h-2.8Z" transform="translate(1430.649 760.623)" fill="#fff"/>
        <path id="Path_15" data-name="Path 15" d="M150.5.42q-4.8,0-7.1-3.325t-2.31-9.31q0-5.985,2.31-9.31t7.1-3.325q4.8,0,7.1,3.325t2.31,9.31q0,5.985-2.31,9.31T150.5.42Zm0-4.445a2.984,2.984,0,0,0,2.9-1.54,9.524,9.524,0,0,0,.805-4.34v-4.62a9.524,9.524,0,0,0-.805-4.34,2.984,2.984,0,0,0-2.9-1.54,2.984,2.984,0,0,0-2.9,1.54,9.524,9.524,0,0,0-.805,4.34v4.62a9.524,9.524,0,0,0,.805,4.34A2.984,2.984,0,0,0,150.5-4.025ZM166.425.385A3.085,3.085,0,0,1,164.1-.4a2.794,2.794,0,0,1-.753-2.013v-.7a2.794,2.794,0,0,1,.753-2.013,3.085,3.085,0,0,1,2.327-.788,3.085,3.085,0,0,1,2.327.788,2.794,2.794,0,0,1,.753,2.013v.7A2.794,2.794,0,0,1,168.753-.4,3.085,3.085,0,0,1,166.425.385ZM175.14,0V-4.235h6.58v-16.38H181.4l-4.97,6.51-3.36-2.625,5.845-7.7h8.05v20.2h5.18V0Zm28.21.42q-4.8,0-7.1-3.325t-2.31-9.31q0-5.985,2.31-9.31t7.1-3.325q4.8,0,7.1,3.325t2.31,9.31q0,5.985-2.31,9.31T203.35.42Zm0-4.445a2.984,2.984,0,0,0,2.9-1.54,9.524,9.524,0,0,0,.805-4.34v-4.62a9.524,9.524,0,0,0-.805-4.34,2.984,2.984,0,0,0-2.9-1.54,2.984,2.984,0,0,0-2.9,1.54,9.524,9.524,0,0,0-.805,4.34v4.62a9.524,9.524,0,0,0,.805,4.34A2.984,2.984,0,0,0,203.35-4.025ZM229.95.35a6.76,6.76,0,0,1-4.462-1.383,5.305,5.305,0,0,1-1.663-4.323A5.58,5.58,0,0,1,225.4-9.59a6.334,6.334,0,0,1,4.55-1.5h5.775V-12.11a3.625,3.625,0,0,0-.928-2.677,4.161,4.161,0,0,0-3.027-.928,5.9,5.9,0,0,0-1.785.245,5.92,5.92,0,0,0-1.4.648,6.154,6.154,0,0,0-1.12.91,8.335,8.335,0,0,0-.875,1.068l-3.29-2.87a9.739,9.739,0,0,1,3.36-2.992,11.476,11.476,0,0,1,5.46-1.1q4.375,0,6.58,1.908a7.024,7.024,0,0,1,2.205,5.617V0h-5.18V-7.805h-3.92q-2.73,0-2.73,2.24v.6a2.557,2.557,0,0,0,.56,1.733,2.056,2.056,0,0,0,1.645.647h.42a1.321,1.321,0,0,0,.42-.07l.35,2.765A2.47,2.47,0,0,1,232,.228a5.3,5.3,0,0,1-.665.07L230.6.333Q230.23.35,229.95.35Zm5.425-26.5h2.2v-1.19a1.179,1.179,0,0,0-.262-.858,1.554,1.554,0,0,0-1.067-.262h-.875v-3.57h2.9a4.173,4.173,0,0,1,2.66.753,2.477,2.477,0,0,1,.945,2.047,2.728,2.728,0,0,1-.542,1.628,3.576,3.576,0,0,1-1.488,1.172v.28h6.51v3.57h-10.99Zm18.165,13.3a3.053,3.053,0,0,0-.682-2.1,2.885,2.885,0,0,0-2.258-.77,3.919,3.919,0,0,0-2.38.648,6.579,6.579,0,0,0-1.47,1.488l-3.08-2.73a8.132,8.132,0,0,1,2.783-2.572,9.339,9.339,0,0,1,4.533-.928A8.536,8.536,0,0,1,256.76-18.1a6.294,6.294,0,0,1,1.96,5.005V0h-5.18ZM269.255.42a5.464,5.464,0,0,1-4.567-1.978A8.957,8.957,0,0,1,263.13-7.21V-19.39h5.18V-7.665a8.139,8.139,0,0,0,.14,1.558,3.217,3.217,0,0,0,.49,1.225,2.428,2.428,0,0,0,.962.8,3.472,3.472,0,0,0,1.522.3,4.467,4.467,0,0,0,1.277-.193,3.379,3.379,0,0,0,1.138-.577,3.154,3.154,0,0,0,.8-.945,2.6,2.6,0,0,0,.315-1.295v-12.6h5.18V-4.025h1.715V0H278.74q-3.15,0-3.255-3.605h-.245a6.85,6.85,0,0,1-.753,1.523A5.352,5.352,0,0,1,273.3-.805a5.679,5.679,0,0,1-1.715.893A7.368,7.368,0,0,1,269.255.42Zm15.96-12.005a8.316,8.316,0,0,1,.665-3.4,7.431,7.431,0,0,1,1.89-2.59,8.366,8.366,0,0,1,2.992-1.663,12.755,12.755,0,0,1,3.973-.577,12.755,12.755,0,0,1,3.973.577A8.366,8.366,0,0,1,301.7-17.57a7.431,7.431,0,0,1,1.89,2.59,8.316,8.316,0,0,1,.665,3.4V0h-5.18V-11.34a4.341,4.341,0,0,0-1.155-3.238,4.342,4.342,0,0,0-3.185-1.137,4.342,4.342,0,0,0-3.185,1.137,4.341,4.341,0,0,0-1.155,3.238v4.165h.175a5.709,5.709,0,0,1,.49-1.487,4.539,4.539,0,0,1,.928-1.278,4.342,4.342,0,0,1,1.383-.892,4.929,4.929,0,0,1,1.89-.332h.91v4.83h-1.3a7.378,7.378,0,0,0-3.378.6,2.278,2.278,0,0,0-1.1,2.205V0h-5.18ZM314.79.42a5.464,5.464,0,0,1-4.567-1.978,8.957,8.957,0,0,1-1.558-5.653V-19.39h5.18V-7.665a8.139,8.139,0,0,0,.14,1.558,3.217,3.217,0,0,0,.49,1.225,2.428,2.428,0,0,0,.962.8,3.472,3.472,0,0,0,1.522.3,4.467,4.467,0,0,0,1.277-.193,3.379,3.379,0,0,0,1.138-.577,3.154,3.154,0,0,0,.8-.945,2.6,2.6,0,0,0,.315-1.295v-12.6h5.18V-4.025h1.715V0h-3.115q-3.15,0-3.255-3.605h-.245a6.85,6.85,0,0,1-.753,1.523,5.352,5.352,0,0,1-1.19,1.277,5.679,5.679,0,0,1-1.715.893A7.368,7.368,0,0,1,314.79.42Z" transform="translate(1432.259 760.623)" fill="#fdb913"/>
      </g>
      <g id="Group_11" data-name="Group 11">
        <path id="Path_18" data-name="Path 18" d="M11.8,42V37.31H1.05V32.795L10.57,17.57H16.8V33.215h3.08v4.1H16.8V42ZM5.25,33.215H11.8V22.995h-.35Zm21.175,9.17A3.085,3.085,0,0,1,24.1,41.6a2.794,2.794,0,0,1-.753-2.013v-.7a2.794,2.794,0,0,1,.753-2.012,3.085,3.085,0,0,1,2.327-.788,3.085,3.085,0,0,1,2.328.788,2.794,2.794,0,0,1,.753,2.012v.7a2.794,2.794,0,0,1-.753,2.013A3.085,3.085,0,0,1,26.425,42.385Zm16.065.035a10.436,10.436,0,0,1-3.885-.682,7.738,7.738,0,0,1-2.888-1.96,8.586,8.586,0,0,1-1.785-3.062,12.241,12.241,0,0,1-.612-3.99,14.817,14.817,0,0,1,.788-4.847,19.7,19.7,0,0,1,2.03-4.235,20.119,20.119,0,0,1,2.8-3.483,21.267,21.267,0,0,1,3.132-2.59h7.245q-2.24,1.61-4.025,3.062a26.91,26.91,0,0,0-3.1,2.923,17.15,17.15,0,0,0-2.17,2.993,11.033,11.033,0,0,0-1.207,3.272l.315.1a9.8,9.8,0,0,1,.752-1.365,4.919,4.919,0,0,1,1.085-1.173,5.425,5.425,0,0,1,1.523-.823,5.983,5.983,0,0,1,2.03-.315,7.3,7.3,0,0,1,2.818.542,6.781,6.781,0,0,1,2.275,1.522,6.879,6.879,0,0,1,1.5,2.4,8.7,8.7,0,0,1,.543,3.133,9.028,9.028,0,0,1-.648,3.465,7.7,7.7,0,0,1-1.855,2.712A8.515,8.515,0,0,1,46.27,41.79,10.7,10.7,0,0,1,42.49,42.42Zm0-4.095a3.729,3.729,0,0,0,2.73-.963,3.678,3.678,0,0,0,.98-2.748v-.63a3.678,3.678,0,0,0-.98-2.748,3.729,3.729,0,0,0-2.73-.962,3.729,3.729,0,0,0-2.73.962,3.678,3.678,0,0,0-.98,2.748v.63a3.678,3.678,0,0,0,.98,2.748A3.729,3.729,0,0,0,42.49,38.325ZM63.35,42.42q-4.8,0-7.1-3.325t-2.31-9.31q0-5.985,2.31-9.31t7.1-3.325q4.795,0,7.105,3.325t2.31,9.31q0,5.985-2.31,9.31T63.35,42.42Zm0-4.445a2.984,2.984,0,0,0,2.9-1.54,9.524,9.524,0,0,0,.805-4.34v-4.62a9.524,9.524,0,0,0-.805-4.34,3.51,3.51,0,0,0-5.81,0,9.524,9.524,0,0,0-.805,4.34V32.1a9.524,9.524,0,0,0,.805,4.34A2.984,2.984,0,0,0,63.35,37.975Zm26.6,4.375a6.76,6.76,0,0,1-4.462-1.382,5.305,5.305,0,0,1-1.663-4.322A5.58,5.58,0,0,1,85.4,32.41,6.334,6.334,0,0,1,89.95,30.9h5.775V29.89a3.625,3.625,0,0,0-.927-2.677,4.161,4.161,0,0,0-3.027-.927,5.655,5.655,0,0,0-3.185.892,6.153,6.153,0,0,0-1.12.91,8.333,8.333,0,0,0-.875,1.067l-3.29-2.87a9.739,9.739,0,0,1,3.36-2.993,11.476,11.476,0,0,1,5.46-1.1q4.375,0,6.58,1.908a7.024,7.024,0,0,1,2.2,5.618V42h-5.18V34.195h-3.92q-2.73,0-2.73,2.24v.6a2.557,2.557,0,0,0,.56,1.733,2.056,2.056,0,0,0,1.645.647h.42a1.321,1.321,0,0,0,.42-.07l.35,2.765a2.471,2.471,0,0,1-.473.123,5.3,5.3,0,0,1-.665.07l-.735.035Q90.23,42.35,89.95,42.35Zm5.425-26.495H97.58v-1.19a1.179,1.179,0,0,0-.262-.858,1.554,1.554,0,0,0-1.068-.262h-.875V9.975h2.9a4.173,4.173,0,0,1,2.66.753,2.477,2.477,0,0,1,.945,2.047,2.728,2.728,0,0,1-.543,1.628,3.576,3.576,0,0,1-1.487,1.172v.28h6.51v3.57H95.375Zm18.165,13.3a3.053,3.053,0,0,0-.682-2.1,2.885,2.885,0,0,0-2.257-.77,3.92,3.92,0,0,0-2.38.647,6.578,6.578,0,0,0-1.47,1.488l-3.08-2.73a8.132,8.132,0,0,1,2.782-2.572,9.339,9.339,0,0,1,4.533-.928A8.536,8.536,0,0,1,116.76,23.9a6.294,6.294,0,0,1,1.96,5.005V42h-5.18ZM129.255,42.42a5.464,5.464,0,0,1-4.568-1.977,8.957,8.957,0,0,1-1.557-5.653V22.61h5.18V34.335a8.138,8.138,0,0,0,.14,1.558,3.216,3.216,0,0,0,.49,1.225,2.429,2.429,0,0,0,.962.805,3.472,3.472,0,0,0,1.523.3,4.467,4.467,0,0,0,1.277-.193,3.378,3.378,0,0,0,1.137-.577,3.154,3.154,0,0,0,.805-.945,2.6,2.6,0,0,0,.315-1.3V22.61h5.18V37.975h1.715V42H138.74q-3.15,0-3.255-3.6h-.245a6.85,6.85,0,0,1-.753,1.522,5.352,5.352,0,0,1-1.19,1.278,5.679,5.679,0,0,1-1.715.893A7.368,7.368,0,0,1,129.255,42.42Zm15.96-12a8.316,8.316,0,0,1,.665-3.4,7.431,7.431,0,0,1,1.89-2.59,8.366,8.366,0,0,1,2.993-1.663,13.952,13.952,0,0,1,7.945,0A8.366,8.366,0,0,1,161.7,24.43a7.431,7.431,0,0,1,1.89,2.59,8.316,8.316,0,0,1,.665,3.4V42h-5.18V30.66a4.349,4.349,0,1,0-8.68,0v4.165h.175a5.708,5.708,0,0,1,.49-1.487,4.539,4.539,0,0,1,.927-1.278,4.342,4.342,0,0,1,1.383-.892,4.929,4.929,0,0,1,1.89-.333h.91v4.83h-1.295a7.378,7.378,0,0,0-3.378.595,2.278,2.278,0,0,0-1.1,2.205V42h-5.18Zm29.575,12a5.464,5.464,0,0,1-4.568-1.977,8.957,8.957,0,0,1-1.557-5.653V22.61h5.18V34.335a8.138,8.138,0,0,0,.14,1.558,3.216,3.216,0,0,0,.49,1.225,2.429,2.429,0,0,0,.962.805,3.472,3.472,0,0,0,1.523.3,4.467,4.467,0,0,0,1.277-.193,3.378,3.378,0,0,0,1.137-.577,3.154,3.154,0,0,0,.805-.945,2.6,2.6,0,0,0,.315-1.3V22.61h5.18V37.975h1.715V42h-3.115q-3.15,0-3.255-3.6h-.245a6.85,6.85,0,0,1-.753,1.522,5.352,5.352,0,0,1-1.19,1.278,5.679,5.679,0,0,1-1.715.893A7.368,7.368,0,0,1,174.79,42.42Z" transform="translate(1572.259 760.623)" fill="#fdb913"/>
        <path id="Path_17" data-name="Path 17" d="M8.575,42.35a6.971,6.971,0,0,1-4.62-1.435A5.123,5.123,0,0,1,2.24,36.75a5.065,5.065,0,0,1,1.7-4.1A6.957,6.957,0,0,1,8.575,31.22h6.09V29.4q0-4.515-4.935-4.515a6.687,6.687,0,0,0-3.517.858A6.553,6.553,0,0,0,3.92,28.1L2.135,26.53a7.607,7.607,0,0,1,2.8-2.887A9.252,9.252,0,0,1,9.87,22.47a8.5,8.5,0,0,1,4.865,1.26,1.754,1.754,0,0,1,1.96-1.82H21.35V24.5H15.715a6.432,6.432,0,0,1,1.75,4.76V42h-2.8V33.215H9.2a4.736,4.736,0,0,0-2.94.805,2.7,2.7,0,0,0-1.05,2.275V37.1a2.979,2.979,0,0,0,.963,2.4,3.881,3.881,0,0,0,2.608.822,8.065,8.065,0,0,0,.822-.035q.332-.035.543-.07L10.4,42.14a2.5,2.5,0,0,1-.788.158Q9.03,42.35,8.575,42.35Zm-1.4-25.62h14.28v2.415H7.175ZM24.43,22.89h2.8V26h.175a7.647,7.647,0,0,1,.717-1.312,4.5,4.5,0,0,1,1.12-1.137,5.752,5.752,0,0,1,1.61-.788,7.057,7.057,0,0,1,2.153-.3,6.128,6.128,0,0,1,4.778,1.907,7.817,7.817,0,0,1,1.732,5.443V42h-2.8V30.17q0-5.32-4.62-5.32a6.59,6.59,0,0,0-1.785.245,4.919,4.919,0,0,0-1.558.735,3.828,3.828,0,0,0-1.1,1.225,3.4,3.4,0,0,0-.42,1.715V42h-2.8ZM44.765,35.035h2.59v4.62H56.84V35.77a7.536,7.536,0,0,0-.14-1.54,2.283,2.283,0,0,0-.6-1.138,3.283,3.283,0,0,0-1.33-.77,10.667,10.667,0,0,0-2.345-.437l-8.015-.7V29.12a6.073,6.073,0,0,1,2.065-4.9,8.726,8.726,0,0,1,5.81-1.75,9.915,9.915,0,0,1,4.322.823,8.429,8.429,0,0,1,2.818,2.153l-1.785,1.68a6.59,6.59,0,0,0-2.03-1.61,7.217,7.217,0,0,0-3.43-.7,5.926,5.926,0,0,0-3.657,1,3.521,3.521,0,0,0-1.312,2.993v.42l5.74.525a16.7,16.7,0,0,1,2.853.472,6.232,6.232,0,0,1,2.1.962,3.973,3.973,0,0,1,1.3,1.61,5.918,5.918,0,0,1,.438,2.415v3.85a3,3,0,0,1-.752,2.135A2.9,2.9,0,0,1,56.665,42h-11.9Zm2.45-18.305H61.5v2.415H47.215ZM70.14,42.42a10.246,10.246,0,0,1-2.625-.332,7.38,7.38,0,0,1-2.17-.928L66.4,39.1a6.98,6.98,0,0,0,3.675.91,4.564,4.564,0,0,0,3.745-1.628,6.912,6.912,0,0,0,1.33-4.5V31.01a7.125,7.125,0,0,0-1.278-4.48,4.512,4.512,0,0,0-3.8-1.645,5.661,5.661,0,0,0-3.115.788,5.172,5.172,0,0,0-1.89,2.188L62.79,26.7a7.178,7.178,0,0,1,2.695-3.062A8.451,8.451,0,0,1,70.14,22.47a7.091,7.091,0,0,1,5.968,2.642,11.708,11.708,0,0,1,2.047,7.333,11.5,11.5,0,0,1-2.1,7.333A7.123,7.123,0,0,1,70.14,42.42Zm7.035-29.75H79.9v6.475h-2.73ZM91.21,28.875q0-4.025-4.165-4.025a4.744,4.744,0,0,0-2.747.735,6.219,6.219,0,0,0-1.8,1.96l-1.715-1.5a6.773,6.773,0,0,1,2.363-2.555A7.357,7.357,0,0,1,87.22,22.47a7.185,7.185,0,0,1,5.04,1.61,5.873,5.873,0,0,1,1.75,4.55V42h-2.8Zm6.72-.7h3.01l5.075,11.48h.1a4.1,4.1,0,0,0,3.413-1.522,6.683,6.683,0,0,0,1.207-4.252V31.01a6.546,6.546,0,0,0-1.207-4.2A4.125,4.125,0,0,0,106.12,25.3H105V22.89h1.155a6.736,6.736,0,0,1,5.6,2.52,11.07,11.07,0,0,1,2,7.035,11.14,11.14,0,0,1-1.978,7.035A6.687,6.687,0,0,1,106.19,42h-2.17Z" transform="translate(1430.649 760.623)" fill="#fff"/>
      </g>
      <g id="Group_12" data-name="Group 12">
        <path id="Path_20" data-name="Path 20" d="M150.5,84.42q-4.8,0-7.1-3.325t-2.31-9.31q0-5.985,2.31-9.31t7.1-3.325q4.8,0,7.1,3.325t2.31,9.31q0,5.985-2.31,9.31T150.5,84.42Zm0-4.445a2.984,2.984,0,0,0,2.9-1.54,9.524,9.524,0,0,0,.805-4.34v-4.62a9.524,9.524,0,0,0-.805-4.34,3.51,3.51,0,0,0-5.81,0,9.524,9.524,0,0,0-.805,4.34V74.1a9.524,9.524,0,0,0,.805,4.34A2.984,2.984,0,0,0,150.5,79.975Zm15.925,4.41A3.085,3.085,0,0,1,164.1,83.6a2.794,2.794,0,0,1-.753-2.013v-.7a2.794,2.794,0,0,1,.753-2.013,3.833,3.833,0,0,1,4.655,0,2.794,2.794,0,0,1,.753,2.013v.7a2.794,2.794,0,0,1-.753,2.013A3.085,3.085,0,0,1,166.425,84.385Zm15.925.035q-4.8,0-7.1-3.325t-2.31-9.31q0-5.985,2.31-9.31t7.1-3.325q4.8,0,7.1,3.325t2.31,9.31q0,5.985-2.31,9.31T182.35,84.42Zm0-4.445a2.984,2.984,0,0,0,2.9-1.54,9.524,9.524,0,0,0,.805-4.34v-4.62a9.524,9.524,0,0,0-.805-4.34,3.51,3.51,0,0,0-5.81,0,9.524,9.524,0,0,0-.805,4.34V74.1a9.524,9.524,0,0,0,.805,4.34A2.984,2.984,0,0,0,182.35,79.975ZM202.02,69.23a4.394,4.394,0,0,0,2.853-.752,2.352,2.352,0,0,0,.893-1.873V66.36a2.79,2.79,0,0,0-.858-2.135,3.419,3.419,0,0,0-2.432-.805,5.414,5.414,0,0,0-2.765.753,6.57,6.57,0,0,0-2.205,2.152l-3.29-3.08a13.72,13.72,0,0,1,1.5-1.662,8.554,8.554,0,0,1,1.82-1.3,9.376,9.376,0,0,1,2.275-.84,12.37,12.37,0,0,1,2.835-.3,12.918,12.918,0,0,1,3.552.455,8.252,8.252,0,0,1,2.73,1.313,5.972,5.972,0,0,1,1.75,2.048,6.126,6.126,0,0,1,.245,4.76,5.136,5.136,0,0,1-1.015,1.645,5.427,5.427,0,0,1-1.488,1.137,6.341,6.341,0,0,1-1.785.612v.21a7.583,7.583,0,0,1,2.012.682,5.717,5.717,0,0,1,1.61,1.208,5.343,5.343,0,0,1,1.067,1.732,6.232,6.232,0,0,1,.385,2.257,6.4,6.4,0,0,1-2.555,5.25,8.889,8.889,0,0,1-2.94,1.452,13.285,13.285,0,0,1-3.78.507,12.737,12.737,0,0,1-3.29-.385,9.6,9.6,0,0,1-2.5-1.033,8.725,8.725,0,0,1-1.855-1.488,11.8,11.8,0,0,1-1.383-1.785l3.885-3.01a8.057,8.057,0,0,0,1.977,2.467,4.843,4.843,0,0,0,3.167.963,4.027,4.027,0,0,0,2.783-.893,3.1,3.1,0,0,0,1-2.433v-.21a2.526,2.526,0,0,0-1.137-2.257,5.629,5.629,0,0,0-3.132-.753h-2.205V69.23Zm27.93,15.12a6.76,6.76,0,0,1-4.462-1.382,5.305,5.305,0,0,1-1.663-4.323A5.58,5.58,0,0,1,225.4,74.41a6.334,6.334,0,0,1,4.55-1.5h5.775V71.89a3.625,3.625,0,0,0-.928-2.677,4.161,4.161,0,0,0-3.027-.928,5.655,5.655,0,0,0-3.185.893,6.153,6.153,0,0,0-1.12.91,8.335,8.335,0,0,0-.875,1.067l-3.29-2.87a9.739,9.739,0,0,1,3.36-2.993,11.476,11.476,0,0,1,5.46-1.1q4.375,0,6.58,1.908a7.024,7.024,0,0,1,2.205,5.617V84h-5.18V76.195h-3.92q-2.73,0-2.73,2.24v.6a2.557,2.557,0,0,0,.56,1.732,2.056,2.056,0,0,0,1.645.648h.42a1.321,1.321,0,0,0,.42-.07l.35,2.765a2.47,2.47,0,0,1-.473.122,5.3,5.3,0,0,1-.665.07l-.735.035Q230.23,84.35,229.95,84.35Zm5.425-26.495h2.2v-1.19a1.179,1.179,0,0,0-.262-.858,1.554,1.554,0,0,0-1.067-.263h-.875v-3.57h2.9a4.173,4.173,0,0,1,2.66.753,2.477,2.477,0,0,1,.945,2.047,2.728,2.728,0,0,1-.542,1.628,3.576,3.576,0,0,1-1.488,1.172v.28h6.51v3.57h-10.99Zm18.165,13.3a3.053,3.053,0,0,0-.682-2.1,2.885,2.885,0,0,0-2.258-.77,3.92,3.92,0,0,0-2.38.647,6.579,6.579,0,0,0-1.47,1.488l-3.08-2.73a8.132,8.132,0,0,1,2.783-2.573,9.339,9.339,0,0,1,4.533-.927A8.536,8.536,0,0,1,256.76,65.9a6.294,6.294,0,0,1,1.96,5.005V84h-5.18ZM269.255,84.42a5.464,5.464,0,0,1-4.567-1.978,8.957,8.957,0,0,1-1.558-5.652V64.61h5.18V76.335a8.139,8.139,0,0,0,.14,1.558,3.217,3.217,0,0,0,.49,1.225,2.428,2.428,0,0,0,.962.805,3.472,3.472,0,0,0,1.522.3,4.467,4.467,0,0,0,1.277-.193,3.379,3.379,0,0,0,1.138-.577,3.154,3.154,0,0,0,.8-.945,2.6,2.6,0,0,0,.315-1.295V64.61h5.18V79.975h1.715V84H278.74q-3.15,0-3.255-3.605h-.245a6.851,6.851,0,0,1-.753,1.523,5.352,5.352,0,0,1-1.19,1.277,5.679,5.679,0,0,1-1.715.893A7.368,7.368,0,0,1,269.255,84.42Zm15.96-12a8.316,8.316,0,0,1,.665-3.4,7.431,7.431,0,0,1,1.89-2.59,8.366,8.366,0,0,1,2.992-1.662,13.952,13.952,0,0,1,7.945,0A8.366,8.366,0,0,1,301.7,66.43a7.431,7.431,0,0,1,1.89,2.59,8.316,8.316,0,0,1,.665,3.4V84h-5.18V72.66a4.349,4.349,0,1,0-8.68,0v4.165h.175a5.709,5.709,0,0,1,.49-1.487,4.539,4.539,0,0,1,.928-1.278,4.342,4.342,0,0,1,1.383-.893,4.929,4.929,0,0,1,1.89-.332h.91v4.83h-1.3a7.378,7.378,0,0,0-3.378.6,2.278,2.278,0,0,0-1.1,2.2V84h-5.18Zm29.575,12a5.464,5.464,0,0,1-4.567-1.978,8.957,8.957,0,0,1-1.558-5.652V64.61h5.18V76.335a8.139,8.139,0,0,0,.14,1.558,3.217,3.217,0,0,0,.49,1.225,2.428,2.428,0,0,0,.962.805,3.472,3.472,0,0,0,1.522.3,4.467,4.467,0,0,0,1.277-.193,3.379,3.379,0,0,0,1.138-.577,3.154,3.154,0,0,0,.8-.945,2.6,2.6,0,0,0,.315-1.295V64.61h5.18V79.975h1.715V84h-3.115q-3.15,0-3.255-3.605h-.245a6.851,6.851,0,0,1-.753,1.523,5.352,5.352,0,0,1-1.19,1.277,5.679,5.679,0,0,1-1.715.893A7.368,7.368,0,0,1,314.79,84.42Z" transform="translate(1430.649 760.623)" fill="#fdb913"/>
        <path id="Path_19" data-name="Path 19" d="M10.325,84.42a9.9,9.9,0,0,1-3.15-.49A7.565,7.565,0,0,1,4.62,82.512a6.869,6.869,0,0,1-1.715-2.2,6.362,6.362,0,0,1-.63-2.853V75.67a2.729,2.729,0,0,1,.42-1.628,2.129,2.129,0,0,1,1.785-.577H8.19V75.88H5.11v1.435a5.242,5.242,0,0,0,.4,2.135,3.975,3.975,0,0,0,1.1,1.488,4.569,4.569,0,0,0,1.7.857,7.937,7.937,0,0,0,2.153.28,5.266,5.266,0,0,0,4.095-1.61,6.453,6.453,0,0,0,1.47-4.515V73.08a6.255,6.255,0,0,0-1.592-4.568,5.91,5.91,0,0,0-4.428-1.628,7.6,7.6,0,0,0-3.745.875A6.675,6.675,0,0,0,3.78,70.1l-1.82-1.61a7.809,7.809,0,0,1,2.993-2.87,10.36,10.36,0,0,1,5.2-1.155,8.283,8.283,0,0,1,6.563,2.643,10.718,10.718,0,0,1,2.327,7.332,14.259,14.259,0,0,1-.56,4.13,8.641,8.641,0,0,1-1.662,3.15,7.333,7.333,0,0,1-2.73,2A9.453,9.453,0,0,1,10.325,84.42ZM6.86,58.73h6.65V56.175h2.485V58.87h2.52V56.175H21.14v4.97H6.86Zm11.69-9.975h2.59V53.97H18.55ZM30.415,84.42a6.046,6.046,0,0,1-4.76-1.925A7.881,7.881,0,0,1,23.94,77.07V64.89h2.8V76.72q0,5.32,4.55,5.32a6.464,6.464,0,0,0,1.75-.245,4.709,4.709,0,0,0,1.54-.735,3.915,3.915,0,0,0,1.085-1.225,3.4,3.4,0,0,0,.42-1.715V64.89h2.8V81.515h2.24V84H39.06a2.422,2.422,0,0,1-2.047-.84,3.937,3.937,0,0,1-.752-2.135h-.14a4.57,4.57,0,0,1-2.083,2.5A7.038,7.038,0,0,1,30.415,84.42Zm26.04-14.805a4.376,4.376,0,0,0-.385-1.96,1.552,1.552,0,0,0-1.54-.77,1.427,1.427,0,0,0-.84.245,1.9,1.9,0,0,0-.577.665,4.308,4.308,0,0,0-.368.945,5.483,5.483,0,0,0-.175,1.05H50.75q-.07-.525-.175-1.05a3.748,3.748,0,0,0-.315-.945,1.815,1.815,0,0,0-.542-.665,1.349,1.349,0,0,0-.823-.245,1.5,1.5,0,0,0-1.47.735,3.976,3.976,0,0,0-.385,1.855v1.5a3.49,3.49,0,0,0,.543,2,2.091,2.091,0,0,0,1.872.805q.28,0,.49-.018t.6-.087l.28,2.135a7.093,7.093,0,0,1-.963.14q-.472.035-.752.035A4.427,4.427,0,0,1,45.43,74.41a6.768,6.768,0,0,1-1.26-4.34,7.72,7.72,0,0,1,.928-4.147A3.428,3.428,0,0,1,48.23,64.47a3.509,3.509,0,0,1,2.2.7,3.388,3.388,0,0,1,1.19,2.135H51.8a3.57,3.57,0,0,1,1.208-2.135,3.491,3.491,0,0,1,2.222-.7,3.541,3.541,0,0,1,2.993,1.347,5.507,5.507,0,0,1,1.032,3.448V90.3h-2.8Z" transform="translate(1430.649 760.623)" fill="#fff"/>
      </g>
    </g>
  </g>
</svg>
