<svg xmlns="http://www.w3.org/2000/svg" width="1332.086" height="1646.966" viewBox="0 0 1332.086 1646.966">
  <g id="mobile" transform="translate(0 1.52)">
    <g id="Group_514" data-name="Group 514" transform="translate(58 27.116)">
      <g id="Group_496" data-name="Group 496" transform="translate(15 0.035)">
        <g id="Group_15" data-name="Group 15">
          <line id="Line_6" data-name="Line 6" y1="1396.795" transform="translate(85.332 220)" fill="none" stroke="#fff" stroke-linecap="round" stroke-linejoin="round" stroke-width="3"/>
          <g id="Group_14" data-name="Group 14">
            <path id="Path_16" data-name="Path 16" d="M8503.921,1756.58a93.152,93.152,0,1,1-93.15-93.155A93.152,93.152,0,0,1,8503.921,1756.58Z" transform="translate(-8326.616 -1622.724)" fill="#f24c3b" stroke="#fff" stroke-linecap="round" stroke-linejoin="round" stroke-width="3"/>
            <path id="Path_17" data-name="Path 17" d="M8469.16,1754.276a60.694,60.694,0,1,1-60.691-60.7A60.69,60.69,0,0,1,8469.16,1754.276Z" transform="translate(-8324.616 -1620.123)" fill="#fff" stroke="#fff" stroke-linecap="round" stroke-linejoin="round" stroke-width="3"/>
            <path id="Path_18" data-name="Path 18" d="M8442.668,1756.737A31.738,31.738,0,1,1,8410.931,1725,31.734,31.734,0,0,1,8442.668,1756.737Z" transform="translate(-8326.616 -1623.044)" fill="#f24c3b" stroke="#fff" stroke-linecap="round" stroke-linejoin="round" stroke-width="3"/>
            <path id="Path_19" data-name="Path 19" d="M8553.3,1660.308l-26.679-5.508,12.693-13.631a6.723,6.723,0,1,0-9.841-9.162l-12.689,13.631-7.4-26.218a6.725,6.725,0,0,0-12.944,3.652l9.619,34.084-8.946,9.61-6.921-24.524a6.724,6.724,0,0,0-12.942,3.653l9.14,32.388-87.067,94.539a6.723,6.723,0,1,0,9.842,9.163l85.818-93.2,36.411,7.511a6.723,6.723,0,0,0,2.715-13.169l-28.4-5.86,10.2-10.953,34.68,7.16a6.723,6.723,0,1,0,2.718-13.169Z" transform="translate(-8317.616 -1641.672)" fill="#f24c3b" stroke="#fff" stroke-linecap="round" stroke-linejoin="round" stroke-width="3"/>
          </g>
        </g>
      </g>
      <g id="Group_505" data-name="Group 505" transform="translate(0 420)">
        <g id="Group_513" data-name="Group 513">
          <text id="_5" data-name="5" transform="translate(70 140)" fill="#fff" font-size="130" font-family="IBMPlexSansThai-Bold, IBM Plex Sans Thai" font-weight="700"><tspan x="-78" y="0">5</tspan></text>
          <text id="จัดตั้งกองทุนควบคุมโรคตามแนวชายแดน_โดยเฉพาะกลุ่มบุคคลที่มีปัญหาความมั่นคง" data-name="จัดตั้งกองทุนควบคุมโรคตามแนวชายแดน 
โดยเฉพาะกลุ่มบุคคลที่มีปัญหาความมั่นคง" transform="translate(150 91.586)" font-size="40" font-family="IBMPlexSansThai, IBM Plex Sans Thai"><tspan x="0" y="0">จัดตั้งกองทุนควบคุมโรคตามแนวชายแดน </tspan><tspan x="0" y="50">โดยเฉพาะกลุ่มบุคคลที่มีปัญหาความมั่นคง</tspan></text>
        </g>
      </g>
      <g id="Group_512" data-name="Group 512" transform="translate(0 103.965)">
        <text id="_4" data-name="4" transform="translate(70 629.035)" fill="#fff" font-size="130" font-family="IBMPlexSansThai-Bold, IBM Plex Sans Thai" font-weight="700"><tspan x="-78" y="0">4</tspan></text>
        <text id="จัดตั้งอาสาสมัครสาธารณสุขชายแดน_อสช._โดยกลุ่มชาติพันธุ์" data-name="จัดตั้งอาสาสมัครสาธารณสุขชายแดน (อสช.) 
โดยกลุ่มชาติพันธุ์" transform="translate(155.086 579.848)" font-size="40" font-family="IBMPlexSansThai, IBM Plex Sans Thai"><tspan x="0" y="0">จัดตั้งอาสาสมัครสาธารณสุขชายแดน (อสช.) </tspan><tspan x="0" y="50">โดยกลุ่มชาติพันธุ์</tspan></text>
      </g>
      <g id="Group_506" data-name="Group 506" transform="translate(0 103.965)">
        <g id="Group_509" data-name="Group 509">
          <text id="_3" data-name="3" transform="translate(70 802.034)" fill="#fff" font-size="130" font-family="IBMPlexSansThai-Bold, IBM Plex Sans Thai" font-weight="700"><tspan x="-78" y="0">3</tspan></text>
          <text id="ปรับปรุงระบบเบิกจ่ายและระบบสนับสนุนเพื่อลดภาระผู้ปฏิบัติงาน" transform="translate(155.086 763.034)" font-size="40" font-family="IBMPlexSansThai, IBM Plex Sans Thai"><tspan x="0" y="0">ปรับปรุงระบบเบิกจ่ายและระบบสนับสนุนเพื่อลดภาระผู้ปฏิบัติงาน</tspan></text>
        </g>
      </g>
      <g id="Group_507" data-name="Group 507" transform="translate(0 103.965)">
        <g id="Group_510" data-name="Group 510">
          <text id="_2" data-name="2" transform="translate(70 975.034)" fill="#fff" font-size="130" font-family="IBMPlexSansThai-Bold, IBM Plex Sans Thai" font-weight="700"><tspan x="-78" y="0">2</tspan></text>
          <text id="พัฒนาการบริหารจัดการกองทุน_ให้มีประสิทธิภาพยิ่งขึ้น_" data-name="พัฒนาการบริหารจัดการกองทุนฯ ให้มีประสิทธิภาพยิ่งขึ้น " transform="translate(155.086 936.034)" font-size="40" font-family="IBMPlexSansThai, IBM Plex Sans Thai"><tspan x="0" y="0">พัฒนาการบริหารจัดการกองทุนฯ ให้มีประสิทธิภาพยิ่งขึ้น </tspan></text>
        </g>
      </g>
      <g id="Group_508" data-name="Group 508" transform="translate(0 -0.035)">
        <g id="Group_511" data-name="Group 511" transform="translate(0 116)">
          <text id="_1" data-name="1" transform="translate(72 1150.621)" fill="#fff" font-size="130" font-family="IBMPlexSansThai-Bold, IBM Plex Sans Thai" font-weight="700"><tspan x="-78" y="0">1</tspan></text>
          <text id="ขยายสิทธิประโยชน์ให้เท่าเทียมกับระบบหลักประกันสุขภาพถ้วนหน้า_เน้นการบริหารเชิงรุก_และลดอุปสรรคการเข้าถึงบริการ_เช่น_ภาษาในการสื่อสาร" data-name="ขยายสิทธิประโยชน์ให้เท่าเทียมกับระบบหลักประกันสุขภาพถ้วนหน้า 
เน้นการบริหารเชิงรุก และลดอุปสรรคการเข้าถึงบริการ
เช่น ภาษาในการสื่อสาร" transform="translate(155.086 1061.621)" font-size="40" font-family="IBMPlexSansThai, IBM Plex Sans Thai"><tspan x="0" y="0">ขยายสิทธิประโยชน์ให้เท่าเทียมกับระบบหลักประกันสุขภาพถ้วนหน้า </tspan><tspan x="0" y="50">เน้นการบริหารเชิงรุก และลดอุปสรรคการเข้าถึงบริการ</tspan><tspan x="0" y="100">เช่น ภาษาในการสื่อสาร</tspan></text>
        </g>
      </g>
    </g>
  </g>
</svg>
