<svg xmlns="http://www.w3.org/2000/svg" width="80" height="80" viewBox="0 0 80 80">
  <path id="Path_6" data-name="Path 6" d="M8316.905,7242a40,40,0,1,0,40,40A40,40,0,0,0,8316.905,7242Zm23.387,28.221a19.53,19.53,0,0,1-4.552,4.531c.021.409.033.824.033,1.236a26.327,26.327,0,0,1-.666,5.777,28.067,28.067,0,0,1-8.788,14.875,27.068,27.068,0,0,1-18.211,6.574,27.85,27.85,0,0,1-14.9-4.3,20.581,20.581,0,0,0,2.315.13,19.679,19.679,0,0,0,11.944-4,.06.06,0,0,0-.036-.106,9.719,9.719,0,0,1-8.889-6.551.056.056,0,0,1,.062-.072,9.635,9.635,0,0,0,1.743.162,10.257,10.257,0,0,0,2.567-.337,9.813,9.813,0,0,1-7.142-5.918,12.892,12.892,0,0,1-.655-3.5.047.047,0,0,1,.073-.043,9.83,9.83,0,0,0,4.117,1.144.06.06,0,0,0,.035-.109,9.472,9.472,0,0,1-2.878-12.59.054.054,0,0,1,.089-.008,27.757,27.757,0,0,0,19.987,9.939,9.569,9.569,0,0,1,9.466-11.749,9.774,9.774,0,0,1,7.1,3.023,19.606,19.606,0,0,0,5.826-2.128.151.151,0,0,1,.217.181,9.608,9.608,0,0,1-4.143,4.916,19.743,19.743,0,0,0,5.1-1.3A.148.148,0,0,1,8340.292,7270.221Z" transform="translate(-8276.901 -7242)" fill="#fff"/>
</svg>
