<svg xmlns="http://www.w3.org/2000/svg" width="80" height="80" viewBox="0 0 80 80">
  <g id="Group_4" data-name="Group 4" transform="translate(-8386.901 -7242)">
    <path id="Path_1" data-name="Path 1" d="M8426.9,7242a40,40,0,1,0,40,40A40,40,0,0,0,8426.9,7242Zm20.948,49.549c-5.6,6.439-18.109,14.286-20.956,15.485s-2.427-.764-2.311-1.438c.067-.4.381-2.283.381-2.283a5.47,5.47,0,0,0-.087-2.412c-.3-.743-1.479-1.128-2.35-1.316-12.817-1.693-22.307-10.654-22.307-21.354,0-11.935,11.966-21.645,26.673-21.645s26.672,9.71,26.672,21.645c0,4.777-1.852,9.079-5.717,13.318Z" fill="#fff"/>
    <path id="Path_2" data-name="Path 2" d="M8444.692,7285.122H8437.2a.507.507,0,0,1-.508-.509v-.007h0v-11.621h0v-.011a.507.507,0,0,1,.508-.509h7.494a.51.51,0,0,1,.509.509v1.891a.51.51,0,0,1-.509.511H8439.6v1.963h5.093a.51.51,0,0,1,.509.51v1.89a.51.51,0,0,1-.509.511H8439.6v1.964h5.093a.51.51,0,0,1,.509.509v1.891a.508.508,0,0,1-.509.509" fill="#fff"/>
    <path id="Path_3" data-name="Path 3" d="M8416.974,7285.122a.508.508,0,0,0,.509-.509v-1.891a.51.51,0,0,0-.509-.509h-5.093v-9.24a.51.51,0,0,0-.509-.509h-1.894a.509.509,0,0,0-.509.509V7284.6h0v.007a.509.509,0,0,0,.509.509h7.5Z" fill="#fff"/>
    <path id="Path_4" data-name="Path 4" d="M8421.484,7272.464h-1.892a.508.508,0,0,0-.509.509v11.64a.508.508,0,0,0,.509.509h1.892a.509.509,0,0,0,.51-.509v-11.64a.509.509,0,0,0-.51-.509" fill="#fff"/>
    <path id="Path_5" data-name="Path 5" d="M8434.361,7272.464h-1.892a.509.509,0,0,0-.509.509v6.914l-5.325-7.193c-.013-.018-.028-.036-.042-.052l0,0a.3.3,0,0,0-.029-.032l-.011-.008c-.008-.008-.018-.015-.026-.024l-.015-.009-.026-.02-.016-.009-.027-.015-.018-.008-.029-.013-.017-.006-.031-.01-.019,0-.029-.007-.021,0a.232.232,0,0,1-.027,0h-1.926a.508.508,0,0,0-.509.509v11.64a.508.508,0,0,0,.509.509h1.892a.508.508,0,0,0,.509-.509V7277.7l5.333,7.2a.483.483,0,0,0,.131.129l.007,0a.148.148,0,0,0,.031.02l.016.008.023.011a.191.191,0,0,0,.025.012l.016.006a.283.283,0,0,0,.036.011l.007,0a.564.564,0,0,0,.134.016h1.88a.509.509,0,0,0,.51-.509v-11.64a.509.509,0,0,0-.51-.509" fill="#fff"/>
  </g>
</svg>
