<svg xmlns="http://www.w3.org/2000/svg" width="1274.086" height="1345.016" viewBox="0 0 1274.086 1345.016">
  <g id="Component_1_1" data-name="Component 1 – 1" transform="translate(0 1.517)">
    <g id="Group_498" data-name="Group 498" transform="translate(120)">
      <g id="Group_496" data-name="Group 496" transform="translate(14.667 0)">
        <g id="Group_15" data-name="Group 15">
          <line id="Line_6" data-name="Line 6" y1="1121.998" transform="translate(85.332 220)" fill="none" stroke="#fff" stroke-linecap="round" stroke-linejoin="round" stroke-width="3"/>
          <g id="Group_14" data-name="Group 14">
            <path id="Path_16" data-name="Path 16" d="M8488.718,1748.978a85.551,85.551,0,1,1-85.55-85.553A85.551,85.551,0,0,1,8488.718,1748.978Z" transform="translate(-8317.616 -1614.522)" fill="#f24c3b" stroke="#fff" stroke-linecap="round" stroke-linejoin="round" stroke-width="3"/>
            <path id="Path_17" data-name="Path 17" d="M8458.559,1748.975a55.393,55.393,0,1,1-55.391-55.4A55.39,55.39,0,0,1,8458.559,1748.975Z" transform="translate(-8317.616 -1614.522)" fill="#fff" stroke="#fff" stroke-linecap="round" stroke-linejoin="round" stroke-width="3"/>
            <path id="Path_18" data-name="Path 18" d="M8427.143,1748.975A23.976,23.976,0,1,1,8403.168,1725,23.972,23.972,0,0,1,8427.143,1748.975Z" transform="translate(-8317.616 -1614.522)" fill="#f24c3b" stroke="#fff" stroke-linecap="round" stroke-linejoin="round" stroke-width="3"/>
            <path id="Path_19" data-name="Path 19" d="M8528.363,1652.978l-22.407-4.626,10.661-11.449a5.647,5.647,0,1,0-8.267-7.695l-10.657,11.449-6.215-22.021a5.648,5.648,0,0,0-10.872,3.067l8.079,28.628-7.514,8.072-5.813-20.6a5.648,5.648,0,0,0-10.871,3.068l7.677,27.2-73.129,79.4a5.647,5.647,0,1,0,8.266,7.7l72.08-78.278,30.583,6.309a5.647,5.647,0,0,0,2.28-11.061l-23.856-4.922,8.564-9.2,29.128,6.014a5.709,5.709,0,0,0,1.148.117,5.647,5.647,0,0,0,1.135-11.178Z" transform="translate(-8317.616 -1614.522)" fill="#f24c3b" stroke="#fff" stroke-linecap="round" stroke-linejoin="round" stroke-width="3"/>
          </g>
        </g>
      </g>
      <g id="Group_505" data-name="Group 505" transform="translate(0 316.035)">
        <g id="Group_513" data-name="Group 513">
          <text id="_5" data-name="5" transform="translate(70 140)" fill="#fff" font-size="130" font-family="SegoeUI, Segoe UI"><tspan x="-70.078" y="0">5</tspan></text>
          <text id="จัดตั้งกองทุนควบคุมโรคตามแนวชายแดน_โดยเฉพาะกลุ่มบุคคลที่มีปัญหาความมั่นคง" data-name="จัดตั้งกองทุนควบคุมโรคตามแนวชายแดน 
โดยเฉพาะกลุ่มบุคคลที่มีปัญหาความมั่นคง" transform="translate(150 91.586)" font-size="35" font-family="LeelawadeeUI, Leelawadee UI"><tspan x="0" y="0">จัดตั้งกองทุนควบคุมโรคตามแนวชายแดน</tspan><tspan y="0" font-family="SegoeUI, Segoe UI"> </tspan><tspan x="0" y="50">โดยเฉพาะกลุ่มบุคคลที่มีปัญหาความมั่นคง</tspan></text>
        </g>
      </g>
      <g id="Group_512" data-name="Group 512">
        <text id="_4" data-name="4" transform="translate(70 629.035)" fill="#fff" font-size="130" font-family="SegoeUI, Segoe UI"><tspan x="-70.078" y="0">4</tspan></text>
        <text id="จัดตั้งอาสาสมัครสาธารณสุขชายแดน_อสช._โดยกลุ่มชาติพันธุ์" data-name="จัดตั้งอาสาสมัครสาธารณสุขชายแดน (อสช.) 
โดยกลุ่มชาติพันธุ์" transform="translate(155.086 579.848)" font-size="35" font-family="LeelawadeeUI, Leelawadee UI"><tspan x="0" y="0">จัดตั้งอาสาสมัครสาธารณสุขชายแดน</tspan><tspan y="0" xml:space="preserve" font-family="SegoeUI, Segoe UI"> (</tspan><tspan y="0">อสช</tspan><tspan y="0" font-family="SegoeUI, Segoe UI">.) </tspan><tspan x="0" y="50">โดยกลุ่มชาติพันธุ์</tspan></text>
      </g>
      <g id="Group_506" data-name="Group 506">
        <g id="Group_509" data-name="Group 509">
          <text id="_3" data-name="3" transform="translate(70 802.034)" fill="#fff" font-size="130" font-family="SegoeUI, Segoe UI"><tspan x="-70.078" y="0">3</tspan></text>
          <text id="ปรับปรุงระบบเบิกจ่ายและระบบสนับสนุนเพื่อลดภาระผู้ปฏิบัติงาน" transform="translate(155.086 763.034)" font-size="35" font-family="LeelawadeeUI, Leelawadee UI"><tspan x="0" y="0">ปรับปรุงระบบเบิกจ่ายและระบบสนับสนุนเพื่อลดภาระผู้ปฏิบัติงาน</tspan></text>
        </g>
      </g>
      <g id="Group_507" data-name="Group 507">
        <g id="Group_510" data-name="Group 510">
          <text id="_2" data-name="2" transform="translate(70 975.034)" fill="#fff" font-size="130" font-family="SegoeUI, Segoe UI"><tspan x="-70.078" y="0">2</tspan></text>
          <text id="พัฒนาการบริหารจัดการกองทุน_ให้มีประสิทธิภาพยิ่งขึ้น_" data-name="พัฒนาการบริหารจัดการกองทุนฯ ให้มีประสิทธิภาพยิ่งขึ้น " transform="translate(155.086 936.034)" font-size="35" font-family="LeelawadeeUI, Leelawadee UI"><tspan x="0" y="0">พัฒนาการบริหารจัดการกองทุนฯ</tspan><tspan y="0" font-family="SegoeUI, Segoe UI"> </tspan><tspan y="0">ให้มีประสิทธิภาพยิ่งขึ้น</tspan><tspan y="0" font-family="SegoeUI, Segoe UI"> </tspan></text>
        </g>
      </g>
      <g id="Group_508" data-name="Group 508">
        <g id="Group_511" data-name="Group 511">
          <text id="_1" data-name="1" transform="translate(72 1150.621)" fill="#fff" font-size="130" font-family="SegoeUI, Segoe UI"><tspan x="-70.078" y="0">1</tspan></text>
          <text id="ขยายสิทธิประโยชน์ให้เท่าเทียมกับระบบหลักประกันสุขภาพถ้วนหน้า_เน้นการบริหารเชิงรุก_และลดอุปสรรคการเข้าถึงบริการ_เช่น_ภาษาในการสื่อสาร" data-name="ขยายสิทธิประโยชน์ให้เท่าเทียมกับระบบหลักประกันสุขภาพถ้วนหน้า 
เน้นการบริหารเชิงรุก และลดอุปสรรคการเข้าถึงบริการ
เช่น ภาษาในการสื่อสาร" transform="translate(155.086 1061.621)" font-size="35" font-family="LeelawadeeUI, Leelawadee UI"><tspan x="0" y="0">ขยายสิทธิประโยชน์ให้เท่าเทียมกับระบบหลักประกันสุขภาพถ้วนหน้า</tspan><tspan y="0" font-family="SegoeUI, Segoe UI"> </tspan><tspan x="0" y="50">เน้นการบริหารเชิงรุก</tspan><tspan y="50" font-family="SegoeUI, Segoe UI"> </tspan><tspan y="50">และลดอุปสรรคการเข้าถึงบริการ</tspan><tspan y="50" font-family="SegoeUI, Segoe UI"></tspan><tspan x="0" y="100">เช่น</tspan><tspan y="100" font-family="SegoeUI, Segoe UI"> </tspan><tspan y="100">ภาษาในการสื่อสาร</tspan></text>
        </g>
      </g>
    </g>
  </g>
</svg>
